<svg xmlns="http://www.w3.org/2000/svg" width="70" height="69.782" viewBox="0 0 70 69.782">
  <g id="api_1_" data-name="api(1)" transform="translate(0 -0.8)">
    <g id="Group_14030" data-name="Group 14030" transform="translate(6.75 40.644)">
      <rect id="Rectangle_5909" data-name="Rectangle 5909" width="2.177" height="2.177" fill="#193651"/>
      <rect id="Rectangle_5910" data-name="Rectangle 5910" width="2.177" height="2.177" transform="translate(0 6.423)" fill="#193651"/>
      <rect id="Rectangle_5911" data-name="Rectangle 5911" width="2.177" height="2.177" transform="translate(0 12.955)" fill="#193651"/>
    </g>
    <path id="Path_22948" data-name="Path 22948" d="M148.79,166.062a21.57,21.57,0,0,0,.544,6.967l-4.246,3.157,3.157,6.1,5.008-1.633a21.256,21.256,0,0,0,5.334,4.572l-.762,5.117,6.532,2.068,2.4-4.681a21.57,21.57,0,0,0,6.967-.544l3.157,4.246,6.1-3.157-1.633-5.008a18.823,18.823,0,0,0,4.463-5.334l5.226.762,2.068-6.532-4.681-2.5a21.57,21.57,0,0,0-.544-6.967l4.246-3.157-3.266-6.1-5.008,1.633a21.257,21.257,0,0,0-5.334-4.572l.762-5.225L172.74,143.2l-2.4,4.79a21.57,21.57,0,0,0-6.967.544l-3.157-4.246-6.1,3.157,1.633,5.008a18.824,18.824,0,0,0-4.463,5.334l-5.226-.762L144,163.558Z" transform="translate(-124.404 -123.022)" fill="#fff"/>
    <circle id="Ellipse_754" data-name="Ellipse 754" cx="15.785" cy="15.785" r="15.785" transform="translate(28.333 29.098)" fill="#ffd5e1"/>
    <g id="Group_14031" data-name="Group 14031" transform="translate(31.571 38.358)">
      <path id="Path_22949" data-name="Path 22949" d="M240.274,288.993h-1.633v-8.056a2.5,2.5,0,0,0-5.008,0v8.056H232v-8.056a4.137,4.137,0,1,1,8.274,0Z" transform="translate(-232 -276.8)" fill="#760018"/>
      <path id="Path_22950" data-name="Path 22950" d="M310.433,288.993H308.8V276.8h4.355a3.159,3.159,0,0,1,3.157,3.157v1.415a3.159,3.159,0,0,1-3.157,3.157h-2.722Zm0-6.1h2.722a1.488,1.488,0,0,0,1.524-1.524v-1.415a1.488,1.488,0,0,0-1.524-1.524h-2.722Z" transform="translate(-298.349 -276.8)" fill="#760018"/>
      <path id="Path_22951" data-name="Path 22951" d="M380.79,278.433V276.8H376v1.633h1.633v9.689H376v1.633h4.79v-1.633h-1.524v-9.689Z" transform="translate(-356.404 -276.8)" fill="#760018"/>
      <rect id="Rectangle_5912" data-name="Rectangle 5912" width="6.641" height="1.633" transform="translate(0.762 5.334)" fill="#760018"/>
    </g>
    <path id="Path_22952" data-name="Path 22952" d="M44.579,19.251v-.327a10.136,10.136,0,0,0-18.942-5.008,6.889,6.889,0,0,0-4.681-1.742A7.249,7.249,0,0,0,13.77,19.36v.109a9.205,9.205,0,0,0,3.375,17.745H41.966a9.129,9.129,0,0,0,9.145-9.145A8.775,8.775,0,0,0,44.579,19.251Z" transform="translate(-6.911 -6.911)" fill="#fff"/>
    <path id="Path_22953" data-name="Path 22953" d="M65.1,45.979a17.984,17.984,0,0,0-.544-5.879l4.355-3.266L64.883,29.1l-5.226,1.742a19.367,19.367,0,0,0-4.572-3.81l.871-5.443L47.683,18.98l-2.4,4.9H45.07a10.968,10.968,0,0,0,.327-2.722,10.277,10.277,0,0,0-6.641-9.58A11.183,11.183,0,0,0,27.543.8,11.4,11.4,0,0,0,18.4,5.481a8.727,8.727,0,0,0-4.355-1.2A8.3,8.3,0,0,0,5.77,11.9,10.108,10.108,0,0,0,0,21.158,10.221,10.221,0,0,0,10.233,31.391H27.869c-.544.762-1.089,1.415-1.633,2.286l-5.443-.871-2.5,8.383,4.9,2.4a17.984,17.984,0,0,0,.544,5.879l-4.355,3.266,4.028,7.729,5.226-1.742a19.367,19.367,0,0,0,4.572,3.81l-.871,5.443,8.274,2.613,2.4-4.9a21.536,21.536,0,0,0,5.879-.544l3.266,4.355,7.729-4.028L58.134,60.24a19.367,19.367,0,0,0,3.81-4.572l5.443.871L70,48.156ZM2.286,21.158A7.9,7.9,0,0,1,7.4,13.646l.653-.435v-.762a6.086,6.086,0,0,1,6.1-6.1,6.4,6.4,0,0,1,3.919,1.415l.98.871.762-1.089a9.024,9.024,0,0,1,16.874,4.463v1.2l.762.218a8.165,8.165,0,0,1,5.879,7.838,8.038,8.038,0,0,1-8.056,8.056H10.342A8.131,8.131,0,0,1,2.286,21.158Zm63.577,33.2L60.855,53.6l-.435.653a17.49,17.49,0,0,1-4.246,5.117l-.544.435,1.633,4.79L52.8,66.881l-3.048-4.137-.762.218a19.4,19.4,0,0,1-6.641.544l-.762-.109-2.177,4.681-4.79-1.524.762-5.008-.653-.327a19.018,19.018,0,0,1-5.117-4.246l-.435-.544-4.79,1.633L22.1,53.6l4.137-3.048-.218-.762a19.4,19.4,0,0,1-.544-6.641l.109-.762L20.9,40.1l1.524-4.79,5.008.762.327-.653A18.014,18.014,0,0,1,30.809,31.5h4.246a10.193,10.193,0,0,0,9.036-5.443,8.24,8.24,0,0,1,1.633.109l.762.109L48.771,21.7l4.79,1.524-.653,4.9.653.327A19.018,19.018,0,0,1,58.678,32.7l.435.544,4.79-1.633,2.286,4.463L62.053,39.12l.218.762a19.4,19.4,0,0,1,.544,6.641l-.109.762,4.572,2.286Z" fill="#760018"/>
    <path id="Path_22954" data-name="Path 22954" d="M164.1,87.36h5.552V81.808l-1.633,1.633L161.486,76.8,159.2,79.086l6.641,6.641Z" transform="translate(-137.536 -65.658)" fill="#760018"/>
    <path id="Path_22955" data-name="Path 22955" d="M99.152,100.8H93.6v5.552l1.742-1.633,6.532,6.641,2.286-2.286-6.641-6.641Z" transform="translate(-80.863 -86.392)" fill="#fdc400"/>
  </g>
</svg>
