<svg xmlns="http://www.w3.org/2000/svg" width="38" height="38" viewBox="0 0 38 38">
  <g id="Group_16671" data-name="Group 16671" transform="translate(-20 -269)">
    <circle id="Ellipse_933" data-name="Ellipse 933" cx="19" cy="19" r="19" transform="translate(20 269)" fill="#fff"/>
    <g id="bank" transform="translate(24.447 270.365)">
      <g id="Group_16670" data-name="Group 16670">
        <path id="Path_23446" data-name="Path 23446" d="M71.252,200.982h2.29v6.579h-2.29Z" transform="translate(-63.693 -185.43)" fill="#760018"/>
        <path id="Path_23447" data-name="Path 23447" d="M380.25,200.982h2.29v6.579h-2.29Z" transform="translate(-360.994 -185.43)" fill="#760018"/>
        <path id="Path_23449" data-name="Path 23449" d="M23.8,12.1,14.7,8.286a.379.379,0,0,0-.293,0L5.285,12.109a.379.379,0,0,0,.146.728H6.471v1.608a.379.379,0,0,0,.379.379H10.54a.379.379,0,0,0,.379-.379V12.837h7.268v1.608a.379.379,0,0,0,.379.379h3.691a.379.379,0,0,0,.379-.379V12.837h1.04a.379.379,0,0,0,.13-.734Zm-9.252-.355A1.05,1.05,0,1,1,15.6,10.7,1.051,1.051,0,0,1,14.553,11.748Z" fill="#760018"/>
        <path id="Path_23450" data-name="Path 23450" d="M29.413,397.749h-.8v-1.608a.379.379,0,0,0-.379-.379H24.539a.379.379,0,0,0-.379.379v1.608H16.893v-1.608a.379.379,0,0,0-.379-.379H12.823a.379.379,0,0,0-.379.379v1.608h-.8a.379.379,0,0,0-.379.379v1.344a.379.379,0,0,0,.379.379H29.413a.379.379,0,0,0,.379-.379v-1.344A.379.379,0,0,0,29.413,397.749Z" transform="translate(-5.975 -372.836)" fill="#760018"/>
      </g>
      <g id="rupee-indian_3_" data-name="rupee-indian (3)" transform="translate(-60.164 15.635)">
        <path id="Path_23451" data-name="Path 23451" d="M76.588,1.357a.132.132,0,0,0-.1-.038h-.727A1.472,1.472,0,0,0,75.49.706h.991A.131.131,0,0,0,76.618.57V.136A.131.131,0,0,0,76.481,0H72.942a.131.131,0,0,0-.136.136V.7a.138.138,0,0,0,.136.136h.617q.9,0,1.14.481H72.942a.131.131,0,0,0-.136.136v.434a.131.131,0,0,0,.136.136h1.817a.831.831,0,0,1-.436.532,1.92,1.92,0,0,1-.9.183h-.476a.138.138,0,0,0-.136.136v.54a.127.127,0,0,0,.038.094q.817.868,2.119,2.429a.125.125,0,0,0,.106.051h.83a.123.123,0,0,0,.123-.077.116.116,0,0,0-.017-.145q-1.242-1.523-1.953-2.28a2.157,2.157,0,0,0,1.174-.468,1.59,1.59,0,0,0,.549-1h.715a.131.131,0,0,0,.136-.136V1.455A.132.132,0,0,0,76.588,1.357Z" transform="translate(0 0)" fill="#760018"/>
      </g>
    </g>
  </g>
</svg>
