<svg xmlns="http://www.w3.org/2000/svg" width="180.359" height="35.355" viewBox="0 0 180.359 35.355">
  <g id="layer1" transform="translate(-520.756 -88.937)">
    <path id="path2898" d="M520.756,88.937H701.115v35.355H520.756V88.937Z" fill="#760018" fill-rule="evenodd"/>
    <path id="path2900" d="M598.584,115.155h.821l-.164.89h-.82l.162-.89Z" fill="#fff"/>
    <path id="path2902" d="M600.1,115.155h.821l-.162.89h-.821Z" fill="#fff"/>
    <path id="path2904" d="M601.616,115.155h.82l-.162.89h-.821l.164-.89Z" fill="#fff"/>
    <path id="path2906" d="M604.3,116.069c-.124.01-.28.015-.47.015a.749.749,0,0,1-.559-.158.627.627,0,0,1-.074-.539l.365-1.98h-.4l.114-.613h.4l.159-.875h.765l-.16.875h.461l-.115.613h-.461l-.338,1.834a.144.144,0,0,0,.04.149.347.347,0,0,0,.205.045l.184-.011-.117.645Z" fill="#fff"/>
    <path id="path2908" d="M604.789,116.045l.81-4.391h.764l-.286,1.556.074-.084a1.122,1.122,0,0,1,.88-.418.775.775,0,0,1,.68.3,1.056,1.056,0,0,1,.111.823l-.409,2.216h-.763l.37-2.007a.7.7,0,0,0-.032-.46.348.348,0,0,0-.329-.15.681.681,0,0,0-.5.2.99.99,0,0,0-.268.552l-.343,1.866h-.764Z" fill="#fff"/>
    <path id="path2910" d="M609.321,116.131a1.187,1.187,0,0,1-.87-.3,1.173,1.173,0,0,1-.3-.866c0-.08.007-.165.016-.256s.021-.184.037-.277a2.366,2.366,0,0,1,.6-1.268,1.478,1.478,0,0,1,1.1-.456,1.077,1.077,0,0,1,.826.3,1.242,1.242,0,0,1,.28.879c0,.094-.006.2-.016.306s-.029.224-.052.341l-.02.1h-1.985l0,.043a1.279,1.279,0,0,0-.011.17.656.656,0,0,0,.135.444.515.515,0,0,0,.4.147.684.684,0,0,0,.354-.094.532.532,0,0,0,.227-.246h.773a1.707,1.707,0,0,1-.6.753,1.512,1.512,0,0,1-.88.277m.917-2.051h0l0-.114a.617.617,0,0,0-.119-.418.45.45,0,0,0-.36-.136.612.612,0,0,0-.508.266,1.4,1.4,0,0,0-.2.4h1.184Z" fill="#fff"/>
    <path id="path2912" d="M612.672,116.045l.6-3.25h.743l-.085.466.106-.135a1.121,1.121,0,0,1,.878-.418.772.772,0,0,1,.68.3,1.051,1.051,0,0,1,.111.823l-.409,2.216h-.763l.37-2.007a.687.687,0,0,0-.032-.46.348.348,0,0,0-.329-.15.683.683,0,0,0-.5.2,1,1,0,0,0-.268.552l-.341,1.866h-.764Z" fill="#fff"/>
    <path id="path2914" d="M616.713,116.131a.793.793,0,0,1-.56-.189.688.688,0,0,1-.2-.527,1.132,1.132,0,0,1,.007-.122c0-.046.011-.09.019-.135a1.239,1.239,0,0,1,.359-.68,1.223,1.223,0,0,1,.693-.338l.644-.1a.642.642,0,0,0,.17-.051.331.331,0,0,0,.155-.129.363.363,0,0,0,.051-.2.241.241,0,0,0-.073-.183.544.544,0,0,0-.357-.088.506.506,0,0,0-.335.116.734.734,0,0,0-.215.341h-.722a1.365,1.365,0,0,1,.49-.849,1.592,1.592,0,0,1,.992-.289,1.137,1.137,0,0,1,.814.244.64.64,0,0,1,.184.485,1.1,1.1,0,0,1-.021.224l-.329,1.771a1.139,1.139,0,0,0-.024.33.206.206,0,0,0,.094.16v0l-.021.115h-.828a1.664,1.664,0,0,1,.005-.379,1.349,1.349,0,0,1-.987.469m1.12-1.269.071-.395a.823.823,0,0,1-.24.1l-.307.067a1.133,1.133,0,0,0-.436.174.488.488,0,0,0-.169.305h0c0,.019-.006.04-.009.059s0,.039,0,.058a.28.28,0,0,0,.079.213.306.306,0,0,0,.22.074.827.827,0,0,0,.641-.323.557.557,0,0,0,.091-.149.838.838,0,0,0,.061-.185" fill="#fff"/>
    <path id="path2916" d="M619.032,116.045l.6-3.25h.744l-.088.46.116-.155a1.011,1.011,0,0,1,.8-.391.694.694,0,0,1,.612.269.606.606,0,0,1,.109.261l.1-.139a.956.956,0,0,1,.77-.391.768.768,0,0,1,.674.295.829.829,0,0,1,.141.507,1.5,1.5,0,0,1-.029.309l-.411,2.225h-.764l.384-2.106a.551.551,0,0,0-.024-.385.3.3,0,0,0-.278-.126.568.568,0,0,0-.424.165.918.918,0,0,0-.224.493l-.359,1.96h-.765l.384-2.081a.6.6,0,0,0-.028-.4.308.308,0,0,0-.289-.132.545.545,0,0,0-.414.165.945.945,0,0,0-.22.493l-.357,1.96h-.765Z" fill="#fff"/>
    <path id="path2918" d="M625.086,116.131a1.186,1.186,0,0,1-.869-.3,1.173,1.173,0,0,1-.3-.866c0-.08.007-.165.016-.256s.021-.184.037-.277a2.357,2.357,0,0,1,.6-1.268,1.476,1.476,0,0,1,1.1-.456,1.072,1.072,0,0,1,.825.3,1.242,1.242,0,0,1,.28.879,2.99,2.99,0,0,1-.016.306c-.011.11-.028.224-.051.341l-.02.1h-1.985l-.005.043a1.279,1.279,0,0,0-.011.17.655.655,0,0,0,.136.444.512.512,0,0,0,.4.147.688.688,0,0,0,.355-.094.535.535,0,0,0,.226-.246h.773a1.7,1.7,0,0,1-.6.753,1.51,1.51,0,0,1-.88.277M626,114.08h0l0-.114a.624.624,0,0,0-.117-.418.452.452,0,0,0-.361-.136.614.614,0,0,0-.508.266,1.464,1.464,0,0,0-.2.4H626Z" fill="#fff"/>
    <path id="path2920" d="M631.638,112.795l-1.579,3.226a4.8,4.8,0,0,1-.682,1.141.97.97,0,0,1-.71.243,2.454,2.454,0,0,1-.355-.021l.125-.681a.465.465,0,0,0,.15.012.54.54,0,0,0,.425-.135,1.5,1.5,0,0,0,.2-.389l-.459-3.4h.853l.176,2.425,1.056-2.425h.805Z" fill="#fff"/>
    <path id="path2922" d="M632.781,116.131a1.189,1.189,0,0,1-.888-.332,1.248,1.248,0,0,1-.329-.906,1.956,1.956,0,0,1,.011-.223c.009-.082.019-.162.034-.238a2.257,2.257,0,0,1,.633-1.259,1.631,1.631,0,0,1,1.17-.465,1.178,1.178,0,0,1,.889.336,1.268,1.268,0,0,1,.326.919,2.216,2.216,0,0,1-.014.226c-.009.082-.02.165-.035.243a2.18,2.18,0,0,1-.63,1.24,1.637,1.637,0,0,1-1.167.459m.134-.719a.715.715,0,0,0,.568-.257,1.631,1.631,0,0,0,.316-.774c.01-.056.019-.113.024-.168a1.443,1.443,0,0,0,.009-.152.7.7,0,0,0-.144-.467.51.51,0,0,0-.407-.166.711.711,0,0,0-.568.261,1.7,1.7,0,0,0-.319.789c-.009.052-.016.106-.023.16a.876.876,0,0,0-.006.15.672.672,0,0,0,.143.461.511.511,0,0,0,.407.164" fill="#fff"/>
    <path id="path2924" d="M636.176,112.795,635.8,114.8a.69.69,0,0,0,.029.46.349.349,0,0,0,.329.15.673.673,0,0,0,.494-.2.985.985,0,0,0,.266-.551l.344-1.866h.768l-.6,3.25H636.7l.084-.475a1.09,1.09,0,0,1-.109.144,1.115,1.115,0,0,1-.876.418.741.741,0,0,1-.677-.327,1,1,0,0,1-.133-.539,2.016,2.016,0,0,1,.037-.368l.389-2.1h.765Z" fill="#fff"/>
    <path id="path2926" d="M642.378,114.859h0a1.883,1.883,0,0,1-.606.929,1.476,1.476,0,0,1-.963.344,1.057,1.057,0,0,1-.8-.293,1.176,1.176,0,0,1-.28-.845,2.661,2.661,0,0,1,.015-.271c.01-.1.024-.194.041-.29a2.35,2.35,0,0,1,.6-1.268,1.49,1.49,0,0,1,1.1-.456,1.037,1.037,0,0,1,.836.327,1.053,1.053,0,0,1,.23.717l-.011.2h-.773a.686.686,0,0,0-.11-.4.366.366,0,0,0-.3-.125.6.6,0,0,0-.494.261,1.916,1.916,0,0,0-.295.785q-.015.1-.026.2a1.765,1.765,0,0,0-.011.184.714.714,0,0,0,.107.421.346.346,0,0,0,.3.15.609.609,0,0,0,.405-.158.872.872,0,0,0,.264-.411h.773Z" fill="#fff"/>
    <path id="path2928" d="M643.394,116.131a.791.791,0,0,1-.56-.189.688.688,0,0,1-.2-.527c0-.036,0-.076.006-.122s.013-.09.02-.135a1.235,1.235,0,0,1,1.05-1.018l.645-.1a.642.642,0,0,0,.17-.051.337.337,0,0,0,.155-.129.363.363,0,0,0,.051-.2.241.241,0,0,0-.073-.183.546.546,0,0,0-.357-.088.506.506,0,0,0-.335.116.745.745,0,0,0-.216.341h-.721a1.365,1.365,0,0,1,.49-.849,1.589,1.589,0,0,1,.992-.289,1.132,1.132,0,0,1,.813.244.631.631,0,0,1,.184.485.989.989,0,0,1-.02.224l-.329,1.771a1.139,1.139,0,0,0-.024.33.206.206,0,0,0,.094.16v0l-.021.115h-.828a1.664,1.664,0,0,1,.005-.379,1.349,1.349,0,0,1-.987.469m1.12-1.269.071-.395a.823.823,0,0,1-.24.1l-.309.067a1.134,1.134,0,0,0-.435.174.482.482,0,0,0-.169.305h0c0,.019-.006.04-.009.059s0,.039,0,.058a.28.28,0,0,0,.079.213.306.306,0,0,0,.22.074.827.827,0,0,0,.641-.323.554.554,0,0,0,.091-.149.838.838,0,0,0,.061-.185" fill="#fff"/>
    <path id="path2930" d="M645.718,116.045l.6-3.25h.742l-.086.466.107-.135a1.119,1.119,0,0,1,.878-.418.77.77,0,0,1,.679.3,1.056,1.056,0,0,1,.112.823l-.409,2.216h-.764l.37-2.007a.7.7,0,0,0-.031-.46.349.349,0,0,0-.329-.15.681.681,0,0,0-.5.2.99.99,0,0,0-.268.552l-.343,1.866h-.764Z" fill="#fff"/>
    <path id="path2932" d="M650.627,116.045l.81-4.391h1.926a1.1,1.1,0,0,1,.745.228.832.832,0,0,1,.261.654c0,.052-.005.107-.011.166a1.752,1.752,0,0,1-.024.177,1.07,1.07,0,0,1-.49.716.93.93,0,0,1-.135.081.65.65,0,0,1,.149.089.792.792,0,0,1,.295.664c0,.046,0,.094-.008.145a1.671,1.671,0,0,1-.588,1.121,1.8,1.8,0,0,1-1.139.35h-1.792Zm1.484-3.624-.175.948h.961a.749.749,0,0,0,.444-.115.54.54,0,0,0,.2-.354c0-.026.006-.05.01-.074s0-.046,0-.073a.284.284,0,0,0-.114-.253.663.663,0,0,0-.366-.08h-.966Zm-.316,1.7-.211,1.159h.94a.873.873,0,0,0,.53-.141.657.657,0,0,0,.244-.433c.006-.034.011-.065.015-.092a.341.341,0,0,0,0-.077.379.379,0,0,0-.128-.312.608.608,0,0,0-.388-.1H651.8Z" fill="#fff"/>
    <path id="path2934" d="M654.261,116.045l2.24-4.391h.943l.549,4.391H657.1l-.088-.92h-1.451l-.435.92h-.865Zm2.51-3.424-.855,1.779h1.029l-.176-1.779h0Z" fill="#fff"/>
    <path id="path2936" d="M659.228,116.045h-.762l.81-4.391h.859l1.011,3.11.575-3.11h.761l-.81,4.391h-.812l-1.052-3.158-.579,3.158Z" fill="#fff"/>
    <path id="path2938" d="M662.5,116.045l.81-4.391h.816l-.333,1.808,1.86-1.808h1.05l-1.93,1.824,1.19,2.567h-1.058l-.828-1.915-.5.471-.266,1.444H662.5Z" fill="#fff"/>
    <path id="path2940" d="M669.212,112.795l-.371,2.007a.683.683,0,0,0,.029.46.349.349,0,0,0,.329.15.673.673,0,0,0,.494-.2.985.985,0,0,0,.266-.551l.344-1.866h.768l-.6,3.25h-.739l.084-.475a1.1,1.1,0,0,1-.109.144,1.115,1.115,0,0,1-.876.418.741.741,0,0,1-.677-.327,1,1,0,0,1-.133-.539,2.126,2.126,0,0,1,.036-.368l.39-2.1h.765Z" fill="#fff"/>
    <path id="path2942" d="M671.75,112.795h.718l-.083.466.057-.069a1.255,1.255,0,0,1,.948-.484.845.845,0,0,1,.691.3,1.276,1.276,0,0,1,.249.836c0,.081-.008.173-.016.275s-.024.2-.041.3a2.474,2.474,0,0,1-.574,1.224,1.283,1.283,0,0,1-.963.488.76.76,0,0,1-.745-.46l-.005-.011-.306,1.658h-.764Zm.9,2.632a.67.67,0,0,0,.518-.266,1.484,1.484,0,0,0,.306-.7c.011-.065.021-.129.029-.192a1.163,1.163,0,0,0,.008-.183.742.742,0,0,0-.129-.466.437.437,0,0,0-.366-.166.666.666,0,0,0-.511.266,1.4,1.4,0,0,0-.3.681h0a1.332,1.332,0,0,0,.025.76.423.423,0,0,0,.424.268" fill="#fff"/>
    <path id="path2944" d="M675.813,116.131a1.189,1.189,0,0,1-.888-.332,1.248,1.248,0,0,1-.329-.906,1.969,1.969,0,0,1,.011-.223,2.4,2.4,0,0,1,.034-.238,2.257,2.257,0,0,1,.633-1.259,1.631,1.631,0,0,1,1.17-.465,1.178,1.178,0,0,1,.889.336,1.268,1.268,0,0,1,.326.919,2.216,2.216,0,0,1-.014.226c-.009.082-.02.165-.035.243a2.18,2.18,0,0,1-.63,1.24,1.637,1.637,0,0,1-1.167.459m.134-.719a.715.715,0,0,0,.568-.257,1.631,1.631,0,0,0,.316-.774c.01-.056.019-.113.024-.168a1.443,1.443,0,0,0,.009-.152.7.7,0,0,0-.144-.467.51.51,0,0,0-.407-.166.711.711,0,0,0-.568.261,1.7,1.7,0,0,0-.319.789c-.01.052-.016.106-.023.16a.876.876,0,0,0-.006.15.672.672,0,0,0,.143.461.511.511,0,0,0,.407.164" fill="#fff"/>
    <path id="path2946" d="M677.836,116.045l.6-3.25h.744l-.086.466.106-.135a1.124,1.124,0,0,1,.879-.418.772.772,0,0,1,.679.3,1.056,1.056,0,0,1,.112.823l-.41,2.216H679.7l.37-2.007a.7.7,0,0,0-.031-.46.351.351,0,0,0-.33-.15.685.685,0,0,0-.5.2,1.006,1.006,0,0,0-.268.552l-.341,1.866h-.764Z" fill="#fff"/>
    <path id="path2948" d="M681.748,114.841l.171-2.105.2-1.061h.839l-.2,1.061-.607,2.105h-.4Zm-.264.34h.8l-.156.864h-.8Z" fill="#fff"/>
    <path id="path2950" d="M554.6,95.873h5.054v19.646H554.6v-4.834c-4.425,1.65-8.57,1.8-12.4-1.985-1.586-1.669-2.463-3.933-2.086-7.9a13.136,13.136,0,0,0-.944-4.611h4.489c2.088,3.372-.65,7.317,2.569,10.066,4.37,2.872,8.19-.549,8.367-3.664V95.873Zm-5.02,2.116a4.324,4.324,0,1,1-4.333,4.325,4.337,4.337,0,0,1,4.333-4.325" fill="#fbbc09" fill-rule="evenodd"/>
    <path id="path2952" d="M567,102.138a3.565,3.565,0,0,1,3.529,3.589,3.462,3.462,0,0,1-4.6,3.261v-1.632a1.822,1.822,0,0,0,2.826-1.5,1.882,1.882,0,1,0-3.764,0c0,2.2-.049,4.408-.049,6.613h-1.469v-6.744l.015-.335A3.47,3.47,0,0,1,567,102.138" fill="#fff" fill-rule="evenodd"/>
    <path id="path2954" d="M571.053,102.441h1.552v3.525a1.519,1.519,0,1,0,3.034,0v-3.525h1.555v3.618c.154,4.491-6.371,4.184-6.141,0Z" fill="#fff" fill-rule="evenodd"/>
    <path id="path2956" d="M578.016,109.115h1.552v-3.526a1.519,1.519,0,1,1,3.034,0v3.526h1.556V105.5c.153-4.491-6.372-4.184-6.143,0Z" fill="#fff" fill-rule="evenodd"/>
    <path id="path2958" d="M599.385,109.369a3.565,3.565,0,0,0,3.529-3.589,3.464,3.464,0,0,0-4.6-3.262v1.632a1.823,1.823,0,0,1,2.826,1.5,1.882,1.882,0,1,1-3.764,0c0-2.2-.047-4.409-.047-6.614h-1.47v6.745l.016.334a3.469,3.469,0,0,0,3.513,3.255" fill="#fff" fill-rule="evenodd"/>
    <path id="path2960" d="M584.586,104.061v-1.605h3.079v6.5a3.613,3.613,0,0,1-3.374,3.753v-1.457a2.384,2.384,0,0,0,1.773-2.321v-4.864h-1.477Z" fill="#fff" fill-rule="evenodd"/>
    <path id="path2962" d="M588.232,106.215a3.581,3.581,0,0,1,2.568-3.655,3.258,3.258,0,0,1,4.33,3.1v3.371h-1.436l.011-3.421a1.9,1.9,0,0,0-3.44-.736,1.866,1.866,0,0,0,.609,2.609,3.59,3.59,0,0,0,1.872.16V109.1a3.358,3.358,0,0,1-3.521-.8,3.706,3.706,0,0,1-.992-2.081" fill="#fff" fill-rule="evenodd"/>
    <path id="path2964" d="M605.3,109.115h1.552v-3.526a1.519,1.519,0,1,1,3.034,0v3.526h1.555V105.5c.154-4.491-6.372-4.184-6.141,0Z" fill="#fff" fill-rule="evenodd"/>
    <path id="path2966" d="M612.133,106.215a3.581,3.581,0,0,1,2.568-3.655,3.258,3.258,0,0,1,4.33,3.1v3.371h-1.436l.011-3.421a1.9,1.9,0,0,0-3.44-.736,1.866,1.866,0,0,0,.609,2.609,3.59,3.59,0,0,0,1.872.16V109.1a3.358,3.358,0,0,1-3.521-.8,3.706,3.706,0,0,1-.992-2.081" fill="#fff" fill-rule="evenodd"/>
    <path id="path2968" d="M634.068,109.115h1.552v-3.526a1.519,1.519,0,1,1,3.034,0v3.526h1.555V105.5c.154-4.491-6.372-4.184-6.141,0Z" fill="#fff" fill-rule="evenodd"/>
    <path id="path2970" d="M640.9,106.215a3.583,3.583,0,0,1,2.568-3.655,3.258,3.258,0,0,1,4.33,3.1v3.371h-1.435l.01-3.421a1.9,1.9,0,0,0-3.44-.736,1.866,1.866,0,0,0,.609,2.609,3.59,3.59,0,0,0,1.872.16V109.1a3.358,3.358,0,0,1-3.521-.8,3.706,3.706,0,0,1-.992-2.081" fill="#fff" fill-rule="evenodd"/>
    <path id="path2972" d="M625.043,99.216a1.231,1.231,0,1,1-1.231,1.23,1.231,1.231,0,0,1,1.231-1.23" fill="#fff" fill-rule="evenodd"/>
    <path id="path2974" d="M624.246,102.508h1.737v6.607h-1.737Z" fill="#fff" fill-rule="evenodd"/>
    <path id="path2976" d="M619.878,100.209h1.665v2.323h2.028v1.6h-2.028v1.09c-.06,1.941.546,2.364,1.93,2.71l-.005,1.306c-2.67.23-3.615-1.378-3.59-4.016v-5.01Z" fill="#fff" fill-rule="evenodd"/>
    <path id="path2978" d="M630.036,102.479a3.444,3.444,0,1,1-3.444,3.444,3.45,3.45,0,0,1,3.444-3.444m0,1.654a1.79,1.79,0,1,1-1.79,1.79,1.794,1.794,0,0,1,1.79-1.79" fill="#fff" fill-rule="evenodd"/>
    <path id="path2980" d="M662.937,106.215a3.581,3.581,0,0,1,2.568-3.655,3.258,3.258,0,0,1,4.33,3.1v3.371H668.4l.011-3.421a1.9,1.9,0,0,0-3.44-.736,1.865,1.865,0,0,0,.607,2.609,3.593,3.593,0,0,0,1.872.16V109.1a3.357,3.357,0,0,1-3.52-.8,3.706,3.706,0,0,1-.992-2.081" fill="#fff" fill-rule="evenodd"/>
    <path id="path2982" d="M670.732,109.115h1.552v-3.526a1.519,1.519,0,1,1,3.032,0v3.526h1.556V105.5c.153-4.491-6.372-4.184-6.141,0Z" fill="#fff" fill-rule="evenodd"/>
    <path id="path2984" d="M658.95,109.369a3.566,3.566,0,0,0,3.529-3.589,3.464,3.464,0,0,0-4.6-3.262v1.632a1.824,1.824,0,0,1,2.828,1.5,1.882,1.882,0,1,1-3.764,0c0-2.2-.049-4.409-.049-6.614h-1.47v6.745l.016.334a3.471,3.471,0,0,0,3.514,3.255" fill="#fff" fill-rule="evenodd"/>
    <path id="path2986" d="M648.628,99.159h1.514v5.591c-.091,2.243.9,2.806,2.5,3.025l-.005,1.457c-2.981.257-4.035-1.537-4.008-4.482Z" fill="#fff" fill-rule="evenodd"/>
    <path id="path2988" d="M677.672,99.08h1.7v5.189a3.32,3.32,0,0,1,3.034-2.309,2.8,2.8,0,0,1,.29.015V103.6a2.213,2.213,0,0,0,0,4.386v1.423c-.1.009-.193.015-.29.015a3.321,3.321,0,0,1-3.034-2.31v2h-1.7V99.08Z" fill="#fff" fill-rule="evenodd"/>
  </g>
</svg>
