<svg xmlns="http://www.w3.org/2000/svg" width="16.667" height="20" viewBox="0 0 16.667 20">
  <g id="bell" transform="translate(-2)">
    <path id="Path_22720" data-name="Path 22720" d="M18.149,14.094a5.582,5.582,0,0,1-1.983-4.271V7.5a5.838,5.838,0,0,0-5-5.767v-.9A.833.833,0,0,0,9.5.833v.9A5.837,5.837,0,0,0,4.5,7.5V9.823A5.588,5.588,0,0,1,2.51,14.1a1.458,1.458,0,0,0,.948,2.566h13.75a1.458,1.458,0,0,0,.941-2.572Z" fill="#647181"/>
    <path id="Path_22721" data-name="Path 22721" d="M11.388,23.5A3.13,3.13,0,0,0,14.449,21H8.326A3.13,3.13,0,0,0,11.388,23.5Z" transform="translate(-1.054 -3.5)" fill="#647181"/>
  </g>
</svg>
