<svg xmlns="http://www.w3.org/2000/svg" width="22.41" height="16.784" viewBox="0 0 22.41 16.784">
  <g id="email" transform="translate(0 -64.266)">
    <path id="Path_22736" data-name="Path 22736" d="M13.078,177.63a3.371,3.371,0,0,1-3.746,0L.149,171.508c-.051-.034-.1-.069-.149-.106v10.032A2.062,2.062,0,0,0,2.063,183.5H20.347a2.062,2.062,0,0,0,2.063-2.063V171.4c-.049.037-.1.072-.15.106Z" transform="translate(0 -102.447)" fill="#647181"/>
    <path id="Path_22737" data-name="Path 22737" d="M.878,67.969l9.183,6.122a2.058,2.058,0,0,0,2.289,0l9.183-6.122a1.966,1.966,0,0,0,.878-1.64,2.065,2.065,0,0,0-2.062-2.062H2.062A2.065,2.065,0,0,0,0,66.329a1.966,1.966,0,0,0,.878,1.639Z" fill="#647181"/>
  </g>
</svg>
