<svg xmlns="http://www.w3.org/2000/svg" width="16" height="14.546" viewBox="0 0 16 14.546">
  <g id="Glyph" transform="translate(-1 -2)">
    <path id="Path_23451" data-name="Path 23451" d="M12.636,4.182a2.182,2.182,0,1,1,2.182,2.182A2.182,2.182,0,0,1,12.636,4.182ZM1.727,4.909h8.727a.727.727,0,1,0,0-1.455H1.727a.727.727,0,0,0,0,1.455ZM6.091,7.091A2.182,2.182,0,0,0,4.04,8.545H1.727a.727.727,0,1,0,0,1.455H4.04A2.182,2.182,0,1,0,6.091,7.091ZM16.273,8.545H10.455a.727.727,0,0,0,0,1.455h5.818a.727.727,0,0,0,0-1.455ZM7.545,13.636H1.727a.727.727,0,1,0,0,1.455H7.545a.727.727,0,1,0,0-1.455Zm8.727,0H13.96a2.182,2.182,0,1,0,0,1.455h2.313a.727.727,0,0,0,0-1.455Z" transform="translate(0 0)" fill="#760018"/>
  </g>
</svg>
