<svg xmlns="http://www.w3.org/2000/svg" width="13.277" height="13.277" viewBox="0 0 13.277 13.277">
  <path id="update" d="M8.639,15.277A6.639,6.639,0,1,0,2,8.639,6.639,6.639,0,0,0,8.639,15.277ZM8.256,3.588a.664.664,0,0,0-.891.984l.29.206A3.978,3.978,0,0,0,5.822,5.822l0,0a3.983,3.983,0,0,0,0,5.631.664.664,0,1,0,.939-.939,2.657,2.657,0,0,1,1.014-4.39l-.118.166a.664.664,0,0,0,.984.891l1.16-1.5a.664.664,0,0,0-.046-.938Zm.379,6.5a.664.664,0,0,1,.984.891L9.5,11.15a2.656,2.656,0,0,0,1.014-4.389.664.664,0,1,1,.939-.939A3.985,3.985,0,0,1,9.622,12.5l.29.206a.664.664,0,1,1-.891.984l-1.5-1.16a.664.664,0,0,1-.046-.938Z" transform="translate(-2 -2)" fill="#760018" fill-rule="evenodd"/>
</svg>
