<svg xmlns="http://www.w3.org/2000/svg" width="16" height="18.667" viewBox="0 0 16 18.667">
  <g id="Ikon" transform="translate(-6 -2)">
    <path id="Path_23604" data-name="Path 23604" d="M18.908,5.333H16V2.425a2.011,2.011,0,0,1,.2.161l2.552,2.552a2.011,2.011,0,0,1,.161.2ZM20.779,20.37,19.333,18.2v.465a2,2,0,0,1-2,2H8a2,2,0,0,1-2-2V4A2,2,0,0,1,8,2h6.667V5.333A1.335,1.335,0,0,0,16,6.667h3.333v.9A5.838,5.838,0,0,0,14.9,7.333H9.333a.667.667,0,1,0,0,1.333H12.76A5.791,5.791,0,0,0,11.743,10H9.333a.667.667,0,0,0,0,1.333H11.2a5.866,5.866,0,0,0-.19,1.333H9.333a.667.667,0,1,0,0,1.333h1.788a5.8,5.8,0,0,0,.448,1.333H9.333a.667.667,0,1,0,0,1.333h3.1a5.839,5.839,0,0,0,6.842,1.454L18.532,17a4.505,4.505,0,1,1,1.147-.683l2.209,3.313a.667.667,0,1,1-1.109.74ZM18.6,15.461a3.167,3.167,0,1,0-4.395-.861,3.167,3.167,0,0,0,4.395.861Z" fill="#647181"/>
    <g id="Layer_2" data-name="Layer 2" transform="translate(13.49 9.4)">
      <circle id="Ellipse_941" data-name="Ellipse 941" cx="1.032" cy="1.032" r="1.032" transform="translate(2.318 2.318)" fill="#647181"/>
      <path id="Path_23605" data-name="Path 23605" d="M4.937,6.774A1.837,1.837,0,1,1,6.774,4.937,1.837,1.837,0,0,1,4.937,6.774Zm0-3.3A1.466,1.466,0,1,0,6.4,4.937,1.466,1.466,0,0,0,4.937,3.472Z" transform="translate(-1.587 -1.587)" fill="#647181"/>
      <path id="Path_23606" data-name="Path 23606" d="M5.056,6.862A1.806,1.806,0,1,1,6.862,5.056,1.806,1.806,0,0,1,5.056,6.862Zm0-3.3a1.5,1.5,0,1,0,1.5,1.5A1.5,1.5,0,0,0,5.056,3.56Z" transform="translate(-1.706 -1.706)" fill="#647181"/>
      <path id="Path_23607" data-name="Path 23607" d="M11.286,2.091a.186.186,0,0,1-.186-.186V1.286a.186.186,0,0,1,.372,0v.619A.186.186,0,0,1,11.286,2.091Z" transform="translate(-7.936)" fill="#647181"/>
      <path id="Path_23608" data-name="Path 23608" d="M11.4,2.179a.155.155,0,0,1-.155-.155V1.4a.155.155,0,0,1,.31,0v.619A.155.155,0,0,1,11.4,2.179Z" transform="translate(-8.055 -0.119)" fill="#647181"/>
      <path id="Path_23609" data-name="Path 23609" d="M18.286,11.472a.186.186,0,1,1,0-.372h.619a.186.186,0,1,1,0,.372Z" transform="translate(-13.491 -7.936)" fill="#647181"/>
      <path id="Path_23610" data-name="Path 23610" d="M19.024,11.56H18.4a.155.155,0,1,1,0-.31h.619a.155.155,0,0,1,0,.31Z" transform="translate(-13.61 -8.055)" fill="#647181"/>
      <path id="Path_23611" data-name="Path 23611" d="M11.286,19.091a.186.186,0,0,1-.186-.186v-.619a.186.186,0,1,1,.372,0v.619a.186.186,0,0,1-.186.186Z" transform="translate(-7.936 -13.491)" fill="#647181"/>
      <path id="Path_23612" data-name="Path 23612" d="M11.4,19.179a.155.155,0,0,1-.155-.155V18.4a.155.155,0,1,1,.31,0v.619A.155.155,0,0,1,11.4,19.179Z" transform="translate(-8.055 -13.61)" fill="#647181"/>
      <path id="Path_23613" data-name="Path 23613" d="M1.286,11.472a.186.186,0,1,1,0-.372h.619a.186.186,0,1,1,0,.372Z" transform="translate(0 -7.936)" fill="#647181"/>
      <path id="Path_23614" data-name="Path 23614" d="M2.024,11.56H1.4a.155.155,0,0,1,0-.31h.619a.155.155,0,0,1,0,.31Z" transform="translate(-0.119 -8.055)" fill="#647181"/>
    </g>
  </g>
</svg>
