<svg xmlns="http://www.w3.org/2000/svg" width="22.41" height="18.821" viewBox="0 0 22.41 18.821">
  <g id="quiz" transform="translate(0 -41)">
    <path id="Path_23601" data-name="Path 23601" d="M6.018,177.671a6.012,6.012,0,0,0-4.557,9.94L.179,189.854a.438.438,0,0,0,.506.636L4.22,189.43a6.017,6.017,0,1,0,1.8-11.759Zm0,10.176a.657.657,0,1,1,.657-.657A.657.657,0,0,1,6.018,187.847Zm.995-4.209a.626.626,0,0,0-.338.508v.418a.657.657,0,1,1-1.313,0v-.418a1.909,1.909,0,0,1,.987-1.641.657.657,0,1,0-.987-.567.657.657,0,0,1-1.313,0,1.97,1.97,0,1,1,2.964,1.7Z" transform="translate(0 -130.689)" fill="#647181"/>
    <path id="Path_23602" data-name="Path 23602" d="M248.433,43.9l1.282-2.243a.438.438,0,0,0-.506-.636l-3.535,1.061a6.009,6.009,0,0,0-7.777,5.055A7.325,7.325,0,0,1,240.833,53s0,.007,0,.011a6.013,6.013,0,0,0,7.6-9.113Zm-2.369,5.891h-4.377a.657.657,0,1,1,0-1.313h4.377a.657.657,0,1,1,0,1.313Zm0-2.626h-4.377a.657.657,0,1,1,0-1.313h4.377a.657.657,0,1,1,0,1.313Z" transform="translate(-227.483 0)" fill="#647181"/>
  </g>
</svg>
