<svg id="up-arrow" xmlns="http://www.w3.org/2000/svg" width="17.521" height="17.521" viewBox="0 0 17.521 17.521">
  <g id="Group_13522" data-name="Group 13522">
    <g id="Group_13521" data-name="Group 13521">
      <path id="Path_22675" data-name="Path 22675" d="M8.76,0a8.76,8.76,0,1,0,8.76,8.76A8.77,8.77,0,0,0,8.76,0Zm0,16.163a7.4,7.4,0,1,1,7.4-7.4A7.412,7.412,0,0,1,8.76,16.163Z" fill="#760018"/>
    </g>
  </g>
  <g id="Group_13524" data-name="Group 13524" transform="translate(4.729 6.106)">
    <g id="Group_13523" data-name="Group 13523">
      <path id="Path_22676" data-name="Path 22676" d="M146.1,182.037l-3.393-3.393a.678.678,0,0,0-.957,0l-3.393,3.393a.679.679,0,0,0,.957.957l2.911-2.911,2.918,2.911a.677.677,0,0,0,.957-.957Z" transform="translate(-138.197 -178.446)" fill="#760018"/>
    </g>
  </g>
</svg>
