<svg xmlns="http://www.w3.org/2000/svg" width="20" height="20" viewBox="0 0 20 20">
  <g id="info-button" transform="translate(0 0)">
    <g id="Group_13701" data-name="Group 13701" transform="translate(0 0)">
      <path id="Path_22725" data-name="Path 22725" d="M17.071,2.929a10,10,0,1,0,0,14.143A10,10,0,0,0,17.071,2.929ZM11.3,14.348a1.3,1.3,0,0,1-2.609,0V9.13a1.3,1.3,0,1,1,2.609,0ZM9.977,6.9A1.163,1.163,0,0,1,8.74,5.712a1.163,1.163,0,0,1,1.252-1.2A1.2,1.2,0,1,1,9.977,6.9Z" transform="translate(0 0)" fill="#647181"/>
    </g>
  </g>
</svg>
