<svg xmlns="http://www.w3.org/2000/svg" width="20" height="21.818" viewBox="0 0 20 21.818">
  <g id="notification" transform="translate(0.001)">
    <path id="Path_22383" data-name="Path 22383" d="M138.3,450.727a3.414,3.414,0,0,0,3.34-2.727h-6.68A3.415,3.415,0,0,0,138.3,450.727Zm0,0" transform="translate(-129.215 -428.91)" fill="#fff"/>
    <path id="Path_22384" data-name="Path 22384" d="M15.464,51.757h-.011A6.371,6.371,0,0,1,9.09,45.395,6.307,6.307,0,0,1,9.7,42.7c-.2-.019-.4-.031-.608-.031a6.363,6.363,0,0,0-6.363,6.363v2.534A6.1,6.1,0,0,1,.556,56.232a1.591,1.591,0,0,0-.5,1.633A1.668,1.668,0,0,0,1.69,59.031h14.8a1.666,1.666,0,0,0,1.662-1.261,1.593,1.593,0,0,0-.543-1.556,6.049,6.049,0,0,1-2.14-4.456Zm0,0" transform="translate(0 -40.849)" fill="#fff"/>
    <path id="Path_22385" data-name="Path 22385" d="M265.1,4.545A4.545,4.545,0,1,1,260.557,0,4.545,4.545,0,0,1,265.1,4.545Zm0,0" transform="translate(-245.104)" fill="#fbbc09"/>
  </g>
</svg>
