<svg xmlns="http://www.w3.org/2000/svg" width="15.235" height="20" viewBox="0 0 15.235 20">
  <g id="padlock" transform="translate(-60.986)">
    <g id="Group_13696" data-name="Group 13696" transform="translate(68.018 11.759)">
      <g id="Group_13695" data-name="Group 13695" transform="translate(0)">
        <path id="Path_22722" data-name="Path 22722" d="M241.585,301.022a.586.586,0,1,0,.586.586A.586.586,0,0,0,241.585,301.022Z" transform="translate(-240.999 -301.022)" fill="#647181"/>
      </g>
    </g>
    <g id="Group_13698" data-name="Group 13698" transform="translate(60.986 8.243)">
      <g id="Group_13697" data-name="Group 13697" transform="translate(0)">
        <path id="Path_22723" data-name="Path 22723" d="M72.12,211.015h-7.3a3.836,3.836,0,0,0-3.836,3.836,7.832,7.832,0,0,0,5.94,7.742,7.657,7.657,0,0,0,9.3-7.477A4.1,4.1,0,0,0,72.12,211.015Zm-2.93,5.752v3.077a.586.586,0,1,1-1.172,0v-3.077a1.758,1.758,0,1,1,1.172,0Z" transform="translate(-60.986 -211.015)" fill="#647181"/>
      </g>
    </g>
    <g id="Group_13700" data-name="Group 13700" transform="translate(63.33)">
      <g id="Group_13699" data-name="Group 13699" transform="translate(0)">
        <path id="Path_22724" data-name="Path 22724" d="M126.264,0a5.267,5.267,0,0,0-5.274,5.274v2.05a4.939,4.939,0,0,1,1.492-.253h.852v-1.8a2.93,2.93,0,1,1,5.86,0v1.8h.586a5.211,5.211,0,0,1,1.758.324V5.274A5.272,5.272,0,0,0,126.264,0Z" transform="translate(-120.99)" fill="#647181"/>
      </g>
    </g>
  </g>
</svg>
