<svg xmlns="http://www.w3.org/2000/svg" width="15" height="20" viewBox="0 0 15 20">
  <path id="Path_22308" data-name="Path 22308" d="M13.833.25a4.14,4.14,0,0,1,1.566.97L16.779,2.6a4.128,4.128,0,0,1,.971,1.565H13.833ZM18,5.833v10A4.172,4.172,0,0,1,13.833,20H7.167A4.172,4.172,0,0,1,3,15.833V4.167A4.172,4.172,0,0,1,7.167,0h5V4.167a1.667,1.667,0,0,0,1.667,1.667Zm-3.493,8.678a.833.833,0,0,0-1.167-.185A3.822,3.822,0,0,1,11.446,15a1.122,1.122,0,0,1-.72-.287A2.521,2.521,0,0,0,9.2,14.167a4.884,4.884,0,0,0-2.538,1.005A.833.833,0,1,0,7.673,16.5,3.292,3.292,0,0,1,9.2,15.833c.2,0,.309.065.583.25a2.71,2.71,0,0,0,1.667.583,5.387,5.387,0,0,0,2.88-.994.833.833,0,0,0,.177-1.162Zm.16-2.844a.833.833,0,0,0-.833-.833H7.167a.833.833,0,0,0,0,1.667h6.667A.833.833,0,0,0,14.667,11.667Zm0-3.333a.833.833,0,0,0-.833-.833H7.167a.833.833,0,0,0,0,1.667h6.667A.833.833,0,0,0,14.667,8.333Z" transform="translate(-3)" fill="#c5ccd8"/>
</svg>
