<svg xmlns="http://www.w3.org/2000/svg" width="10.104" height="10.094" viewBox="0 0 10.104 10.094">
  <g id="pencil" transform="translate(0 -0.246)">
    <path id="Path_22718" data-name="Path 22718" d="M6.24,82.473.68,88.033a.222.222,0,0,0-.058.1L.006,90.608a.219.219,0,0,0,.265.265l2.473-.616a.219.219,0,0,0,.1-.058l5.56-5.56Zm0,0" transform="translate(0 -80.539)" fill="#fff"/>
    <path id="Path_22719" data-name="Path 22719" d="M337.253,1.175l-.619-.619a1.121,1.121,0,0,0-1.548,0l-.758.758,2.167,2.167.758-.758a1.095,1.095,0,0,0,0-1.548Zm0,0" transform="translate(-327.469)" fill="#fff"/>
  </g>
</svg>
