<svg xmlns="http://www.w3.org/2000/svg" xmlns:xlink="http://www.w3.org/1999/xlink" width="222" height="197" viewBox="0 0 222 197">
  <defs>
    <clipPath id="clip-path">
      <rect id="Rectangle_5661" data-name="Rectangle 5661" width="109.635" height="123.273" fill="none"/>
    </clipPath>
    <clipPath id="clip-path-3">
      <path id="Path_20142" data-name="Path 20142" d="M58.492,85.425s1.049,8.923-1.706,12.076a15.788,15.788,0,0,1-6.428,4.589,33.8,33.8,0,0,0,39.45.123l.173-.123A15.787,15.787,0,0,1,83.555,97.5c-2.756-3.153-1.707-12.076-1.707-12.076Z" transform="translate(-50.358 -85.425)" fill="none"/>
    </clipPath>
    <clipPath id="clip-path-4">
      <rect id="Rectangle_5659" data-name="Rectangle 5659" width="31.084" height="16.445" fill="none"/>
    </clipPath>
  </defs>
  <g id="Group_13383" data-name="Group 13383" transform="translate(-94 -175)">
    <circle id="Ellipse_703" data-name="Ellipse 703" cx="94" cy="94" r="94" transform="translate(94 184)" fill="#ffe4ec"/>
    <circle id="Ellipse_704" data-name="Ellipse 704" cx="9.5" cy="9.5" r="9.5" transform="translate(99 175)" fill="#fff2f6"/>
    <circle id="Ellipse_705" data-name="Ellipse 705" cx="20.5" cy="20.5" r="20.5" transform="translate(275 325)" fill="#fff2f6"/>
    <g id="Group_13215" data-name="Group 13215" transform="translate(133 216)">
      <g id="Group_13214" data-name="Group 13214" clip-path="url(#clip-path)">
        <g id="Group_13206" data-name="Group 13206">
          <g id="Group_13205" data-name="Group 13205" clip-path="url(#clip-path)">
            <path id="Path_20138" data-name="Path 20138" d="M109.25,153.478H1s2.763-25.8,9.674-31.328c3.072-2.455,13.247-8.983,23.089-15.164a40.175,40.175,0,0,1,42.728,0c9.841,6.181,20.017,12.708,23.089,15.164,6.911,5.525,9.674,31.328,9.674,31.328" transform="translate(-0.305 -30.895)" fill="#fff"/>
            <path id="Path_20139" data-name="Path 20139" d="M109.25,153.478H1s2.763-25.8,9.674-31.328c3.072-2.455,13.247-8.983,23.089-15.164a40.175,40.175,0,0,1,42.728,0c9.841,6.181,20.017,12.708,23.089,15.164C106.487,127.674,109.25,153.478,109.25,153.478Z" transform="translate(-0.305 -30.895)" fill="none" stroke="#760018" stroke-linecap="round" stroke-linejoin="round" stroke-width="1.99"/>
            <path id="Path_20140" data-name="Path 20140" d="M89.982,102.09l-.173.124a33.8,33.8,0,0,1-39.451-.124A15.781,15.781,0,0,0,56.786,97.5c2.756-3.153,1.706-12.076,1.706-12.076H81.849S80.8,94.348,83.555,97.5a15.781,15.781,0,0,0,6.428,4.589" transform="translate(-15.429 -26.173)" fill="#fff"/>
          </g>
        </g>
        <g id="Group_13211" data-name="Group 13211" transform="translate(34.929 59.252)">
          <g id="Group_13210" data-name="Group 13210" clip-path="url(#clip-path-3)">
            <g id="Group_13209" data-name="Group 13209" transform="translate(8.542 0.22)" opacity="0.2">
              <g id="Group_13208" data-name="Group 13208">
                <g id="Group_13207" data-name="Group 13207" clip-path="url(#clip-path-4)">
                  <path id="Path_20141" data-name="Path 20141" d="M93.757,102.188c-19.625-.58-29.09-13.038-31.083-16.025l1.64,1.822a11.753,11.753,0,0,0,8.631,3.882l.867.006h.265l.861-.006a11.772,11.772,0,0,0,8.636-3.882L85.6,85.743c-.138,1.387-.773,9,1.728,11.856a15.781,15.781,0,0,0,6.428,4.589" transform="translate(-62.674 -85.743)" fill="#4a4c56"/>
                </g>
              </g>
            </g>
          </g>
        </g>
        <g id="Group_13213" data-name="Group 13213">
          <g id="Group_13212" data-name="Group 13212" clip-path="url(#clip-path)">
            <path id="Path_20143" data-name="Path 20143" d="M89.982,102.09l-.173.124a33.8,33.8,0,0,1-39.451-.124A15.781,15.781,0,0,0,56.786,97.5c2.756-3.153,1.706-12.076,1.706-12.076H81.849S80.8,94.348,83.555,97.5A15.781,15.781,0,0,0,89.982,102.09Z" transform="translate(-15.429 -26.173)" fill="none" stroke="#760018" stroke-linecap="round" stroke-linejoin="round" stroke-width="1.99"/>
            <path id="Path_20144" data-name="Path 20144" d="M47.68,53.3a3.3,3.3,0,0,0-3.371-2.557,4.173,4.173,0,0,0-3.5,2.635,5.753,5.753,0,0,0,.219,4.5,9.389,9.389,0,0,0,2.967,3.491A4.637,4.637,0,0,0,46.7,62.483a2.045,2.045,0,0,0,2.093-1.713c-.085-.1-1.109-7.474-1.109-7.474" transform="translate(-12.392 -15.545)" fill="#fff"/>
            <path id="Path_20145" data-name="Path 20145" d="M47.68,53.3a3.3,3.3,0,0,0-3.371-2.557,4.173,4.173,0,0,0-3.5,2.635,5.753,5.753,0,0,0,.219,4.5,9.389,9.389,0,0,0,2.967,3.491A4.637,4.637,0,0,0,46.7,62.483a2.045,2.045,0,0,0,2.093-1.713C48.7,60.668,47.68,53.3,47.68,53.3Z" transform="translate(-12.392 -15.545)" fill="none" stroke="#760018" stroke-linecap="round" stroke-linejoin="round" stroke-width="1.99"/>
            <path id="Path_20146" data-name="Path 20146" d="M45.156,54.055a3.634,3.634,0,0,1,3.152,2.37,5.157,5.157,0,0,0-.828,2.263A1.541,1.541,0,0,0,48.748,60.3" transform="translate(-13.835 -16.562)" fill="#fff"/>
            <path id="Path_20147" data-name="Path 20147" d="M45.156,54.055a3.634,3.634,0,0,1,3.152,2.37,5.157,5.157,0,0,0-.828,2.263A1.541,1.541,0,0,0,48.748,60.3" transform="translate(-13.835 -16.562)" fill="none" stroke="#760018" stroke-linecap="round" stroke-linejoin="round" stroke-width="1.99"/>
            <path id="Path_20148" data-name="Path 20148" d="M106.538,53.3a3.3,3.3,0,0,1,3.371-2.557,4.173,4.173,0,0,1,3.5,2.635,5.753,5.753,0,0,1-.219,4.5,9.39,9.39,0,0,1-2.967,3.491,4.637,4.637,0,0,1-2.705,1.122,2.045,2.045,0,0,1-2.093-1.713c.085-.1,1.109-7.474,1.109-7.474" transform="translate(-32.303 -15.545)" fill="#fff"/>
            <path id="Path_20149" data-name="Path 20149" d="M106.538,53.3a3.3,3.3,0,0,1,3.371-2.557,4.173,4.173,0,0,1,3.5,2.635,5.753,5.753,0,0,1-.219,4.5,9.39,9.39,0,0,1-2.967,3.491,4.637,4.637,0,0,1-2.705,1.122,2.045,2.045,0,0,1-2.093-1.713C105.514,60.668,106.538,53.3,106.538,53.3Z" transform="translate(-32.303 -15.545)" fill="none" stroke="#760018" stroke-linecap="round" stroke-linejoin="round" stroke-width="1.99"/>
            <path id="Path_20150" data-name="Path 20150" d="M111.161,54.055a3.634,3.634,0,0,0-3.152,2.37,5.157,5.157,0,0,1,.828,2.263,1.541,1.541,0,0,1-1.267,1.617" transform="translate(-32.958 -16.562)" fill="#fff"/>
            <path id="Path_20151" data-name="Path 20151" d="M111.161,54.055a3.634,3.634,0,0,0-3.152,2.37,5.157,5.157,0,0,1,.828,2.263,1.541,1.541,0,0,1-1.267,1.617" transform="translate(-32.958 -16.562)" fill="none" stroke="#760018" stroke-linecap="round" stroke-linejoin="round" stroke-width="1.99"/>
            <path id="Path_20152" data-name="Path 20152" d="M70.975,6.718A21.8,21.8,0,0,1,91.127,27.045c.17,2.838-3.076,24.328-3.076,24.328a8.615,8.615,0,0,1-2.142,4.617l-7.023,7.782a11.768,11.768,0,0,1-8.636,3.882l-.862.007h-.265l-.861-.007a11.769,11.769,0,0,1-8.637-3.882L52.6,55.989a8.62,8.62,0,0,1-2.142-4.617s-3.246-21.489-3.075-24.328A21.794,21.794,0,0,1,67.535,6.718Z" transform="translate(-14.516 -2.058)" fill="#fff"/>
            <path id="Path_20153" data-name="Path 20153" d="M70.975,6.718A21.8,21.8,0,0,1,91.127,27.045c.17,2.838-3.076,24.328-3.076,24.328a8.615,8.615,0,0,1-2.142,4.617l-7.023,7.782a11.768,11.768,0,0,1-8.636,3.882l-.862.007h-.265l-.861-.007a11.769,11.769,0,0,1-8.637-3.882L52.6,55.989a8.62,8.62,0,0,1-2.142-4.617s-3.246-21.489-3.075-24.328A21.794,21.794,0,0,1,67.535,6.718Z" transform="translate(-14.516 -2.058)" fill="none" stroke="#760018" stroke-linecap="round" stroke-linejoin="round" stroke-width="1.99"/>
            <path id="Path_20154" data-name="Path 20154" d="M91.3,33.731c-2.368,1.32-3.118,6-3.118,6-.006-5.13,1.59-8.189-.316-11.121.773-4.843.581-12.678-4.64-15.517-4.273-2.325-8.236-.984-11.252,1.181a7.11,7.11,0,0,1-3.67.873H68.26a7.127,7.127,0,0,1-3.67-.873c-3.016-2.165-6.979-3.506-11.252-1.181-5.22,2.838-5.406,10.674-4.634,15.517-1.905,2.932-.316,5.991-.321,11.121,0,0-.75-4.677-3.118-6a40.631,40.631,0,0,1-1.651-15.048c.18-2.253.011-3.954.925-6.052a6.375,6.375,0,0,1,1.437-2.215,4.016,4.016,0,0,1,2.915-.933,14.659,14.659,0,0,1,7.729-8.3C60.081-.4,76.485-.4,79.947,1.184a14.657,14.657,0,0,1,7.729,8.3,4.015,4.015,0,0,1,2.915.933,6.375,6.375,0,0,1,1.437,2.215c.913,2.1.744,3.8.925,6.052A40.617,40.617,0,0,1,91.3,33.731" transform="translate(-13.325 0)" fill="#760018"/>
            <path id="Path_20155" data-name="Path 20155" d="M63.8,50.566a1.624,1.624,0,1,0,1.624-1.624A1.624,1.624,0,0,0,63.8,50.566" transform="translate(-19.547 -14.995)" fill="#760018"/>
            <path id="Path_20156" data-name="Path 20156" d="M92.868,50.566a1.624,1.624,0,1,1-1.624-1.624,1.624,1.624,0,0,1,1.624,1.624" transform="translate(-27.459 -14.995)" fill="#760018"/>
            <path id="Path_20157" data-name="Path 20157" d="M58.942,43.99l.535-.423a6.3,6.3,0,0,1,4.675-1.349,8.973,8.973,0,0,1,3.406,1.155" transform="translate(-18.059 -12.921)" fill="none" stroke="#760018" stroke-linecap="round" stroke-linejoin="round" stroke-width="1.99"/>
            <path id="Path_20158" data-name="Path 20158" d="M81.3,77.308a6.3,6.3,0,0,1-4.675,1.349A8.981,8.981,0,0,1,73.223,77.5" transform="translate(-22.435 -23.686)" fill="none" stroke="#760018" stroke-linecap="round" stroke-linejoin="round" stroke-width="1.99"/>
            <path id="Path_20159" data-name="Path 20159" d="M80.644,67.407a4.329,4.329,0,0,1-2.093,2.109,1.573,1.573,0,0,1-1.536,0,4.312,4.312,0,0,1-2.088-2.109,13.513,13.513,0,0,0,2.843.655,11.8,11.8,0,0,0,2.875-.655" transform="translate(-22.957 -20.653)" fill="#760018"/>
            <path id="Path_20160" data-name="Path 20160" d="M95.367,43.99l-.535-.423a6.3,6.3,0,0,0-4.675-1.349,8.981,8.981,0,0,0-3.407,1.155" transform="translate(-26.579 -12.921)" fill="none" stroke="#3d405b" stroke-linecap="round" stroke-linejoin="round" stroke-width="1.99"/>
            <path id="Path_20161" data-name="Path 20161" d="M95.367,43.99l-.535-.423a6.3,6.3,0,0,0-4.675-1.349,8.981,8.981,0,0,0-3.407,1.155" transform="translate(-26.579 -12.921)" fill="none" stroke="#760018" stroke-linecap="round" stroke-linejoin="round" stroke-width="1.99"/>
            <path id="Path_20162" data-name="Path 20162" d="M76.862,117.449,72.8,120.6l1.968,3.806h4.2l1.947-3.979Z" transform="translate(-22.304 -35.985)" fill="#760018"/>
            <path id="Path_20163" data-name="Path 20163" d="M76.862,117.449,72.8,120.6l1.968,3.806h4.2l1.947-3.979Z" transform="translate(-22.304 -35.985)" fill="none" stroke="#760018" stroke-linecap="round" stroke-linejoin="round" stroke-width="1.99"/>
            <path id="Path_20164" data-name="Path 20164" d="M81.025,160.646H72.268l2.05-34.117h4.658Z" transform="translate(-22.142 -38.767)" fill="#760018"/>
            <path id="Path_20165" data-name="Path 20165" d="M81.025,160.646H72.268l2.05-34.117h4.658Z" transform="translate(-22.142 -38.767)" fill="none" stroke="#760018" stroke-linecap="round" stroke-linejoin="round" stroke-width="1.99"/>
            <path id="Path_20166" data-name="Path 20166" d="M55.111,102.836l-8.776,6.593,12.99,11.219,8.857-7.676Z" transform="translate(-14.197 -31.508)" fill="#fff"/>
            <path id="Path_20167" data-name="Path 20167" d="M55.111,102.836l-8.776,6.593,12.99,11.219,8.857-7.676Z" transform="translate(-14.197 -31.508)" fill="none" stroke="#760018" stroke-linecap="round" stroke-linejoin="round" stroke-width="1.99"/>
            <path id="Path_20168" data-name="Path 20168" d="M92.891,102.836l8.776,6.593-12.99,11.219-8.857-7.676Z" transform="translate(-24.456 -31.508)" fill="#fff"/>
            <path id="Path_20169" data-name="Path 20169" d="M92.891,102.836l8.776,6.593-12.99,11.219-8.857-7.676Z" transform="translate(-24.456 -31.508)" fill="none" stroke="#760018" stroke-linecap="round" stroke-linejoin="round" stroke-width="1.99"/>
          </g>
        </g>
      </g>
    </g>
    <g id="_15-Checked" data-name="15-Checked" transform="translate(196 134.395)">
      <circle id="Ellipse_706" data-name="Ellipse 706" cx="22.923" cy="22.923" r="22.923" transform="translate(32 62.383)" fill="#fff3cf"/>
      <path id="Path_20170" data-name="Path 20170" d="M97.79,103.024l-.291-.5C93.058,94.962,81.255,78.9,81.136,78.742l-.17-.231,4.021-3.974,12.728,8.888a145.876,145.876,0,0,1,20.367-21.713,74.488,74.488,0,0,1,8.843-6.683l.079-.047h6.821l-.652.58c-16.756,14.924-34.918,46.645-35.1,46.964Z" transform="translate(-42.607 0)" fill="#fbbc09"/>
    </g>
  </g>
</svg>
