<svg xmlns="http://www.w3.org/2000/svg" width="275.001" height="389.648" viewBox="0 0 275.001 389.648">
  <g id="Group_15434" data-name="Group 15434" transform="translate(-50 -444.569)">
    <g id="Group_13273" data-name="Group 13273" transform="translate(5 182)">
      <g id="bank_3_" data-name="bank(3)" transform="translate(44.999 261.274)">
        <g id="Group_13245" data-name="Group 13245" transform="translate(3.68 3.917)">
          <path id="Path_22316" data-name="Path 22316" d="M41.227,41.745V52.6H79.561V41.745L60.392,30.678Z" transform="translate(-41.227 -30.678)" fill="#fff" fill-rule="evenodd"/>
        </g>
        <g id="Group_13246" data-name="Group 13246" transform="translate(0.671 1.964)">
          <path id="Path_22317" data-name="Path 22317" d="M7.747,23.173a1.759,1.759,0,0,0,2.4.643l.377-.218L29.687,12.531,48.855,23.6l.377.218a1.755,1.755,0,0,0,1.753-3.04L30.651,9.035a2.053,2.053,0,0,0-1.927,0L8.389,20.775a1.762,1.762,0,0,0-.643,2.4Z" transform="translate(-7.513 -8.795)" fill="#760018" fill-rule="evenodd"/>
        </g>
        <g id="Group_13247" data-name="Group 13247" transform="translate(0.672 25.843)">
          <path id="Path_22318" data-name="Path 22318" d="M10.006,279.649H51.464a.411.411,0,0,0,.41-.41v-2.449a.411.411,0,0,0-.41-.41H7.935a.411.411,0,0,0-.41.41v2.449a.411.411,0,0,0,.41.41Z" transform="translate(-7.525 -276.381)" fill="#760018" fill-rule="evenodd"/>
        </g>
        <g id="Group_13248" data-name="Group 13248" transform="translate(3.153 29.111)">
          <path id="Path_22319" data-name="Path 22319" d="M37.2,315.923h7.366a.4.4,0,0,0,.4-.4V313H35.331v2.522a.4.4,0,0,0,.4.4Z" transform="translate(-35.331 -313.004)" fill="#fff" fill-rule="evenodd"/>
        </g>
        <g id="Group_13249" data-name="Group 13249" transform="translate(18.027 29.111)">
          <path id="Path_22320" data-name="Path 22320" d="M203.875,315.923h7.363a.4.4,0,0,0,.4-.4V313H202v2.522a.4.4,0,0,0,.4.4Z" transform="translate(-202.001 -313.004)" fill="#fff" fill-rule="evenodd"/>
        </g>
        <g id="Group_13250" data-name="Group 13250" transform="translate(32.902 29.111)">
          <path id="Path_22321" data-name="Path 22321" d="M369.1,315.923h8.838a.4.4,0,0,0,.4-.4V313H368.7v2.522A.4.4,0,0,0,369.1,315.923Z" transform="translate(-368.698 -313.004)" fill="#fff" fill-rule="evenodd"/>
        </g>
        <g id="Group_13251" data-name="Group 13251" transform="translate(34.776 32.03)">
          <path id="Path_22322" data-name="Path 22322" d="M389.7,345.715h5.889v7.867H389.7Z" transform="translate(-389.702 -345.715)" fill="#ffe07d" fill-rule="evenodd"/>
        </g>
        <g id="Group_13252" data-name="Group 13252" transform="translate(19.901 32.03)">
          <path id="Path_22323" data-name="Path 22323" d="M223,345.715h5.889v7.867H223Z" transform="translate(-223.004 -345.715)" fill="#ffe07d" fill-rule="evenodd"/>
        </g>
        <g id="Group_13253" data-name="Group 13253" transform="translate(5.025 32.03)">
          <path id="Path_22324" data-name="Path 22324" d="M56.306,345.715H62.2v7.867H56.306Z" transform="translate(-56.306 -345.715)" fill="#ffe07d" fill-rule="evenodd"/>
        </g>
        <g id="Group_13254" data-name="Group 13254" transform="translate(3.153 39.897)">
          <path id="Path_22325" data-name="Path 22325" d="M35.331,436.789h9.635V434.27a.4.4,0,0,0-.4-.4h-8.84a.4.4,0,0,0-.4.4Z" transform="translate(-35.331 -433.87)" fill="#fff" fill-rule="evenodd"/>
        </g>
        <g id="Group_13255" data-name="Group 13255" transform="translate(32.902 39.897)">
          <path id="Path_22326" data-name="Path 22326" d="M368.7,436.789h9.637V434.27a.4.4,0,0,0-.4-.4H369.1a.4.4,0,0,0-.4.4Z" transform="translate(-368.698 -433.87)" fill="#fff" fill-rule="evenodd"/>
        </g>
        <g id="Group_13256" data-name="Group 13256" transform="translate(18.026 39.897)">
          <path id="Path_22327" data-name="Path 22327" d="M202,436.789h9.637V434.27a.4.4,0,0,0-.4-.4H202.4a.4.4,0,0,0-.4.4v2.519Z" transform="translate(-202 -433.87)" fill="#fff" fill-rule="evenodd"/>
        </g>
        <g id="Group_13257" data-name="Group 13257" transform="translate(0.672 42.816)">
          <path id="Path_22328" data-name="Path 22328" d="M7.934,469.85H51.463a.411.411,0,0,0,.41-.41v-2.449a.411.411,0,0,0-.41-.41H7.934a.411.411,0,0,0-.41.41v2.449A.411.411,0,0,0,7.934,469.85Z" transform="translate(-7.524 -466.582)" fill="#760018" fill-rule="evenodd"/>
        </g>
        <g id="Group_13258" data-name="Group 13258" transform="translate(20.801 9.656)">
          <path id="Path_22329" data-name="Path 22329" d="M233.095,97.137A2.142,2.142,0,1,0,235.237,95,2.142,2.142,0,0,0,233.095,97.137Z" transform="translate(-233.095 -94.995)" fill="#ffe07d" fill-rule="evenodd"/>
        </g>
        <g id="Group_13259" data-name="Group 13259" transform="translate(10.916 29.111)">
          <path id="Path_22330" data-name="Path 22330" d="M122.322,315.923v7.867H123.8a.4.4,0,0,1,.4.4v2.519h5.238V324.19a.4.4,0,0,1,.4-.4h1.475v-7.867h-1.475a.4.4,0,0,1-.4-.4V313h-5.238v2.522a.4.4,0,0,1-.4.4Z" transform="translate(-122.322 -313.004)" fill="#b6b1b7" fill-rule="evenodd"/>
        </g>
        <g id="Group_13260" data-name="Group 13260" transform="translate(25.789 29.111)">
          <path id="Path_22331" data-name="Path 22331" d="M288.992,315.923v7.867h1.475a.4.4,0,0,1,.4.4v2.519H296.1V324.19a.4.4,0,0,1,.4-.4h1.475v-7.867H296.5a.4.4,0,0,1-.4-.4V313h-5.238v2.522a.4.4,0,0,1-.4.4Z" transform="translate(-288.992 -313.004)" fill="#b6b1b7" fill-rule="evenodd"/>
        </g>
        <g id="Group_13261" data-name="Group 13261" transform="translate(3.68 5.7)">
          <path id="Path_22332" data-name="Path 22332" d="M60.392,50.662,41.227,61.729v2.489L60.392,53.151,79.561,64.218V61.729Z" transform="translate(-41.227 -50.662)" fill="#dad8db" fill-rule="evenodd"/>
        </g>
        <g id="Group_13262" data-name="Group 13262" transform="translate(20.801 9.656)">
          <path id="Path_22333" data-name="Path 22333" d="M235.238,95a2.144,2.144,0,0,0-2.026,2.841,2.142,2.142,0,0,1,4.012.1,2.116,2.116,0,0,0,.157-.8A2.143,2.143,0,0,0,235.238,95Z" transform="translate(-233.096 -94.995)" fill="#ffc269" fill-rule="evenodd"/>
        </g>
        <g id="Group_13263" data-name="Group 13263" transform="translate(5.025 32.03)">
          <path id="Path_22334" data-name="Path 22334" d="M56.306,345.715H62.2v2.14H56.306Z" transform="translate(-56.306 -345.715)" fill="#ffc269" fill-rule="evenodd"/>
        </g>
        <g id="Group_13264" data-name="Group 13264" transform="translate(19.901 32.03)">
          <path id="Path_22335" data-name="Path 22335" d="M223,345.715h5.889v2.14H223Z" transform="translate(-223.004 -345.715)" fill="#ffc269" fill-rule="evenodd"/>
        </g>
        <g id="Group_13265" data-name="Group 13265" transform="translate(34.776 32.03)">
          <path id="Path_22336" data-name="Path 22336" d="M389.7,345.715h5.889v2.14H389.7Z" transform="translate(-389.702 -345.715)" fill="#ffc269" fill-rule="evenodd"/>
        </g>
        <g id="Group_13266" data-name="Group 13266" transform="translate(3.153 29.111)">
          <path id="Path_22337" data-name="Path 22337" d="M35.331,313h9.635v1.566H35.331Z" transform="translate(-35.331 -313.004)" fill="#dad8db" fill-rule="evenodd"/>
        </g>
        <g id="Group_13267" data-name="Group 13267" transform="translate(18.027 29.111)">
          <path id="Path_22338" data-name="Path 22338" d="M202,313h9.637v1.566H202Z" transform="translate(-202.001 -313.004)" fill="#dad8db" fill-rule="evenodd"/>
        </g>
        <g id="Group_13268" data-name="Group 13268" transform="translate(32.902 29.111)">
          <path id="Path_22339" data-name="Path 22339" d="M368.7,313h9.637v1.566H368.7Z" transform="translate(-368.698 -313.004)" fill="#dad8db" fill-rule="evenodd"/>
        </g>
        <g id="Group_13270" data-name="Group 13270" transform="translate(0.001 1.295)">
          <path id="Path_22340" data-name="Path 22340" d="M42.14,32.7a1.069,1.069,0,0,0,1.069-1.066V29.78h1.4A1.08,1.08,0,0,0,45.69,28.7V26.253a1.08,1.08,0,0,0-1.079-1.079H42.682V17.817a2.388,2.388,0,0,0,.577.072A2.447,2.447,0,0,0,43.9,17.8a2.425,2.425,0,0,0,.582-4.44L24.145,1.626a2.719,2.719,0,0,0-2.6,0L1.212,13.365a2.425,2.425,0,0,0,1.8,4.452v7.356H1.082A1.08,1.08,0,0,0,0,26.252V28.7A1.08,1.08,0,0,0,1.082,29.78h1.4v1.853A1.068,1.068,0,0,0,3.551,32.7h.805v6.528H3.551A1.069,1.069,0,0,0,2.484,40.3v1.85h-1.4A1.08,1.08,0,0,0,0,43.225v2.449a1.08,1.08,0,0,0,1.079,1.079H21.449a.669.669,0,1,0,0-1.339H1.341v-1.93h43.01v1.93H24.537a.669.669,0,0,0,0,1.339H44.611a1.08,1.08,0,0,0,1.079-1.079V43.225a1.08,1.08,0,0,0-1.079-1.079h-1.4V40.3a1.07,1.07,0,0,0-1.069-1.069h-.805V32.7h.805ZM2.968,16.4a1.09,1.09,0,0,1-1.484-.4h0a1.087,1.087,0,0,1,.4-1.483L22.218,2.783a1.286,1.286,0,0,1,.627-.15,1.27,1.27,0,0,1,.629.151l20.334,11.74A1.086,1.086,0,0,1,42.725,16.4L23.18,5.121a.669.669,0,0,0-.669,0ZM1.341,26.512H21.449a.669.669,0,1,0,0-1.339H4.349v-8.02l18.5-10.68,18.5,10.68v8.02H24.426a.669.669,0,0,0,0,1.339H44.351v1.93H1.341ZM18.7,31.361V29.78h8.3v1.58ZM25.12,32.7v6.528H20.57V32.7Zm-21.3-1.339V29.78h8.3v1.58ZM10.247,32.7v6.528H5.695V32.7Zm1.872,9.447h-8.3v-1.58h8.3Zm5.238-1.85v1.85h-3.9V40.3a1.069,1.069,0,0,0-1.066-1.069h-.805V32.7h.805a1.068,1.068,0,0,0,1.066-1.066V29.78h3.9v1.853A1.069,1.069,0,0,0,18.426,32.7h.805v6.528h-.805A1.07,1.07,0,0,0,17.357,40.3Zm9.637,1.85H18.7v-1.58h8.3Zm5.238-1.85v1.85h-3.9V40.3a1.07,1.07,0,0,0-1.069-1.069h-.805V32.7h.805a1.069,1.069,0,0,0,1.069-1.066V29.78h3.9v1.853A1.069,1.069,0,0,0,33.3,32.7h.805v6.528H33.3A1.07,1.07,0,0,0,32.233,40.3Zm9.637.27v1.58h-8.3v-1.58Zm-6.424-1.339V32.7H40v6.528Zm-1.874-7.867V29.78h8.3v1.58Z" transform="translate(-0.001 -1.295)" fill="#760018"/>
          <path id="Path_22341" data-name="Path 22341" d="M231.218,90.307a2.812,2.812,0,1,0-2.812,2.812A2.815,2.815,0,0,0,231.218,90.307Zm-4.285,0a1.473,1.473,0,1,1,1.473,1.473A1.475,1.475,0,0,1,226.934,90.307Z" transform="translate(-205.464 -79.803)" fill="#760018"/>
          <g id="Group_13269" data-name="Group 13269" transform="translate(11.019 15.273)">
            <path id="Path_22342" data-name="Path 22342" d="M127.236,176.04a1.862,1.862,0,0,0-1.574-2.862h-1.51a.669.669,0,0,0-.669.669v5.2a.669.669,0,0,0,.669.669h0s1.388-.006,1.77-.006a2.067,2.067,0,0,0,1.31-3.667Zm-1.574-1.524a.527.527,0,0,1,0,1.053h-.84v-1.055h.84Zm.264,3.853-1.1,0v-1.462h1.1a.73.73,0,0,1,0,1.459Z" transform="translate(-123.483 -173.113)" fill="#760018"/>
            <path id="Path_22343" data-name="Path 22343" d="M190.712,173.685l-.007-.018a.784.784,0,0,0-.728-.488h0a.784.784,0,0,0-.728.489l-.006.015-1.952,5.124a.669.669,0,0,0,1.251.476l.322-.845h2.212l.318.843a.669.669,0,1,0,1.252-.473Zm-1.339,3.415.6-1.578.6,1.578Z" transform="translate(-181.557 -173.114)" fill="#760018"/>
            <path id="Path_22344" data-name="Path 22344" d="M268.1,173.179h-.007a.669.669,0,0,0-.663.676l.03,3.1-2.4-3.481a.669.669,0,0,0-1.22.38v5.188a.669.669,0,1,0,1.339,0V176l2.288,3.313a.737.737,0,0,0,.833.306.764.764,0,0,0,.521-.76l-.049-5.022A.669.669,0,0,0,268.1,173.179Z" transform="translate(-251.31 -173.114)" fill="#760018"/>
            <path id="Path_22345" data-name="Path 22345" d="M345.587,177.9l-2.338-2.255,2.139-1.966a.669.669,0,1,0-.906-.986l-1.709,1.571v-1.144a.669.669,0,0,0-1.339,0v5.262a.669.669,0,0,0,1.339,0v-1.336l1.884,1.817a.669.669,0,1,0,.929-.963Z" transform="translate(-321.986 -172.45)" fill="#760018"/>
          </g>
        </g>
      </g>
      <text id="Bank_1" data-name="Bank 1" transform="translate(47 326)" fill="#760018" font-size="13" font-family="NunitoSans-Bold, Nunito Sans" font-weight="700"><tspan x="0" y="0">Bank 1</tspan></text>
    </g>
    <g id="Group_13272" data-name="Group 13272" transform="translate(39 182)">
      <g id="bank_3_2" data-name="bank(3)" transform="translate(125.999 261.274)">
        <g id="Group_13245-2" data-name="Group 13245" transform="translate(3.68 3.917)">
          <path id="Path_22316-2" data-name="Path 22316" d="M41.227,41.745V52.6H79.561V41.745L60.392,30.678Z" transform="translate(-41.227 -30.678)" fill="#fff" fill-rule="evenodd"/>
        </g>
        <g id="Group_13246-2" data-name="Group 13246" transform="translate(0.671 1.964)">
          <path id="Path_22317-2" data-name="Path 22317" d="M7.747,23.173a1.759,1.759,0,0,0,2.4.643l.377-.218L29.687,12.531,48.855,23.6l.377.218a1.755,1.755,0,0,0,1.753-3.04L30.651,9.035a2.053,2.053,0,0,0-1.927,0L8.389,20.775a1.762,1.762,0,0,0-.643,2.4Z" transform="translate(-7.513 -8.795)" fill="#760018" fill-rule="evenodd"/>
        </g>
        <g id="Group_13247-2" data-name="Group 13247" transform="translate(0.672 25.843)">
          <path id="Path_22318-2" data-name="Path 22318" d="M10.006,279.649H51.464a.411.411,0,0,0,.41-.41v-2.449a.411.411,0,0,0-.41-.41H7.935a.411.411,0,0,0-.41.41v2.449a.411.411,0,0,0,.41.41Z" transform="translate(-7.525 -276.381)" fill="#760018" fill-rule="evenodd"/>
        </g>
        <g id="Group_13248-2" data-name="Group 13248" transform="translate(3.153 29.111)">
          <path id="Path_22319-2" data-name="Path 22319" d="M37.2,315.923h7.366a.4.4,0,0,0,.4-.4V313H35.331v2.522a.4.4,0,0,0,.4.4Z" transform="translate(-35.331 -313.004)" fill="#fff" fill-rule="evenodd"/>
        </g>
        <g id="Group_13249-2" data-name="Group 13249" transform="translate(18.027 29.111)">
          <path id="Path_22320-2" data-name="Path 22320" d="M203.875,315.923h7.363a.4.4,0,0,0,.4-.4V313H202v2.522a.4.4,0,0,0,.4.4Z" transform="translate(-202.001 -313.004)" fill="#fff" fill-rule="evenodd"/>
        </g>
        <g id="Group_13250-2" data-name="Group 13250" transform="translate(32.902 29.111)">
          <path id="Path_22321-2" data-name="Path 22321" d="M369.1,315.923h8.838a.4.4,0,0,0,.4-.4V313H368.7v2.522A.4.4,0,0,0,369.1,315.923Z" transform="translate(-368.698 -313.004)" fill="#fff" fill-rule="evenodd"/>
        </g>
        <g id="Group_13251-2" data-name="Group 13251" transform="translate(34.776 32.03)">
          <path id="Path_22322-2" data-name="Path 22322" d="M389.7,345.715h5.889v7.867H389.7Z" transform="translate(-389.702 -345.715)" fill="#ffe07d" fill-rule="evenodd"/>
        </g>
        <g id="Group_13252-2" data-name="Group 13252" transform="translate(19.901 32.03)">
          <path id="Path_22323-2" data-name="Path 22323" d="M223,345.715h5.889v7.867H223Z" transform="translate(-223.004 -345.715)" fill="#ffe07d" fill-rule="evenodd"/>
        </g>
        <g id="Group_13253-2" data-name="Group 13253" transform="translate(5.025 32.03)">
          <path id="Path_22324-2" data-name="Path 22324" d="M56.306,345.715H62.2v7.867H56.306Z" transform="translate(-56.306 -345.715)" fill="#ffe07d" fill-rule="evenodd"/>
        </g>
        <g id="Group_13254-2" data-name="Group 13254" transform="translate(3.153 39.897)">
          <path id="Path_22325-2" data-name="Path 22325" d="M35.331,436.789h9.635V434.27a.4.4,0,0,0-.4-.4h-8.84a.4.4,0,0,0-.4.4Z" transform="translate(-35.331 -433.87)" fill="#fff" fill-rule="evenodd"/>
        </g>
        <g id="Group_13255-2" data-name="Group 13255" transform="translate(32.902 39.897)">
          <path id="Path_22326-2" data-name="Path 22326" d="M368.7,436.789h9.637V434.27a.4.4,0,0,0-.4-.4H369.1a.4.4,0,0,0-.4.4Z" transform="translate(-368.698 -433.87)" fill="#fff" fill-rule="evenodd"/>
        </g>
        <g id="Group_13256-2" data-name="Group 13256" transform="translate(18.026 39.897)">
          <path id="Path_22327-2" data-name="Path 22327" d="M202,436.789h9.637V434.27a.4.4,0,0,0-.4-.4H202.4a.4.4,0,0,0-.4.4v2.519Z" transform="translate(-202 -433.87)" fill="#fff" fill-rule="evenodd"/>
        </g>
        <g id="Group_13257-2" data-name="Group 13257" transform="translate(0.672 42.816)">
          <path id="Path_22328-2" data-name="Path 22328" d="M7.934,469.85H51.463a.411.411,0,0,0,.41-.41v-2.449a.411.411,0,0,0-.41-.41H7.934a.411.411,0,0,0-.41.41v2.449A.411.411,0,0,0,7.934,469.85Z" transform="translate(-7.524 -466.582)" fill="#760018" fill-rule="evenodd"/>
        </g>
        <g id="Group_13258-2" data-name="Group 13258" transform="translate(20.801 9.656)">
          <path id="Path_22329-2" data-name="Path 22329" d="M233.095,97.137A2.142,2.142,0,1,0,235.237,95,2.142,2.142,0,0,0,233.095,97.137Z" transform="translate(-233.095 -94.995)" fill="#ffe07d" fill-rule="evenodd"/>
        </g>
        <g id="Group_13259-2" data-name="Group 13259" transform="translate(10.916 29.111)">
          <path id="Path_22330-2" data-name="Path 22330" d="M122.322,315.923v7.867H123.8a.4.4,0,0,1,.4.4v2.519h5.238V324.19a.4.4,0,0,1,.4-.4h1.475v-7.867h-1.475a.4.4,0,0,1-.4-.4V313h-5.238v2.522a.4.4,0,0,1-.4.4Z" transform="translate(-122.322 -313.004)" fill="#b6b1b7" fill-rule="evenodd"/>
        </g>
        <g id="Group_13260-2" data-name="Group 13260" transform="translate(25.789 29.111)">
          <path id="Path_22331-2" data-name="Path 22331" d="M288.992,315.923v7.867h1.475a.4.4,0,0,1,.4.4v2.519H296.1V324.19a.4.4,0,0,1,.4-.4h1.475v-7.867H296.5a.4.4,0,0,1-.4-.4V313h-5.238v2.522a.4.4,0,0,1-.4.4Z" transform="translate(-288.992 -313.004)" fill="#b6b1b7" fill-rule="evenodd"/>
        </g>
        <g id="Group_13261-2" data-name="Group 13261" transform="translate(3.68 5.7)">
          <path id="Path_22332-2" data-name="Path 22332" d="M60.392,50.662,41.227,61.729v2.489L60.392,53.151,79.561,64.218V61.729Z" transform="translate(-41.227 -50.662)" fill="#dad8db" fill-rule="evenodd"/>
        </g>
        <g id="Group_13262-2" data-name="Group 13262" transform="translate(20.801 9.656)">
          <path id="Path_22333-2" data-name="Path 22333" d="M235.238,95a2.144,2.144,0,0,0-2.026,2.841,2.142,2.142,0,0,1,4.012.1,2.116,2.116,0,0,0,.157-.8A2.143,2.143,0,0,0,235.238,95Z" transform="translate(-233.096 -94.995)" fill="#ffc269" fill-rule="evenodd"/>
        </g>
        <g id="Group_13263-2" data-name="Group 13263" transform="translate(5.025 32.03)">
          <path id="Path_22334-2" data-name="Path 22334" d="M56.306,345.715H62.2v2.14H56.306Z" transform="translate(-56.306 -345.715)" fill="#ffc269" fill-rule="evenodd"/>
        </g>
        <g id="Group_13264-2" data-name="Group 13264" transform="translate(19.901 32.03)">
          <path id="Path_22335-2" data-name="Path 22335" d="M223,345.715h5.889v2.14H223Z" transform="translate(-223.004 -345.715)" fill="#ffc269" fill-rule="evenodd"/>
        </g>
        <g id="Group_13265-2" data-name="Group 13265" transform="translate(34.776 32.03)">
          <path id="Path_22336-2" data-name="Path 22336" d="M389.7,345.715h5.889v2.14H389.7Z" transform="translate(-389.702 -345.715)" fill="#ffc269" fill-rule="evenodd"/>
        </g>
        <g id="Group_13266-2" data-name="Group 13266" transform="translate(3.153 29.111)">
          <path id="Path_22337-2" data-name="Path 22337" d="M35.331,313h9.635v1.566H35.331Z" transform="translate(-35.331 -313.004)" fill="#dad8db" fill-rule="evenodd"/>
        </g>
        <g id="Group_13267-2" data-name="Group 13267" transform="translate(18.027 29.111)">
          <path id="Path_22338-2" data-name="Path 22338" d="M202,313h9.637v1.566H202Z" transform="translate(-202.001 -313.004)" fill="#dad8db" fill-rule="evenodd"/>
        </g>
        <g id="Group_13268-2" data-name="Group 13268" transform="translate(32.902 29.111)">
          <path id="Path_22339-2" data-name="Path 22339" d="M368.7,313h9.637v1.566H368.7Z" transform="translate(-368.698 -313.004)" fill="#dad8db" fill-rule="evenodd"/>
        </g>
        <g id="Group_13270-2" data-name="Group 13270" transform="translate(0.001 1.295)">
          <path id="Path_22340-2" data-name="Path 22340" d="M42.14,32.7a1.069,1.069,0,0,0,1.069-1.066V29.78h1.4A1.08,1.08,0,0,0,45.69,28.7V26.253a1.08,1.08,0,0,0-1.079-1.079H42.682V17.817a2.388,2.388,0,0,0,.577.072A2.447,2.447,0,0,0,43.9,17.8a2.425,2.425,0,0,0,.582-4.44L24.145,1.626a2.719,2.719,0,0,0-2.6,0L1.212,13.365a2.425,2.425,0,0,0,1.8,4.452v7.356H1.082A1.08,1.08,0,0,0,0,26.252V28.7A1.08,1.08,0,0,0,1.082,29.78h1.4v1.853A1.068,1.068,0,0,0,3.551,32.7h.805v6.528H3.551A1.069,1.069,0,0,0,2.484,40.3v1.85h-1.4A1.08,1.08,0,0,0,0,43.225v2.449a1.08,1.08,0,0,0,1.079,1.079H21.449a.669.669,0,1,0,0-1.339H1.341v-1.93h43.01v1.93H24.537a.669.669,0,0,0,0,1.339H44.611a1.08,1.08,0,0,0,1.079-1.079V43.225a1.08,1.08,0,0,0-1.079-1.079h-1.4V40.3a1.07,1.07,0,0,0-1.069-1.069h-.805V32.7h.805ZM2.968,16.4a1.09,1.09,0,0,1-1.484-.4h0a1.087,1.087,0,0,1,.4-1.483L22.218,2.783a1.286,1.286,0,0,1,.627-.15,1.27,1.27,0,0,1,.629.151l20.334,11.74A1.086,1.086,0,0,1,42.725,16.4L23.18,5.121a.669.669,0,0,0-.669,0ZM1.341,26.512H21.449a.669.669,0,1,0,0-1.339H4.349v-8.02l18.5-10.68,18.5,10.68v8.02H24.426a.669.669,0,0,0,0,1.339H44.351v1.93H1.341ZM18.7,31.361V29.78h8.3v1.58ZM25.12,32.7v6.528H20.57V32.7Zm-21.3-1.339V29.78h8.3v1.58ZM10.247,32.7v6.528H5.695V32.7Zm1.872,9.447h-8.3v-1.58h8.3Zm5.238-1.85v1.85h-3.9V40.3a1.069,1.069,0,0,0-1.066-1.069h-.805V32.7h.805a1.068,1.068,0,0,0,1.066-1.066V29.78h3.9v1.853A1.069,1.069,0,0,0,18.426,32.7h.805v6.528h-.805A1.07,1.07,0,0,0,17.357,40.3Zm9.637,1.85H18.7v-1.58h8.3Zm5.238-1.85v1.85h-3.9V40.3a1.07,1.07,0,0,0-1.069-1.069h-.805V32.7h.805a1.069,1.069,0,0,0,1.069-1.066V29.78h3.9v1.853A1.069,1.069,0,0,0,33.3,32.7h.805v6.528H33.3A1.07,1.07,0,0,0,32.233,40.3Zm9.637.27v1.58h-8.3v-1.58Zm-6.424-1.339V32.7H40v6.528Zm-1.874-7.867V29.78h8.3v1.58Z" transform="translate(-0.001 -1.295)" fill="#760018"/>
          <path id="Path_22341-2" data-name="Path 22341" d="M231.218,90.307a2.812,2.812,0,1,0-2.812,2.812A2.815,2.815,0,0,0,231.218,90.307Zm-4.285,0a1.473,1.473,0,1,1,1.473,1.473A1.475,1.475,0,0,1,226.934,90.307Z" transform="translate(-205.464 -79.803)" fill="#760018"/>
          <g id="Group_13269-2" data-name="Group 13269" transform="translate(11.019 15.273)">
            <path id="Path_22342-2" data-name="Path 22342" d="M127.236,176.04a1.862,1.862,0,0,0-1.574-2.862h-1.51a.669.669,0,0,0-.669.669v5.2a.669.669,0,0,0,.669.669h0s1.388-.006,1.77-.006a2.067,2.067,0,0,0,1.31-3.667Zm-1.574-1.524a.527.527,0,0,1,0,1.053h-.84v-1.055h.84Zm.264,3.853-1.1,0v-1.462h1.1a.73.73,0,0,1,0,1.459Z" transform="translate(-123.483 -173.113)" fill="#760018"/>
            <path id="Path_22343-2" data-name="Path 22343" d="M190.712,173.685l-.007-.018a.784.784,0,0,0-.728-.488h0a.784.784,0,0,0-.728.489l-.006.015-1.952,5.124a.669.669,0,0,0,1.251.476l.322-.845h2.212l.318.843a.669.669,0,1,0,1.252-.473Zm-1.339,3.415.6-1.578.6,1.578Z" transform="translate(-181.557 -173.114)" fill="#760018"/>
            <path id="Path_22344-2" data-name="Path 22344" d="M268.1,173.179h-.007a.669.669,0,0,0-.663.676l.03,3.1-2.4-3.481a.669.669,0,0,0-1.22.38v5.188a.669.669,0,1,0,1.339,0V176l2.288,3.313a.737.737,0,0,0,.833.306.764.764,0,0,0,.521-.76l-.049-5.022A.669.669,0,0,0,268.1,173.179Z" transform="translate(-251.31 -173.114)" fill="#760018"/>
            <path id="Path_22345-2" data-name="Path 22345" d="M345.587,177.9l-2.338-2.255,2.139-1.966a.669.669,0,1,0-.906-.986l-1.709,1.571v-1.144a.669.669,0,0,0-1.339,0v5.262a.669.669,0,0,0,1.339,0v-1.336l1.884,1.817a.669.669,0,1,0,.929-.963Z" transform="translate(-321.986 -172.45)" fill="#760018"/>
          </g>
        </g>
      </g>
      <text id="Bank_2" data-name="Bank 2" transform="translate(128 326)" fill="#760018" font-size="13" font-family="NunitoSans-Bold, Nunito Sans" font-weight="700"><tspan x="0" y="0">Bank 2</tspan></text>
    </g>
    <g id="Group_13280" data-name="Group 13280" transform="translate(38.311 503.217)">
      <g id="bank_3_3" data-name="bank(3)" transform="translate(126.344 261.274)">
        <g id="Group_13245-3" data-name="Group 13245" transform="translate(3.68 3.917)">
          <path id="Path_22316-3" data-name="Path 22316" d="M41.227,41.745V52.6H79.561V41.745L60.392,30.678Z" transform="translate(-41.227 -30.678)" fill="#fff" fill-rule="evenodd"/>
        </g>
        <g id="Group_13246-3" data-name="Group 13246" transform="translate(0.671 1.964)">
          <path id="Path_22317-3" data-name="Path 22317" d="M7.747,23.173a1.759,1.759,0,0,0,2.4.643l.377-.218L29.687,12.531,48.855,23.6l.377.218a1.755,1.755,0,0,0,1.753-3.04L30.651,9.035a2.053,2.053,0,0,0-1.927,0L8.389,20.775a1.762,1.762,0,0,0-.643,2.4Z" transform="translate(-7.513 -8.795)" fill="#760018" fill-rule="evenodd"/>
        </g>
        <g id="Group_13247-3" data-name="Group 13247" transform="translate(0.672 25.843)">
          <path id="Path_22318-3" data-name="Path 22318" d="M10.006,279.649H51.464a.411.411,0,0,0,.41-.41v-2.449a.411.411,0,0,0-.41-.41H7.935a.411.411,0,0,0-.41.41v2.449a.411.411,0,0,0,.41.41Z" transform="translate(-7.525 -276.381)" fill="#760018" fill-rule="evenodd"/>
        </g>
        <g id="Group_13248-3" data-name="Group 13248" transform="translate(3.153 29.111)">
          <path id="Path_22319-3" data-name="Path 22319" d="M37.2,315.923h7.366a.4.4,0,0,0,.4-.4V313H35.331v2.522a.4.4,0,0,0,.4.4Z" transform="translate(-35.331 -313.004)" fill="#fff" fill-rule="evenodd"/>
        </g>
        <g id="Group_13249-3" data-name="Group 13249" transform="translate(18.027 29.111)">
          <path id="Path_22320-3" data-name="Path 22320" d="M203.875,315.923h7.363a.4.4,0,0,0,.4-.4V313H202v2.522a.4.4,0,0,0,.4.4Z" transform="translate(-202.001 -313.004)" fill="#fff" fill-rule="evenodd"/>
        </g>
        <g id="Group_13250-3" data-name="Group 13250" transform="translate(32.902 29.111)">
          <path id="Path_22321-3" data-name="Path 22321" d="M369.1,315.923h8.838a.4.4,0,0,0,.4-.4V313H368.7v2.522A.4.4,0,0,0,369.1,315.923Z" transform="translate(-368.698 -313.004)" fill="#fff" fill-rule="evenodd"/>
        </g>
        <g id="Group_13251-3" data-name="Group 13251" transform="translate(34.776 32.03)">
          <path id="Path_22322-3" data-name="Path 22322" d="M389.7,345.715h5.889v7.867H389.7Z" transform="translate(-389.702 -345.715)" fill="#ffe07d" fill-rule="evenodd"/>
        </g>
        <g id="Group_13252-3" data-name="Group 13252" transform="translate(19.901 32.03)">
          <path id="Path_22323-3" data-name="Path 22323" d="M223,345.715h5.889v7.867H223Z" transform="translate(-223.004 -345.715)" fill="#ffe07d" fill-rule="evenodd"/>
        </g>
        <g id="Group_13253-3" data-name="Group 13253" transform="translate(5.025 32.03)">
          <path id="Path_22324-3" data-name="Path 22324" d="M56.306,345.715H62.2v7.867H56.306Z" transform="translate(-56.306 -345.715)" fill="#ffe07d" fill-rule="evenodd"/>
        </g>
        <g id="Group_13254-3" data-name="Group 13254" transform="translate(3.153 39.897)">
          <path id="Path_22325-3" data-name="Path 22325" d="M35.331,436.789h9.635V434.27a.4.4,0,0,0-.4-.4h-8.84a.4.4,0,0,0-.4.4Z" transform="translate(-35.331 -433.87)" fill="#fff" fill-rule="evenodd"/>
        </g>
        <g id="Group_13255-3" data-name="Group 13255" transform="translate(32.902 39.897)">
          <path id="Path_22326-3" data-name="Path 22326" d="M368.7,436.789h9.637V434.27a.4.4,0,0,0-.4-.4H369.1a.4.4,0,0,0-.4.4Z" transform="translate(-368.698 -433.87)" fill="#fff" fill-rule="evenodd"/>
        </g>
        <g id="Group_13256-3" data-name="Group 13256" transform="translate(18.026 39.897)">
          <path id="Path_22327-3" data-name="Path 22327" d="M202,436.789h9.637V434.27a.4.4,0,0,0-.4-.4H202.4a.4.4,0,0,0-.4.4v2.519Z" transform="translate(-202 -433.87)" fill="#fff" fill-rule="evenodd"/>
        </g>
        <g id="Group_13257-3" data-name="Group 13257" transform="translate(0.672 42.816)">
          <path id="Path_22328-3" data-name="Path 22328" d="M7.934,469.85H51.463a.411.411,0,0,0,.41-.41v-2.449a.411.411,0,0,0-.41-.41H7.934a.411.411,0,0,0-.41.41v2.449A.411.411,0,0,0,7.934,469.85Z" transform="translate(-7.524 -466.582)" fill="#760018" fill-rule="evenodd"/>
        </g>
        <g id="Group_13259-3" data-name="Group 13259" transform="translate(10.916 29.111)">
          <path id="Path_22330-3" data-name="Path 22330" d="M122.322,315.923v7.867H123.8a.4.4,0,0,1,.4.4v2.519h5.238V324.19a.4.4,0,0,1,.4-.4h1.475v-7.867h-1.475a.4.4,0,0,1-.4-.4V313h-5.238v2.522a.4.4,0,0,1-.4.4Z" transform="translate(-122.322 -313.004)" fill="#b6b1b7" fill-rule="evenodd"/>
        </g>
        <g id="Group_13260-3" data-name="Group 13260" transform="translate(25.789 29.111)">
          <path id="Path_22331-3" data-name="Path 22331" d="M288.992,315.923v7.867h1.475a.4.4,0,0,1,.4.4v2.519H296.1V324.19a.4.4,0,0,1,.4-.4h1.475v-7.867H296.5a.4.4,0,0,1-.4-.4V313h-5.238v2.522a.4.4,0,0,1-.4.4Z" transform="translate(-288.992 -313.004)" fill="#b6b1b7" fill-rule="evenodd"/>
        </g>
        <g id="Group_13261-3" data-name="Group 13261" transform="translate(3.68 5.7)">
          <path id="Path_22332-3" data-name="Path 22332" d="M60.392,50.662,41.227,61.729v2.489L60.392,53.151,79.561,64.218V61.729Z" transform="translate(-41.227 -50.662)" fill="#dad8db" fill-rule="evenodd"/>
        </g>
        <g id="Group_13263-3" data-name="Group 13263" transform="translate(5.025 32.03)">
          <path id="Path_22334-3" data-name="Path 22334" d="M56.306,345.715H62.2v2.14H56.306Z" transform="translate(-56.306 -345.715)" fill="#ffc269" fill-rule="evenodd"/>
        </g>
        <g id="Group_13264-3" data-name="Group 13264" transform="translate(19.901 32.03)">
          <path id="Path_22335-3" data-name="Path 22335" d="M223,345.715h5.889v2.14H223Z" transform="translate(-223.004 -345.715)" fill="#ffc269" fill-rule="evenodd"/>
        </g>
        <g id="Group_13265-3" data-name="Group 13265" transform="translate(34.776 32.03)">
          <path id="Path_22336-3" data-name="Path 22336" d="M389.7,345.715h5.889v2.14H389.7Z" transform="translate(-389.702 -345.715)" fill="#ffc269" fill-rule="evenodd"/>
        </g>
        <g id="Group_13266-3" data-name="Group 13266" transform="translate(3.153 29.111)">
          <path id="Path_22337-3" data-name="Path 22337" d="M35.331,313h9.635v1.566H35.331Z" transform="translate(-35.331 -313.004)" fill="#dad8db" fill-rule="evenodd"/>
        </g>
        <g id="Group_13267-3" data-name="Group 13267" transform="translate(18.027 29.111)">
          <path id="Path_22338-3" data-name="Path 22338" d="M202,313h9.637v1.566H202Z" transform="translate(-202.001 -313.004)" fill="#dad8db" fill-rule="evenodd"/>
        </g>
        <g id="Group_13268-3" data-name="Group 13268" transform="translate(32.902 29.111)">
          <path id="Path_22339-3" data-name="Path 22339" d="M368.7,313h9.637v1.566H368.7Z" transform="translate(-368.698 -313.004)" fill="#dad8db" fill-rule="evenodd"/>
        </g>
        <g id="Group_13270-3" data-name="Group 13270" transform="translate(0.001 1.295)">
          <path id="Path_22340-3" data-name="Path 22340" d="M42.14,32.7a1.069,1.069,0,0,0,1.069-1.066V29.78h1.4A1.08,1.08,0,0,0,45.69,28.7V26.253a1.08,1.08,0,0,0-1.079-1.079H42.682V17.817a2.388,2.388,0,0,0,.577.072A2.447,2.447,0,0,0,43.9,17.8a2.425,2.425,0,0,0,.582-4.44L24.145,1.626a2.719,2.719,0,0,0-2.6,0L1.212,13.365a2.425,2.425,0,0,0,1.8,4.452v7.356H1.082A1.08,1.08,0,0,0,0,26.252V28.7A1.08,1.08,0,0,0,1.082,29.78h1.4v1.853A1.068,1.068,0,0,0,3.551,32.7h.805v6.528H3.551A1.069,1.069,0,0,0,2.484,40.3v1.85h-1.4A1.08,1.08,0,0,0,0,43.225v2.449a1.08,1.08,0,0,0,1.079,1.079H21.449a.669.669,0,1,0,0-1.339H1.341v-1.93h43.01v1.93H24.537a.669.669,0,0,0,0,1.339H44.611a1.08,1.08,0,0,0,1.079-1.079V43.225a1.08,1.08,0,0,0-1.079-1.079h-1.4V40.3a1.07,1.07,0,0,0-1.069-1.069h-.805V32.7h.805ZM2.968,16.4a1.09,1.09,0,0,1-1.484-.4h0a1.087,1.087,0,0,1,.4-1.483L22.218,2.783a1.286,1.286,0,0,1,.627-.15,1.27,1.27,0,0,1,.629.151l20.334,11.74A1.086,1.086,0,0,1,42.725,16.4L23.18,5.121a.669.669,0,0,0-.669,0ZM1.341,26.512H21.449a.669.669,0,1,0,0-1.339H4.349v-8.02l18.5-10.68,18.5,10.68v8.02H24.426a.669.669,0,0,0,0,1.339H44.351v1.93H1.341ZM18.7,31.361V29.78h8.3v1.58ZM25.12,32.7v6.528H20.57V32.7Zm-21.3-1.339V29.78h8.3v1.58ZM10.247,32.7v6.528H5.695V32.7Zm1.872,9.447h-8.3v-1.58h8.3Zm5.238-1.85v1.85h-3.9V40.3a1.069,1.069,0,0,0-1.066-1.069h-.805V32.7h.805a1.068,1.068,0,0,0,1.066-1.066V29.78h3.9v1.853A1.069,1.069,0,0,0,18.426,32.7h.805v6.528h-.805A1.07,1.07,0,0,0,17.357,40.3Zm9.637,1.85H18.7v-1.58h8.3Zm5.238-1.85v1.85h-3.9V40.3a1.07,1.07,0,0,0-1.069-1.069h-.805V32.7h.805a1.069,1.069,0,0,0,1.069-1.066V29.78h3.9v1.853A1.069,1.069,0,0,0,33.3,32.7h.805v6.528H33.3A1.07,1.07,0,0,0,32.233,40.3Zm9.637.27v1.58h-8.3v-1.58Zm-6.424-1.339V32.7H40v6.528Zm-1.874-7.867V29.78h8.3v1.58Z" transform="translate(-0.001 -1.295)" fill="#760018"/>
        </g>
        <g id="rupee-symbol" transform="translate(16.077 10.24)">
          <g id="flat" transform="translate(1.5 1.5)">
            <circle id="Ellipse_724" data-name="Ellipse 724" cx="5.5" cy="5.5" r="5.5" transform="translate(-0.231 -0.232)" fill="#fbc533"/>
            <path id="Path_22372" data-name="Path 22372" d="M9.03,1.5a5.245,5.245,0,0,0-2.409.582,5.528,5.528,0,0,0-2.168,4.14,4.894,4.894,0,0,0,5.214,5.3,6.419,6.419,0,0,0,2.668-.652A5.269,5.269,0,0,0,9.03,1.5Z" transform="translate(-3.762 -1.5)" fill="#ffd54b"/>
            <path id="Path_22373" data-name="Path 22373" d="M7.234,4.025a4.8,4.8,0,1,0,4.8,4.8,4.8,4.8,0,0,0-4.8-4.8Zm0,9.229a4.43,4.43,0,1,1,4.43-4.43,4.43,4.43,0,0,1-4.43,4.43Z" transform="translate(-2.215 -3.434)" fill="#ef9c35"/>
            <path id="Path_22374" data-name="Path 22374" d="M8.327,3.491a4.8,4.8,0,1,0,4.8,4.8,4.8,4.8,0,0,0-4.8-4.8Zm0,9.229a4.43,4.43,0,1,1,4.43-4.43,4.43,4.43,0,0,1-4.43,4.43Z" transform="translate(-3.052 -3.025)" fill="#fbbe3d"/>
          </g>
          <g id="Layer_1_copy" data-name="Layer 1 copy" transform="translate(4.972 4.103)">
            <path id="Path_22375" data-name="Path 22375" d="M19.431,13.736h-.252a1.661,1.661,0,0,0-.214-.416h.466a.351.351,0,0,0,0-.7H17.646l-.038,0h-.929a.351.351,0,1,0,0,.7h.929a.96.96,0,0,1,.792.418H16.693a.351.351,0,1,0,0,.7h1.86a.961.961,0,0,1-.946.8h-.929a.351.351,0,0,0-.255.593l1.9,2a.351.351,0,1,0,.51-.484L17.5,15.945h.112a1.666,1.666,0,0,0,1.657-1.506h.167a.351.351,0,1,0,0-.7Z" transform="translate(-16.327 -12.616)" fill="#b5843a"/>
            <path id="Path_22376" data-name="Path 22376" d="M18.959,18.214a.232.232,0,0,1-.17-.073l-1.9-2a.234.234,0,0,1,.17-.4h.929a1.075,1.075,0,0,0,1.062-.9l.023-.137h-2a.234.234,0,0,1,0-.468H19l-.127-.183a1.08,1.08,0,0,0-.888-.468H17.06a.234.234,0,0,1,0-.468h.93l.037,0h1.785a.234.234,0,0,1,0,.468H19.12l.131.185a1.552,1.552,0,0,1,.2.387l.027.078h.336a.234.234,0,1,1,0,.468h-.274l-.01.106a1.54,1.54,0,0,1-1.54,1.4h-.384l1.524,1.608a.234.234,0,0,1-.17.4Z" transform="translate(-16.709 -13)" fill="#8f5f00"/>
            <g id="Group_13281" data-name="Group 13281" transform="translate(0.18 0.116)">
              <path id="Path_22377" data-name="Path 22377" d="M18.2,23.956h-.929a.234.234,0,0,0-.171.074.237.237,0,0,1,.056-.007h.928a1.072,1.072,0,0,0,.6-.182A1.073,1.073,0,0,1,18.2,23.956Z" transform="translate(-17.096 -21.329)" fill="#7a4818"/>
              <path id="Path_22378" data-name="Path 22378" d="M17.159,17.975a.234.234,0,0,1,.056-.007h1.929L19.1,17.9H17.33A.234.234,0,0,0,17.159,17.975Z" transform="translate(-17.144 -16.78)" fill="#7a4818"/>
              <path id="Path_22379" data-name="Path 22379" d="M17.153,13.18h.931l.037,0h1.785a.234.234,0,0,1,.171.394.234.234,0,0,0-.056-.462H18.235l-.037,0h-.931a.234.234,0,0,0-.171.074.246.246,0,0,1,.056-.007Z" transform="translate(-17.097 -13.113)" fill="#7a4818"/>
              <path id="Path_22380" data-name="Path 22380" d="M26.942,16h-.336l-.027-.078a1.552,1.552,0,0,0-.2-.387l-.083-.117h-.163l.131.185a1.562,1.562,0,0,1,.2.387l.027.079h.336a.234.234,0,0,1,.171.394A.234.234,0,0,0,26.942,16Z" transform="translate(-24.018 -14.874)" fill="#7a4818"/>
              <path id="Path_22381" data-name="Path 22381" d="M25.608,20.189l-.01.106a1.54,1.54,0,0,1-.7,1.154,1.54,1.54,0,0,0,.813-1.221l0-.039Z" transform="translate(-23.073 -18.532)" fill="#7a4818"/>
              <path id="Path_22382" data-name="Path 22382" d="M19.842,26.62h-.179l1.524,1.607a.234.234,0,0,1,0,.321.234.234,0,0,0,.114-.388Z" transform="translate(-19.062 -23.457)" fill="#7a4818"/>
            </g>
          </g>
        </g>
      </g>
      <text id="Lender" transform="translate(128.345 326)" fill="#1b1b1b" font-size="13" font-family="NunitoSans-Bold, Nunito Sans" font-weight="700"><tspan x="0" y="0">Lender</tspan></text>
    </g>
    <g id="Group_13271" data-name="Group 13271" transform="translate(56 182)">
      <g id="bank_3_4" data-name="bank(3)" transform="translate(223.311 261.274)">
        <g id="Group_13245-4" data-name="Group 13245" transform="translate(3.68 3.917)">
          <path id="Path_22316-4" data-name="Path 22316" d="M41.227,41.745V52.6H79.561V41.745L60.392,30.678Z" transform="translate(-41.227 -30.678)" fill="#fff" fill-rule="evenodd"/>
        </g>
        <g id="Group_13246-4" data-name="Group 13246" transform="translate(0.671 1.964)">
          <path id="Path_22317-4" data-name="Path 22317" d="M7.747,23.173a1.759,1.759,0,0,0,2.4.643l.377-.218L29.687,12.531,48.855,23.6l.377.218a1.755,1.755,0,0,0,1.753-3.04L30.651,9.035a2.053,2.053,0,0,0-1.927,0L8.389,20.775a1.762,1.762,0,0,0-.643,2.4Z" transform="translate(-7.513 -8.795)" fill="#760018" fill-rule="evenodd"/>
        </g>
        <g id="Group_13247-4" data-name="Group 13247" transform="translate(0.672 25.843)">
          <path id="Path_22318-4" data-name="Path 22318" d="M10.006,279.649H51.464a.411.411,0,0,0,.41-.41v-2.449a.411.411,0,0,0-.41-.41H7.935a.411.411,0,0,0-.41.41v2.449a.411.411,0,0,0,.41.41Z" transform="translate(-7.525 -276.381)" fill="#760018" fill-rule="evenodd"/>
        </g>
        <g id="Group_13248-4" data-name="Group 13248" transform="translate(3.153 29.111)">
          <path id="Path_22319-4" data-name="Path 22319" d="M37.2,315.923h7.366a.4.4,0,0,0,.4-.4V313H35.331v2.522a.4.4,0,0,0,.4.4Z" transform="translate(-35.331 -313.004)" fill="#fff" fill-rule="evenodd"/>
        </g>
        <g id="Group_13249-4" data-name="Group 13249" transform="translate(18.027 29.111)">
          <path id="Path_22320-4" data-name="Path 22320" d="M203.875,315.923h7.363a.4.4,0,0,0,.4-.4V313H202v2.522a.4.4,0,0,0,.4.4Z" transform="translate(-202.001 -313.004)" fill="#fff" fill-rule="evenodd"/>
        </g>
        <g id="Group_13250-4" data-name="Group 13250" transform="translate(32.902 29.111)">
          <path id="Path_22321-4" data-name="Path 22321" d="M369.1,315.923h8.838a.4.4,0,0,0,.4-.4V313H368.7v2.522A.4.4,0,0,0,369.1,315.923Z" transform="translate(-368.698 -313.004)" fill="#fff" fill-rule="evenodd"/>
        </g>
        <g id="Group_13251-4" data-name="Group 13251" transform="translate(34.776 32.03)">
          <path id="Path_22322-4" data-name="Path 22322" d="M389.7,345.715h5.889v7.867H389.7Z" transform="translate(-389.702 -345.715)" fill="#ffe07d" fill-rule="evenodd"/>
        </g>
        <g id="Group_13252-4" data-name="Group 13252" transform="translate(19.901 32.03)">
          <path id="Path_22323-4" data-name="Path 22323" d="M223,345.715h5.889v7.867H223Z" transform="translate(-223.004 -345.715)" fill="#ffe07d" fill-rule="evenodd"/>
        </g>
        <g id="Group_13253-4" data-name="Group 13253" transform="translate(5.025 32.03)">
          <path id="Path_22324-4" data-name="Path 22324" d="M56.306,345.715H62.2v7.867H56.306Z" transform="translate(-56.306 -345.715)" fill="#ffe07d" fill-rule="evenodd"/>
        </g>
        <g id="Group_13254-4" data-name="Group 13254" transform="translate(3.153 39.897)">
          <path id="Path_22325-4" data-name="Path 22325" d="M35.331,436.789h9.635V434.27a.4.4,0,0,0-.4-.4h-8.84a.4.4,0,0,0-.4.4Z" transform="translate(-35.331 -433.87)" fill="#fff" fill-rule="evenodd"/>
        </g>
        <g id="Group_13255-4" data-name="Group 13255" transform="translate(32.902 39.897)">
          <path id="Path_22326-4" data-name="Path 22326" d="M368.7,436.789h9.637V434.27a.4.4,0,0,0-.4-.4H369.1a.4.4,0,0,0-.4.4Z" transform="translate(-368.698 -433.87)" fill="#fff" fill-rule="evenodd"/>
        </g>
        <g id="Group_13256-4" data-name="Group 13256" transform="translate(18.026 39.897)">
          <path id="Path_22327-4" data-name="Path 22327" d="M202,436.789h9.637V434.27a.4.4,0,0,0-.4-.4H202.4a.4.4,0,0,0-.4.4v2.519Z" transform="translate(-202 -433.87)" fill="#fff" fill-rule="evenodd"/>
        </g>
        <g id="Group_13257-4" data-name="Group 13257" transform="translate(0.672 42.816)">
          <path id="Path_22328-4" data-name="Path 22328" d="M7.934,469.85H51.463a.411.411,0,0,0,.41-.41v-2.449a.411.411,0,0,0-.41-.41H7.934a.411.411,0,0,0-.41.41v2.449A.411.411,0,0,0,7.934,469.85Z" transform="translate(-7.524 -466.582)" fill="#760018" fill-rule="evenodd"/>
        </g>
        <g id="Group_13258-3" data-name="Group 13258" transform="translate(20.801 9.656)">
          <path id="Path_22329-3" data-name="Path 22329" d="M233.095,97.137A2.142,2.142,0,1,0,235.237,95,2.142,2.142,0,0,0,233.095,97.137Z" transform="translate(-233.095 -94.995)" fill="#ffe07d" fill-rule="evenodd"/>
        </g>
        <g id="Group_13259-4" data-name="Group 13259" transform="translate(10.916 29.111)">
          <path id="Path_22330-4" data-name="Path 22330" d="M122.322,315.923v7.867H123.8a.4.4,0,0,1,.4.4v2.519h5.238V324.19a.4.4,0,0,1,.4-.4h1.475v-7.867h-1.475a.4.4,0,0,1-.4-.4V313h-5.238v2.522a.4.4,0,0,1-.4.4Z" transform="translate(-122.322 -313.004)" fill="#b6b1b7" fill-rule="evenodd"/>
        </g>
        <g id="Group_13260-4" data-name="Group 13260" transform="translate(25.789 29.111)">
          <path id="Path_22331-4" data-name="Path 22331" d="M288.992,315.923v7.867h1.475a.4.4,0,0,1,.4.4v2.519H296.1V324.19a.4.4,0,0,1,.4-.4h1.475v-7.867H296.5a.4.4,0,0,1-.4-.4V313h-5.238v2.522a.4.4,0,0,1-.4.4Z" transform="translate(-288.992 -313.004)" fill="#b6b1b7" fill-rule="evenodd"/>
        </g>
        <g id="Group_13261-4" data-name="Group 13261" transform="translate(3.68 5.7)">
          <path id="Path_22332-4" data-name="Path 22332" d="M60.392,50.662,41.227,61.729v2.489L60.392,53.151,79.561,64.218V61.729Z" transform="translate(-41.227 -50.662)" fill="#dad8db" fill-rule="evenodd"/>
        </g>
        <g id="Group_13262-3" data-name="Group 13262" transform="translate(20.801 9.656)">
          <path id="Path_22333-3" data-name="Path 22333" d="M235.238,95a2.144,2.144,0,0,0-2.026,2.841,2.142,2.142,0,0,1,4.012.1,2.116,2.116,0,0,0,.157-.8A2.143,2.143,0,0,0,235.238,95Z" transform="translate(-233.096 -94.995)" fill="#ffc269" fill-rule="evenodd"/>
        </g>
        <g id="Group_13263-4" data-name="Group 13263" transform="translate(5.025 32.03)">
          <path id="Path_22334-4" data-name="Path 22334" d="M56.306,345.715H62.2v2.14H56.306Z" transform="translate(-56.306 -345.715)" fill="#ffc269" fill-rule="evenodd"/>
        </g>
        <g id="Group_13264-4" data-name="Group 13264" transform="translate(19.901 32.03)">
          <path id="Path_22335-4" data-name="Path 22335" d="M223,345.715h5.889v2.14H223Z" transform="translate(-223.004 -345.715)" fill="#ffc269" fill-rule="evenodd"/>
        </g>
        <g id="Group_13265-4" data-name="Group 13265" transform="translate(34.776 32.03)">
          <path id="Path_22336-4" data-name="Path 22336" d="M389.7,345.715h5.889v2.14H389.7Z" transform="translate(-389.702 -345.715)" fill="#ffc269" fill-rule="evenodd"/>
        </g>
        <g id="Group_13266-4" data-name="Group 13266" transform="translate(3.153 29.111)">
          <path id="Path_22337-4" data-name="Path 22337" d="M35.331,313h9.635v1.566H35.331Z" transform="translate(-35.331 -313.004)" fill="#dad8db" fill-rule="evenodd"/>
        </g>
        <g id="Group_13267-4" data-name="Group 13267" transform="translate(18.027 29.111)">
          <path id="Path_22338-4" data-name="Path 22338" d="M202,313h9.637v1.566H202Z" transform="translate(-202.001 -313.004)" fill="#dad8db" fill-rule="evenodd"/>
        </g>
        <g id="Group_13268-4" data-name="Group 13268" transform="translate(32.902 29.111)">
          <path id="Path_22339-4" data-name="Path 22339" d="M368.7,313h9.637v1.566H368.7Z" transform="translate(-368.698 -313.004)" fill="#dad8db" fill-rule="evenodd"/>
        </g>
        <g id="Group_13270-4" data-name="Group 13270" transform="translate(0.001 1.295)">
          <path id="Path_22340-4" data-name="Path 22340" d="M42.14,32.7a1.069,1.069,0,0,0,1.069-1.066V29.78h1.4A1.08,1.08,0,0,0,45.69,28.7V26.253a1.08,1.08,0,0,0-1.079-1.079H42.682V17.817a2.388,2.388,0,0,0,.577.072A2.447,2.447,0,0,0,43.9,17.8a2.425,2.425,0,0,0,.582-4.44L24.145,1.626a2.719,2.719,0,0,0-2.6,0L1.212,13.365a2.425,2.425,0,0,0,1.8,4.452v7.356H1.082A1.08,1.08,0,0,0,0,26.252V28.7A1.08,1.08,0,0,0,1.082,29.78h1.4v1.853A1.068,1.068,0,0,0,3.551,32.7h.805v6.528H3.551A1.069,1.069,0,0,0,2.484,40.3v1.85h-1.4A1.08,1.08,0,0,0,0,43.225v2.449a1.08,1.08,0,0,0,1.079,1.079H21.449a.669.669,0,1,0,0-1.339H1.341v-1.93h43.01v1.93H24.537a.669.669,0,0,0,0,1.339H44.611a1.08,1.08,0,0,0,1.079-1.079V43.225a1.08,1.08,0,0,0-1.079-1.079h-1.4V40.3a1.07,1.07,0,0,0-1.069-1.069h-.805V32.7h.805ZM2.968,16.4a1.09,1.09,0,0,1-1.484-.4h0a1.087,1.087,0,0,1,.4-1.483L22.218,2.783a1.286,1.286,0,0,1,.627-.15,1.27,1.27,0,0,1,.629.151l20.334,11.74A1.086,1.086,0,0,1,42.725,16.4L23.18,5.121a.669.669,0,0,0-.669,0ZM1.341,26.512H21.449a.669.669,0,1,0,0-1.339H4.349v-8.02l18.5-10.68,18.5,10.68v8.02H24.426a.669.669,0,0,0,0,1.339H44.351v1.93H1.341ZM18.7,31.361V29.78h8.3v1.58ZM25.12,32.7v6.528H20.57V32.7Zm-21.3-1.339V29.78h8.3v1.58ZM10.247,32.7v6.528H5.695V32.7Zm1.872,9.447h-8.3v-1.58h8.3Zm5.238-1.85v1.85h-3.9V40.3a1.069,1.069,0,0,0-1.066-1.069h-.805V32.7h.805a1.068,1.068,0,0,0,1.066-1.066V29.78h3.9v1.853A1.069,1.069,0,0,0,18.426,32.7h.805v6.528h-.805A1.07,1.07,0,0,0,17.357,40.3Zm9.637,1.85H18.7v-1.58h8.3Zm5.238-1.85v1.85h-3.9V40.3a1.07,1.07,0,0,0-1.069-1.069h-.805V32.7h.805a1.069,1.069,0,0,0,1.069-1.066V29.78h3.9v1.853A1.069,1.069,0,0,0,33.3,32.7h.805v6.528H33.3A1.07,1.07,0,0,0,32.233,40.3Zm9.637.27v1.58h-8.3v-1.58Zm-6.424-1.339V32.7H40v6.528Zm-1.874-7.867V29.78h8.3v1.58Z" transform="translate(-0.001 -1.295)" fill="#760018"/>
          <path id="Path_22341-3" data-name="Path 22341" d="M231.218,90.307a2.812,2.812,0,1,0-2.812,2.812A2.815,2.815,0,0,0,231.218,90.307Zm-4.285,0a1.473,1.473,0,1,1,1.473,1.473A1.475,1.475,0,0,1,226.934,90.307Z" transform="translate(-205.464 -79.803)" fill="#760018"/>
          <g id="Group_13269-3" data-name="Group 13269" transform="translate(11.019 15.273)">
            <path id="Path_22342-3" data-name="Path 22342" d="M127.236,176.04a1.862,1.862,0,0,0-1.574-2.862h-1.51a.669.669,0,0,0-.669.669v5.2a.669.669,0,0,0,.669.669h0s1.388-.006,1.77-.006a2.067,2.067,0,0,0,1.31-3.667Zm-1.574-1.524a.527.527,0,0,1,0,1.053h-.84v-1.055h.84Zm.264,3.853-1.1,0v-1.462h1.1a.73.73,0,0,1,0,1.459Z" transform="translate(-123.483 -173.113)" fill="#760018"/>
            <path id="Path_22343-3" data-name="Path 22343" d="M190.712,173.685l-.007-.018a.784.784,0,0,0-.728-.488h0a.784.784,0,0,0-.728.489l-.006.015-1.952,5.124a.669.669,0,0,0,1.251.476l.322-.845h2.212l.318.843a.669.669,0,1,0,1.252-.473Zm-1.339,3.415.6-1.578.6,1.578Z" transform="translate(-181.557 -173.114)" fill="#760018"/>
            <path id="Path_22344-3" data-name="Path 22344" d="M268.1,173.179h-.007a.669.669,0,0,0-.663.676l.03,3.1-2.4-3.481a.669.669,0,0,0-1.22.38v5.188a.669.669,0,1,0,1.339,0V176l2.288,3.313a.737.737,0,0,0,.833.306.764.764,0,0,0,.521-.76l-.049-5.022A.669.669,0,0,0,268.1,173.179Z" transform="translate(-251.31 -173.114)" fill="#760018"/>
            <path id="Path_22345-3" data-name="Path 22345" d="M345.587,177.9l-2.338-2.255,2.139-1.966a.669.669,0,1,0-.906-.986l-1.709,1.571v-1.144a.669.669,0,0,0-1.339,0v5.262a.669.669,0,0,0,1.339,0v-1.336l1.884,1.817a.669.669,0,1,0,.929-.963Z" transform="translate(-321.986 -172.45)" fill="#760018"/>
          </g>
        </g>
      </g>
      <text id="Bank_3" data-name="Bank 3" transform="translate(225.312 326)" fill="#760018" font-size="13" font-family="NunitoSans-Bold, Nunito Sans" font-weight="700"><tspan x="0" y="0">Bank 3</tspan></text>
    </g>
    <g id="Rectangle_5692" data-name="Rectangle 5692" transform="translate(176 518)" fill="none" stroke="#760018" stroke-width="1" stroke-dasharray="2" opacity="0.54">
      <rect width="23" height="115" rx="5" stroke="none"/>
      <rect x="0.5" y="0.5" width="22" height="114" rx="4.5" fill="none"/>
    </g>
    <g id="Ellipse_713" data-name="Ellipse 713" transform="translate(176 516)" fill="#ffe4ec" stroke="#760018" stroke-width="1">
      <ellipse cx="11.5" cy="5" rx="11.5" ry="5" stroke="none"/>
      <ellipse cx="11.5" cy="5" rx="11" ry="4.5" fill="none"/>
    </g>
    <g id="Rectangle_5693" data-name="Rectangle 5693" transform="translate(292.283 521.56) rotate(48)" fill="none" stroke="#760018" stroke-width="1" stroke-dasharray="2" opacity="0.54">
      <rect width="23" height="141" rx="5" stroke="none"/>
      <rect x="0.5" y="0.5" width="22" height="140" rx="4.5" fill="none"/>
    </g>
    <g id="Rectangle_5694" data-name="Rectangle 5694" transform="translate(193.762 616.577) rotate(132)" fill="none" stroke="#760018" stroke-width="1" stroke-dasharray="2" opacity="0.54">
      <rect width="23" height="142" rx="5" stroke="none"/>
      <rect x="0.5" y="0.5" width="22" height="141" rx="4.5" fill="none"/>
    </g>
    <g id="Ellipse_714" data-name="Ellipse 714" transform="translate(294.729 520.041) rotate(49)" fill="#ffe4ec" stroke="#760018" stroke-width="1">
      <ellipse cx="11.5" cy="5" rx="11.5" ry="5" stroke="none"/>
      <ellipse cx="11.5" cy="5" rx="11" ry="4.5" fill="none"/>
    </g>
    <g id="Ellipse_715" data-name="Ellipse 715" transform="translate(71.833 536.597) rotate(-45)" fill="#ffe4ec" stroke="#760018" stroke-width="1">
      <ellipse cx="11.5" cy="5" rx="11.5" ry="5" stroke="none"/>
      <ellipse cx="11.5" cy="5" rx="11" ry="4.5" fill="none"/>
    </g>
    <g id="laptop" transform="translate(158 607.45)">
      <path id="Path_22346" data-name="Path 22346" d="M214.767,169.467H195.993a.876.876,0,0,1-.876-.876V146.905a.876.876,0,0,1,.876-.876h18.774a.876.876,0,0,1,.876.876v21.685A.876.876,0,0,1,214.767,169.467Zm-17.9-1.753h17.021V147.782H196.87Z" transform="translate(-172.872 -101.173)"/>
      <path id="Path_22347" data-name="Path 22347" d="M83.3,122.243V88.84a3.791,3.791,0,0,0-3.754-3.827h-43.5a3.791,3.791,0,0,0-3.754,3.827v33.38" transform="translate(-28.604 -47.113)" fill="#cacbff"/>
      <path id="Path_22349" data-name="Path 22349" d="M41,409.2H7.687v1.808a5.406,5.406,0,0,0,5.406,5.406H58.9a5.406,5.406,0,0,0,5.406-5.406V409.2Z" transform="translate(-6.811 -334.338)" fill="#fff"/>
      <rect id="Rectangle_5695" data-name="Rectangle 5695" width="42.89" height="28.62" transform="translate(7.945 42.106)" fill="#fff"/>
      <circle id="Ellipse_716" data-name="Ellipse 716" cx="1.753" cy="1.753" r="1.753" transform="translate(44.229 64.243)" fill="#00aaf0"/>
      <path id="Path_22352" data-name="Path 22352" d="M259.237,39.524H240.105a2.294,2.294,0,0,0-2.294,2.294V67.143a2.294,2.294,0,0,0,2.294,2.294h15l1.577,1.577,1.577-1.577h.978a2.294,2.294,0,0,0,2.294-2.294V41.818A2.294,2.294,0,0,0,259.237,39.524Z" transform="translate(-210.698 -6.811)" fill="#aae1ff"/>
      <path id="Path_22353" data-name="Path 22353" d="M259.237,39.524H240.105a2.294,2.294,0,0,0-2.294,2.294v7.054h23.72V41.818A2.294,2.294,0,0,0,259.237,39.524Z" transform="translate(-210.698 -6.811)" fill="#fff"/>
      <circle id="Ellipse_717" data-name="Ellipse 717" cx="1.808" cy="1.808" r="1.808" transform="translate(30.561 35.65)" fill="#fff082"/>
      <path id="Path_22354" data-name="Path 22354" d="M112.832,161.01H106.7a.583.583,0,0,1-.583-.583V154.3a.583.583,0,0,1,.583-.583h6.127a.583.583,0,0,1,.583.583v6.127A.583.583,0,0,1,112.832,161.01Z" transform="translate(-94.023 -107.985)" fill="#aae1ff"/>
      <path id="Path_22355" data-name="Path 22355" d="M57.5,73.983H55.568V41.727a4.689,4.689,0,0,0-3.859-4.637V35.007a3.174,3.174,0,0,0-3.17-3.17H29.407a3.174,3.174,0,0,0-3.17,3.17V41.23H7.945a.876.876,0,0,0-.876.876v28.62a.876.876,0,0,0,.876.876H50.836a.876.876,0,0,0,.876-.876v-4.01a.876.876,0,1,0-1.753,0V69.85H8.822V42.982H26.236v17.35a3.174,3.174,0,0,0,3.17,3.17H44.043l.379.379a2.629,2.629,0,1,0,3.123,0l.38-.38h.615a3.174,3.174,0,0,0,3.17-3.17V38.884a2.945,2.945,0,0,1,2.106,2.842V73.983H12.255a.876.876,0,1,0,0,1.753H54.5a.856.856,0,0,0,.389,0H56.62v.932a4.535,4.535,0,0,1-4.53,4.53H6.283a4.535,4.535,0,0,1-4.53-4.53v-.932h6.88a.876.876,0,1,0,0-1.753H4.557V41.727a2.918,2.918,0,0,1,2.877-2.951H23.121a.876.876,0,0,0,0-1.753H7.435a4.673,4.673,0,0,0-4.63,4.7V73.983H.876A.876.876,0,0,0,0,74.86v1.808A6.29,6.29,0,0,0,6.283,82.95H52.09a6.29,6.29,0,0,0,6.283-6.283V74.86A.876.876,0,0,0,57.5,73.983ZM29.407,33.59H48.539a1.419,1.419,0,0,1,1.418,1.418v6.177H27.989V35.007A1.419,1.419,0,0,1,29.407,33.59ZM45.983,66.872A.876.876,0,1,1,46.859,66,.877.877,0,0,1,45.983,66.872Zm2.556-5.122h-.978a.876.876,0,0,0-.62.257l-.958.958-.958-.958a.876.876,0,0,0-.62-.257h-15a1.419,1.419,0,0,1-1.418-1.418V42.938H49.957V60.332A1.419,1.419,0,0,1,48.539,61.75Z" fill="#760018"/>
      <circle id="Ellipse_718" data-name="Ellipse 718" cx="0.876" cy="0.876" r="0.876" transform="translate(46.608 44.857)" fill="#760018"/>
      <path id="Path_22356" data-name="Path 22356" d="M264.093,147.782h13.094a.876.876,0,0,0,0-1.753H264.093a.876.876,0,1,0,0,1.753Z" transform="translate(-233.208 -101.173)" fill="#760018"/>
      <path id="Path_22357" data-name="Path 22357" d="M127.889,247.238h-4.554a.876.876,0,1,0,0,1.753h4.554a.876.876,0,1,0,0-1.753Z" transform="translate(-108.497 -190.843)" fill="#760018"/>
      <circle id="Ellipse_719" data-name="Ellipse 719" cx="0.876" cy="0.876" r="0.876" transform="translate(30.009 48.839)" fill="#760018"/>
      <circle id="Ellipse_720" data-name="Ellipse 720" cx="0.876" cy="0.876" r="0.876" transform="translate(11.222 56.394)" fill="#760018"/>
      <path id="Path_22358" data-name="Path 22358" d="M127.889,275.935h-4.554a.876.876,0,1,0,0,1.753h4.554a.876.876,0,1,0,0-1.753Z" transform="translate(-108.497 -216.269)" fill="#760018"/>
      <circle id="Ellipse_721" data-name="Ellipse 721" cx="0.876" cy="0.876" r="0.876" transform="translate(11.222 59.666)" fill="#760018"/>
      <path id="Path_22359" data-name="Path 22359" d="M127.889,306.682h-4.554a.876.876,0,1,0,0,1.753h4.554a.876.876,0,1,0,0-1.753Z" transform="translate(-108.497 -243.51)" fill="#760018"/>
      <circle id="Ellipse_722" data-name="Ellipse 722" cx="0.876" cy="0.876" r="0.876" transform="translate(11.222 63.172)" fill="#760018"/>
      <path id="Path_22360" data-name="Path 22360" d="M127.889,336.234h-4.554a.876.876,0,1,0,0,1.753h4.554a.876.876,0,1,0,0-1.753Z" transform="translate(-108.497 -269.693)" fill="#760018"/>
      <circle id="Ellipse_723" data-name="Ellipse 723" cx="0.876" cy="0.876" r="0.876" transform="translate(11.222 66.541)" fill="#760018"/>
      <path id="Path_22361" data-name="Path 22361" d="M307.934,180.961H294.84a.876.876,0,1,0,0,1.753h13.093a.876.876,0,0,0,0-1.753Z" transform="translate(-260.449 -132.122)" fill="#760018"/>
      <path id="Path_22362" data-name="Path 22362" d="M302.345,210h-7.5a.876.876,0,1,0,0,1.753h7.5a.876.876,0,1,0,0-1.753Z" transform="translate(-260.449 -157.851)" fill="#760018"/>
      <path id="Path_22363" data-name="Path 22363" d="M263.053,62.965a2.685,2.685,0,1,0-2.685-2.685A2.688,2.688,0,0,0,263.053,62.965Zm0-3.616a.932.932,0,1,1-.932.932A.933.933,0,0,1,263.053,59.349Z" transform="translate(-230.684 -22.822)" fill="#760018"/>
      <path id="Path_22364" data-name="Path 22364" d="M107.48,146.905a.876.876,0,0,0-.876-.876H99.31a.876.876,0,0,0-.876.876V154.2a.876.876,0,0,0,.876.876H106.6a.876.876,0,0,0,.876-.876Zm-1.753,6.417h-5.541v-5.541h5.541Z" transform="translate(-87.212 -101.173)" fill="#760018"/>
    </g>
    <g id="Group_13279" data-name="Group 13279" transform="translate(-1 182.692)">
      <g id="file" transform="translate(182.474 347.579)">
        <path id="Path_22365" data-name="Path 22365" d="M71.131,2.518,69.915,0H61.138a.872.872,0,0,0-.872.872v15.6a.872.872,0,0,0,.872.872H71.467a.868.868,0,0,0,.511-.166h.735V3.07Z" transform="translate(-60.266)" fill="#fff"/>
        <path id="Path_22366" data-name="Path 22366" d="M392.184,86.915l-.374-.13v13.532a.873.873,0,0,1-.872.872h1.187a.872.872,0,0,0,.872-.872V87.457Z" transform="translate(-379.736 -83.845)" fill="#d8ecfe"/>
        <g id="Group_13278" data-name="Group 13278" transform="translate(1.832 5.489)">
          <g id="Group_13274" data-name="Group 13274" transform="translate(0)">
            <path id="Path_22367" data-name="Path 22367" d="M123.685,162.552h-9.073a.262.262,0,1,1,0-.523h9.073a.262.262,0,0,1,0,.523Z" transform="translate(-114.35 -162.029)" fill="#82aee3"/>
          </g>
          <g id="Group_13275" data-name="Group 13275" transform="translate(0 2.326)">
            <path id="Path_22368" data-name="Path 22368" d="M123.685,231.231h-9.073a.262.262,0,1,1,0-.523h9.073a.262.262,0,0,1,0,.523Z" transform="translate(-114.35 -230.708)" fill="#82aee3"/>
          </g>
          <g id="Group_13276" data-name="Group 13276" transform="translate(0 4.653)">
            <path id="Path_22369" data-name="Path 22369" d="M123.685,299.909h-9.073a.262.262,0,1,1,0-.523h9.073a.262.262,0,0,1,0,.523Z" transform="translate(-114.35 -299.386)" fill="#82aee3"/>
          </g>
          <g id="Group_13277" data-name="Group 13277" transform="translate(0 6.979)">
            <path id="Path_22370" data-name="Path 22370" d="M123.685,368.588h-9.073a.262.262,0,0,1,0-.523h9.073a.262.262,0,0,1,0,.523Z" transform="translate(-114.35 -368.065)" fill="#82aee3"/>
          </g>
        </g>
        <path id="Path_22371" data-name="Path 22371" d="M345.983,3.612h2.739L345.111,0V2.739A.872.872,0,0,0,345.983,3.612Z" transform="translate(-335.462)" fill="#b3dafe"/>
      </g>
    </g>
    <g id="Group_13283" data-name="Group 13283" transform="translate(-1 204.307)">
      <g id="file-2" data-name="file" transform="translate(182.474 347.579)">
        <path id="Path_22365-2" data-name="Path 22365" d="M71.131,2.518,69.915,0H61.138a.872.872,0,0,0-.872.872v15.6a.872.872,0,0,0,.872.872H71.467a.868.868,0,0,0,.511-.166h.735V3.07Z" transform="translate(-60.266)" fill="#fff"/>
        <path id="Path_22366-2" data-name="Path 22366" d="M392.184,86.915l-.374-.13v13.532a.873.873,0,0,1-.872.872h1.187a.872.872,0,0,0,.872-.872V87.457Z" transform="translate(-379.736 -83.845)" fill="#d8ecfe"/>
        <g id="Group_13278-2" data-name="Group 13278" transform="translate(1.832 5.489)">
          <g id="Group_13274-2" data-name="Group 13274" transform="translate(0)">
            <path id="Path_22367-2" data-name="Path 22367" d="M123.685,162.552h-9.073a.262.262,0,1,1,0-.523h9.073a.262.262,0,0,1,0,.523Z" transform="translate(-114.35 -162.029)" fill="#82aee3"/>
          </g>
          <g id="Group_13275-2" data-name="Group 13275" transform="translate(0 2.326)">
            <path id="Path_22368-2" data-name="Path 22368" d="M123.685,231.231h-9.073a.262.262,0,1,1,0-.523h9.073a.262.262,0,0,1,0,.523Z" transform="translate(-114.35 -230.708)" fill="#82aee3"/>
          </g>
          <g id="Group_13276-2" data-name="Group 13276" transform="translate(0 4.653)">
            <path id="Path_22369-2" data-name="Path 22369" d="M123.685,299.909h-9.073a.262.262,0,1,1,0-.523h9.073a.262.262,0,0,1,0,.523Z" transform="translate(-114.35 -299.386)" fill="#82aee3"/>
          </g>
          <g id="Group_13277-2" data-name="Group 13277" transform="translate(0 6.979)">
            <path id="Path_22370-2" data-name="Path 22370" d="M123.685,368.588h-9.073a.262.262,0,0,1,0-.523h9.073a.262.262,0,0,1,0,.523Z" transform="translate(-114.35 -368.065)" fill="#82aee3"/>
          </g>
        </g>
        <path id="Path_22371-2" data-name="Path 22371" d="M345.983,3.612h2.739L345.111,0V2.739A.872.872,0,0,0,345.983,3.612Z" transform="translate(-335.462)" fill="#b3dafe"/>
      </g>
    </g>
    <text id="Account_Aggregator" data-name="Account Aggregator" transform="translate(126 709)" fill="#760018" font-size="13" font-family="NunitoSans-Bold, Nunito Sans" font-weight="700"><tspan x="0" y="0">Account Aggregator</tspan></text>
    <g id="file-3" data-name="file" transform="matrix(0.695, 0.719, -0.719, 0.695, 284.736, 534.149)">
      <path id="Path_22365-3" data-name="Path 22365" d="M71.131,2.518,69.915,0H61.138a.872.872,0,0,0-.872.872v15.6a.872.872,0,0,0,.872.872H71.467a.868.868,0,0,0,.511-.166h.735V3.07Z" transform="translate(-60.266)" fill="#fff"/>
      <path id="Path_22366-3" data-name="Path 22366" d="M392.184,86.915l-.374-.13v13.532a.873.873,0,0,1-.872.872h1.187a.872.872,0,0,0,.872-.872V87.457Z" transform="translate(-379.736 -83.845)" fill="#d8ecfe"/>
      <g id="Group_13278-3" data-name="Group 13278" transform="translate(1.832 5.489)">
        <g id="Group_13274-3" data-name="Group 13274" transform="translate(0)">
          <path id="Path_22367-3" data-name="Path 22367" d="M123.685,162.552h-9.073a.262.262,0,1,1,0-.523h9.073a.262.262,0,0,1,0,.523Z" transform="translate(-114.35 -162.029)" fill="#82aee3"/>
        </g>
        <g id="Group_13275-3" data-name="Group 13275" transform="translate(0 2.326)">
          <path id="Path_22368-3" data-name="Path 22368" d="M123.685,231.231h-9.073a.262.262,0,1,1,0-.523h9.073a.262.262,0,0,1,0,.523Z" transform="translate(-114.35 -230.708)" fill="#82aee3"/>
        </g>
        <g id="Group_13276-3" data-name="Group 13276" transform="translate(0 4.653)">
          <path id="Path_22369-3" data-name="Path 22369" d="M123.685,299.909h-9.073a.262.262,0,1,1,0-.523h9.073a.262.262,0,0,1,0,.523Z" transform="translate(-114.35 -299.386)" fill="#82aee3"/>
        </g>
        <g id="Group_13277-3" data-name="Group 13277" transform="translate(0 6.979)">
          <path id="Path_22370-3" data-name="Path 22370" d="M123.685,368.588h-9.073a.262.262,0,0,1,0-.523h9.073a.262.262,0,0,1,0,.523Z" transform="translate(-114.35 -368.065)" fill="#82aee3"/>
        </g>
      </g>
      <path id="Path_22371-3" data-name="Path 22371" d="M345.983,3.612h2.739L345.111,0V2.739A.872.872,0,0,0,345.983,3.612Z" transform="translate(-335.462)" fill="#b3dafe"/>
    </g>
    <g id="file-4" data-name="file" transform="matrix(0.695, 0.719, -0.719, 0.695, 268.736, 549.764)">
      <path id="Path_22365-4" data-name="Path 22365" d="M71.131,2.518,69.915,0H61.138a.872.872,0,0,0-.872.872v15.6a.872.872,0,0,0,.872.872H71.467a.868.868,0,0,0,.511-.166h.735V3.07Z" transform="translate(-60.266)" fill="#fff"/>
      <path id="Path_22366-4" data-name="Path 22366" d="M392.184,86.915l-.374-.13v13.532a.873.873,0,0,1-.872.872h1.187a.872.872,0,0,0,.872-.872V87.457Z" transform="translate(-379.736 -83.845)" fill="#d8ecfe"/>
      <g id="Group_13278-4" data-name="Group 13278" transform="translate(1.832 5.489)">
        <g id="Group_13274-4" data-name="Group 13274" transform="translate(0)">
          <path id="Path_22367-4" data-name="Path 22367" d="M123.685,162.552h-9.073a.262.262,0,1,1,0-.523h9.073a.262.262,0,0,1,0,.523Z" transform="translate(-114.35 -162.029)" fill="#82aee3"/>
        </g>
        <g id="Group_13275-4" data-name="Group 13275" transform="translate(0 2.326)">
          <path id="Path_22368-4" data-name="Path 22368" d="M123.685,231.231h-9.073a.262.262,0,1,1,0-.523h9.073a.262.262,0,0,1,0,.523Z" transform="translate(-114.35 -230.708)" fill="#82aee3"/>
        </g>
        <g id="Group_13276-4" data-name="Group 13276" transform="translate(0 4.653)">
          <path id="Path_22369-4" data-name="Path 22369" d="M123.685,299.909h-9.073a.262.262,0,1,1,0-.523h9.073a.262.262,0,0,1,0,.523Z" transform="translate(-114.35 -299.386)" fill="#82aee3"/>
        </g>
        <g id="Group_13277-4" data-name="Group 13277" transform="translate(0 6.979)">
          <path id="Path_22370-4" data-name="Path 22370" d="M123.685,368.588h-9.073a.262.262,0,0,1,0-.523h9.073a.262.262,0,0,1,0,.523Z" transform="translate(-114.35 -368.065)" fill="#82aee3"/>
        </g>
      </g>
      <path id="Path_22371-4" data-name="Path 22371" d="M345.983,3.612h2.739L345.111,0V2.739A.872.872,0,0,0,345.983,3.612Z" transform="translate(-335.462)" fill="#b3dafe"/>
    </g>
    <g id="file-5" data-name="file" transform="translate(90.283 546.499) rotate(-45)">
      <path id="Path_22365-5" data-name="Path 22365" d="M71.131,2.518,69.915,0H61.138a.872.872,0,0,0-.872.872v15.6a.872.872,0,0,0,.872.872H71.467a.868.868,0,0,0,.511-.166h.735V3.07Z" transform="translate(-60.266)" fill="#fff"/>
      <path id="Path_22366-5" data-name="Path 22366" d="M392.184,86.915l-.374-.13v13.532a.873.873,0,0,1-.872.872h1.187a.872.872,0,0,0,.872-.872V87.457Z" transform="translate(-379.736 -83.845)" fill="#d8ecfe"/>
      <g id="Group_13278-5" data-name="Group 13278" transform="translate(1.832 5.489)">
        <g id="Group_13274-5" data-name="Group 13274" transform="translate(0)">
          <path id="Path_22367-5" data-name="Path 22367" d="M123.685,162.552h-9.073a.262.262,0,1,1,0-.523h9.073a.262.262,0,0,1,0,.523Z" transform="translate(-114.35 -162.029)" fill="#82aee3"/>
        </g>
        <g id="Group_13275-5" data-name="Group 13275" transform="translate(0 2.326)">
          <path id="Path_22368-5" data-name="Path 22368" d="M123.685,231.231h-9.073a.262.262,0,1,1,0-.523h9.073a.262.262,0,0,1,0,.523Z" transform="translate(-114.35 -230.708)" fill="#82aee3"/>
        </g>
        <g id="Group_13276-5" data-name="Group 13276" transform="translate(0 4.653)">
          <path id="Path_22369-5" data-name="Path 22369" d="M123.685,299.909h-9.073a.262.262,0,1,1,0-.523h9.073a.262.262,0,0,1,0,.523Z" transform="translate(-114.35 -299.386)" fill="#82aee3"/>
        </g>
        <g id="Group_13277-5" data-name="Group 13277" transform="translate(0 6.979)">
          <path id="Path_22370-5" data-name="Path 22370" d="M123.685,368.588h-9.073a.262.262,0,0,1,0-.523h9.073a.262.262,0,0,1,0,.523Z" transform="translate(-114.35 -368.065)" fill="#82aee3"/>
        </g>
      </g>
      <path id="Path_22371-5" data-name="Path 22371" d="M345.983,3.612h2.739L345.111,0V2.739A.872.872,0,0,0,345.983,3.612Z" transform="translate(-335.462)" fill="#b3dafe"/>
    </g>
    <g id="file-6" data-name="file" transform="translate(105.283 561.263) rotate(-45)" style="mix-blend-mode: normal;isolation: isolate">
      <path id="Path_22365-6" data-name="Path 22365" d="M71.131,2.518,69.915,0H61.138a.872.872,0,0,0-.872.872v15.6a.872.872,0,0,0,.872.872H71.467a.868.868,0,0,0,.511-.166h.735V3.07Z" transform="translate(-60.266)" fill="#fff"/>
      <path id="Path_22366-6" data-name="Path 22366" d="M392.184,86.915l-.374-.13v13.532a.873.873,0,0,1-.872.872h1.187a.872.872,0,0,0,.872-.872V87.457Z" transform="translate(-379.736 -83.845)" fill="#d8ecfe"/>
      <g id="Group_13278-6" data-name="Group 13278" transform="translate(1.832 5.489)">
        <g id="Group_13274-6" data-name="Group 13274" transform="translate(0)">
          <path id="Path_22367-6" data-name="Path 22367" d="M123.685,162.552h-9.073a.262.262,0,1,1,0-.523h9.073a.262.262,0,0,1,0,.523Z" transform="translate(-114.35 -162.029)" fill="#82aee3"/>
        </g>
        <g id="Group_13275-6" data-name="Group 13275" transform="translate(0 2.326)">
          <path id="Path_22368-6" data-name="Path 22368" d="M123.685,231.231h-9.073a.262.262,0,1,1,0-.523h9.073a.262.262,0,0,1,0,.523Z" transform="translate(-114.35 -230.708)" fill="#82aee3"/>
        </g>
        <g id="Group_13276-6" data-name="Group 13276" transform="translate(0 4.653)">
          <path id="Path_22369-6" data-name="Path 22369" d="M123.685,299.909h-9.073a.262.262,0,1,1,0-.523h9.073a.262.262,0,0,1,0,.523Z" transform="translate(-114.35 -299.386)" fill="#82aee3"/>
        </g>
        <g id="Group_13277-6" data-name="Group 13277" transform="translate(0 6.979)">
          <path id="Path_22370-6" data-name="Path 22370" d="M123.685,368.588h-9.073a.262.262,0,0,1,0-.523h9.073a.262.262,0,0,1,0,.523Z" transform="translate(-114.35 -368.065)" fill="#82aee3"/>
        </g>
      </g>
      <path id="Path_22371-6" data-name="Path 22371" d="M345.983,3.612h2.739L345.111,0V2.739A.872.872,0,0,0,345.983,3.612Z" transform="translate(-335.462)" fill="#b3dafe"/>
    </g>
    <line id="Line_1580" data-name="Line 1580" y2="38.5" transform="translate(187.5 714.5)" fill="none" stroke="#760018" stroke-width="1" stroke-dasharray="2"/>
    <g id="Group_13282" data-name="Group 13282" transform="translate(-1.604 377.421)">
      <g id="file-7" data-name="file" transform="translate(182.474 347.579)">
        <path id="Path_22365-7" data-name="Path 22365" d="M71.131,2.518,69.915,0H61.138a.872.872,0,0,0-.872.872v15.6a.872.872,0,0,0,.872.872H71.467a.868.868,0,0,0,.511-.166h.735V3.07Z" transform="translate(-60.266)" fill="#fff"/>
        <path id="Path_22366-7" data-name="Path 22366" d="M392.184,86.915l-.374-.13v13.532a.873.873,0,0,1-.872.872h1.187a.872.872,0,0,0,.872-.872V87.457Z" transform="translate(-379.736 -83.845)" fill="#d8ecfe"/>
        <g id="Group_13278-7" data-name="Group 13278" transform="translate(1.832 5.489)">
          <g id="Group_13274-7" data-name="Group 13274" transform="translate(0)">
            <path id="Path_22367-7" data-name="Path 22367" d="M123.685,162.552h-9.073a.262.262,0,1,1,0-.523h9.073a.262.262,0,0,1,0,.523Z" transform="translate(-114.35 -162.029)" fill="#82aee3"/>
          </g>
          <g id="Group_13275-7" data-name="Group 13275" transform="translate(0 2.326)">
            <path id="Path_22368-7" data-name="Path 22368" d="M123.685,231.231h-9.073a.262.262,0,1,1,0-.523h9.073a.262.262,0,0,1,0,.523Z" transform="translate(-114.35 -230.708)" fill="#82aee3"/>
          </g>
          <g id="Group_13276-7" data-name="Group 13276" transform="translate(0 4.653)">
            <path id="Path_22369-7" data-name="Path 22369" d="M123.685,299.909h-9.073a.262.262,0,1,1,0-.523h9.073a.262.262,0,0,1,0,.523Z" transform="translate(-114.35 -299.386)" fill="#82aee3"/>
          </g>
          <g id="Group_13277-7" data-name="Group 13277" transform="translate(0 6.979)">
            <path id="Path_22370-7" data-name="Path 22370" d="M123.685,368.588h-9.073a.262.262,0,0,1,0-.523h9.073a.262.262,0,0,1,0,.523Z" transform="translate(-114.35 -368.065)" fill="#82aee3"/>
          </g>
        </g>
        <path id="Path_22371-7" data-name="Path 22371" d="M345.983,3.612h2.739L345.111,0V2.739A.872.872,0,0,0,345.983,3.612Z" transform="translate(-335.462)" fill="#b3dafe"/>
      </g>
    </g>
    <g id="rupee-symbol-2" data-name="rupee-symbol" transform="translate(137.889 744.888)">
      <g id="flat-2" data-name="flat" transform="translate(1.269 1.268)">
        <circle id="Ellipse_724-2" data-name="Ellipse 724" cx="9.5" cy="9.5" r="9.5" transform="translate(-0.157 -0.156)" fill="#fbc533"/>
        <path id="Path_22372-2" data-name="Path 22372" d="M12.229,1.5a8.911,8.911,0,0,0-4.093.989A9.391,9.391,0,0,0,4.453,9.522c0,6.009,3.915,9.007,8.858,9.007a10.906,10.906,0,0,0,4.532-1.108A8.951,8.951,0,0,0,12.229,1.5Z" transform="translate(-2.885 -1.107)" fill="#ffd54b"/>
        <path id="Path_22373-2" data-name="Path 22373" d="M10.589,4.025a8.155,8.155,0,1,0,8.155,8.155,8.155,8.155,0,0,0-8.155-8.155Zm0,15.68a7.527,7.527,0,1,1,7.526-7.526,7.527,7.527,0,0,1-7.526,7.526Z" transform="translate(-1.669 -2.627)" fill="#ef9c35"/>
        <path id="Path_22374-2" data-name="Path 22374" d="M11.682,3.491a8.155,8.155,0,1,0,8.155,8.155,8.155,8.155,0,0,0-8.155-8.155Zm0,15.68a7.527,7.527,0,1,1,7.526-7.526,7.527,7.527,0,0,1-7.526,7.526Z" transform="translate(-2.327 -2.306)" fill="#fbbe3d"/>
      </g>
      <g id="Layer_1_copy-2" data-name="Layer 1 copy" transform="translate(7.56 6.084)">
        <path id="Path_22375-2" data-name="Path 22375" d="M21.6,14.519h-.429a2.822,2.822,0,0,0-.364-.707H21.6a.6.6,0,1,0,0-1.193H18.567c-.022,0-.043,0-.065,0H16.924a.6.6,0,1,0,0,1.193H18.5a1.631,1.631,0,0,1,1.346.71h-2.9a.6.6,0,1,0,0,1.193h3.161A1.633,1.633,0,0,1,18.5,17.078H16.924a.6.6,0,0,0-.433,1.007l3.226,3.4a.6.6,0,1,0,.866-.821l-2.271-2.394h.19a2.831,2.831,0,0,0,2.815-2.559H21.6a.6.6,0,0,0,0-1.193Z" transform="translate(-16.327 -12.616)" fill="#b5843a"/>
        <path id="Path_22376-2" data-name="Path 22376" d="M20.45,21.776a.394.394,0,0,1-.288-.124l-3.227-3.4a.4.4,0,0,1,.289-.672H18.8a1.826,1.826,0,0,0,1.8-1.531l.04-.232h-3.4a.4.4,0,0,1,0-.8h3.278l-.215-.311a1.834,1.834,0,0,0-1.509-.8H17.224a.4.4,0,1,1,0-.8H18.8l.062,0H21.9a.4.4,0,0,1,0,.8H20.724l.222.314a2.637,2.637,0,0,1,.339.657l.046.133h.57a.4.4,0,1,1,0,.8h-.465l-.017.18A2.617,2.617,0,0,1,18.8,18.375H18.15l2.589,2.731a.4.4,0,0,1-.289.672Z" transform="translate(-16.627 -12.918)" fill="#8f5f00"/>
        <g id="Group_13281-2" data-name="Group 13281" transform="translate(0.306 0.198)">
          <path id="Path_22377-2" data-name="Path 22377" d="M18.965,24.037H17.387a.4.4,0,0,0-.291.126.4.4,0,0,1,.1-.012h1.577a1.821,1.821,0,0,0,1.02-.31A1.824,1.824,0,0,1,18.965,24.037Z" transform="translate(-17.096 -19.573)" fill="#7a4818"/>
          <path id="Path_22378-2" data-name="Path 22378" d="M17.159,18.027a.4.4,0,0,1,.1-.012h3.278l-.08-.115h-3A.4.4,0,0,0,17.159,18.027Z" transform="translate(-17.134 -15.996)" fill="#7a4818"/>
          <path id="Path_22379-2" data-name="Path 22379" d="M17.192,13.227h1.581l.062,0h3.033a.4.4,0,0,1,.29.67.4.4,0,0,0-.1-.784H19.031l-.062,0H17.387a.4.4,0,0,0-.29.126.417.417,0,0,1,.1-.012Z" transform="translate(-17.097 -13.113)" fill="#7a4818"/>
          <path id="Path_22380-2" data-name="Path 22380" d="M27.506,16.4h-.57l-.046-.133a2.637,2.637,0,0,0-.339-.657l-.141-.2h-.276l.222.314a2.653,2.653,0,0,1,.338.657l.047.134h.57a.4.4,0,0,1,.29.67.4.4,0,0,0-.1-.784Z" transform="translate(-22.539 -14.498)" fill="#7a4818"/>
          <path id="Path_22381-2" data-name="Path 22381" d="M26.1,20.189l-.017.18a2.616,2.616,0,0,1-1.185,1.96,2.617,2.617,0,0,0,1.382-2.074l.006-.066Z" transform="translate(-21.795 -17.374)" fill="#7a4818"/>
          <path id="Path_22382-2" data-name="Path 22382" d="M19.967,26.62h-.3l2.589,2.73a.4.4,0,0,1,0,.545.4.4,0,0,0,.194-.66Z" transform="translate(-18.642 -21.247)" fill="#7a4818"/>
        </g>
      </g>
    </g>
    <g id="rupee-symbol-3" data-name="rupee-symbol" transform="translate(208.117 737.117)">
      <g id="flat-3" data-name="flat" transform="translate(1.111 1.112)">
        <circle id="Ellipse_724-3" data-name="Ellipse 724" cx="7.5" cy="7.5" r="7.5" transform="translate(-0.229 -0.229)" fill="#fbc533"/>
        <path id="Path_22372-3" data-name="Path 22372" d="M10.4,1.5a6.82,6.82,0,0,0-3.133.757A7.187,7.187,0,0,0,4.453,7.639c0,4.6,3,6.893,6.78,6.893a8.347,8.347,0,0,0,3.468-.848A6.85,6.85,0,0,0,10.4,1.5Z" transform="translate(-3.133 -1.08)" fill="#ffd54b"/>
        <path id="Path_22373-3" data-name="Path 22373" d="M8.675,4.025a6.241,6.241,0,1,0,6.241,6.241A6.241,6.241,0,0,0,8.675,4.025Zm0,12a5.76,5.76,0,1,1,5.76-5.76,5.76,5.76,0,0,1-5.76,5.76Z" transform="translate(-1.728 -2.836)" fill="#ef9c35"/>
        <path id="Path_22374-3" data-name="Path 22374" d="M9.768,3.491A6.241,6.241,0,1,0,16.01,9.732,6.241,6.241,0,0,0,9.768,3.491Zm0,12a5.76,5.76,0,1,1,5.76-5.76,5.76,5.76,0,0,1-5.76,5.76Z" transform="translate(-2.489 -2.464)" fill="#fbbe3d"/>
      </g>
      <g id="Layer_1_copy-3" data-name="Layer 1 copy" transform="translate(6.047 4.917)">
        <path id="Path_22375-3" data-name="Path 22375" d="M20.363,14.073h-.328a2.16,2.16,0,0,0-.278-.541h.606a.457.457,0,0,0,0-.913H18.041l-.05,0H16.784a.457.457,0,1,0,0,.913h1.208a1.248,1.248,0,0,1,1.03.543H16.8a.457.457,0,0,0,0,.913h2.419a1.25,1.25,0,0,1-1.23,1.045H16.784a.457.457,0,0,0-.331.771l2.469,2.6a.457.457,0,1,0,.663-.629l-1.738-1.832h.145a2.167,2.167,0,0,0,2.154-1.958h.217a.457.457,0,0,0,0-.913Z" transform="translate(-16.327 -12.616)" fill="#b5843a"/>
        <path id="Path_22376-3" data-name="Path 22376" d="M19.6,19.745a.3.3,0,0,1-.221-.095l-2.47-2.6a.3.3,0,0,1,.221-.514h1.208a1.4,1.4,0,0,0,1.38-1.172l.03-.178h-2.6a.3.3,0,0,1,0-.609h2.509l-.165-.238a1.4,1.4,0,0,0-1.155-.609H17.131a.3.3,0,0,1,0-.609h1.21l.048,0h2.322a.3.3,0,0,1,0,.609h-.9l.17.24a2.018,2.018,0,0,1,.259.5l.035.1h.436a.3.3,0,1,1,0,.609h-.356l-.013.138a2,2,0,0,1-2,1.82h-.5l1.982,2.09a.3.3,0,0,1-.221.514Z" transform="translate(-16.674 -12.965)" fill="#8f5f00"/>
        <g id="Group_13281-3" data-name="Group 13281" transform="translate(0.234 0.151)">
          <path id="Path_22377-3" data-name="Path 22377" d="M18.526,23.991H17.319a.3.3,0,0,0-.223.1.308.308,0,0,1,.073-.009h1.207a1.394,1.394,0,0,0,.781-.237A1.4,1.4,0,0,1,18.526,23.991Z" transform="translate(-17.096 -20.575)" fill="#7a4818"/>
          <path id="Path_22378-3" data-name="Path 22378" d="M17.159,18a.3.3,0,0,1,.073-.009h2.509L19.68,17.9h-2.3A.3.3,0,0,0,17.159,18Z" transform="translate(-17.14 -16.443)" fill="#7a4818"/>
          <path id="Path_22379-3" data-name="Path 22379" d="M17.17,13.2h1.21l.048,0h2.322a.3.3,0,0,1,.222.513.3.3,0,0,0-.073-.6H18.577l-.048,0h-1.21a.3.3,0,0,0-.222.1.319.319,0,0,1,.073-.009Z" transform="translate(-17.097 -13.113)" fill="#7a4818"/>
          <path id="Path_22380-3" data-name="Path 22380" d="M27.184,16.17h-.436l-.035-.1a2.018,2.018,0,0,0-.259-.5l-.108-.152h-.211l.17.241a2.03,2.03,0,0,1,.259.5l.036.1h.436a.3.3,0,0,1,.222.512.3.3,0,0,0-.073-.6Z" transform="translate(-23.382 -14.713)" fill="#7a4818"/>
          <path id="Path_22381-3" data-name="Path 22381" d="M25.82,20.189l-.013.138a2,2,0,0,1-.907,1.5,2,2,0,0,0,1.057-1.587l0-.05Z" transform="translate(-22.524 -18.035)" fill="#7a4818"/>
          <path id="Path_22382-3" data-name="Path 22382" d="M19.9,26.62h-.232l1.982,2.09a.3.3,0,0,1,0,.417.3.3,0,0,0,.148-.505Z" transform="translate(-18.881 -22.508)" fill="#7a4818"/>
        </g>
      </g>
    </g>
    <path id="Polygon_10" data-name="Polygon 10" d="M3.5,0,7,6H0Z" transform="translate(191 759) rotate(180)" fill="#760018"/>
  </g>
</svg>
