<svg xmlns="http://www.w3.org/2000/svg" width="21.221" height="20" viewBox="0 0 21.221 20">
  <path id="support" d="M12.752,33.4a1.328,1.328,0,0,0-1.328-1.328H9.8a1.328,1.328,0,0,0,0,2.656h1.626A1.328,1.328,0,0,0,12.752,33.4Zm-9.96-3.424a5.752,5.752,0,0,0,.76.011,3.77,3.77,0,0,0,3.7,3.041h.507a2.084,2.084,0,0,0,0,.746H7.25a4.516,4.516,0,0,1-4.458-3.8Zm-.379-.794A2.893,2.893,0,0,1,0,26.329V24.566a2.894,2.894,0,0,1,2.893-2.894h.193a7.549,7.549,0,0,1,15.049,0h.193a2.894,2.894,0,0,1,2.893,2.894v1.763a2.894,2.894,0,0,1-2.893,2.894h-.854a.641.641,0,0,1-.641-.641v-6.3a6.222,6.222,0,1,0-12.444,0v6.3a.641.641,0,0,1-.352.572,3.913,3.913,0,0,1-1.624.029Z" transform="translate(0 -14.729)" fill="#647181" fill-rule="evenodd"/>
</svg>
