<svg xmlns="http://www.w3.org/2000/svg" width="18.5" height="18.5" viewBox="0 0 18.5 18.5">
  <g id="telephone-call" transform="translate(-2 -2)">
    <path id="Path_22738" data-name="Path 22738" d="M20.1,16.113c-.577-.484-3.964-2.629-4.527-2.531-.264.047-.466.272-1.008.918a7.721,7.721,0,0,1-.822.89,7.107,7.107,0,0,1-1.569-.581,9.712,9.712,0,0,1-4.482-4.484A7.107,7.107,0,0,1,7.11,8.756,7.722,7.722,0,0,1,8,7.935c.645-.541.871-.742.918-1.008.1-.564-2.048-3.95-2.531-4.527C6.185,2.161,6,2,5.766,2,5.084,2,2,5.814,2,6.308c0,.04.066,4.011,5.08,9.112,5.1,5.014,9.072,5.08,9.112,5.08.494,0,4.308-3.084,4.308-3.766,0-.235-.161-.419-.4-.621Z" transform="translate(0 0)" fill="#647181"/>
    <path id="Path_22739" data-name="Path 22739" d="M20.964,12.286h1.321A5.292,5.292,0,0,0,17,7V8.321A3.968,3.968,0,0,1,20.964,12.286Z" transform="translate(-5.089 -1.696)" fill="#647181"/>
    <path id="Path_22740" data-name="Path 22740" d="M24.268,10.589h1.321A8.6,8.6,0,0,0,17,2V3.321A7.276,7.276,0,0,1,24.268,10.589Z" transform="translate(-5.089)" fill="#647181"/>
  </g>
</svg>
