<svg xmlns="http://www.w3.org/2000/svg" width="38" height="38" viewBox="0 0 38 38">
  <g id="Group_16672" data-name="Group 16672" transform="translate(-212 -269)">
    <circle id="Ellipse_934" data-name="Ellipse 934" cx="19" cy="19" r="19" transform="translate(212 269)" fill="#fff"/>
    <g id="wallet_2_" data-name="wallet (2)" transform="translate(221.5 280.142)">
      <path id="Path_23452" data-name="Path 23452" d="M324.043,187.919a.455.455,0,0,1-.133-.021h-2.725a1.291,1.291,0,0,0-1.287,1.287v1.442a1.291,1.291,0,0,0,1.287,1.287h3.986V187.9h-1A.428.428,0,0,1,324.043,187.919Zm-2,2.7a.429.429,0,0,1-.858,0v-1.437a.429.429,0,1,1,.858,0Zm0,0" transform="translate(-306.172 -179.454)" fill="#760018"/>
      <path id="Path_23453" data-name="Path 23453" d="M68.56,138.9a4.162,4.162,0,1,0,4.162,4.162A4.162,4.162,0,0,0,68.56,138.9Zm1.111,2.583h.588a.429.429,0,1,1,0,.858h-.588a1.894,1.894,0,0,1-1.734,1.455l1.648,1.558a.427.427,0,0,1-.3.738.437.437,0,0,1-.3-.116l-2.429-2.3a.43.43,0,0,1,.3-.742h.974a1.025,1.025,0,0,0,.935-.6H66.865a.429.429,0,1,1,0-.858H68.77a1.033,1.033,0,0,0-.935-.6h-.974a.429.429,0,1,1,0-.858h3.4a.429.429,0,1,1,0,.858h-.845a1.984,1.984,0,0,1,.257.605Zm0,0" transform="translate(-61.635 -132.557)" fill="#760018"/>
      <path id="Path_23454" data-name="Path 23454" d="M1.716,3.853H15.267V1.042A.643.643,0,0,0,14.623.4H1.716A1.716,1.716,0,0,0,0,2.115v.021A1.716,1.716,0,0,0,1.716,3.853ZM2.145,1.7H13.121a.429.429,0,1,1,0,.858H2.145a.429.429,0,1,1,0-.858Zm0,0" transform="translate(0 0)" fill="#760018"/>
      <path id="Path_23455" data-name="Path 23455" d="M12.868,92.715V91.278a2.146,2.146,0,0,1,2.145-2.145h2.429V86.257H1.716A2.562,2.562,0,0,1,0,85.6V96.148a1.716,1.716,0,0,0,1.716,1.716H17.468v-3h-2.45a2.15,2.15,0,0,1-2.15-2.145ZM6.925,97.07a5.02,5.02,0,1,1,5.02-5.02A5.02,5.02,0,0,1,6.925,97.07Zm0,0" transform="translate(0 -81.547)" fill="#760018"/>
    </g>
  </g>
</svg>
