<svg xmlns="http://www.w3.org/2000/svg" width="19.463" height="14.161" viewBox="0 0 19.463 14.161">
  <g id="cloud-computing" transform="translate(0 -66.65)">
    <g id="Group_16729" data-name="Group 16729" transform="translate(0 66.65)">
      <path id="Path_23603" data-name="Path 23603" d="M15.207,80.812H11.032V76.592h1.38a.432.432,0,0,0,.35-.684l-2.684-3.714a.428.428,0,0,0-.7,0L6.7,75.908a.431.431,0,0,0,.35.684h1.38v4.219H3.75A4.182,4.182,0,0,1,0,76.628a3.962,3.962,0,0,1,1.965-3.42,2.656,2.656,0,0,1-.163-.927,2.694,2.694,0,0,1,2.7-2.7,2.65,2.65,0,0,1,.923.163A5.4,5.4,0,0,1,15.677,71.53a4.7,4.7,0,0,1-.469,9.282Z" transform="translate(0 -66.65)" fill="#ced2d9"/>
    </g>
  </g>
</svg>
