<svg xmlns="http://www.w3.org/2000/svg" width="12.44" height="13.564" viewBox="0 0 12.44 13.564">
  <g id="copy" transform="translate(-5 -3)">
    <path id="Path_23615" data-name="Path 23615" d="M17.331,18.122H10.666A1.6,1.6,0,0,1,9,16.605V8.517A1.6,1.6,0,0,1,10.666,7h6.665A1.6,1.6,0,0,1,19,8.517v8.088A1.6,1.6,0,0,1,17.331,18.122ZM10.666,8.011a.532.532,0,0,0-.555.506v8.088a.532.532,0,0,0,.555.506h6.665a.532.532,0,0,0,.555-.506V8.517a.532.532,0,0,0-.555-.506Z" transform="translate(-1.558 -1.558)" fill="#760018"/>
    <path id="Path_23616" data-name="Path 23616" d="M5.611,12.77A.611.611,0,0,1,5,12.159V4.832A1.832,1.832,0,0,1,6.832,3h6.106a.611.611,0,0,1,0,1.221H6.832a.611.611,0,0,0-.611.611v7.327A.611.611,0,0,1,5.611,12.77Z" transform="translate(0 0)" fill="#760018"/>
  </g>
</svg>
