<svg xmlns="http://www.w3.org/2000/svg" xmlns:xlink="http://www.w3.org/1999/xlink" width="61.986" height="62" viewBox="0 0 61.986 62">
  <defs>
    <linearGradient id="linear-gradient" x1="1.074" y1="-1.526" x2="0.253" y2="0.636" gradientUnits="objectBoundingBox">
      <stop offset="0" stop-color="#290170"/>
      <stop offset="1" stop-color="#be1e53"/>
    </linearGradient>
    <linearGradient id="linear-gradient-3" x1="1.7" y1="-2.916" x2="0.253" y2="0.636" xlink:href="#linear-gradient"/>
    <linearGradient id="linear-gradient-4" x1="1.624" y1="-7.318" x2="0.13" y2="1" xlink:href="#linear-gradient"/>
    <linearGradient id="linear-gradient-7" x1="0.7" y1="-0.537" x2="0.253" y2="0.636" xlink:href="#linear-gradient"/>
  </defs>
  <g id="cheque" transform="translate(0 -0.03)">
    <path id="Path_26076" data-name="Path 26076" d="M60.162,41.449a3.466,3.466,0,0,0-3.524.246l-4.819,3.4a3.359,3.359,0,0,0-2.747-2.356l-16.1-2.607A6.066,6.066,0,0,0,28.362,41.2l-1.709,1.242a3.192,3.192,0,0,1-1.86.6H22.442a2.072,2.072,0,0,0-1.78-1H17.275a2.072,2.072,0,0,0-1.779-1H2.066a2.034,2.034,0,0,0-2.066,2V55.105a2.034,2.034,0,0,0,1.929,2l12.984.838c.054,0,.1.005.162.005a2.462,2.462,0,0,0,2.431-1.9h3.156a2.072,2.072,0,0,0,1.778-1h2.354a3.177,3.177,0,0,1,1.048.177l13.153,4.457a6.565,6.565,0,0,0,2.188.362,7.385,7.385,0,0,0,4.467-1.493c.087-.069,15.123-11.77,15.135-11.78a3.14,3.14,0,0,0,1.181-2.82,3.194,3.194,0,0,0-1.8-2.495ZM15.5,55.538a.4.4,0,0,1-.133.3.385.385,0,0,1-.31.108L2.066,55.105V43.039H15.5v12.5Zm2.066-1.5v-10h3.1v10Zm41.915-8.825L44.354,56.985a5.178,5.178,0,0,1-4.663.806l-13.16-4.459a5.292,5.292,0,0,0-1.737-.291H22.728v-8h2.066a5.306,5.306,0,0,0,3.1-1L29.6,42.8a4.006,4.006,0,0,1,3-.7l16.125,2.612a1.276,1.276,0,0,1,1.127,1.123,1.123,1.123,0,0,1-.368.872,1.183,1.183,0,0,1-.84.335H34.092a1,1,0,1,0,0,2h3.749L42.2,52.614a1.967,1.967,0,0,0,2.354.081l13.3-9.381a1.356,1.356,0,0,1,1.374-.082,1.17,1.17,0,0,1,.251,1.983ZM46.221,49.042,43.439,51l-2.4-1.962Z" transform="translate(0 1.986)" fill="url(#linear-gradient)"/>
    <path id="Path_26077" data-name="Path 26077" d="M57,4.035H19.9a5,5,0,0,0-9.9,1v24a5,5,0,0,0,5,5H52a3,3,0,0,0,3-3v-1h2a3,3,0,0,0,3-3v-20A3,3,0,0,0,57,4.035Zm-42-2a3,3,0,0,1,3,3V25.064c-.081-.062-.15-.136-.235-.193a5,5,0,0,0-3.93-.7A4.894,4.894,0,0,0,12,25.022V5.035a3,3,0,0,1,3-3Zm38,29a1,1,0,0,1-1,1H15a3,3,0,1,1,2.955-3.52,1.827,1.827,0,0,0,1.8,1.52H53Zm5-4a1,1,0,0,1-1,1H20v-22H57a1,1,0,0,1,1,1Z" transform="translate(1.985)" fill="url(#linear-gradient)"/>
    <path id="Path_26078" data-name="Path 26078" d="M53,8.036H35a2,2,0,0,0-2,2v2a2,2,0,0,0,2,2H53a2,2,0,0,0,2-2v-2A2,2,0,0,0,53,8.036Zm-18,4v-2H53v2Z" transform="translate(1.985)" fill="url(#linear-gradient-3)"/>
    <path id="Path_26080" data-name="Path 26080" d="M54,24.037H24a1,1,0,0,0,0,2H54a1,1,0,0,0,0-2Z" transform="translate(1.985 0.822)" fill="url(#linear-gradient-4)"/>
    <path id="Path_26081" data-name="Path 26081" d="M54,20.037H34a1,1,0,0,0,0,2H54a1,1,0,0,0,0-2Z" transform="translate(1.985 0.685)" fill="url(#linear-gradient-4)"/>
    <path id="Path_26082" data-name="Path 26082" d="M54,16.036H34a1,1,0,0,0,0,2H54a1,1,0,0,0,0-2Z" transform="translate(1.985 0.548)" fill="url(#linear-gradient-4)"/>
    <g id="Group_162238" data-name="Group 162238" transform="translate(24.985 8.177)">
      <g id="Group_162221" data-name="Group 162221" transform="translate(0)">
        <path id="Path_26060" data-name="Path 26060" d="M285.164,68.628h-1.036a3.245,3.245,0,0,0-.448-1.082h1.484a.773.773,0,0,0,0-1.546h-6.045a.773.773,0,0,0,0,1.546h1.732a1.848,1.848,0,0,1,1.647,1.082h-3.378a.773.773,0,0,0,0,1.546H282.5a2.463,2.463,0,0,1-.356.487,1.8,1.8,0,0,1-1.291.518h-1.732a.779.779,0,0,0-.773.788.8.8,0,0,0,.24.557l4.321,4.089a.771.771,0,0,0,1.059-1.121l-2.914-2.76a3.332,3.332,0,0,0,2.172-.966,3.461,3.461,0,0,0,.9-1.592h1.036a.773.773,0,0,0,0-1.546Z" transform="translate(-278.346 -66)" fill="url(#linear-gradient-7)"/>
      </g>
    </g>
  </g>
</svg>
