<svg xmlns="http://www.w3.org/2000/svg" width="44" height="44" viewBox="0 0 44 44">
  <g id="Group_16727" data-name="Group 16727" transform="translate(-311 -269)">
    <rect id="Rectangle_5485" data-name="Rectangle 5485" width="44" height="44" rx="22" transform="translate(311 269)" fill="#ffe4ec"/>
    <g id="Glyph" transform="translate(324 281.727)">
      <path id="Path_23451" data-name="Path 23451" d="M12.636,4.182a2.182,2.182,0,1,1,2.182,2.182A2.182,2.182,0,0,1,12.636,4.182ZM1.727,4.909h8.727a.727.727,0,1,0,0-1.455H1.727a.727.727,0,0,0,0,1.455ZM6.091,7.091A2.182,2.182,0,0,0,4.04,8.545H1.727a.727.727,0,1,0,0,1.455H4.04A2.182,2.182,0,1,0,6.091,7.091ZM16.273,8.545H10.455a.727.727,0,0,0,0,1.455h5.818a.727.727,0,0,0,0-1.455ZM7.545,13.636H1.727a.727.727,0,1,0,0,1.455H7.545a.727.727,0,1,0,0-1.455Zm8.727,0H13.96a2.182,2.182,0,1,0,0,1.455h2.313a.727.727,0,0,0,0-1.455Z" transform="translate(0 0)" fill="#760018"/>
    </g>
  </g>
</svg>
