<svg xmlns="http://www.w3.org/2000/svg" width="151.028" height="105.608" viewBox="0 0 151.028 105.608">
  <g id="Group_15411" data-name="Group 15411" transform="translate(-83.439 -219)">
    <path id="Path_23165" data-name="Path 23165" d="M-84.1-9.167h1.522L-83.232-.85h-1.522Zm6.265,2.407a1.937,1.937,0,0,1,1.469.525,2.165,2.165,0,0,1,.5,1.551q0,.224-.012.342L-76.164-.85h-1.475l.283-3.433q.094-1.31-1.038-1.31a1.324,1.324,0,0,0-1.015.389,1.75,1.75,0,0,0-.425,1.085l-.26,3.268h-1.475l.448-5.769h1.439l-.059.755a1.974,1.974,0,0,1,.79-.661A2.547,2.547,0,0,1-77.84-6.761Zm5.38,6.005A4.576,4.576,0,0,1-75-1.487l.5-1.026a3.606,3.606,0,0,0,2.076.672q1.074,0,1.074-.614a.5.5,0,0,0-.295-.454,4.844,4.844,0,0,0-.92-.336,7.515,7.515,0,0,1-1.009-.336,1.852,1.852,0,0,1-.678-.5,1.277,1.277,0,0,1-.283-.861,1.534,1.534,0,0,1,.307-.95,2.014,2.014,0,0,1,.861-.637,3.3,3.3,0,0,1,1.274-.23,4,4,0,0,1,1.239.195,3.024,3.024,0,0,1,1,.525l-.5,1a2.878,2.878,0,0,0-1.77-.649,1.526,1.526,0,0,0-.8.171.534.534,0,0,0-.277.478.5.5,0,0,0,.295.454,4.844,4.844,0,0,0,.92.336,8.026,8.026,0,0,1,1.015.348,1.864,1.864,0,0,1,.672.5,1.277,1.277,0,0,1,.283.861,1.516,1.516,0,0,1-.667,1.31A3.036,3.036,0,0,1-72.46-.755Zm5.51-2.289a1.3,1.3,0,0,0-.012.2.876.876,0,0,0,1,.979,2.837,2.837,0,0,0,.531-.047l-.153,1.1a4.43,4.43,0,0,1-.625.047,2.458,2.458,0,0,1-1.664-.5,1.84,1.84,0,0,1-.566-1.463,2.987,2.987,0,0,1,.012-.307l.189-2.478h-1.1l.083-1.109h1.109l.13-1.723h1.475l-.13,1.723h1.522l-.094,1.109h-1.522Zm5.215-3.716a2.376,2.376,0,0,1,1.687.525,2.087,2.087,0,0,1,.555,1.587q0,.236-.012.366L-59.777-.85h-1.4l.071-.826a1.707,1.707,0,0,1-.673.684,1.934,1.934,0,0,1-.956.236A2.354,2.354,0,0,1-63.77-.974a1.718,1.718,0,0,1-.708-.6,1.536,1.536,0,0,1-.254-.867A1.575,1.575,0,0,1-64.4-3.5a2,2,0,0,1,1.08-.578,8.608,8.608,0,0,1,1.982-.183h.425l.012-.224a1.12,1.12,0,0,0-.212-.873,1.141,1.141,0,0,0-.873-.283,3.108,3.108,0,0,0-.938.159,4.588,4.588,0,0,0-.973.442l-.33-1.015a3.853,3.853,0,0,1,1.144-.513A4.9,4.9,0,0,1-61.735-6.761Zm-.625,4.943a1.266,1.266,0,0,0,.938-.389,1.56,1.56,0,0,0,.431-1.015l.024-.26h-.33a6.356,6.356,0,0,0-1.209.088,1.138,1.138,0,0,0-.608.277.729.729,0,0,0-.177.519.7.7,0,0,0,.254.566A1.023,1.023,0,0,0-62.361-1.817Zm7.81-4.943a1.937,1.937,0,0,1,1.469.525,2.165,2.165,0,0,1,.5,1.551q0,.224-.012.342L-52.875-.85H-54.35l.283-3.433q.094-1.31-1.038-1.31a1.324,1.324,0,0,0-1.015.389,1.75,1.75,0,0,0-.425,1.085L-56.8-.85h-1.475l.448-5.769h1.439l-.059.755a1.974,1.974,0,0,1,.79-.661A2.547,2.547,0,0,1-54.55-6.761Zm5.227,3.716a1.3,1.3,0,0,0-.012.2.876.876,0,0,0,1,.979,2.837,2.837,0,0,0,.531-.047l-.153,1.1a4.43,4.43,0,0,1-.625.047,2.458,2.458,0,0,1-1.664-.5,1.84,1.84,0,0,1-.566-1.463,2.989,2.989,0,0,1,.012-.307l.189-2.478h-1.1l.083-1.109h1.109l.13-1.723h1.475l-.13,1.723h1.522l-.094,1.109h-1.522Zm6.229-6.123h.731L-43.012-.85h-.731Zm5.168,2.454a2.039,2.039,0,0,1,1.463.484,1.9,1.9,0,0,1,.507,1.439,3.145,3.145,0,0,1-.012.319L-36.251-.85h-.72l.283-3.575a2.348,2.348,0,0,0,.012-.271,1.215,1.215,0,0,0-1.369-1.38,1.886,1.886,0,0,0-1.386.507,2.134,2.134,0,0,0-.584,1.4l-.26,3.315h-.72l.448-5.722h.708l-.071.932a2.081,2.081,0,0,1,.808-.79A2.39,2.39,0,0,1-37.927-6.713Zm8.872.142-2.9,5.722h-.731l-1.994-5.722h.743l1.675,4.991,2.454-4.991Zm3.044,5.8a2.623,2.623,0,0,1-1.351-.342,2.271,2.271,0,0,1-.9-.967,3.2,3.2,0,0,1-.313-1.451A3.92,3.92,0,0,1-28.234-5.2a2.582,2.582,0,0,1,.956-1.115,2.586,2.586,0,0,1,1.422-.4,2.646,2.646,0,0,1,1.363.342,2.271,2.271,0,0,1,.9.967,3.233,3.233,0,0,1,.313,1.463,3.89,3.89,0,0,1-.336,1.664,2.582,2.582,0,0,1-.956,1.115A2.607,2.607,0,0,1-26.01-.767Zm.035-.637a1.688,1.688,0,0,0,1.428-.69,3.063,3.063,0,0,0,.519-1.882,2.293,2.293,0,0,0-.484-1.557,1.691,1.691,0,0,0-1.345-.555A1.7,1.7,0,0,0-27.3-5.4a3.107,3.107,0,0,0-.519,1.905,2.28,2.28,0,0,0,.472,1.551A1.725,1.725,0,0,0-25.975-1.4Zm4.424-5.168h.72L-21.279-.85H-22Zm1.026-2.419-.071.908h-.944l.071-.908Zm3.563,8.223a2.623,2.623,0,0,1-1.351-.342,2.271,2.271,0,0,1-.9-.967,3.2,3.2,0,0,1-.313-1.451A3.862,3.862,0,0,1-19.179-5.2a2.568,2.568,0,0,1,.985-1.115,2.814,2.814,0,0,1,1.5-.4,3.212,3.212,0,0,1,1.144.2,2.711,2.711,0,0,1,.908.555l-.319.566a3.411,3.411,0,0,0-.855-.531,2.347,2.347,0,0,0-.891-.165,1.832,1.832,0,0,0-1.522.684,2.983,2.983,0,0,0-.543,1.9,2.261,2.261,0,0,0,.49,1.54,1.743,1.743,0,0,0,1.386.56,2.178,2.178,0,0,0,.844-.159,3.45,3.45,0,0,0,.832-.525l.236.555a2.679,2.679,0,0,1-.885.56A2.942,2.942,0,0,1-16.961-.767Zm3.787-2.855V-3.5a2.239,2.239,0,0,0,.5,1.546,1.815,1.815,0,0,0,1.428.555,2.865,2.865,0,0,0,1.923-.684l.236.555a2.452,2.452,0,0,1-.956.56,3.756,3.756,0,0,1-1.227.206,2.534,2.534,0,0,1-1.935-.749,2.809,2.809,0,0,1-.708-2.012,3.833,3.833,0,0,1,.342-1.664A2.619,2.619,0,0,1-12.6-6.312a2.731,2.731,0,0,1,1.487-.4,2.252,2.252,0,0,1,1.693.637A2.588,2.588,0,0,1-8.8-4.2a5.056,5.056,0,0,1-.035.578Zm2.1-2.5a1.914,1.914,0,0,0-1.4.513,2.431,2.431,0,0,0-.655,1.457h3.669a2.056,2.056,0,0,0-.4-1.469A1.526,1.526,0,0,0-11.074-6.123Zm9.509-.59A2.377,2.377,0,0,1-.29-6.371,2.293,2.293,0,0,1,.571-5.4,3.285,3.285,0,0,1,.878-3.941,3.89,3.89,0,0,1,.541-2.277,2.611,2.611,0,0,1-.4-1.162a2.506,2.506,0,0,1-1.4.4A2.31,2.31,0,0,1-3.016-1.08a1.889,1.889,0,0,1-.767-.867l-.094,1.1H-4.6l.661-8.318h.72l-.283,3.5a1.973,1.973,0,0,1,.8-.773A2.366,2.366,0,0,1-1.565-6.713ZM-1.824-1.4A1.709,1.709,0,0,0-.391-2.089,3.012,3.012,0,0,0,.134-3.964,2.317,2.317,0,0,0-.349-5.528a1.7,1.7,0,0,0-1.357-.56A1.7,1.7,0,0,0-3.14-5.4,3.06,3.06,0,0,0-3.665-3.5a2.28,2.28,0,0,0,.478,1.563A1.729,1.729,0,0,0-1.824-1.4ZM4.842-6.713Q6.8-6.713,6.8-4.826a2.834,2.834,0,0,1-.012.295L6.493-.85H5.786l.083-.979a1.98,1.98,0,0,1-.755.79,2.091,2.091,0,0,1-1.062.271,2.1,2.1,0,0,1-1.4-.46A1.477,1.477,0,0,1,2.1-2.407a1.476,1.476,0,0,1,.342-1.021,2.046,2.046,0,0,1,1.109-.555,9.959,9.959,0,0,1,2.076-.171h.413l.035-.4a2.212,2.212,0,0,0,.012-.26,1.322,1.322,0,0,0-.307-.967,1.322,1.322,0,0,0-.967-.307,3.593,3.593,0,0,0-1.97.625l-.236-.566a3.528,3.528,0,0,1,1.044-.5A4.065,4.065,0,0,1,4.842-6.713ZM4.169-1.392a1.7,1.7,0,0,0,1.239-.5,1.966,1.966,0,0,0,.566-1.3l.035-.425H5.668A9.8,9.8,0,0,0,3.91-3.5a1.5,1.5,0,0,0-.826.366.983.983,0,0,0-.224.684.947.947,0,0,0,.354.773A1.466,1.466,0,0,0,4.169-1.392Zm6.123.625a3.733,3.733,0,0,1-1.221-.2,2.908,2.908,0,0,1-1-.566l.319-.555a3.531,3.531,0,0,0,.914.531,2.835,2.835,0,0,0,1,.165q1.522,0,1.522-.956a.69.69,0,0,0-.189-.5,1.326,1.326,0,0,0-.472-.307q-.283-.112-.767-.254a8.535,8.535,0,0,1-.967-.336,1.67,1.67,0,0,1-.625-.472,1.242,1.242,0,0,1-.26-.82,1.452,1.452,0,0,1,.6-1.227,2.6,2.6,0,0,1,1.6-.448,3.13,3.13,0,0,1,1.127.2,2.352,2.352,0,0,1,.867.555l-.307.555a2.526,2.526,0,0,0-1.675-.684,1.908,1.908,0,0,0-1.085.26.859.859,0,0,0-.378.755.67.67,0,0,0,.189.5,1.409,1.409,0,0,0,.454.3q.265.112.773.265a7.945,7.945,0,0,1,.962.324,1.634,1.634,0,0,1,.631.478,1.266,1.266,0,0,1,.26.826,1.371,1.371,0,0,1-.619,1.18A2.8,2.8,0,0,1,10.292-.767Zm4.318-2.855V-3.5a2.239,2.239,0,0,0,.5,1.546,1.815,1.815,0,0,0,1.428.555,2.865,2.865,0,0,0,1.923-.684l.236.555a2.452,2.452,0,0,1-.956.56,3.756,3.756,0,0,1-1.227.206,2.534,2.534,0,0,1-1.935-.749,2.809,2.809,0,0,1-.708-2.012,3.833,3.833,0,0,1,.342-1.664,2.619,2.619,0,0,1,.979-1.121,2.731,2.731,0,0,1,1.487-.4,2.252,2.252,0,0,1,1.693.637A2.588,2.588,0,0,1,18.988-4.2a5.056,5.056,0,0,1-.035.578Zm2.1-2.5a1.914,1.914,0,0,0-1.4.513,2.431,2.431,0,0,0-.655,1.457h3.669a2.057,2.057,0,0,0-.4-1.469A1.526,1.526,0,0,0,16.711-6.123Zm9.026-3.044L25.087-.85h-.72l.083-.979a2.107,2.107,0,0,1-.808.779,2.294,2.294,0,0,1-1.127.283,2.377,2.377,0,0,1-1.274-.342,2.293,2.293,0,0,1-.861-.967,3.257,3.257,0,0,1-.307-1.451A3.93,3.93,0,0,1,20.409-5.2a2.6,2.6,0,0,1,.944-1.121,2.506,2.506,0,0,1,1.4-.4,2.38,2.38,0,0,1,1.215.3,1.823,1.823,0,0,1,.767.855l.283-3.61ZM22.657-1.4a1.7,1.7,0,0,0,1.433-.69,3.038,3.038,0,0,0,.525-1.882,2.3,2.3,0,0,0-.478-1.569,1.719,1.719,0,0,0-1.363-.543,1.7,1.7,0,0,0-1.428.678,3.01,3.01,0,0,0-.519,1.87,2.351,2.351,0,0,0,.478,1.581A1.687,1.687,0,0,0,22.657-1.4ZM31.4-6.572h3.41L34.361-.85h-.72l.413-5.144h-2.69L30.951-.85h-.72l.4-5.144H29.5l.047-.578H30.68l.024-.307a2.5,2.5,0,0,1,.655-1.681,2.58,2.58,0,0,1,1.7-.608l.437-.024v.59l-.543.035a1.591,1.591,0,0,0-1.1.431,1.879,1.879,0,0,0-.419,1.174ZM35.128-9l-.071.932h-.979L34.16-9Zm4.188,2.289a2.039,2.039,0,0,1,1.463.484,1.9,1.9,0,0,1,.507,1.439,3.145,3.145,0,0,1-.012.319L40.991-.85h-.72l.283-3.575a2.348,2.348,0,0,0,.012-.271A1.215,1.215,0,0,0,39.2-6.076a1.886,1.886,0,0,0-1.386.507,2.134,2.134,0,0,0-.584,1.4L36.968-.85h-.72L36.7-6.572H37.4l-.071.932a2.081,2.081,0,0,1,.808-.79A2.39,2.39,0,0,1,39.316-6.713Zm6.229,0q1.959,0,1.958,1.888a2.834,2.834,0,0,1-.012.295L47.2-.85h-.708l.083-.979a1.98,1.98,0,0,1-.755.79,2.091,2.091,0,0,1-1.062.271,2.1,2.1,0,0,1-1.4-.46,1.477,1.477,0,0,1-.543-1.18,1.476,1.476,0,0,1,.342-1.021,2.046,2.046,0,0,1,1.109-.555,9.959,9.959,0,0,1,2.076-.171h.413l.035-.4a2.211,2.211,0,0,0,.012-.26,1.322,1.322,0,0,0-.307-.967,1.322,1.322,0,0,0-.967-.307,3.593,3.593,0,0,0-1.97.625l-.236-.566a3.528,3.528,0,0,1,1.044-.5A4.065,4.065,0,0,1,45.545-6.713Zm-.672,5.321a1.7,1.7,0,0,0,1.239-.5,1.966,1.966,0,0,0,.566-1.3l.035-.425h-.342a9.8,9.8,0,0,0-1.758.118,1.5,1.5,0,0,0-.826.366.983.983,0,0,0-.224.684.947.947,0,0,0,.354.773A1.466,1.466,0,0,0,44.873-1.392Zm7.268-5.321A2.039,2.039,0,0,1,53.6-6.23a1.9,1.9,0,0,1,.507,1.439,3.145,3.145,0,0,1-.012.319L53.816-.85H53.1l.283-3.575a2.347,2.347,0,0,0,.012-.271,1.215,1.215,0,0,0-1.369-1.38,1.886,1.886,0,0,0-1.386.507,2.134,2.134,0,0,0-.584,1.4L49.793-.85h-.72l.448-5.722h.708l-.071.932a2.081,2.081,0,0,1,.808-.79A2.39,2.39,0,0,1,52.141-6.713ZM58.11-.767a2.623,2.623,0,0,1-1.351-.342,2.271,2.271,0,0,1-.9-.967,3.2,3.2,0,0,1-.313-1.451A3.862,3.862,0,0,1,55.892-5.2a2.568,2.568,0,0,1,.985-1.115,2.814,2.814,0,0,1,1.5-.4,3.212,3.212,0,0,1,1.144.2,2.711,2.711,0,0,1,.908.555l-.319.566a3.412,3.412,0,0,0-.855-.531,2.347,2.347,0,0,0-.891-.165,1.832,1.832,0,0,0-1.522.684,2.983,2.983,0,0,0-.543,1.9,2.261,2.261,0,0,0,.49,1.54,1.743,1.743,0,0,0,1.386.56,2.178,2.178,0,0,0,.844-.159,3.45,3.45,0,0,0,.832-.525l.236.555a2.679,2.679,0,0,1-.885.56A2.941,2.941,0,0,1,58.11-.767ZM61.9-3.622V-3.5a2.239,2.239,0,0,0,.5,1.546,1.815,1.815,0,0,0,1.428.555,2.865,2.865,0,0,0,1.923-.684l.236.555a2.452,2.452,0,0,1-.956.56A3.756,3.756,0,0,1,63.8-.767a2.534,2.534,0,0,1-1.935-.749,2.809,2.809,0,0,1-.708-2.012A3.833,3.833,0,0,1,61.5-5.191a2.619,2.619,0,0,1,.979-1.121,2.731,2.731,0,0,1,1.487-.4,2.252,2.252,0,0,1,1.693.637A2.588,2.588,0,0,1,66.275-4.2a5.056,5.056,0,0,1-.035.578Zm2.1-2.5a1.914,1.914,0,0,0-1.4.513,2.431,2.431,0,0,0-.655,1.457h3.669a2.057,2.057,0,0,0-.4-1.469A1.526,1.526,0,0,0,64-6.123ZM-60.638,7.794l-.248,3.15h4.059l-.059.637h-4.047l-.307,3.905h-.731l.649-8.318h5.014l-.035.625Zm7.362,7.775a2.623,2.623,0,0,1-1.351-.342,2.271,2.271,0,0,1-.9-.967,3.2,3.2,0,0,1-.313-1.451,3.92,3.92,0,0,1,.336-1.675,2.582,2.582,0,0,1,.956-1.115,2.585,2.585,0,0,1,1.422-.4,2.646,2.646,0,0,1,1.363.342,2.271,2.271,0,0,1,.9.967,3.233,3.233,0,0,1,.313,1.463,3.89,3.89,0,0,1-.336,1.664,2.582,2.582,0,0,1-.956,1.115A2.607,2.607,0,0,1-53.276,15.569Zm.035-.637a1.688,1.688,0,0,0,1.428-.69,3.063,3.063,0,0,0,.519-1.882,2.293,2.293,0,0,0-.484-1.557,1.691,1.691,0,0,0-1.345-.555,1.7,1.7,0,0,0-1.439.69,3.107,3.107,0,0,0-.519,1.905,2.28,2.28,0,0,0,.472,1.551A1.725,1.725,0,0,0-53.241,14.932Zm7.374-5.309v.625l-.507.047a2.157,2.157,0,0,0-1.363.543,1.99,1.99,0,0,0-.537,1.3l-.271,3.351h-.72l.448-5.722h.708l-.071.956a1.93,1.93,0,0,1,.779-.761,3.208,3.208,0,0,1,1.239-.313Zm6.418,5.958a5.218,5.218,0,0,1-1.734-.265,4.263,4.263,0,0,1-1.392-.82l.342-.578a4.289,4.289,0,0,0,1.3.785,4.3,4.3,0,0,0,1.487.242,2.8,2.8,0,0,0,1.675-.425,1.382,1.382,0,0,0,.578-1.18,1.042,1.042,0,0,0-.277-.743,1.882,1.882,0,0,0-.7-.46q-.425-.165-1.133-.366a12.2,12.2,0,0,1-1.428-.478,2.372,2.372,0,0,1-.92-.69,1.856,1.856,0,0,1-.378-1.215,2.083,2.083,0,0,1,.366-1.221,2.323,2.323,0,0,1,1.044-.808,4.1,4.1,0,0,1,1.587-.283,4.47,4.47,0,0,1,1.6.283,3.787,3.787,0,0,1,1.286.8l-.354.578a3.684,3.684,0,0,0-2.537-1.026,2.745,2.745,0,0,0-1.675.437,1.436,1.436,0,0,0-.578,1.215,1.2,1.2,0,0,0,.3.838,1.978,1.978,0,0,0,.749.507q.448.177,1.192.389a12.4,12.4,0,0,1,1.374.466,2.294,2.294,0,0,1,.867.637,1.651,1.651,0,0,1,.354,1.1,1.978,1.978,0,0,1-.808,1.664A3.536,3.536,0,0,1-39.449,15.581Zm10.9-5.958a1.75,1.75,0,0,1,1.339.484,2,2,0,0,1,.454,1.416q0,.224-.012.342l-.283,3.622h-.72l.283-3.575q.012-.118.012-.319a1.465,1.465,0,0,0-.295-1.009,1.185,1.185,0,0,0-.92-.324,1.614,1.614,0,0,0-1.251.5,2.3,2.3,0,0,0-.531,1.422l-.26,3.3h-.72l.283-3.575q.012-.118.012-.319a1.465,1.465,0,0,0-.295-1.009,1.185,1.185,0,0,0-.92-.324,1.614,1.614,0,0,0-1.251.5,2.3,2.3,0,0,0-.531,1.422l-.26,3.3h-.72l.448-5.722h.708l-.071.908a1.915,1.915,0,0,1,1.817-1.05,1.578,1.578,0,0,1,1.711,1.1,2.009,2.009,0,0,1,.8-.808A2.36,2.36,0,0,1-28.547,9.623Zm6.041,0q1.959,0,1.959,1.888a2.832,2.832,0,0,1-.012.295l-.295,3.681h-.708l.083-.979a1.98,1.98,0,0,1-.755.79,2.091,2.091,0,0,1-1.062.271,2.1,2.1,0,0,1-1.4-.46,1.477,1.477,0,0,1-.543-1.18,1.476,1.476,0,0,1,.342-1.021,2.046,2.046,0,0,1,1.109-.555,9.96,9.96,0,0,1,2.076-.171h.413l.035-.4a2.211,2.211,0,0,0,.012-.26,1.322,1.322,0,0,0-.307-.967,1.322,1.322,0,0,0-.967-.307,3.593,3.593,0,0,0-1.97.625l-.236-.566a3.528,3.528,0,0,1,1.044-.5A4.065,4.065,0,0,1-22.506,9.623Zm-.672,5.321a1.7,1.7,0,0,0,1.239-.5,1.966,1.966,0,0,0,.566-1.3l.035-.425h-.342a9.8,9.8,0,0,0-1.758.118,1.5,1.5,0,0,0-.826.366.983.983,0,0,0-.224.684.947.947,0,0,0,.354.773A1.466,1.466,0,0,0-23.179,14.944Zm4.861-7.775h.72l-.661,8.318h-.72Zm2.619,0h.72l-.661,8.318h-.72Zm9.91,4.082a1.817,1.817,0,0,1,1.05.649,1.911,1.911,0,0,1,.354,1.18,2.211,2.211,0,0,1-.737,1.776,3.088,3.088,0,0,1-2.071.631h-3.445l.649-8.318H-6.9a3.133,3.133,0,0,1,1.958.525,1.8,1.8,0,0,1,.672,1.5,2.1,2.1,0,0,1-.389,1.274A2.227,2.227,0,0,1-5.788,11.251ZM-9.3,7.794l-.248,3.15h2.489A2.347,2.347,0,0,0-5.541,10.5,1.556,1.556,0,0,0-5,9.221q0-1.428-1.923-1.428Zm2.112,7.067a2.4,2.4,0,0,0,1.546-.431,1.565,1.565,0,0,0,.531-1.292q0-1.557-1.935-1.557H-9.6l-.26,3.28Zm9.415-5.1-.46,5.722h-.7l.071-1a2.082,2.082,0,0,1-.8.8,2.251,2.251,0,0,1-1.127.283,1.985,1.985,0,0,1-1.445-.49,1.932,1.932,0,0,1-.5-1.445,2.987,2.987,0,0,1,.012-.307l.283-3.563h.72L-2,13.268a2.487,2.487,0,0,0-.012.283A1.2,1.2,0,0,0-.68,14.932a1.818,1.818,0,0,0,1.345-.507,2.164,2.164,0,0,0,.578-1.416L1.5,9.764Zm3.362,5.8a3.733,3.733,0,0,1-1.221-.2,2.908,2.908,0,0,1-1-.566l.319-.555a3.531,3.531,0,0,0,.914.531,2.835,2.835,0,0,0,1,.165q1.522,0,1.522-.956a.69.69,0,0,0-.189-.5,1.326,1.326,0,0,0-.472-.307q-.283-.112-.767-.254a8.534,8.534,0,0,1-.967-.336,1.67,1.67,0,0,1-.625-.472,1.242,1.242,0,0,1-.26-.82,1.452,1.452,0,0,1,.6-1.227,2.6,2.6,0,0,1,1.6-.448,3.13,3.13,0,0,1,1.127.2,2.352,2.352,0,0,1,.867.555l-.307.555a2.526,2.526,0,0,0-1.675-.684,1.908,1.908,0,0,0-1.085.26.859.859,0,0,0-.378.755.67.67,0,0,0,.189.5,1.409,1.409,0,0,0,.454.3q.265.112.773.265a7.944,7.944,0,0,1,.962.324,1.634,1.634,0,0,1,.631.478,1.266,1.266,0,0,1,.26.826,1.371,1.371,0,0,1-.619,1.18A2.8,2.8,0,0,1,5.585,15.569Zm4.165-5.8h.72l-.448,5.722H9.3Zm1.026-2.419-.071.908H9.762l.071-.908Zm4.212,2.277a2.039,2.039,0,0,1,1.463.484,1.9,1.9,0,0,1,.507,1.439,3.146,3.146,0,0,1-.012.319l-.283,3.622h-.72l.283-3.575a2.348,2.348,0,0,0,.012-.271,1.215,1.215,0,0,0-1.369-1.38,1.886,1.886,0,0,0-1.386.507,2.134,2.134,0,0,0-.584,1.4l-.26,3.315h-.72l.448-5.722h.708l-.071.932a2.081,2.081,0,0,1,.808-.79A2.39,2.39,0,0,1,14.988,9.623Zm4.153,3.091v.118a2.239,2.239,0,0,0,.5,1.546,1.815,1.815,0,0,0,1.428.555,2.865,2.865,0,0,0,1.923-.684l.236.555a2.452,2.452,0,0,1-.956.56,3.756,3.756,0,0,1-1.227.206,2.534,2.534,0,0,1-1.935-.749,2.809,2.809,0,0,1-.708-2.012,3.833,3.833,0,0,1,.342-1.664,2.619,2.619,0,0,1,.979-1.121,2.731,2.731,0,0,1,1.487-.4,2.252,2.252,0,0,1,1.693.637,2.588,2.588,0,0,1,.619,1.876,5.057,5.057,0,0,1-.035.578Zm2.1-2.5a1.914,1.914,0,0,0-1.4.513,2.431,2.431,0,0,0-.655,1.457h3.669a2.057,2.057,0,0,0-.4-1.469A1.526,1.526,0,0,0,21.241,10.212Zm5.427,5.356a3.733,3.733,0,0,1-1.221-.2,2.908,2.908,0,0,1-1-.566l.319-.555a3.531,3.531,0,0,0,.914.531,2.835,2.835,0,0,0,1,.165q1.522,0,1.522-.956a.69.69,0,0,0-.189-.5,1.326,1.326,0,0,0-.472-.307q-.283-.112-.767-.254a8.534,8.534,0,0,1-.967-.336,1.67,1.67,0,0,1-.625-.472,1.242,1.242,0,0,1-.26-.82,1.452,1.452,0,0,1,.6-1.227,2.6,2.6,0,0,1,1.6-.448,3.13,3.13,0,0,1,1.127.2,2.352,2.352,0,0,1,.867.555l-.307.555a2.526,2.526,0,0,0-1.675-.684,1.908,1.908,0,0,0-1.085.26.859.859,0,0,0-.378.755.67.67,0,0,0,.189.5,1.409,1.409,0,0,0,.454.3q.265.112.773.265a7.945,7.945,0,0,1,.962.324,1.634,1.634,0,0,1,.631.478,1.266,1.266,0,0,1,.26.826,1.371,1.371,0,0,1-.619,1.18A2.8,2.8,0,0,1,26.668,15.569Zm5.64,0a3.733,3.733,0,0,1-1.221-.2,2.908,2.908,0,0,1-1-.566l.319-.555a3.531,3.531,0,0,0,.914.531,2.835,2.835,0,0,0,1,.165q1.522,0,1.522-.956a.69.69,0,0,0-.189-.5,1.326,1.326,0,0,0-.472-.307q-.283-.112-.767-.254a8.534,8.534,0,0,1-.967-.336,1.67,1.67,0,0,1-.625-.472,1.242,1.242,0,0,1-.26-.82,1.452,1.452,0,0,1,.6-1.227,2.6,2.6,0,0,1,1.6-.448,3.13,3.13,0,0,1,1.127.2,2.352,2.352,0,0,1,.867.555l-.307.555a2.526,2.526,0,0,0-1.675-.684,1.908,1.908,0,0,0-1.085.26.859.859,0,0,0-.378.755.67.67,0,0,0,.189.5,1.409,1.409,0,0,0,.454.3q.265.112.773.265a7.944,7.944,0,0,1,.962.324,1.634,1.634,0,0,1,.631.478,1.266,1.266,0,0,1,.26.826,1.371,1.371,0,0,1-.619,1.18A2.8,2.8,0,0,1,32.308,15.569Zm4.318-2.855v.118a2.239,2.239,0,0,0,.5,1.546,1.815,1.815,0,0,0,1.428.555,2.865,2.865,0,0,0,1.923-.684l.236.555a2.452,2.452,0,0,1-.956.56,3.756,3.756,0,0,1-1.227.206,2.534,2.534,0,0,1-1.935-.749,2.809,2.809,0,0,1-.708-2.012,3.833,3.833,0,0,1,.342-1.664,2.619,2.619,0,0,1,.979-1.121,2.731,2.731,0,0,1,1.487-.4,2.252,2.252,0,0,1,1.693.637A2.588,2.588,0,0,1,41,12.136a5.057,5.057,0,0,1-.035.578Zm2.1-2.5a1.914,1.914,0,0,0-1.4.513,2.431,2.431,0,0,0-.655,1.457h3.669a2.057,2.057,0,0,0-.4-1.469A1.526,1.526,0,0,0,38.726,10.212Zm5.427,5.356a3.733,3.733,0,0,1-1.221-.2,2.908,2.908,0,0,1-1-.566l.319-.555a3.531,3.531,0,0,0,.914.531,2.835,2.835,0,0,0,1,.165q1.522,0,1.522-.956a.69.69,0,0,0-.189-.5,1.326,1.326,0,0,0-.472-.307q-.283-.112-.767-.254a8.535,8.535,0,0,1-.967-.336,1.67,1.67,0,0,1-.625-.472,1.242,1.242,0,0,1-.26-.82,1.452,1.452,0,0,1,.6-1.227,2.6,2.6,0,0,1,1.6-.448,3.13,3.13,0,0,1,1.127.2,2.352,2.352,0,0,1,.867.555l-.307.555a2.526,2.526,0,0,0-1.675-.684,1.908,1.908,0,0,0-1.085.26.859.859,0,0,0-.378.755.67.67,0,0,0,.189.5,1.409,1.409,0,0,0,.454.3q.265.112.773.265a7.945,7.945,0,0,1,.962.324,1.634,1.634,0,0,1,.631.478,1.266,1.266,0,0,1,.26.826,1.371,1.371,0,0,1-.619,1.18A2.8,2.8,0,0,1,44.153,15.569Z" transform="translate(168.192 309.028)"/>
    <g id="Logo_Section" data-name="Logo Section" transform="translate(92 219)">
      <g id="Group_15409" data-name="Group 15409" transform="translate(0 55)">
        <path id="Path_22574" d="M59.965,92.232c3.869,0,5.588-1.863,5.588-4.084,0-5.517-9.242-3.009-9.242-7.093,0-1.5,1.218-2.722,4.012-2.722a7.994,7.994,0,0,1,4.155,1.218l.573-1.29A8.834,8.834,0,0,0,60.4,76.9c-3.8,0-5.517,1.934-5.517,4.155,0,5.588,9.242,3.009,9.242,7.164,0,1.5-1.218,2.651-4.012,2.651a7.446,7.446,0,0,1-4.943-1.863l-.645,1.218C55.524,91.444,57.745,92.232,59.965,92.232Zm22.5-.072h1.648L77.232,77.115H75.655L68.778,92.16h1.648l1.791-4.012H80.6Zm-9.6-5.373,3.582-8.1,3.582,8.1ZM99.8,77.115v6.734H90.414V77.115H88.838V92.16h1.576V85.211H99.8V92.16h1.576V77.115ZM119.644,92.16h1.648l-6.878-15.045h-1.576L105.961,92.16h1.648l1.791-4.012h8.382Zm-9.6-5.373,3.582-8.1,3.582,8.1Zm26.221-9.672H134.69l-5.158,8.454-5.158-8.454h-1.719l6.018,9.815v5.23h1.576V86.93ZM11.964,89.653A6.368,6.368,0,0,1,8.024,90.8a6.215,6.215,0,0,1-6.448-5.875v-.358a6.158,6.158,0,0,1,6.448-6.233,5.94,5.94,0,0,1,4.514,1.791l1-1a7.179,7.179,0,0,0-5.588-2.149C3.367,76.972,0,80.2,0,84.637S3.367,92.3,7.952,92.3a8.251,8.251,0,0,0,5.517-1.934V84.637h-1.5Zm12.323,2.579c3.869,0,5.588-1.863,5.588-4.084,0-5.517-9.242-3.009-9.242-7.093,0-1.5,1.218-2.722,4.012-2.722A7.994,7.994,0,0,1,28.8,79.551l.573-1.29A8.834,8.834,0,0,0,24.717,76.9c-3.8,0-5.517,1.934-5.517,4.155,0,5.588,9.242,3.009,9.242,7.164,0,1.5-1.218,2.651-4.012,2.651a7.446,7.446,0,0,1-4.943-1.863l-.645,1.218c.931,1.218,3.152,2.006,5.445,2.006Zm13.9-.072h1.576V78.476h5.3V77.115H32.884v1.361h5.3Z" transform="translate(0 -76.9)" fill="#484b49"/>
      </g>
      <g id="Group_15410" data-name="Group 15410" transform="translate(44.276)">
        <path id="Path_22575" d="M84.583,41.983a1.437,1.437,0,0,1-1.433,1.433,1.415,1.415,0,0,1-1-.43l-19.7-19.774a2.077,2.077,0,0,1,0-3.009L82.147.43a1.385,1.385,0,0,1,2.006,0,1.414,1.414,0,0,1,.43,1Z" transform="translate(-61.8)" fill="#ff7a08" fill-rule="evenodd"/>
        <path id="Path_22576" d="M96.6,41.983a1.437,1.437,0,0,0,1.433,1.433,1.414,1.414,0,0,0,1-.43l19.7-19.774a2.077,2.077,0,0,0,0-3.009L99.036.43a1.385,1.385,0,0,0-2.006,0,1.415,1.415,0,0,0-.43,1Z" transform="translate(-71.668)" fill="#6ca042" fill-rule="evenodd"/>
      </g>
    </g>
  </g>
</svg>
