<svg id="download_1_" data-name="download (1)" xmlns="http://www.w3.org/2000/svg" width="14.037" height="14.973" viewBox="0 0 14.037 14.973">
  <g id="Group_16704" data-name="Group 16704" transform="translate(3.275)">
    <g id="Group_16703" data-name="Group 16703">
      <path id="Path_23456" data-name="Path 23456" d="M135.443,6.825a.467.467,0,0,0-.426-.274h-1.872V.468A.468.468,0,0,0,132.677,0h-1.872a.468.468,0,0,0-.468.468V6.551h-1.872a.468.468,0,0,0-.352.776l3.275,3.743a.467.467,0,0,0,.7,0l3.275-3.743A.467.467,0,0,0,135.443,6.825Z" transform="translate(-127.998)" fill="#fff"/>
    </g>
  </g>
  <g id="Group_16706" data-name="Group 16706" transform="translate(0 10.294)">
    <g id="Group_16705" data-name="Group 16705">
      <path id="Path_23457" data-name="Path 23457" d="M28.166,352v2.807H17.872V352H16v3.743a.935.935,0,0,0,.936.936H29.1a.935.935,0,0,0,.936-.936V352Z" transform="translate(-16 -352)" fill="#fff"/>
    </g>
  </g>
</svg>
