<svg xmlns="http://www.w3.org/2000/svg" width="79" height="81.821" viewBox="0 0 79 81.821">
  <g id="reduce-time" transform="translate(-32 -24)">
    <path id="Path_23617" data-name="Path 23617" d="M361.393,295.518v-5.643H358.16a9.788,9.788,0,0,0-.694-1.716l2.516-2.516-4.232-4.232-2.516,2.516a9.816,9.816,0,0,0-1.716-.694V280h-5.643v3.233a9.788,9.788,0,0,0-1.716.694l-2.516-2.516-4.232,4.232,2.516,2.516a9.816,9.816,0,0,0-.694,1.716H336v5.643h3.233a9.79,9.79,0,0,0,.694,1.716l-2.516,2.516,4.232,4.232,2.516-2.516a9.818,9.818,0,0,0,1.716.694v3.233h5.643V302.16a9.792,9.792,0,0,0,1.716-.694l2.516,2.516,4.232-4.232-2.516-2.516a9.818,9.818,0,0,0,.694-1.716Z" transform="translate(-250.393 -210.857)" fill="#ffe4ec"/>
    <circle id="Ellipse_942" data-name="Ellipse 942" cx="4.21" cy="4.21" r="4.21" transform="translate(93.996 77.577)" fill="#fff"/>
    <path id="Path_23618" data-name="Path 23618" d="M57.393,103.518V97.875H54.16a9.788,9.788,0,0,0-.694-1.716l2.516-2.516L51.75,89.411l-2.516,2.516a9.815,9.815,0,0,0-1.716-.694V88H41.875v3.233a9.8,9.8,0,0,0-1.716.694l-2.516-2.516-4.232,4.232,2.516,2.516a9.815,9.815,0,0,0-.694,1.716H32v5.643h3.233a9.8,9.8,0,0,0,.694,1.716l-2.516,2.516,4.232,4.232,2.516-2.516a9.816,9.816,0,0,0,1.716.694v3.233h5.643V110.16a9.794,9.794,0,0,0,1.716-.694l2.516,2.516,4.232-4.232-2.516-2.516a9.816,9.816,0,0,0,.694-1.716Z" transform="translate(0 -52.714)" fill="#fff2f6"/>
    <circle id="Ellipse_943" data-name="Ellipse 943" cx="4.21" cy="4.21" r="4.21" transform="translate(40.419 43.9)" fill="#fff"/>
    <path id="Path_23619" data-name="Path 23619" d="M149.607,29.643H98.821a2.821,2.821,0,0,1,0-5.643h50.786a2.821,2.821,0,1,1,0,5.643Z" transform="translate(-52.714)" fill="#ffd150"/>
    <path id="Path_23620" data-name="Path 23620" d="M149.607,461.643H98.821a2.821,2.821,0,0,1,0-5.643h50.786a2.821,2.821,0,0,1,0,5.643Z" transform="translate(-52.714 -355.821)" fill="#ffd150"/>
    <path id="Path_23621" data-name="Path 23621" d="M157.143,78.571C161.375,72.929,162.786,56,162.786,56H112s1.411,16.929,5.643,22.571,11.286,8.464,11.286,8.464V95.5s-7.054,2.821-11.286,8.464S112,126.536,112,126.536h50.786s-1.411-16.929-5.643-22.571S145.857,95.5,145.857,95.5V87.036S152.911,84.214,157.143,78.571Z" transform="translate(-65.893 -26.357)" fill="#fff6d9"/>
    <g id="Group_16751" data-name="Group 16751" transform="translate(51.75 43.75)">
      <path id="Path_23622" data-name="Path 23622" d="M163.75,360C145.411,360,144,376.929,144,376.929h39.5S182.089,360,163.75,360Z" transform="translate(-144 -320.5)" fill="#fbbc09"/>
      <path id="Path_23623" data-name="Path 23623" d="M178.078,158.571a2.821,2.821,0,0,1-5.643,0v-5.643a5.588,5.588,0,0,0-3.536-5.236c-.259-.108-5.749-2.441-8.879-6.614A16.951,16.951,0,0,1,157.97,136h34.573a16.951,16.951,0,0,1-2.051,5.079c-3.13,4.174-8.618,6.507-8.879,6.614a5.588,5.588,0,0,0-3.536,5.236Z" transform="translate(-155.507 -136)" fill="#fbbc09"/>
    </g>
  </g>
</svg>
