<svg xmlns="http://www.w3.org/2000/svg" width="14" height="14" viewBox="0 0 14 14">
  <g id="OTP" transform="translate(-31 -31)">
    <path id="Path_23276" data-name="Path 23276" d="M44.3,33.52H38.28V31.977A.976.976,0,0,0,37.3,31H31.977a.976.976,0,0,0-.977.977V44.023a.978.978,0,0,0,.977.977H37.3a.978.978,0,0,0,.977-.977v-4.9H44.3a.7.7,0,0,0,.7-.7v-4.2a.7.7,0,0,0-.7-.7ZM33.94,31.594h1.4a.35.35,0,0,1,0,.7h-1.4a.35.35,0,1,1,0-.7Zm1.4,12.81h-1.4a.35.35,0,0,1,0-.7h1.4a.35.35,0,0,1,0,.7Zm2.324-1.294H31.616V32.89h6.048v.63h-3.73a.694.694,0,0,0-.694.694v4.211a.7.7,0,0,0,.695.695H35.2v1.125a.346.346,0,0,0,.591.245L37.16,39.12h.5Zm-.759-6.535a.351.351,0,1,1-.35.608l-.445-.258v.515a.35.35,0,0,1-.7,0v-.515l-.445.258a.348.348,0,0,1-.479-.129.352.352,0,0,1,.129-.479l.445-.255-.445-.258a.351.351,0,0,1,.35-.608l.445.258V35.2a.35.35,0,0,1,.7,0v.512l.445-.258a.351.351,0,0,1,.35.608l-.445.258Zm3.36,0a.351.351,0,1,1-.35.608l-.445-.258v.515a.35.35,0,0,1-.7,0v-.515l-.445.258a.348.348,0,0,1-.479-.129.352.352,0,0,1,.129-.479l.445-.255-.445-.258a.351.351,0,1,1,.35-.608l.445.258V35.2a.35.35,0,0,1,.7,0v.512l.445-.258a.351.351,0,0,1,.35.608l-.445.258Zm3.36,0a.351.351,0,1,1-.35.608l-.445-.258v.515a.35.35,0,0,1-.7,0v-.515l-.445.258a.348.348,0,0,1-.479-.129.352.352,0,0,1,.129-.479l.445-.255-.445-.258a.351.351,0,0,1,.35-.608l.445.258V35.2a.35.35,0,0,1,.7,0v.512l.445-.258a.351.351,0,0,1,.35.608l-.445.258Z" transform="translate(0 0)" fill="#760018"/>
  </g>
</svg>
