<svg id="mail" xmlns="http://www.w3.org/2000/svg" width="58" height="58" viewBox="0 0 58 58">
  <path id="Path_23166" data-name="Path 23166" d="M0,191.809v32.98a3.291,3.291,0,0,0,3.291,3.291H54.709A3.291,3.291,0,0,0,58,224.789v-32.98Z" transform="translate(0 -170.081)" fill="#e8ac00"/>
  <path id="Path_23167" data-name="Path 23167" d="M245.191,195.173l28.82,32.18.07.026a3.4,3.4,0,0,0,1.335-2.7V191.809Z" transform="translate(-217.415 -170.081)" fill="#fec110"/>
  <path id="Path_23168" data-name="Path 23168" d="M0,191.809v32.867a3.4,3.4,0,0,0,1.261,2.644l.143.032,28.82-32.18Z" transform="translate(0 -170.081)" fill="#fec110"/>
  <path id="Path_23169" data-name="Path 23169" d="M33.432,65.517a7.811,7.811,0,0,1-8.865,0L0,48.5,24.568,31.572a7.812,7.812,0,0,1,8.865,0L58,48.5Z" transform="translate(0 -26.772)" fill="#d49e00"/>
  <path id="Path_23170" data-name="Path 23170" d="M75.552,38.745l19.187-13.29V1.68A1.68,1.68,0,0,0,93.059,0H49.18A1.68,1.68,0,0,0,47.5,1.68V25.455l19.187,13.29A7.811,7.811,0,0,0,75.552,38.745Z" transform="translate(-42.119 0)" fill="#ffe4ec"/>
  <path id="Path_23171" data-name="Path 23171" d="M157.911,52.442a1.648,1.648,0,0,1-1.442.851H131.092a1.648,1.648,0,0,1-1.395-2.525L142.385,30.59a1.648,1.648,0,0,1,2.79,0l12.689,20.178a1.648,1.648,0,0,1,.047,1.674Z" transform="translate(-114.78 -26.442)" fill="#760018"/>
  <path id="Path_23172" data-name="Path 23172" d="M249.812,103.844a.906.906,0,0,1-1.812,0v-.225a.906.906,0,1,1,1.812,0Zm0-10.817v7.36a.906.906,0,1,1-1.812,0v-7.36a.906.906,0,1,1,1.812,0Z" transform="translate(-219.906 -81.685)" fill="#fff"/>
</svg>
