<svg xmlns="http://www.w3.org/2000/svg" width="20.21" height="20.21" viewBox="0 0 20.21 20.21">
  <g id="rupee" transform="translate(0)">
    <path id="Path_23198" data-name="Path 23198" d="M17.25,2.96A10.105,10.105,0,0,0,2.96,17.25,10.105,10.105,0,0,0,17.25,2.96ZM11.787,18.1l-.243-1.159a6.988,6.988,0,0,0,0-13.676l.243-1.159a8.172,8.172,0,0,1,0,15.994ZM8.423,2.108l.243,1.159a6.988,6.988,0,0,0,0,13.676L8.423,18.1a8.172,8.172,0,0,1,0-15.994Zm-1.489,9.95V10.723H9.328A1.779,1.779,0,0,0,11,9.539H6.947V8.355H11A1.779,1.779,0,0,0,9.328,7.171H6.947V5.987h6.316V7.171H11.695a2.948,2.948,0,0,1,.534,1.184h1.034V9.539H12.229a2.965,2.965,0,0,1-2.9,2.368H9.094l3.668,2.049-.578,1.034Z" fill="#760018"/>
  </g>
</svg>
