<svg xmlns="http://www.w3.org/2000/svg" width="18.789" height="20.21" viewBox="0 0 18.789 20.21">
  <g id="_35_Overdue" data-name="35 Overdue" transform="translate(-28.226 -11)">
    <path id="Path_23189" data-name="Path 23189" d="M37.621,11a10.108,10.108,0,0,0-9.395,6.376H47.015A10.108,10.108,0,0,0,37.621,11Z" fill="#760018"/>
    <path id="Path_23190" data-name="Path 23190" d="M37.622,352.783a10.108,10.108,0,0,0,9.394-6.376H28.228a10.108,10.108,0,0,0,9.394,6.376Z" transform="translate(-0.002 -321.573)" fill="#760018"/>
    <path id="Path_23191" data-name="Path 23191" d="M302.022,213h-.1a.461.461,0,0,0-.46.46v2.626a.461.461,0,0,0,.46.46h.1a1.773,1.773,0,0,0,0-3.547Zm0,3.052h-.062V213.5h.062a1.278,1.278,0,1,1,0,2.557Z" transform="translate(-261.97 -193.671)" fill="#760018"/>
    <path id="Path_23192" data-name="Path 23192" d="M194,213.5a.247.247,0,0,0,0-.495H192.66a.347.347,0,0,0-.347.347V216.2a.347.347,0,0,0,.347.347H194a.247.247,0,0,0,0-.495h-1.193v-1.031H194a.247.247,0,0,0,0-.495h-1.193V213.5Z" transform="translate(-157.319 -193.671)" fill="#760018"/>
    <path id="Path_23193" data-name="Path 23193" d="M426.233,215.024a.247.247,0,0,0,0-.495H425.04V213.5h1.193a.247.247,0,0,0,0-.495h-1.341a.347.347,0,0,0-.347.347V216.2a.347.347,0,0,0,.347.347h1.341a.247.247,0,0,0,0-.495H425.04v-1.031Z" transform="translate(-379.973 -193.671)" fill="#760018"/>
    <path id="Path_23194" data-name="Path 23194" d="M42.135,213a1.783,1.783,0,1,0,1.595,1.773A1.693,1.693,0,0,0,42.135,213Zm0,3.052a1.293,1.293,0,1,1,1.1-1.278A1.2,1.2,0,0,1,42.135,216.055Z" transform="translate(-11.806 -193.671)" fill="#760018"/>
    <path id="Path_23195" data-name="Path 23195" d="M246.923,213.959a.957.957,0,0,0-.956-.956h-.98a.247.247,0,0,0-.247.247V216.3a.247.247,0,1,0,.495,0v-1.315l1.2,1.472a.247.247,0,0,0,.384-.313l-1-1.231h.153A.957.957,0,0,0,246.923,213.959Zm-.495,0a.461.461,0,0,1-.461.461h-.733V213.5h.733a.461.461,0,0,1,.461.461Z" transform="translate(-207.584 -193.671)" fill="#760018"/>
    <path id="Path_23196" data-name="Path 23196" d="M364.784,213a.247.247,0,0,0-.247.247v2.229a.575.575,0,1,1-1.15,0c-.015-1.771,0-2.115,0-2.181a.248.248,0,0,0-.448-.191c-.056.085-.068.1-.049,2.375a1.07,1.07,0,0,0,2.14-.009V213.25A.247.247,0,0,0,364.784,213Z" transform="translate(-320.855 -193.671)" fill="#760018"/>
    <path id="Path_23197" data-name="Path 23197" d="M118.84,213.016a.247.247,0,0,0-.317.148l-.93,2.555-.93-2.555a.247.247,0,0,0-.465.169l1.093,3a.321.321,0,0,0,.6,0l1.093-3A.247.247,0,0,0,118.84,213.016Z" transform="translate(-84.329 -193.67)" fill="#760018"/>
  </g>
</svg>
