<svg xmlns="http://www.w3.org/2000/svg" width="19.928" height="20.005" viewBox="0 0 19.928 20.005">
  <g id="Group_13236" data-name="Group 13236" transform="translate(-0.046 0)">
    <path id="Path_22311" data-name="Path 22311" d="M10.01,1.667a8.362,8.362,0,0,1,5.936,2.5h-2.6A.833.833,0,0,0,12.51,5h0a.833.833,0,0,0,.833.833H16.8a1.549,1.549,0,0,0,1.548-1.548V.833A.833.833,0,0,0,17.511,0h0a.833.833,0,0,0-.833.833V2.565A9.986,9.986,0,0,0,.049,9.085.839.839,0,0,0,.883,10h0a.818.818,0,0,0,.824-.732,8.347,8.347,0,0,1,8.3-7.6Z" transform="translate(0)" fill="#760018"/>
    <path id="Path_22312" data-name="Path 22312" d="M19.463,12a.818.818,0,0,0-.824.732A8.323,8.323,0,0,1,4.4,17.834H7A.833.833,0,0,0,7.834,17h0A.833.833,0,0,0,7,16.167H3.548A1.547,1.547,0,0,0,2,17.715v3.453A.833.833,0,0,0,2.833,22h0a.833.833,0,0,0,.833-.833V19.436A9.986,9.986,0,0,0,20.3,12.917.839.839,0,0,0,19.462,12Z" transform="translate(-0.325 -1.998)" fill="#760018"/>
  </g>
</svg>
