<svg id="Update-pana" xmlns="http://www.w3.org/2000/svg" width="154.314" height="161.458" viewBox="0 0 154.314 161.458">
  <g id="freepik--background-complete--inject-2" transform="translate(5.541 6.289)">
    <path id="Path_23448" data-name="Path 23448" d="M401.236,241.358a3.448,3.448,0,1,1-3.448-3.448A3.448,3.448,0,0,1,401.236,241.358Z" transform="translate(-270 -172.193)" fill="#ffe4ec"/>
    <circle id="Ellipse_933" data-name="Ellipse 933" cx="3.675" cy="3.675" r="3.675" transform="translate(112.353 69.164) rotate(-45)" fill="#ffe4ec"/>
    <circle id="Ellipse_934" data-name="Ellipse 934" cx="3.897" cy="3.897" r="3.897" transform="translate(105.784 58.769)" fill="#ffe4ec"/>
    <circle id="Ellipse_935" data-name="Ellipse 935" cx="4.073" cy="4.073" r="4.073" transform="matrix(0.177, -0.984, 0.984, 0.177, 103.363, 55.971)" fill="#ffe4ec"/>
    <circle id="Ellipse_936" data-name="Ellipse 936" cx="4.208" cy="4.208" r="4.208" transform="translate(108.863 39.724)" fill="#ffe4ec"/>
    <circle id="Ellipse_937" data-name="Ellipse 937" cx="4.588" cy="4.588" r="4.588" transform="translate(116.651 38.022) rotate(-22.68)" fill="#ffe4ec"/>
    <circle id="Ellipse_938" data-name="Ellipse 938" cx="3.331" cy="3.331" r="3.331" transform="matrix(0.229, -0.973, 0.973, 0.229, 131.391, 65.065)" fill="#ffe4ec"/>
    <circle id="Ellipse_939" data-name="Ellipse 939" cx="3.09" cy="3.09" r="3.09" transform="translate(133.188 50.77) rotate(-20.96)" fill="#ffe4ec"/>
    <circle id="Ellipse_940" data-name="Ellipse 940" cx="2.824" cy="2.824" r="2.824" transform="translate(128.811 46.159) rotate(-80.8)" fill="#ffe4ec"/>
    <path id="Path_23449" data-name="Path 23449" d="M95.221,119.569a13.932,13.932,0,0,1,2.133,2.992h3.4l1.268,5.479-3.068,1.479a13.88,13.88,0,0,1-.606,3.624l2.418,2.4-2.992,4.778L94.563,139.2a13.614,13.614,0,0,1-2.992,2.13v3.408L86.092,146l-1.461-3.068a13.636,13.636,0,0,1-3.624-.606l-2.4,2.418-4.778-2.988,1.121-3.214a13.931,13.931,0,0,1-2.133-2.992h-3.4l-1.268-5.479,3.068-1.479a13.909,13.909,0,0,1,.606-3.624l-2.414-2.4L72.4,117.79l3.214,1.121a13.826,13.826,0,0,1,2.992-2.13v-3.408l5.479-1.264,1.461,3.068a13.76,13.76,0,0,1,3.624.606l2.4-2.418,4.781,2.988Zm-6.721,4.5a6.042,6.042,0,1,0,2.688,3.768A6.045,6.045,0,0,0,88.5,124.065Z" transform="translate(-62.959 -92.345)" fill="#ffe4ec" fill-rule="evenodd"/>
    <path id="Path_23450" data-name="Path 23450" d="M125.269,62.128a7.791,7.791,0,0,1,1.18,1.658h1.885l.7,3.039-1.7.811A7.609,7.609,0,0,1,127,69.645l1.337,1.326-1.655,2.645-1.779-.621a7.671,7.671,0,0,1-1.658,1.18v1.888l-3.039.7-.818-1.7a7.583,7.583,0,0,1-2.005-.336l-1.33,1.341-2.645-1.655.621-1.779a7.671,7.671,0,0,1-1.18-1.658h-1.885l-.7-3.039,1.709-.8a7.609,7.609,0,0,1,.336-2.005L110.969,63.8l1.651-2.648,1.783.625a7.558,7.558,0,0,1,1.655-1.18V58.709L119.089,58l.822,1.7a7.729,7.729,0,0,1,2.005.332l1.33-1.337,2.645,1.655-.621,1.779Zm-3.722,2.491a3.346,3.346,0,1,0,1.063,4.61A3.346,3.346,0,0,0,121.547,64.619Z" transform="translate(-89.688 -58)" fill="#ffe4ec" fill-rule="evenodd"/>
    <path id="Path_23451" data-name="Path 23451" d="M66.082,73.35a6.11,6.11,0,0,1,.957,1.341h1.527l.57,2.466-1.377.665a6.085,6.085,0,0,1-.281,1.618l1.1,1.074-1.341,2.144-1.439-.5a6.21,6.21,0,0,1-1.344.957v1.527L62,85.206l-.661-1.377a6.26,6.26,0,0,1-1.629-.274l-1.074,1.1L56.49,83.311l.5-1.461a6.111,6.111,0,0,1-.957-1.341H54.51l-.57-2.466,1.377-.665a6.261,6.261,0,0,1,.274-1.625l-1.1-1.074,1.341-2.122,1.443.5a6.111,6.111,0,0,1,1.341-.957V70.57L61.077,70l.665,1.377a6.235,6.235,0,0,1,1.625.274l1.074-1.1L66.586,71.9l-.5,1.461Zm-3.014,2.016a2.707,2.707,0,1,0,1.207,1.689,2.71,2.71,0,0,0-1.207-1.689Z" transform="translate(-53.94 -65.617)" fill="none"/>
  </g>
  <g id="freepik--Screen--inject-2" transform="translate(40.703)">
    <path id="Path_23454" data-name="Path 23454" d="M214.766,41.248,204.027,41.2a2.67,2.67,0,0,0-2.615,2.725v1.947a2.667,2.667,0,0,1-2.619,2.714l-20.934-.095a2.67,2.67,0,0,1-2.6-2.74V43.8a2.67,2.67,0,0,0-2.6-2.74h-3.777l-9.4-.062A8.449,8.449,0,0,0,151,49.4l-.573,135.546a8.452,8.452,0,0,0,8.4,8.489l55.281.252a8.449,8.449,0,0,0,8.485-8.4l.573-135.546A8.445,8.445,0,0,0,214.766,41.248Z" transform="translate(-150.346 -40.921)" fill="#fff"/>
    <path id="Path_23455" data-name="Path 23455" d="M214.62,41.111h.289a6.042,6.042,0,0,1,.858.069,7.927,7.927,0,0,1,3.163,1.1,8.08,8.08,0,0,1,1.918,1.567,8.46,8.46,0,0,1,1.6,2.557,8.788,8.788,0,0,1,.617,3.43v3.982c-.04,11.261-.1,27.553-.172,47.679s-.172,44.1-.278,70.717q-.022,4.993-.04,10.1v2.557a9.156,9.156,0,0,1-.332,2.557,8.558,8.558,0,0,1-1.1,2.371,9.154,9.154,0,0,1-1.761,1.94,8.533,8.533,0,0,1-4.876,1.87c-.446.029-.884.022-1.326.018H209.2l-10.761-.051-22.088-.1-11.3-.051-5.706-.029a8.88,8.88,0,0,1-5.479-1.538,8.617,8.617,0,0,1-3.32-4.624,9.132,9.132,0,0,1-.34-2.856v-2.849q.022-5.687.047-11.3.047-11.221.095-22.1c.062-14.483.124-28.455.183-41.766s.117-25.956.168-37.791q.04-8.876.077-17.128V49.4c0-.34.033-.683.051-1.023a4.9,4.9,0,0,1,.175-1,8.5,8.5,0,0,1,4.928-5.885,8.767,8.767,0,0,1,3.751-.694l7.368.037,3.532.037h1.735a2.688,2.688,0,0,1,1.655.471A2.78,2.78,0,0,1,175,42.686a4.544,4.544,0,0,1,.161,1.666v.822a5.885,5.885,0,0,0,.026.807,2.688,2.688,0,0,0,.628,1.425,2.477,2.477,0,0,0,1.3.811,2.8,2.8,0,0,0,.763.08H181.7l11.145.062,4.913.026c.387,0,.782.022,1.151,0a2.48,2.48,0,0,0,1.041-.365,2.681,2.681,0,0,0,1.194-1.7,4.643,4.643,0,0,0,.069-1.03V44.278a5.545,5.545,0,0,1,.047-.986,2.86,2.86,0,0,1,.321-.9,2.681,2.681,0,0,1,1.348-1.183,4.285,4.285,0,0,1,1.677-.172l5.479.037,3.372.022H204.6a4.12,4.12,0,0,0-1.651.172,2.579,2.579,0,0,0-1.315,1.158,2.758,2.758,0,0,0-.314.88,5.729,5.729,0,0,0-.044.975v1.008a4.834,4.834,0,0,1-.069,1.045,2.758,2.758,0,0,1-1.227,1.753,2.557,2.557,0,0,1-1.07.365c-.391.033-.771,0-1.162,0l-4.887,0L181.72,48.41h-3.832a2.922,2.922,0,0,1-.793-.08,2.608,2.608,0,0,1-1.355-.844A2.823,2.823,0,0,1,175.083,46a6.885,6.885,0,0,1-.026-.822v-.822a4.405,4.405,0,0,0-.157-1.625,2.685,2.685,0,0,0-.979-1.293,2.557,2.557,0,0,0-1.585-.446h-5.282l-7.364-.033a8.381,8.381,0,0,0-8.536,6.487c-.088.321-.113.657-.175.986a5.778,5.778,0,0,0-.047,1.008v2.049q-.029,8.241-.066,17.128c-.048,11.835-.1,24.473-.15,37.8s-.113,27.279-.172,41.766q-.044,10.86-.091,22.092-.022,5.611-.047,11.3v2.849a9.029,9.029,0,0,0,.332,2.8,8.453,8.453,0,0,0,3.218,4.5,8.715,8.715,0,0,0,5.377,1.5l5.706.029,11.294.051,22.088.1,10.765.051h3.982c.442,0,.884,0,1.315-.018a8.332,8.332,0,0,0,4.77-1.826,8.9,8.9,0,0,0,1.728-1.9,8.291,8.291,0,0,0,1.063-2.319,8.9,8.9,0,0,0,.329-2.52v-2.557q.022-5.114.044-10.1c.121-26.618.23-50.587.318-70.717s.179-36.418.234-47.679c0-1.406,0-2.736.022-3.982a8.708,8.708,0,0,0-.606-3.412,8.44,8.44,0,0,0-6.619-5.2,7.078,7.078,0,0,0-.855-.08Z" transform="translate(-150.2 -40.784)" fill="#263238"/>
    <path id="Path_23456" data-name="Path 23456" d="M263.579,147.751l-.829-.983,2.469-1.326-11.473-3.883,3.883,11.119,1.414-1.852s7.422,13.062,0,21c-7.371,7.886-16.072,6.177-16.072,6.177l1.677,5.479s13.676.972,21.014-11.389S263.579,147.751,263.579,147.751Z" transform="translate(-209.083 -104.749)" fill="#ffe4ec"/>
    <path id="Path_23457" data-name="Path 23457" d="M196.758,171.424l.829.983-2.473,1.326,11.473,3.883L202.7,166.5l-1.41,1.852s-7.426-13.062,0-21c7.371-7.886,16.072-6.177,16.072-6.177l-1.677-5.479s-13.68-.972-21,11.382S196.758,171.424,196.758,171.424Z" transform="translate(-176.664 -101.011)" fill="#ffe4ec"/>
    <path id="Path_23462" data-name="Path 23462" d="M239.781,169.892a8.92,8.92,0,0,1,1.377,1.94h2.192l.818,3.554-1.983.961a8.957,8.957,0,0,1-.395,2.345l1.567,1.552-1.936,3.09-2.082-.731a8.8,8.8,0,0,1-1.936,1.381v2.192L233.86,187l-.957-1.987a8.952,8.952,0,0,1-2.33-.391l-1.552,1.563-3.094-1.932.731-2.082a8.866,8.866,0,0,1-1.377-1.936h-2.192l-.818-3.554,1.983-.957a8.934,8.934,0,0,1,.394-2.345l-1.563-1.552,1.932-3.094,2.082.731a8.917,8.917,0,0,1,1.936-1.381v-2.192l3.554-.822.957,1.987a8.81,8.81,0,0,1,2.345.395l1.552-1.567,3.094,1.936-.731,2.078Zm-4.35,2.922a12.3,12.3,0,1,0,0-.011Z" transform="translate(-195.945 -119.671)" fill="#760018" fill-rule="evenodd"/>
    <g id="Group_16713" data-name="Group 16713" transform="translate(33.499 52.536)" opacity="0.6">
      <path id="Path_23463" data-name="Path 23463" d="M247.9,185.2a3.912,3.912,0,1,0,1.242,5.391A3.912,3.912,0,0,0,247.9,185.2Z" transform="translate(-241.909 -184.609)" fill="#fff" fill-rule="evenodd"/>
    </g>
    <path id="Path_23470" data-name="Path 23470" d="M323.873,77.6c0,.037-1.479.08-3.306.095s-3.287,0-3.287-.04,1.461-.084,3.287-.1S323.873,77.555,323.873,77.6Z" transform="translate(-256.25 -64.118)" fill="#263238"/>
    <path id="Path_23471" data-name="Path 23471" d="M323.882,82.231c0,.04-1.479.084-3.306.1s-3.306,0-3.306-.044,1.479-.08,3.306-.095S323.882,82.195,323.882,82.231Z" transform="translate(-256.243 -67.063)" fill="#263238"/>
    <path id="Path_23472" data-name="Path 23472" d="M323.915,86.861c0,.04-1.479.084-3.306.1s-3.309,0-3.309-.044,1.479-.08,3.309-.095S323.915,86.825,323.915,86.861Z" transform="translate(-256.263 -70.002)" fill="#263238"/>
    <path id="Path_23473" data-name="Path 23473" d="M170.618,82.6h.5l1.414-.033-.04.04V80.992a.544.544,0,0,1,.475-.435h.676a.552.552,0,0,1,.46.544c0,.479,0,.979.018,1.494l-.066-.062h1.783l-.069.066V79.816a.566.566,0,0,0-.248-.42l-.778-.767-.752-.731-.365-.365c-.124-.121-.223-.245-.365-.274a.489.489,0,0,0-.409.077c-.11.091-.223.223-.332.329l-.676.592c-.4.416-.822.8-1.125,1.162a1.282,1.282,0,0,0-.091.665V82.6a1.722,1.722,0,0,1,0-.212v-.639c0-.256,0-.632-.026-1.019v-1a.73.73,0,0,1,.095-.365c.332-.405.731-.76,1.129-1.191l.636-.65c.113-.113.208-.223.343-.34a.6.6,0,0,1,.515-.1.961.961,0,0,1,.431.307l.365.365.752.731.782.767a1.461,1.461,0,0,1,.2.216.581.581,0,0,1,.095.3c0,.186,0,.365,0,.566v2.29h-1.925V81.061a.431.431,0,0,0-.365-.435H173a.431.431,0,0,0-.384.343v1.655h-1.841A.731.731,0,0,1,170.618,82.6Z" transform="translate(-163.148 -63.807)" fill="#263238"/>
    <path id="Path_23474" data-name="Path 23474" d="M247.339,88.115c0,.051-5.567.095-12.419.095s-12.419-.044-12.419-.095,5.567-.095,12.419-.095S247.339,88.064,247.339,88.115Z" transform="translate(-196.091 -70.766)" fill="#263238"/>
    <path id="Path_23475" data-name="Path 23475" d="M232.887,383.352h-26.1a6.038,6.038,0,0,1-6.038-6.034h0a6.038,6.038,0,0,1,6.038-6.038h26.1a6.038,6.038,0,0,1,6.038,6.038h0A6.038,6.038,0,0,1,232.887,383.352Z" transform="translate(-182.285 -250.558)" fill="#760018"/>
    <path id="Path_23481" data-name="Path 23481" d="M233.807,325.765c0,.051-11.221.095-25.062.095s-25.065-.044-25.065-.095,11.221-.095,25.065-.095S233.807,325.71,233.807,325.765Z" transform="translate(-171.451 -221.608)" fill="#263238"/>
    <path id="Path_23482" data-name="Path 23482" d="M241.174,334.175c0,.051-6.75.095-15.075.095s-15.079-.044-15.079-.095,6.75-.095,15.079-.095S241.174,334.12,241.174,334.175Z" transform="translate(-188.804 -226.946)" fill="#263238"/>
    <text id="sentence" transform="translate(37.297 128)" fill="#fff" stroke="rgba(0,0,0,0)" stroke-width="1" font-size="4" font-family="NunitoSans-Bold, Nunito Sans" font-weight="700"><tspan x="-11" y="0">Refresh Now</tspan></text>
    <text id="sentence-2" data-name="sentence" transform="translate(37.297 91)" fill="#263238" stroke="rgba(0,0,0,0)" stroke-width="1" font-size="6" font-family="NunitoSans-Bold, Nunito Sans" font-weight="700"><tspan x="-13" y="0">REFRESH</tspan></text>
  </g>
  <g id="freepik--Character--inject-2" transform="translate(21.46 26.927)">
    <path id="Path_23483" data-name="Path 23483" d="M99.841,458.24l-2.221,8.208,7.214.658,1.516-7.813Z" transform="translate(-97.583 -332.68)" fill="#760018"/>
    <path id="Path_23484" data-name="Path 23484" d="M105.518,479.215a5.409,5.409,0,0,1-1.056-.036c-.65-.051-1.545-.15-2.531-.278l-2.52-.34a5.576,5.576,0,0,1-1.041-.179,5.275,5.275,0,0,1,1.056.04c.65.051,1.545.153,2.531.278l2.52.336A6.072,6.072,0,0,1,105.518,479.215Z" transform="translate(-98.06 -345.459)" fill="#263238"/>
    <g id="Group_16714" data-name="Group 16714" transform="translate(0.037 132.916)" opacity="0.6">
      <path id="Path_23485" data-name="Path 23485" d="M97.62,479.231l7.214.658.117-.6-7.123-.906-.2.767" transform="translate(-97.62 -478.38)" fill="#fff"/>
    </g>
    <path id="Path_23486" data-name="Path 23486" d="M107.43,468.85a31.385,31.385,0,0,1,.687-3.145,29.925,29.925,0,0,1,.851-3.1,31.385,31.385,0,0,1-.687,3.145A31.045,31.045,0,0,1,107.43,468.85Z" transform="translate(-103.81 -335.448)" fill="#263238"/>
    <path id="Path_23487" data-name="Path 23487" d="M106.253,473.626a3.43,3.43,0,0,0,0-1.523,3,3,0,0,0-.789-1.428,2.951,2.951,0,0,0-1.794-.826,3.065,3.065,0,0,0-1.932.438,3.339,3.339,0,0,0-1.121,1.194,4.215,4.215,0,0,0-.457,1.461s0-.04,0-.11a2.191,2.191,0,0,1,0-.314,3.244,3.244,0,0,1,.343-1.1,3.353,3.353,0,0,1,1.165-1.279,3.178,3.178,0,0,1,2.031-.475,2.97,2.97,0,0,1,2.685,2.4,2.864,2.864,0,0,1,0,1.151,2.123,2.123,0,0,1-.088.3C106.275,473.593,106.257,473.629,106.253,473.626Z" transform="translate(-99.192 -339.924)" fill="#263238"/>
    <path id="Path_23488" data-name="Path 23488" d="M172.443,451.836l-.482,7.306s7.254,2.407,7.306,3.766l-14.176.1.285-11.389Z" transform="translate(-140.408 -328.479)" fill="#760018"/>
    <g id="Group_16715" data-name="Group 16715" transform="translate(26.779 129.893)" opacity="0.6">
      <path id="Path_23489" data-name="Path 23489" d="M171.258,470.113a.577.577,0,0,0-.42.647.555.555,0,0,0,.639.424.606.606,0,0,0,.438-.69.577.577,0,0,0-.712-.365" transform="translate(-170.831 -470.103)" fill="#fff"/>
    </g>
    <g id="Group_16716" data-name="Group 16716" transform="translate(24.674 133.366)" opacity="0.6">
      <path id="Path_23490" data-name="Path 23490" d="M165.07,480.761l.029-1.151,13.691.365a.982.982,0,0,1,.53.771Z" transform="translate(-165.07 -479.61)" fill="#fff"/>
    </g>
    <path id="Path_23491" data-name="Path 23491" d="M182.253,471.875c0,.069-.365.091-.7.3s-.537.5-.6.468.051-.424.479-.676S182.268,471.81,182.253,471.875Z" transform="translate(-150.467 -341.29)" fill="#263238"/>
    <path id="Path_23492" data-name="Path 23492" d="M186.873,473.757c0,.066-.289.175-.533.46s-.321.6-.387.588-.1-.4.208-.731S186.873,473.691,186.873,473.757Z" transform="translate(-153.621 -342.514)" fill="#263238"/>
    <path id="Path_23493" data-name="Path 23493" d="M190.587,476.693c-.066,0-.15-.336.04-.709s.515-.515.544-.457-.179.256-.329.563S190.657,476.69,190.587,476.693Z" transform="translate(-156.543 -343.646)" fill="#263238"/>
    <path id="Path_23494" data-name="Path 23494" d="M181.787,466.946c-.029.062-.343-.04-.731-.026s-.7.128-.731.066.267-.3.731-.307S181.823,466.895,181.787,466.946Z" transform="translate(-150.077 -338.037)" fill="#263238"/>
    <path id="Path_23495" data-name="Path 23495" d="M180.831,461.31a1.33,1.33,0,0,1-.709-.026,3.163,3.163,0,0,1-.731-.248,4.158,4.158,0,0,1-.4-.23.921.921,0,0,1-.208-.172.3.3,0,0,1-.022-.365.365.365,0,0,1,.31-.15.921.921,0,0,1,.263.044,2.6,2.6,0,0,1,.438.164,2.517,2.517,0,0,1,.639.449c.321.314.424.577.4.588s-.186-.2-.515-.46a2.879,2.879,0,0,0-.621-.365,2.257,2.257,0,0,0-.4-.135c-.15-.044-.278-.051-.318,0s0,.037,0,.08a.759.759,0,0,0,.157.128,3.272,3.272,0,0,0,.365.223,3.837,3.837,0,0,0,.679.285A4.7,4.7,0,0,1,180.831,461.31Z" transform="translate(-149.052 -333.873)" fill="#263238"/>
    <path id="Path_23496" data-name="Path 23496" d="M183.973,459.766a1.165,1.165,0,0,1-.168-.694,2.287,2.287,0,0,1,.314-1.2.588.588,0,0,1,.464-.343.325.325,0,0,1,.292.2,1.024,1.024,0,0,1,.066.263,1.728,1.728,0,0,1,0,.478,1.658,1.658,0,0,1-.325.731c-.289.365-.581.435-.584.409a2.964,2.964,0,0,0,.446-.508,1.666,1.666,0,0,0,.245-.661,1.534,1.534,0,0,0,0-.409c-.018-.15-.073-.274-.128-.259a.531.531,0,0,0-.256.223,2.149,2.149,0,0,0-.186.365,2.558,2.558,0,0,0-.161.7C183.943,459.492,184.009,459.755,183.973,459.766Z" transform="translate(-152.285 -332.23)" fill="#263238"/>
    <path id="Path_23497" data-name="Path 23497" d="M129.555,278.551l-21.6-.161L97.52,346.945l8.964,1.136,11.488-56.369,3.437,56.57.011.168,9.694-.168Z" transform="translate(-97.52 -218.525)" fill="#760018"/>
    <path id="Path_23500" data-name="Path 23500" d="M155.141,315.959a6.184,6.184,0,0,1-.979-.475c-.6-.31-1.417-.731-2.334-1.194s-1.75-.855-2.356-1.143a6.691,6.691,0,0,1-.972-.5,5.376,5.376,0,0,1,1.026.365c.625.256,1.461.636,2.393,1.1s1.731.91,2.309,1.253A5.793,5.793,0,0,1,155.141,315.959Z" transform="translate(-129.878 -240.271)" fill="#455a64"/>
    <path id="Path_23501" data-name="Path 23501" d="M159.5,319.935a2.162,2.162,0,0,1-.731-.278,6.276,6.276,0,0,1-2.677-2.637,2.166,2.166,0,0,1-.289-.731,11.053,11.053,0,0,0,1.563,2.119A11.356,11.356,0,0,0,159.5,319.935Z" transform="translate(-134.512 -242.581)" fill="#455a64"/>
    <path id="Path_23502" data-name="Path 23502" d="M169.3,380.5a1.2,1.2,0,0,1-.1.365,4.849,4.849,0,0,1-.449.91,5.479,5.479,0,0,1-5.822,2.455,4.91,4.91,0,0,1-.964-.311,1.242,1.242,0,0,1-.325-.179,13.565,13.565,0,0,0,1.315.365,5.611,5.611,0,0,0,5.68-2.393C169.106,381,169.263,380.485,169.3,380.5Z" transform="translate(-138.219 -283.336)" fill="#455a64"/>
    <path id="Path_23503" data-name="Path 23503" d="M168.253,378.893a2.582,2.582,0,0,1-.826.365,8,8,0,0,1-2.148.365,11.323,11.323,0,0,1-2.17-.128,3.615,3.615,0,0,1-.88-.2c0-.069,1.366.194,3.043.132a10.092,10.092,0,0,0,2.119-.292A8.246,8.246,0,0,1,168.253,378.893Z" transform="translate(-138.593 -282.314)" fill="#455a64"/>
    <path id="Path_23504" data-name="Path 23504" d="M123.792,380a3.533,3.533,0,0,1-.752.679,8.7,8.7,0,0,1-2.151,1.169,8.81,8.81,0,0,1-2.393.526,3.492,3.492,0,0,1-1.015-.026c0-.033.387-.037,1-.113a10.366,10.366,0,0,0,4.478-1.669A9.582,9.582,0,0,1,123.792,380Z" transform="translate(-110.189 -283.02)" fill="#455a64"/>
    <path id="Path_23505" data-name="Path 23505" d="M122.772,379.235a4.774,4.774,0,0,1-1.98.164,4.891,4.891,0,0,1-1.932-.475c0-.058.869.194,1.947.278S122.765,379.177,122.772,379.235Z" transform="translate(-111.065 -282.332)" fill="#455a64"/>
    <path id="Path_23506" data-name="Path 23506" d="M140.859,316.16a4.467,4.467,0,0,1-.972.438,13.547,13.547,0,0,1-2.491.647,13.366,13.366,0,0,1-2.557.164,4.477,4.477,0,0,1-1.059-.113,7.9,7.9,0,0,1,1.059-.026,17.552,17.552,0,0,0,5.019-.8,8.034,8.034,0,0,1,1-.307Z" transform="translate(-120.535 -242.499)" fill="#455a64"/>
    <path id="Path_23507" data-name="Path 23507" d="M151.381,310.1c.055,0,.1.168.106.365s-.04.365-.095.365-.1-.168-.1-.365S151.326,310.1,151.381,310.1Z" transform="translate(-131.649 -238.652)" fill="#455a64"/>
    <path id="Path_23508" data-name="Path 23508" d="M151.372,305.94c.055,0,.1.172.095.365s-.044.365-.1.365-.1-.172-.1-.365S151.317,305.94,151.372,305.94Z" transform="translate(-131.636 -236.012)" fill="#455a64"/>
    <path id="Path_23509" data-name="Path 23509" d="M151.444,301.79c.055,0,.095.172.091.365s-.055.365-.11.365-.095-.172-.088-.365S151.393,301.786,151.444,301.79Z" transform="translate(-131.679 -233.378)" fill="#455a64"/>
    <path id="Path_23510" data-name="Path 23510" d="M151.6,297.63c.055,0,.091.175.08.384s-.058.365-.113.365-.091-.175-.084-.365S151.54,297.626,151.6,297.63Z" transform="translate(-131.768 -230.737)" fill="#455a64"/>
    <path id="Path_23511" data-name="Path 23511" d="M151.828,293.48c.055,0,.088.175.073.387s-.069.365-.124.365-.088-.179-.073-.387S151.773,293.476,151.828,293.48Z" transform="translate(-131.91 -228.103)" fill="#455a64"/>
    <path id="Path_23512" data-name="Path 23512" d="M152.138,289.34c.055,0,.084.175.069.384s-.077.365-.132.365-.084-.179-.066-.387S152.087,289.332,152.138,289.34Z" transform="translate(-132.103 -225.475)" fill="#455a64"/>
    <path id="Path_23513" data-name="Path 23513" d="M152.485,285.94c.055,0,.088.121.073.252s-.066.237-.121.234-.088-.121-.073-.252S152.43,285.936,152.485,285.94Z" transform="translate(-132.329 -223.317)" fill="#455a64"/>
    <path id="Path_23514" data-name="Path 23514" d="M118.927,465.057c.055,0,.066.186.022.395s-.117.365-.172.365-.062-.186-.022-.391S118.876,465.035,118.927,465.057Z" transform="translate(-110.983 -337.006)" fill="#455a64"/>
    <path id="Path_23515" data-name="Path 23515" d="M119.747,461c.051,0,.062.186.022.391s-.117.365-.172.365-.062-.186-.022-.395S119.693,461,119.747,461Z" transform="translate(-111.503 -334.432)" fill="#455a64"/>
    <path id="Path_23516" data-name="Path 23516" d="M120.562,456.909c.055,0,.066.186.022.391s-.117.365-.168.365-.066-.186-.026-.391S120.51,456.9,120.562,456.909Z" transform="translate(-112.021 -331.835)" fill="#455a64"/>
    <path id="Path_23517" data-name="Path 23517" d="M121.377,452.83c.055,0,.062.186.022.394s-.117.365-.172.365-.062-.186-.022-.391S121.323,452.822,121.377,452.83Z" transform="translate(-112.538 -329.246)" fill="#455a64"/>
    <path id="Path_23518" data-name="Path 23518" d="M122.193,448.759c.055,0,.066.186.026.391s-.121.365-.172.365-.066-.186-.022-.395S122.142,448.748,122.193,448.759Z" transform="translate(-113.057 -326.662)" fill="#455a64"/>
    <path id="Path_23519" data-name="Path 23519" d="M123.007,444.679c.055,0,.062.186.022.391s-.117.365-.172.365-.062-.186-.022-.391S122.953,444.668,123.007,444.679Z" transform="translate(-113.572 -324.073)" fill="#455a64"/>
    <path id="Path_23520" data-name="Path 23520" d="M123.827,440.609c.051,0,.062.183.022.391s-.121.365-.172.365-.066-.186-.022-.391S123.764,440.6,123.827,440.609Z" transform="translate(-114.092 -321.489)" fill="#455a64"/>
    <path id="Path_23521" data-name="Path 23521" d="M124.657,436.529c.055,0,.062.186.022.391s-.117.365-.172.365-.062-.186-.022-.394S124.6,436.518,124.657,436.529Z" transform="translate(-114.62 -318.9)" fill="#455a64"/>
    <path id="Path_23522" data-name="Path 23522" d="M125.455,432.449c.051,0,.062.186.022.391s-.117.365-.172.365-.066-.186-.022-.391S125.4,432.438,125.455,432.449Z" transform="translate(-115.125 -316.31)" fill="#455a64"/>
    <path id="Path_23523" data-name="Path 23523" d="M126.267,428.379c.055,0,.066.183.022.391s-.117.365-.172.365-.062-.186-.022-.391S126.216,428.368,126.267,428.379Z" transform="translate(-115.642 -313.727)" fill="#455a64"/>
    <path id="Path_23524" data-name="Path 23524" d="M127.087,424.3c.051,0,.062.186.022.391s-.117.365-.172.365-.062-.186-.022-.395S127.033,424.288,127.087,424.3Z" transform="translate(-116.162 -311.137)" fill="#455a64"/>
    <path id="Path_23525" data-name="Path 23525" d="M127.9,420.219c.055,0,.066.186.022.391s-.117.365-.168.365-.066-.186-.026-.391S127.85,420.208,127.9,420.219Z" transform="translate(-116.68 -308.547)" fill="#455a64"/>
    <path id="Path_23526" data-name="Path 23526" d="M128.717,416.149c.051,0,.062.186.022.391s-.117.365-.172.365-.062-.186-.022-.391S128.663,416.138,128.717,416.149Z" transform="translate(-117.197 -305.964)" fill="#455a64"/>
    <path id="Path_23527" data-name="Path 23527" d="M129.532,412.066c.055,0,.066.186.026.391s-.121.365-.172.365-.066-.186-.026-.391S129.48,412.04,129.532,412.066Z" transform="translate(-117.715 -303.371)" fill="#455a64"/>
    <path id="Path_23528" data-name="Path 23528" d="M130.347,408c.055,0,.062.186.022.394s-.117.365-.172.365-.062-.186-.022-.391S130.293,408,130.347,408Z" transform="translate(-118.231 -300.792)" fill="#455a64"/>
    <path id="Path_23529" data-name="Path 23529" d="M131.163,403.919c.055,0,.066.186.026.391s-.121.365-.172.365-.066-.183-.022-.391S131.112,403.908,131.163,403.919Z" transform="translate(-118.751 -298.201)" fill="#455a64"/>
    <path id="Path_23530" data-name="Path 23530" d="M131.977,399.839c.055,0,.062.186.022.391s-.117.365-.172.365-.062-.186-.022-.391S131.923,399.828,131.977,399.839Z" transform="translate(-119.266 -295.612)" fill="#455a64"/>
    <path id="Path_23531" data-name="Path 23531" d="M132.8,395.759c.051,0,.062.186.022.395s-.121.365-.172.365-.066-.186-.022-.391S132.745,395.748,132.8,395.759Z" transform="translate(-119.785 -293.022)" fill="#455a64"/>
    <path id="Path_23532" data-name="Path 23532" d="M133.657,391.689c.055,0,.066.186.022.391s-.117.365-.172.365-.062-.186-.022-.395S133.584,391.678,133.657,391.689Z" transform="translate(-120.332 -290.439)" fill="#455a64"/>
    <path id="Path_23533" data-name="Path 23533" d="M134.425,387.609c.051,0,.062.186.022.391s-.117.365-.172.365-.066-.186-.022-.391S134.37,387.6,134.425,387.609Z" transform="translate(-120.818 -287.849)" fill="#455a64"/>
    <path id="Path_23534" data-name="Path 23534" d="M135.237,383.529c.055,0,.066.186.022.394s-.117.365-.172.365-.062-.186-.022-.391S135.186,383.518,135.237,383.529Z" transform="translate(-121.335 -285.259)" fill="#455a64"/>
    <path id="Path_23535" data-name="Path 23535" d="M136.057,379.459c.051,0,.062.186.022.391s-.117.365-.172.365-.062-.186-.022-.394S136,379.448,136.057,379.459Z" transform="translate(-121.855 -282.676)" fill="#455a64"/>
    <path id="Path_23536" data-name="Path 23536" d="M136.872,375.379c.055,0,.066.186.022.391s-.117.365-.168.365-.066-.186-.026-.391S136.82,375.368,136.872,375.379Z" transform="translate(-122.374 -280.086)" fill="#455a64"/>
    <path id="Path_23537" data-name="Path 23537" d="M137.657,371.3c.055,0,.062.186.022.395s-.117.365-.172.365-.062-.186-.022-.391S137.614,371.288,137.657,371.3Z" transform="translate(-122.871 -277.497)" fill="#455a64"/>
    <path id="Path_23538" data-name="Path 23538" d="M138.5,367.229c.055,0,.066.186.026.391s-.121.365-.172.365-.066-.186-.026-.395S138.45,367.218,138.5,367.229Z" transform="translate(-123.408 -274.913)" fill="#455a64"/>
    <path id="Path_23539" data-name="Path 23539" d="M139.317,363.149c.055,0,.062.186.022.391s-.117.365-.172.365-.062-.186-.022-.391S139.263,363.138,139.317,363.149Z" transform="translate(-123.925 -272.324)" fill="#455a64"/>
    <path id="Path_23540" data-name="Path 23540" d="M140.137,359.07c.051,0,.062.186.022.395s-.121.365-.172.365-.066-.186-.022-.391S140.082,359.062,140.137,359.07Z" transform="translate(-124.444 -269.734)" fill="#455a64"/>
    <path id="Path_23541" data-name="Path 23541" d="M140.947,355c.055,0,.062.186.022.391s-.117.365-.172.365-.062-.186-.022-.395S140.893,355,140.947,355Z" transform="translate(-124.959 -267.152)" fill="#455a64"/>
    <path id="Path_23542" data-name="Path 23542" d="M141.767,350.919c.051,0,.062.186.022.391s-.121.365-.172.365-.066-.186-.022-.391S141.726,350.908,141.767,350.919Z" transform="translate(-125.479 -264.561)" fill="#455a64"/>
    <path id="Path_23543" data-name="Path 23543" d="M142.577,346.849c.055,0,.066.183.022.391s-.117.365-.172.365-.062-.186-.022-.391S142.526,346.838,142.577,346.849Z" transform="translate(-125.994 -261.978)" fill="#455a64"/>
    <path id="Path_23544" data-name="Path 23544" d="M143.4,342.769c.051,0,.062.186.022.391s-.117.365-.172.365-.062-.186-.022-.394S143.343,342.758,143.4,342.769Z" transform="translate(-126.514 -259.388)" fill="#455a64"/>
    <path id="Path_23545" data-name="Path 23545" d="M144.207,338.689c.055,0,.066.186.022.391s-.117.365-.172.365-.062-.186-.022-.391S144.156,338.678,144.207,338.689Z" transform="translate(-127.028 -256.798)" fill="#455a64"/>
    <path id="Path_23546" data-name="Path 23546" d="M145.027,334.619c.051,0,.062.186.022.391s-.117.365-.172.365-.062-.186-.022-.391S144.973,334.608,145.027,334.619Z" transform="translate(-127.549 -254.215)" fill="#455a64"/>
    <path id="Path_23547" data-name="Path 23547" d="M145.842,330.539c.055,0,.066.186.026.391s-.121.365-.172.365-.066-.186-.026-.391S145.776,330.528,145.842,330.539Z" transform="translate(-128.067 -251.625)" fill="#455a64"/>
    <path id="Path_23548" data-name="Path 23548" d="M146.657,326.459c.055,0,.062.186.022.391s-.117.365-.172.365-.062-.186-.022-.391S146.6,326.448,146.657,326.459Z" transform="translate(-128.584 -249.036)" fill="#455a64"/>
    <path id="Path_23549" data-name="Path 23549" d="M147.473,322.389c.055,0,.066.186.026.391s-.121.365-.172.365-.066-.183-.022-.391S147.422,322.378,147.473,322.389Z" transform="translate(-129.103 -246.452)" fill="#455a64"/>
    <path id="Path_23550" data-name="Path 23550" d="M148.287,318.309c.055,0,.062.186.022.391s-.117.365-.172.365-.062-.186-.022-.391S148.233,318.3,148.287,318.309Z" transform="translate(-129.618 -243.863)" fill="#455a64"/>
    <path id="Path_23551" data-name="Path 23551" d="M230.14,179.273s2.528-3.788,2.6-3.821h0s2.279-3.843,3.039-3.843.486.778-.3,2.155a5.479,5.479,0,0,0-.756,1.962l1.874,1.129s1.253-.482,1.3.683a7.933,7.933,0,0,1-.216,1.585c-.077.416-.263.858-.657.7a.486.486,0,0,1-.332-.468c-.026-.69.1-.946,0-.946s-1.348,3.62-1.348,3.62Z" transform="translate(-181.697 -150.749)" fill="#e6bda1"/>
    <path id="Path_23552" data-name="Path 23552" d="M244.11,183.613a3.591,3.591,0,0,1,.6-.365,1.231,1.231,0,0,1,.683-.106.552.552,0,0,1,.453.778,1.864,1.864,0,0,1-.31.515" transform="translate(-190.564 -158.062)" fill="#e6bda1"/>
    <path id="Path_23553" data-name="Path 23553" d="M241.77,181.581a3.608,3.608,0,0,1,.57-.34,1.169,1.169,0,0,1,.647-.1.566.566,0,0,1,.365.19.577.577,0,0,1,.069.541,4.956,4.956,0,0,1-.584.752" transform="translate(-189.079 -156.793)" fill="#e6bda1"/>
    <path id="Path_23554" data-name="Path 23554" d="M226.213,186.74l-3.653,7.81,4.018,4.117,2.1-5.822s1.125.223,1.585-.522a19.531,19.531,0,0,0,1.184-3.236Z" transform="translate(-176.886 -160.353)" fill="#e6bda1"/>
    <path id="Path_23555" data-name="Path 23555" d="M239.7,183.074a1.983,1.983,0,0,1,.431-1.1,1.935,1.935,0,0,1,.628-.555c.186-.1.314-.135.325-.113a4.522,4.522,0,0,0-.793.785C239.937,182.588,239.762,183.1,239.7,183.074Z" transform="translate(-187.765 -156.902)" fill="#d0a68a"/>
    <path id="Path_23556" data-name="Path 23556" d="M247.318,185.765c0,.026-.142-.044-.365-.08a1.224,1.224,0,0,0-.8.124,1.943,1.943,0,0,0-.588.6c-.128.183-.216.3-.241.281s.018-.146.124-.365a1.611,1.611,0,0,1,.617-.69,1.184,1.184,0,0,1,.928-.084C247.231,185.63,247.333,185.747,247.318,185.765Z" transform="translate(-191.333 -159.56)" fill="#d0a68a"/>
    <path id="Path_23557" data-name="Path 23557" d="M244.423,183.179a5.237,5.237,0,0,0-.858.5c-.409.365-.61.785-.665.76a1.388,1.388,0,0,1,.533-.906,1.545,1.545,0,0,1,.672-.365C244.3,183.142,244.42,183.157,244.423,183.179Z" transform="translate(-189.796 -158.077)" fill="#d0a68a"/>
    <path id="Path_23558" data-name="Path 23558" d="M248.565,187.839c.051-.018.146.285-.048.584s-.5.365-.508.3.2-.161.343-.4S248.507,187.846,248.565,187.839Z" transform="translate(-193.04 -161.05)" fill="#d0a68a"/>
    <path id="Path_23559" data-name="Path 23559" d="M230.148,186.811s-.128-2.33.435-2.86,2.192.022,2.192.022" transform="translate(-181.695 -158.436)" fill="#e6bda1"/>
    <path id="Path_23560" data-name="Path 23560" d="M234.82,181.37a6.305,6.305,0,0,1-.836,1.326,6.4,6.4,0,0,1-.994,1.213,12.32,12.32,0,0,1,1.826-2.539Z" transform="translate(-183.506 -156.944)" fill="#d0a68a"/>
    <path id="Path_23561" data-name="Path 23561" d="M149.335,129.1l-.055,18.187,7.8.365.226-4.423s2.772.552,3.485-2.024c.46-1.644.343-14.352.343-14.352Z" transform="translate(-130.373 -122.339)" fill="#e6bda1"/>
    <path id="Path_23562" data-name="Path 23562" d="M157.626,123.721c-1.227.365-1.494,2.363-1.494,2.363L154.2,130.34c-.983-.767-2.3-.731-2.557,1-.183,1.246,1.37,1.5,1.37,1.5a22.517,22.517,0,0,1-2.831,4.241,4.179,4.179,0,0,1-3.762,1.764h-1.7s-.833-2.7-2.374-9.461c-1.713-7.5,7.156-6.535,8.8-8.449C153.834,117.822,161.5,122.614,157.626,123.721Z" transform="translate(-125.836 -117.928)" fill="#263238"/>
    <path id="Path_23563" data-name="Path 23563" d="M141.019,126.664c-1.439-.964-1.567-3.653-.731-5.286a5.2,5.2,0,0,1,4.427-2.754,2.1,2.1,0,0,0,.731-.08,2,2,0,0,0,.774-.731c1.286-1.669,2.557-3.309,4.942-3.309a2.725,2.725,0,0,1,1.5.365,2.349,2.349,0,0,1,.906,1.2,4.979,4.979,0,0,1,1.4-.5,1.731,1.731,0,0,1,1.406.34,1.059,1.059,0,0,1,.219,1.348,1.7,1.7,0,0,1,1.7,1.414c.128.8-1.015,1.362-1.136,1.425a1.582,1.582,0,0,1-.869,2.1,1.752,1.752,0,0,1-1.461-.113" transform="translate(-124.337 -114.501)" fill="#263238"/>
    <path id="Path_23564" data-name="Path 23564" d="M157.742,152.59a2.7,2.7,0,0,1-.044,1.381,2.754,2.754,0,0,1-.552,1.268c-.055-.026.2-.584.365-1.311S157.684,152.59,157.742,152.59Z" transform="translate(-135.362 -138.677)" fill="#455a64"/>
    <path id="Path_23565" data-name="Path 23565" d="M160.532,150.15a3.229,3.229,0,0,1-.073,1.33,3.438,3.438,0,0,1-.409,1.268,6.905,6.905,0,0,1,.216-1.3A7.371,7.371,0,0,1,160.532,150.15Z" transform="translate(-137.209 -137.128)" fill="#455a64"/>
    <path id="Path_23566" data-name="Path 23566" d="M165.312,141.93c0,.026-.2.186-.482.515a4.92,4.92,0,0,0-.84,1.461,11.9,11.9,0,0,0-.468,1.633,2.7,2.7,0,0,1-.194.69,2.513,2.513,0,0,1,.055-.731,8,8,0,0,1,.42-1.68,4.255,4.255,0,0,1,.924-1.461A1.461,1.461,0,0,1,165.312,141.93Z" transform="translate(-139.286 -131.911)" fill="#455a64"/>
    <path id="Path_23567" data-name="Path 23567" d="M170.357,136.33a1.1,1.1,0,0,1,.153.493,3.287,3.287,0,0,1-.6,2.371,1.526,1.526,0,0,1-.365.365,4.658,4.658,0,0,0,.807-3.229Z" transform="translate(-143.239 -128.356)" fill="#455a64"/>
    <path id="Path_23568" data-name="Path 23568" d="M144.577,147.781c-.029.048-.267-.037-.537-.186s-.464-.307-.435-.365.263.033.533.183S144.6,147.733,144.577,147.781Z" transform="translate(-126.769 -135.263)" fill="#455a64"/>
    <path id="Path_23569" data-name="Path 23569" d="M155.157,143.45a1.1,1.1,0,0,1-.223.793c-.241.4-.566.606-.6.566s.208-.3.427-.668S155.1,143.439,155.157,143.45Z" transform="translate(-133.58 -132.875)" fill="#455a64"/>
    <path id="Path_23570" data-name="Path 23570" d="M157.888,141.75a1.567,1.567,0,0,1-.347.946c-.314.475-.7.731-.731.687a8.483,8.483,0,0,1,.573-.8A7.865,7.865,0,0,1,157.888,141.75Z" transform="translate(-135.153 -131.796)" fill="#455a64"/>
    <path id="Path_23571" data-name="Path 23571" d="M157.463,119.6a4.421,4.421,0,0,0-.431-.274,2.922,2.922,0,0,0-1.308-.336,3.5,3.5,0,0,0-1.918.515,4.749,4.749,0,0,0-1.633,1.826,8.344,8.344,0,0,0-.665,1.706l-.029.113-.106-.055a3.89,3.89,0,0,0-1.739-.446,4.117,4.117,0,0,0-1.417.216,6.028,6.028,0,0,0-1.158.577,1.213,1.213,0,0,1,.259-.23,3.653,3.653,0,0,1,.858-.46,4.058,4.058,0,0,1,1.461-.263,4,4,0,0,1,1.826.438l-.139.062a8.208,8.208,0,0,1,.672-1.753,4.858,4.858,0,0,1,1.717-1.881,3.565,3.565,0,0,1,2.016-.5,2.816,2.816,0,0,1,1.341.413,1.965,1.965,0,0,1,.3.237C157.437,119.556,157.467,119.589,157.463,119.6Z" transform="translate(-128.964 -117.259)" fill="#455a64"/>
    <path id="Path_23572" data-name="Path 23572" d="M170.534,123.164a.478.478,0,0,1,.449.2.8.8,0,0,1,.179.57.888.888,0,0,1-.453.647,1.289,1.289,0,0,1-.95.131,2.7,2.7,0,0,1-.979-.475,9.576,9.576,0,0,0-.957-.654,3.879,3.879,0,0,0-1.151-.405,4.88,4.88,0,0,0-2.352.161,6.436,6.436,0,0,0-1.739.884,16.929,16.929,0,0,0-1.392,1.176,1.98,1.98,0,0,1,.31-.387,7.608,7.608,0,0,1,1-.9,6.187,6.187,0,0,1,1.764-.942,4.9,4.9,0,0,1,2.447-.183,4.07,4.07,0,0,1,1.209.427,9,9,0,0,1,.968.679,2.645,2.645,0,0,0,.91.46,1.14,1.14,0,0,0,.844-.091.774.774,0,0,0,.413-.541.7.7,0,0,0-.132-.508A.679.679,0,0,0,170.534,123.164Z" transform="translate(-137.933 -119.836)" fill="#455a64"/>
    <path id="Path_23573" data-name="Path 23573" d="M110.306,188l-6.969,11.689c-.782,1.366-1.5,2.82-2.192,4.329a4.844,4.844,0,0,0,.731,4.533l-.2-.285a4.076,4.076,0,0,0,3.167,1.512h.183a4.069,4.069,0,0,0,3.729-2.447l2.239-3.4Z" transform="translate(-99.651 -161.152)" fill="#fcf7fd"/>
    <path id="Path_23574" data-name="Path 23574" d="M145.523,179.336a12.783,12.783,0,0,0-5.735-1.231,65.259,65.259,0,0,0-8.186-.128s-7.2.533-7.7,5.479l.983,23.195-1.651,9.826,23.1.7-.168-11.6c.285-6.031-.321-14.575-.321-14.575.365-3.244,2.13-4.7,2.382-6.812A5.187,5.187,0,0,0,145.523,179.336Z" transform="translate(-113.839 -154.724)" fill="#fcf7fd"/>
    <path id="Path_23575" data-name="Path 23575" d="M147.417,257.548a1.851,1.851,0,0,1-.34.321,7.484,7.484,0,0,1-1.052.731,8.4,8.4,0,0,1-8.113.142,7.565,7.565,0,0,1-1.078-.683,1.993,1.993,0,0,1-.365-.31c.022-.033.533.4,1.49.869a8.7,8.7,0,0,0,7.981-.142C146.891,257.968,147.392,257.518,147.417,257.548Z" transform="translate(-122.243 -205.295)" fill="#263238"/>
    <path id="Path_23576" data-name="Path 23576" d="M124.989,193.86a1.049,1.049,0,0,1,.026.226c0,.172.026.384.04.65.026.588.066,1.4.11,2.382.088,2.038.2,4.811.329,7.872s.267,5.844.365,7.868c.051.986.091,1.794.121,2.382,0,.267.022.479.029.65a.99.99,0,0,1,0,.226,1.019,1.019,0,0,1-.037-.223c-.018-.172-.04-.384-.066-.647-.055-.563-.113-1.377-.183-2.382-.139-2.013-.285-4.792-.416-7.868s-.219-5.844-.27-7.872c0-.99-.037-1.8-.047-2.389v-.647A1.034,1.034,0,0,1,124.989,193.86Z" transform="translate(-114.951 -164.872)" fill="#263238"/>
    <path id="Path_23577" data-name="Path 23577" d="M108.093,197.229a.654.654,0,0,1-.08.179l-.259.5c-.234.431-.581,1.048-1.026,1.8-.877,1.516-2.192,3.547-3.525,5.844-.668,1.154-1.231,2.294-1.72,3.335a6.148,6.148,0,0,0-.672,2.922,4.727,4.727,0,0,0,.537,1.958c.226.427.416.625.4.639a.944.944,0,0,1-.139-.139,3.548,3.548,0,0,1-.329-.464,4.54,4.54,0,0,1-.606-1.987,6.159,6.159,0,0,1,.643-3.01c.486-1.056,1.045-2.192,1.717-3.361,1.337-2.316,2.67-4.329,3.576-5.844.446-.731.811-1.322,1.078-1.768.121-.19.216-.365.3-.479S108.093,197.226,108.093,197.229Z" transform="translate(-99.516 -167.01)" fill="#263238"/>
    <path id="Path_23578" data-name="Path 23578" d="M199.293,192.641l-5.344-3.5-3.375,5.844s-4.676-6.5-6.8-10.3c-1.958-3.507-4.486-4.449-5.706-4.7a.541.541,0,0,0-.647.592l1.826,12.639a108.284,108.284,0,0,0,6.246,9.063c3.6,4.7,8.9,1.691,10.352-1.6C197.021,198.065,198.818,194.1,199.293,192.641Z" transform="translate(-148.235 -156.055)" fill="#fcf7fd"/>
    <path id="Path_23579" data-name="Path 23579" d="M215.059,226.145a3.588,3.588,0,0,1-.1-.833,15.888,15.888,0,0,0-.259-1.991,6.574,6.574,0,0,0-.683-1.867c-.248-.442-.464-.683-.438-.7a1.987,1.987,0,0,1,.559.632,5.629,5.629,0,0,1,.756,1.9,10.532,10.532,0,0,1,.2,2.024A3.367,3.367,0,0,1,215.059,226.145Z" transform="translate(-171.183 -181.94)" fill="#263238"/>
    <path id="Path_23580" data-name="Path 23580" d="M216.459,223.1c-.033,0-.058-.27-.19-.683a3.759,3.759,0,0,0-.855-1.432,2.228,2.228,0,0,0-1.421-.778,2.093,2.093,0,0,0-.676.117.871.871,0,0,1,.679-.256,2.192,2.192,0,0,1,1.56.778,3.383,3.383,0,0,1,.847,1.531A1.545,1.545,0,0,1,216.459,223.1Z" transform="translate(-171.019 -181.508)" fill="#263238"/>
    <path id="Path_23581" data-name="Path 23581" d="M174.993,184.269a.822.822,0,0,1-.132.146l-.164.168c-.058.077-.128.157-.2.248a5.231,5.231,0,0,0-.924,1.8,6.988,6.988,0,0,0-.2,2.981,6.6,6.6,0,0,0,.457,1.709,18.909,18.909,0,0,0,.866,1.717c1.308,2.3,2.656,4.285,3.627,5.72.482.694.88,1.264,1.176,1.684a7.519,7.519,0,0,1,.424.625,1.4,1.4,0,0,1-.135-.142c-.084-.1-.2-.241-.365-.435-.3-.365-.731-.946-1.227-1.651q-1.968-2.76-3.653-5.706a17.934,17.934,0,0,1-.873-1.735,6.787,6.787,0,0,1-.479-1.746,7.01,7.01,0,0,1,.252-3.05,5,5,0,0,1,1-1.8l.223-.237.179-.157C174.935,184.3,174.986,184.261,174.993,184.269Z" transform="translate(-145.504 -158.784)" fill="#263238"/>
    <path id="Path_23582" data-name="Path 23582" d="M148.517,276.19a.591.591,0,0,1-.161.069l-.482.168c-.208.073-.464.153-.767.234s-.647.19-1.03.27a25.97,25.97,0,0,1-2.729.5,26.793,26.793,0,0,1-6.783.022,27.287,27.287,0,0,1-2.729-.486c-.387-.08-.731-.183-1.034-.267s-.559-.157-.771-.23l-.479-.164c-.11-.037-.168-.062-.164-.069a.962.962,0,0,1,.175.033l.489.128c.212.058.471.128.778.2s.647.164,1.034.234c.767.168,1.691.318,2.721.442a31.1,31.1,0,0,0,3.371.186,31.782,31.782,0,0,0,3.368-.2c1.03-.128,1.951-.285,2.718-.457.387-.073.731-.168,1.034-.241s.563-.142.774-.2l.489-.131A.537.537,0,0,1,148.517,276.19Z" transform="translate(-119.018 -217.129)" fill="#263238"/>
    <g id="Group_16717" data-name="Group 16717" transform="translate(9.607 31.081)" opacity="0.3">
      <path id="Path_23583" data-name="Path 23583" d="M123.82,213.953l1.041-1.618-.544-12.744Z" transform="translate(-123.82 -199.59)"/>
    </g>
    <g id="Group_16718" data-name="Group 16718" transform="translate(27.618 30.219)" opacity="0.3">
      <path id="Path_23584" data-name="Path 23584" d="M173.13,197.23s.033,4.643,1.1,6.484a58.18,58.18,0,0,0,3.605,5.578c0-.237-.142-3.287-.142-3.287S173.152,199.827,173.13,197.23Z" transform="translate(-173.13 -197.23)"/>
    </g>
    <path id="Path_23585" data-name="Path 23585" d="M110.2,231.126a.778.778,0,0,1-.332.1,2.005,2.005,0,0,1-.942-.124,3.116,3.116,0,0,1-1.165-.782,6.747,6.747,0,0,1-.975-1.406,14.015,14.015,0,0,0-.862-1.461,4.076,4.076,0,0,0-.953-.957,3.014,3.014,0,0,0-1.154-.457.913.913,0,0,1,.365,0,2.327,2.327,0,0,1,.884.34,4.084,4.084,0,0,1,1.019.964,12.723,12.723,0,0,1,.884,1.461,7.177,7.177,0,0,0,.935,1.381,3.2,3.2,0,0,0,1.1.778A2.367,2.367,0,0,0,110.2,231.126Z" transform="translate(-101.512 -185.284)" fill="#fff"/>
    <path id="Path_23586" data-name="Path 23586" d="M118.381,212.866c-.033,0-.113-.278-.336-.687a4.3,4.3,0,0,0-2.813-2.126c-.457-.1-.752-.1-.752-.135a1.826,1.826,0,0,1,.774,0,3.949,3.949,0,0,1,2.922,2.192A1.826,1.826,0,0,1,118.381,212.866Z" transform="translate(-108.285 -175.038)" fill="#fff"/>
    <path id="Path_23587" data-name="Path 23587" d="M143.585,198.993s-.252-.047-.7-.084a6.057,6.057,0,0,0-1.907.172,11.532,11.532,0,0,0-2.652,1.059c-.957.5-1.969,1.136-3.116,1.662a9.5,9.5,0,0,1-3.43.873,9.665,9.665,0,0,1-2.882-.267,8.517,8.517,0,0,1-1.826-.672,5.147,5.147,0,0,1-.464-.256.578.578,0,0,1-.153-.106c0-.007.234.11.65.292a9.6,9.6,0,0,0,1.826.61,9.892,9.892,0,0,0,2.838.223,9.64,9.64,0,0,0,3.364-.869c1.129-.519,2.144-1.147,3.112-1.644a10.8,10.8,0,0,1,2.7-1.034,5.615,5.615,0,0,1,1.947-.117,3.74,3.74,0,0,1,.522.1A.624.624,0,0,1,143.585,198.993Z" transform="translate(-115.882 -168.007)" fill="#fff"/>
    <path id="Path_23588" data-name="Path 23588" d="M148.7,229.76a.877.877,0,0,1-.208.069,5.454,5.454,0,0,1-.621.153,9.913,9.913,0,0,1-2.334.186,17.839,17.839,0,0,1-3.441-.482c-1.278-.292-2.652-.712-4.095-1.136a28.012,28.012,0,0,0-4.128-.917,12.752,12.752,0,0,0-3.434-.026,8.3,8.3,0,0,0-2.232.614c-.5.219-.767.365-.774.365a.854.854,0,0,1,.183-.124c.131-.066.307-.194.563-.3a7.988,7.988,0,0,1,2.243-.679,12.606,12.606,0,0,1,3.474,0,26.665,26.665,0,0,1,4.157.91c1.461.424,2.816.847,4.084,1.147a18.117,18.117,0,0,0,3.4.519,10.9,10.9,0,0,0,2.32-.124C148.4,229.819,148.693,229.742,148.7,229.76Z" transform="translate(-116.505 -186.136)" fill="#fff"/>
    <path id="Path_23589" data-name="Path 23589" d="M149,251.941a9.986,9.986,0,0,0-3.039-.818,15.012,15.012,0,0,0-3.419.117c-1.282.175-2.677.468-4.15.731s-2.882.519-4.182.632a16.1,16.1,0,0,1-3.456-.022,9.958,9.958,0,0,1-2.268-.544c-.259-.088-.449-.194-.581-.248a.925.925,0,0,1-.2-.1c0-.018.285.106.8.281a11.028,11.028,0,0,0,2.257.479,16.566,16.566,0,0,0,3.426,0c1.286-.121,2.692-.365,4.164-.643s2.867-.566,4.16-.731a14.33,14.33,0,0,1,3.456-.08,8.4,8.4,0,0,1,2.261.57,5.171,5.171,0,0,1,.573.274,1.019,1.019,0,0,1,.19.106Z" transform="translate(-116.682 -201.091)" fill="#fff"/>
    <path id="Path_23590" data-name="Path 23590" d="M136.572,270.921a1.9,1.9,0,0,1-.365-.23c-.226-.161-.555-.387-.968-.658a29.661,29.661,0,0,0-3.339-1.91,30,30,0,0,0-3.569-1.461c-.468-.157-.847-.274-1.1-.365a1.688,1.688,0,0,1-.405-.146,2.064,2.064,0,0,1,.424.073c.274.058.661.161,1.136.3a23.86,23.86,0,0,1,6.94,3.379c.405.285.731.53.935.709A1.826,1.826,0,0,1,136.572,270.921Z" transform="translate(-116.124 -210.756)" fill="#fff"/>
    <path id="Path_23591" data-name="Path 23591" d="M174.594,278.572a2.378,2.378,0,0,1-.767.384,5.61,5.61,0,0,1-4.076-.124,2.486,2.486,0,0,1-.731-.431,8.4,8.4,0,0,1,.793.307,6.725,6.725,0,0,0,1.983.365,6.527,6.527,0,0,0,2-.259C174.284,278.681,174.579,278.542,174.594,278.572Z" transform="translate(-142.903 -218.532)" fill="#fff"/>
    <path id="Path_23592" data-name="Path 23592" d="M196.647,212.85a.814.814,0,0,1-.044.325,2.192,2.192,0,0,1-.427.785,3.678,3.678,0,0,1-1.026.833,11.846,11.846,0,0,1-1.461.658,6.267,6.267,0,0,0-1.388.731,2.845,2.845,0,0,0-.826.95,2.148,2.148,0,0,0-.234,1.132.621.621,0,0,1-.073-.318,1.826,1.826,0,0,1,.186-.877,2.849,2.849,0,0,1,.836-1.026,5.933,5.933,0,0,1,1.425-.763,14.527,14.527,0,0,0,1.461-.636,3.9,3.9,0,0,0,1.008-.767A2.871,2.871,0,0,0,196.647,212.85Z" transform="translate(-156.96 -176.925)" fill="#fff"/>
    <path id="Path_23593" data-name="Path 23593" d="M183.648,191.63a1.118,1.118,0,0,1-.062.332,2.444,2.444,0,0,1-.113.365,4.488,4.488,0,0,1-.186.489,7.308,7.308,0,0,1-.658,1.2,8.335,8.335,0,0,1-1.1,1.271,8.124,8.124,0,0,1-1.337,1.008,7.212,7.212,0,0,1-1.235.584,4.781,4.781,0,0,1-.5.157,2.63,2.63,0,0,1-.365.088,1.271,1.271,0,0,1-.336.044c0-.037.464-.128,1.173-.416a8.136,8.136,0,0,0,3.55-2.835,7.743,7.743,0,0,0,.679-1.151C183.495,192.083,183.612,191.619,183.648,191.63Z" transform="translate(-148.45 -163.456)" fill="#fff"/>
    <path id="Path_23594" data-name="Path 23594" d="M149.444,178.51a3.68,3.68,0,0,1-.53.237c-.343.146-.855.329-1.494.53s-1.41.4-2.279.577a23.377,23.377,0,0,1-5.735.42,22.8,22.8,0,0,1-2.341-.237c-.661-.106-1.191-.212-1.556-.307a3.17,3.17,0,0,1-.559-.157,3.567,3.567,0,0,1,.577.088c.365.069.9.157,1.556.241s1.461.161,2.33.2a27.259,27.259,0,0,0,2.86-.047,27.618,27.618,0,0,0,2.835-.365c.862-.168,1.636-.365,2.276-.537s1.154-.343,1.5-.468A3.546,3.546,0,0,1,149.444,178.51Z" transform="translate(-121.278 -155.129)" fill="#fff"/>
    <path id="Path_23595" data-name="Path 23595" d="M209.306,222a1.242,1.242,0,0,1,.132.365,5.348,5.348,0,0,1,.157,1.056,15.277,15.277,0,0,1-.365,3.5,9.335,9.335,0,0,1-.5,1.878,4.182,4.182,0,0,1-.847,1.348,2.805,2.805,0,0,1-.869.632,1,1,0,0,1-.365.117,3.751,3.751,0,0,0,1.143-.84,4.266,4.266,0,0,0,.785-1.322,10.107,10.107,0,0,0,.471-1.848,17.972,17.972,0,0,0,.413-3.452A12.581,12.581,0,0,0,209.306,222Z" transform="translate(-166.787 -182.733)" fill="#fff"/>
    <path id="Path_23596" data-name="Path 23596" d="M223.773,217.435c-.033,0-.2-.365-.584-.928a7.6,7.6,0,0,0-1.848-1.856,7.5,7.5,0,0,0-2.378-1.1c-.654-.168-1.1-.2-1.074-.23a.8.8,0,0,1,.3,0,4.748,4.748,0,0,1,.8.11,6.391,6.391,0,0,1,1.158.365,6.813,6.813,0,0,1,2.414,1.688,6.677,6.677,0,0,1,.731.961,4.582,4.582,0,0,1,.365.731A.923.923,0,0,1,223.773,217.435Z" transform="translate(-173.92 -177.218)" fill="#fff"/>
    <g id="Group_16719" data-name="Group 16719" transform="translate(12.331 57.899)" opacity="0.3">
      <path id="Path_23597" data-name="Path 23597" d="M147.325,274.467a.676.676,0,0,0,.256-.994,1.275,1.275,0,0,0-1.052-.365c-1.888.037-3.536,1.3-5.391,1.64a9.144,9.144,0,0,1-4.241-.449,40.1,40.1,0,0,0-4.124-1.227,1.987,1.987,0,0,0-.891-.022.778.778,0,0,0-.6.606c-.037.3.033.519.479.668a35.355,35.355,0,0,0,8.036,1.249,35.848,35.848,0,0,0,7.525-1.107Z" transform="translate(-131.277 -273.01)" fill="#ffe4ec"/>
    </g>
  </g>
  <g id="freepik--Floor--inject-2" transform="translate(0 161.209)">
    <path id="Path_23598" data-name="Path 23598" d="M193.084,482.215c0,.055-34.548.1-77.154.1s-77.161-.04-77.161-.1,34.54-.095,77.161-.095S193.084,482.164,193.084,482.215Z" transform="translate(-38.77 -482.12)" fill="#263238"/>
  </g>
</svg>
