<svg id="Group_15532" data-name="Group 15532" xmlns="http://www.w3.org/2000/svg" xmlns:xlink="http://www.w3.org/1999/xlink" width="113.91" height="72.476" viewBox="0 0 113.91 72.476">
  <defs>
    <clipPath id="clip-path">
      <rect id="Rectangle_6097" data-name="Rectangle 6097" width="113.91" height="72.476" fill="none"/>
    </clipPath>
  </defs>
  <g id="Group_15532-2" data-name="Group 15532" clip-path="url(#clip-path)">
    <path id="Path_23186" data-name="Path 23186" d="M9.5,178.654a.825.825,0,0,1-.728-1.213,40.133,40.133,0,0,1,9.7-11.956.826.826,0,1,1,1.062,1.266,38.464,38.464,0,0,0-9.3,11.465A.825.825,0,0,1,9.5,178.654Z" transform="translate(-6.604 -125.853)" fill="#760018"/>
    <path id="Path_23187" data-name="Path 23187" d="M.826,232.668a.814.814,0,0,1-.294-.054.826.826,0,0,1-.477-1.065h0l.307-.786a.826.826,0,1,1,1.532.617l-.3.756a.825.825,0,0,1-.771.533" transform="translate(0 -175.307)" fill="#760018"/>
    <path id="Path_23188" data-name="Path 23188" d="M82.285,188.661v1.119H13.133v-1.119a34.579,34.579,0,0,1,26.016-33.513,17.829,17.829,0,0,0,17.118,0,34.326,34.326,0,0,1,13.115,6.6,28.411,28.411,0,0,1,2.772,2.465,34.46,34.46,0,0,1,10.131,24.444" transform="translate(-9.999 -118.129)" fill="#ffe4ec"/>
    <path id="Path_23189" data-name="Path 23189" d="M79.651,187.995H10.5a.826.826,0,0,1-.826-.826V186.05a35.362,35.362,0,0,1,26.639-34.305.825.825,0,0,1,.6.076,17.076,17.076,0,0,0,16.326,0,.824.824,0,0,1,.6-.076,34.939,34.939,0,0,1,13.43,6.757,28.9,28.9,0,0,1,2.836,2.521,35.29,35.29,0,0,1,10.373,25.029v1.119a.826.826,0,0,1-.826.824m-68.326-1.651h67.5v-.294a33.647,33.647,0,0,0-9.889-23.862,27.333,27.333,0,0,0-2.692-2.392,33.315,33.315,0,0,0-12.505-6.372,18.73,18.73,0,0,1-17.334,0A33.712,33.712,0,0,0,11.312,186.05Z" transform="translate(-7.366 -115.519)" fill="#760018"/>
    <path id="Path_23190" data-name="Path 23190" d="M212.692,180.037a34.473,34.473,0,0,0-9.045-15.82,28.443,28.443,0,0,0-2.772-2.465,34.323,34.323,0,0,0-13.115-6.6,17.893,17.893,0,0,1-1.925.906,34.272,34.272,0,0,1,10.183,5.7,28.471,28.471,0,0,1,2.772,2.465,34.46,34.46,0,0,1,10.131,24.444v1.119h4.863v-1.119a34.442,34.442,0,0,0-1.093-8.624" transform="translate(-141.495 -118.129)" fill="#e3b7c1"/>
    <path id="Path_23191" data-name="Path 23191" d="M118.984,32.724A17.829,17.829,0,1,1,101.155,14.9a17.829,17.829,0,0,1,17.829,17.829" transform="translate(-63.443 -11.341)" fill="#fff"/>
    <path id="Path_23192" data-name="Path 23192" d="M98.5,48.743a18.442,18.442,0,0,1-8.956-2.29,18.655,18.655,0,1,1,17.912,0,18.442,18.442,0,0,1-8.956,2.29m0-35.659a17,17,0,1,0,17,17,17,17,0,0,0-17-17Z" transform="translate(-60.794 -8.703)" fill="#760018"/>
    <path id="Path_23193" data-name="Path 23193" d="M152.87,14.888c-.548,0-1.086.033-1.621.083a17.806,17.806,0,0,1,0,35.477c.536.048,1.071.1,1.621.1a17.829,17.829,0,1,0,.006-35.659h-.006Z" transform="translate(-115.161 -11.336)" fill="#dbd8dd"/>
    <path id="Path_23194" data-name="Path 23194" d="M79.651,187.995H10.5a.826.826,0,0,1-.826-.826V186.05a35.362,35.362,0,0,1,26.639-34.305.825.825,0,0,1,.6.076,17.076,17.076,0,0,0,16.326,0,.824.824,0,0,1,.6-.076,34.939,34.939,0,0,1,13.43,6.757,28.9,28.9,0,0,1,2.836,2.521,35.29,35.29,0,0,1,10.373,25.029v1.119a.826.826,0,0,1-.826.824m-68.326-1.651h67.5v-.294a33.647,33.647,0,0,0-9.889-23.862,27.333,27.333,0,0,0-2.692-2.392,33.315,33.315,0,0,0-12.505-6.372,18.73,18.73,0,0,1-17.334,0A33.712,33.712,0,0,0,11.312,186.05Z" transform="translate(-7.366 -115.519)" fill="#760018"/>
    <path id="Path_23195" data-name="Path 23195" d="M98.5,48.743a18.442,18.442,0,0,1-8.956-2.29,18.655,18.655,0,1,1,17.912,0,18.442,18.442,0,0,1-8.956,2.29m0-35.659a17,17,0,1,0,17,17,17,17,0,0,0-17-17Z" transform="translate(-60.794 -8.703)" fill="#760018"/>
    <path id="Path_23196" data-name="Path 23196" d="M302.572,163.8v.956H260.685a34.475,34.475,0,0,0-9.045-15.82,28.477,28.477,0,0,0-2.772-2.465A29.853,29.853,0,0,1,265.6,135.084a15.248,15.248,0,0,0,14.67,0,29.674,29.674,0,0,1,22.3,28.725Z" transform="translate(-189.488 -102.853)" fill="#ffe4ec"/>
    <path id="Path_23197" data-name="Path 23197" d="M299.937,162.934H258.049a.825.825,0,0,1-.8-.621,33.69,33.69,0,0,0-8.829-15.442,27.305,27.305,0,0,0-2.693-2.392.825.825,0,0,1-.165-1.139,30.715,30.715,0,0,1,17.194-11.711.826.826,0,0,1,.6.076,14.664,14.664,0,0,0,13.867,0,.825.825,0,0,1,.6-.078,30.5,30.5,0,0,1,22.932,29.526v.956A.825.825,0,0,1,299.937,162.934Zm-41.25-1.651h40.425v-.131a28.849,28.849,0,0,0-21.372-27.843,16.344,16.344,0,0,1-14.883,0,29.07,29.07,0,0,0-15.483,10.368c.715.588,1.446,1.256,2.217,2.027a35.363,35.363,0,0,1,9.1,15.579" transform="translate(-186.852 -100.201)" fill="#760018"/>
    <path id="Path_23198" data-name="Path 23198" d="M387.7,142.849a29.524,29.524,0,0,0-13.616-7.759,15.107,15.107,0,0,1-2,.9,29.63,29.63,0,0,1,19.442,27.816v.956h4.863v-.956A29.55,29.55,0,0,0,387.7,142.849Z" transform="translate(-283.301 -102.857)" fill="#e3b7c1"/>
    <path id="Path_23199" data-name="Path 23199" d="M430.024,61.368a.825.825,0,0,1-.825-.726q-.1-.84-.274-1.659a.826.826,0,1,1,1.616-.338q.186.887.3,1.8a.825.825,0,0,1-.719.92h0A.882.882,0,0,1,430.024,61.368Z" transform="translate(-326.569 -44.152)" fill="#760018"/>
    <path id="Path_23200" data-name="Path 23200" d="M394.406,11.377a.825.825,0,0,1-.753-.485,19.481,19.481,0,0,0-8.934-9.329.826.826,0,0,1,.744-1.474,21.131,21.131,0,0,1,9.7,10.122.825.825,0,0,1-.753,1.166Z" transform="translate(-292.579 0)" fill="#760018"/>
    <path id="Path_23201" data-name="Path 23201" d="M316.259,30.092a15.285,15.285,0,1,1-7.942-13.407,15.3,15.3,0,0,1,7.942,13.407" transform="translate(-217.52 -11.271)" fill="#fff"/>
    <path id="Path_23202" data-name="Path 23202" d="M298.193,43.419a16.137,16.137,0,1,1,7.724-1.981,16.137,16.137,0,0,1-7.724,1.981m0-30.572a14.46,14.46,0,0,0-6.945,27.142,14.663,14.663,0,0,0,13.867,0,14.453,14.453,0,0,0-6.934-27.144Z" transform="translate(-214.739 -8.486)" fill="#760018"/>
    <path id="Path_23203" data-name="Path 23203" d="M344.581,14.819a15.425,15.425,0,0,0-1.623.088,15.277,15.277,0,0,1,5.71,28.6,15.069,15.069,0,0,1-5.707,1.776,15.336,15.336,0,0,0,1.621.1,15.106,15.106,0,0,0,7.326-1.88,15.279,15.279,0,0,0-7.326-28.692Z" transform="translate(-261.128 -11.283)" fill="#dbd8dd"/>
    <path id="Path_23204" data-name="Path 23204" d="M299.937,162.934H258.049a.825.825,0,0,1-.8-.621,33.69,33.69,0,0,0-8.829-15.442,27.305,27.305,0,0,0-2.693-2.392.825.825,0,0,1-.165-1.139,30.715,30.715,0,0,1,17.194-11.711.826.826,0,0,1,.6.076,14.664,14.664,0,0,0,13.867,0,.825.825,0,0,1,.6-.078,30.5,30.5,0,0,1,22.932,29.526v.956A.825.825,0,0,1,299.937,162.934Zm-41.25-1.651h40.425v-.131a28.849,28.849,0,0,0-21.372-27.843,16.344,16.344,0,0,1-14.883,0,29.07,29.07,0,0,0-15.483,10.368c.715.588,1.446,1.256,2.217,2.027a35.363,35.363,0,0,1,9.1,15.579" transform="translate(-186.852 -100.201)" fill="#760018"/>
    <path id="Path_23205" data-name="Path 23205" d="M298.193,43.419a16.137,16.137,0,1,1,7.724-1.981,16.137,16.137,0,0,1-7.724,1.981m0-30.572a14.46,14.46,0,0,0-6.945,27.142,14.663,14.663,0,0,0,13.867,0,14.453,14.453,0,0,0-6.934-27.144Z" transform="translate(-214.739 -8.486)" fill="#760018"/>
    <path id="Path_23206" data-name="Path 23206" d="M59.758,271.49H73.751a1.1,1.1,0,0,1,0,2.2H59.758a1.1,1.1,0,0,1,0-2.2" transform="translate(-44.664 -206.712)" fill="#760018"/>
    <path id="Path_23207" data-name="Path 23207" d="M41.208,271.49H41.8a1.1,1.1,0,0,1,0,2.2h-.588a1.1,1.1,0,0,1,0-2.2" transform="translate(-30.54 -206.712)" fill="#760018"/>
  </g>
</svg>
