<svg xmlns="http://www.w3.org/2000/svg" width="24.002" height="24" viewBox="0 0 24.002 24">
  <g id="Layer_2" data-name="Layer 2" transform="translate(-0.998 -1)">
    <path id="Path_26321" data-name="Path 26321" d="M13,1a12,12,0,0,0-3.542.534A5.993,5.993,0,0,0,1.533,9.46,12,12,0,1,0,13,1Zm9.227,6.667h-3.84a12.553,12.553,0,0,0-2.167-4.833,10.72,10.72,0,0,1,6.007,4.833ZM17.666,13a22.98,22.98,0,0,1-.347,4H8.653a22.98,22.98,0,0,1-.32-4v-.153a5.807,5.807,0,0,0,1.333-.513l2.48.62a.645.645,0,0,0,.833-.78l-.647-2.507A6.96,6.96,0,0,0,12.626,9h4.667a22.98,22.98,0,0,1,.373,4ZM13,23.667c-1.547,0-3.16-2-4-5.333h8C16.159,21.667,14.546,23.667,13,23.667Zm-.04-16A5.594,5.594,0,0,0,13,7a5.953,5.953,0,0,0-1.547-4A2.373,2.373,0,0,1,13,2.333c1.547,0,3.16,2,4,5.333ZM7,2.333A4.667,4.667,0,0,1,11.066,9.28a.667.667,0,0,0-.06.487l.413,1.653L9.766,11a.667.667,0,0,0-.487.06A4.667,4.667,0,1,1,7,2.333ZM7,13a23.74,23.74,0,0,0,.333,4H3.119a10.513,10.513,0,0,1-.787-4,10.667,10.667,0,0,1,.2-2A5.96,5.96,0,0,0,7,13ZM3.773,18.333h3.84a12.553,12.553,0,0,0,2.167,4.833,10.72,10.72,0,0,1-6.007-4.833Zm12.447,4.833a12.553,12.553,0,0,0,2.167-4.833h3.84A10.72,10.72,0,0,1,16.219,23.167ZM22.886,17h-4.22A23.74,23.74,0,0,0,19,13a23.74,23.74,0,0,0-.333-4h4.213a10.56,10.56,0,0,1,0,8Z" transform="translate(0)" fill="#b22382"/>
    <circle id="Ellipse_943" data-name="Ellipse 943" cx="0.667" cy="0.667" r="0.667" transform="translate(6.333 3.667)" fill="#b22382"/>
    <path id="Path_26322" data-name="Path 26322" d="M8,12a.667.667,0,0,0,.667.667H10a.667.667,0,1,0,0-1.333V8.667A.667.667,0,0,0,9.333,8H8.667a.667.667,0,0,0,0,1.333v2A.667.667,0,0,0,8,12Z" transform="translate(-2.334 -2.333)" fill="#b22382"/>
  </g>
</svg>
