<svg xmlns="http://www.w3.org/2000/svg" width="94.063" height="93.77" viewBox="0 0 94.063 93.77">
  <g id="api_1_" data-name="api(1)" transform="translate(0 -0.8)">
    <g id="Group_14030" data-name="Group 14030" transform="translate(9.07 54.341)">
      <rect id="Rectangle_5909" data-name="Rectangle 5909" width="2.926" height="2.926" fill="#673391"/>
      <rect id="Rectangle_5910" data-name="Rectangle 5910" width="2.926" height="2.926" transform="translate(0 8.631)" fill="#673391"/>
      <rect id="Rectangle_5911" data-name="Rectangle 5911" width="2.926" height="2.926" transform="translate(0 17.408)" fill="#673391"/>
    </g>
    <path id="Path_22948" data-name="Path 22948" d="M150.437,173.92a28.985,28.985,0,0,0,.731,9.362l-5.705,4.242,4.242,8.192,6.729-2.194a28.563,28.563,0,0,0,7.168,6.144l-1.024,6.876,8.777,2.779,3.218-6.29a28.985,28.985,0,0,0,9.362-.731l4.242,5.705,8.192-4.242-2.194-6.729a25.3,25.3,0,0,0,6-7.168l7.022,1.024,2.779-8.777-6.29-3.365a28.985,28.985,0,0,0-.731-9.362l5.705-4.242-4.389-8.192-6.729,2.194A28.564,28.564,0,0,0,190.373,153l1.024-7.022L182.62,143.2l-3.218,6.437a28.985,28.985,0,0,0-9.362.731l-4.242-5.705-8.192,4.242,2.194,6.729a25.294,25.294,0,0,0-6,7.168l-7.022-1.024L144,170.556Z" transform="translate(-117.668 -116.361)" fill="#fff"/>
    <circle id="Ellipse_754" data-name="Ellipse 754" cx="21.212" cy="21.212" r="21.212" transform="translate(38.073 38.826)" fill="#f1daff"/>
    <g id="Group_14031" data-name="Group 14031" transform="translate(42.423 51.269)">
      <path id="Path_22949" data-name="Path 22949" d="M243.118,293.184h-2.194V282.359a3.365,3.365,0,0,0-6.729,0v10.825H232V282.359a5.559,5.559,0,1,1,11.118,0Z" transform="translate(-232 -276.8)" fill="#673391"/>
      <path id="Path_22950" data-name="Path 22950" d="M310.994,293.184H308.8V276.8h5.852a4.245,4.245,0,0,1,4.242,4.242v1.9a4.245,4.245,0,0,1-4.242,4.242h-3.657Zm0-8.192h3.657a2,2,0,0,0,2.048-2.048v-1.9a2,2,0,0,0-2.048-2.048h-3.657Z" transform="translate(-294.756 -276.8)" fill="#673391"/>
      <path id="Path_22951" data-name="Path 22951" d="M382.437,278.994V276.8H376v2.194h2.194v13.02H376v2.194h6.437v-2.194h-2.048v-13.02Z" transform="translate(-349.668 -276.8)" fill="#673391"/>
      <rect id="Rectangle_5912" data-name="Rectangle 5912" width="8.924" height="2.194" transform="translate(1.024 7.168)" fill="#673391"/>
    </g>
    <path id="Path_22952" data-name="Path 22952" d="M57.153,22.844V22.4A13.621,13.621,0,0,0,31.7,15.675a9.257,9.257,0,0,0-6.29-2.341,9.741,9.741,0,0,0-9.655,9.655v.146a12.369,12.369,0,0,0,4.535,23.845H53.642A12.268,12.268,0,0,0,65.93,34.693,11.792,11.792,0,0,0,57.153,22.844Z" transform="translate(-6.537 -6.537)" fill="#fff"/>
    <path id="Path_22953" data-name="Path 22953" d="M87.48,61.509a24.167,24.167,0,0,0-.731-7.9L92.6,49.221,87.187,38.835l-7.022,2.341a26.025,26.025,0,0,0-6.144-5.12l1.17-7.314L64.074,25.23l-3.218,6.583h-.293A14.738,14.738,0,0,0,61,28.156a13.809,13.809,0,0,0-8.924-12.873A15.027,15.027,0,0,0,37.011.8,15.316,15.316,0,0,0,24.723,7.09a11.728,11.728,0,0,0-5.851-1.609A11.159,11.159,0,0,0,7.753,15.721,13.582,13.582,0,0,0,0,28.156,13.735,13.735,0,0,0,13.751,41.907h23.7c-.731,1.024-1.463,1.9-2.194,3.072l-7.314-1.17L24.576,55.073l6.583,3.218a24.166,24.166,0,0,0,.731,7.9l-5.851,4.389,5.413,10.386,7.022-2.341a26.025,26.025,0,0,0,6.144,5.12l-1.17,7.314L54.565,94.57l3.218-6.583a28.939,28.939,0,0,0,7.9-.731l4.389,5.852,10.386-5.413-2.341-7.022a26.025,26.025,0,0,0,5.12-6.144l7.314,1.17,3.511-11.264ZM3.072,28.156A10.614,10.614,0,0,1,9.948,18.062l.878-.585V16.453a8.179,8.179,0,0,1,8.192-8.192,8.6,8.6,0,0,1,5.266,1.9l1.317,1.17L26.624,9.87a12.126,12.126,0,0,1,22.675,6v1.609l1.024.293a10.972,10.972,0,0,1,7.9,10.533A10.8,10.8,0,0,1,47.4,39.127H13.9A10.926,10.926,0,0,1,3.072,28.156ZM88.5,72.773l-6.729-1.024-.585.878A23.5,23.5,0,0,1,75.484,79.5l-.731.585,2.194,6.437-6,3.072-4.1-5.559-1.024.293a26.072,26.072,0,0,1-8.924.731l-1.024-.146-2.926,6.29-6.437-2.048,1.024-6.729-.878-.439a25.556,25.556,0,0,1-6.875-5.705l-.585-.731-6.437,2.194-3.072-6,5.559-4.1-.293-1.024a26.072,26.072,0,0,1-.731-8.924l.146-1.024-6.29-3.072,2.048-6.437L36.864,48.2l.439-.878a24.206,24.206,0,0,1,4.1-5.266H47.1a13.7,13.7,0,0,0,12.142-7.314,11.072,11.072,0,0,1,2.194.146l1.024.146,3.072-6.144,6.437,2.048L71.1,37.518l.878.439a25.556,25.556,0,0,1,6.876,5.705l.585.731L85.871,42.2l3.072,6-5.559,4.1.293,1.024a26.073,26.073,0,0,1,.731,8.924l-.146,1.024,6.144,3.072Z" transform="translate(0 0)" fill="#673391"/>
    <path id="Path_22954" data-name="Path 22954" d="M165.783,90.99h7.461V83.529l-2.194,2.194L162.272,76.8,159.2,79.872l8.924,8.924Z" transform="translate(-130.089 -62.103)" fill="#f1daff"/>
    <path id="Path_22955" data-name="Path 22955" d="M101.061,100.8H93.6v7.461l2.341-2.194,8.777,8.924,3.072-3.072-8.924-8.924Z" transform="translate(-76.484 -81.714)" fill="#673391"/>
  </g>
</svg>
