<svg xmlns="http://www.w3.org/2000/svg" width="20" height="19.744" viewBox="0 0 20 19.744">
  <g id="bank_4_" data-name="bank (4)" transform="translate(0 0)">
    <path id="Rupee" d="M186.254,202.737a.4.4,0,0,0-.4-.4h-5.09a.4.4,0,1,0,0,.8h3.406a4.025,4.025,0,0,1,.071.989h-3.478a.4.4,0,0,0,0,.8h3.3a1.544,1.544,0,0,1-.279.433c-.546.591-1.587.735-3.095.427a.413.413,0,0,0-.365.691l3.024,3.11a.4.4,0,0,0,.571-.555l-2.242-2.307c.131.008.259.013.383.013a3,3,0,0,0,2.31-.838,2.437,2.437,0,0,0,.541-.973h.943a.4.4,0,0,0,0-.8h-.812a4.671,4.671,0,0,0-.06-.989h.872A.4.4,0,0,0,186.254,202.737Z" transform="translate(-173.235 -194.604)" fill="#b22382"/>
    <path id="Circle" d="M229.377,47.243a1.1,1.1,0,1,0-1.1-1.1A1.106,1.106,0,0,0,229.377,47.243Zm0-1.413a.308.308,0,1,1-.308.308A.308.308,0,0,1,229.377,45.83Z" transform="translate(-219.377 -43.568)" fill="#b22382"/>
    <path id="Bank" d="M23.161,15.169a.4.4,0,0,0,.4-.4V13.078h1.095a.4.4,0,0,0,.137-.773L15.207,8.288a.4.4,0,0,0-.308,0L5.3,12.312a.4.4,0,0,0,.154.766H6.546v1.693a.4.4,0,0,0,.4.4h.737V23.7H6.944a.4.4,0,0,0-.4.4v1.693H5.7a.4.4,0,0,0-.4.4V27.6a.4.4,0,0,0,.4.4H24.406a.4.4,0,0,0,.4-.4V26.187a.4.4,0,0,0-.4-.4H23.56V24.1a.4.4,0,0,0-.4-.4h-.737V15.169Zm-.4-.8H19.675V13.078h3.088ZM19.276,23.7a.4.4,0,0,0-.4.4v1.693h-7.65V24.1a.4.4,0,0,0-.4-.4h-.737V15.169h.737a.4.4,0,0,0,.4-.4V13.078h7.65v1.693a.4.4,0,0,0,.4.4h.737V23.7h-.737ZM15.053,9.087l7.62,3.194H7.433Zm-7.71,3.991h3.088v1.294H7.343Zm1.136,2.091h.817V23.7H8.478ZM7.343,24.495h3.088v1.294H7.343ZM24.008,27.2H6.1v-.618H24.008Zm-1.245-1.415H19.675V24.495h3.088ZM21.627,23.7H20.81V15.169h.817Z" transform="translate(-5.053 -8.257)" fill="#b22382"/>
  </g>
</svg>
