<svg id="coin-stack" xmlns="http://www.w3.org/2000/svg" width="20" height="17.136" viewBox="0 0 20 17.136">
  <path id="Coins" d="M17.1,44.007a6.413,6.413,0,0,0-1.067.09,1.743,1.743,0,0,0-.467-.771,2.162,2.162,0,0,0,.589-1.633c0-1.252-.638-2.029-1.666-2.029H5.166c-1.028,0-1.666.777-1.666,2.029a2.162,2.162,0,0,0,.589,1.633,2.559,2.559,0,0,0,0,3.266,2.559,2.559,0,0,0,0,3.266,2.559,2.559,0,0,0,0,3.266A2.162,2.162,0,0,0,3.5,54.757c0,1.252.638,2.029,1.666,2.029h9.327a1.605,1.605,0,0,0,.861-.231A6.4,6.4,0,1,0,17.1,44.007ZM5.166,40.455h9.327c.722,0,.874.673.874,1.237s-.152,1.237-.874,1.237H5.166c-.722,0-.874-.673-.874-1.237s.152-1.237.874-1.237Zm0,3.266h9.327a.765.765,0,0,1,.773.555A6.411,6.411,0,0,0,12.291,46.2H5.166c-.722,0-.874-.673-.874-1.237s.152-1.237.874-1.237Zm0,3.266H11.7a6.354,6.354,0,0,0-.921,2.474H5.166c-.722,0-.874-.673-.874-1.237S4.444,46.987,5.166,46.987Zm0,3.266H10.71c0,.05,0,.1,0,.149a6.363,6.363,0,0,0,.438,2.325H5.166c-.722,0-.874-.673-.874-1.237S4.444,50.254,5.166,50.254Zm0,5.74c-.722,0-.874-.673-.874-1.237s.152-1.237.874-1.237h6.354A6.442,6.442,0,0,0,14,55.994H5.166Zm11.938.013a5.6,5.6,0,1,1,5.6-5.6A5.61,5.61,0,0,1,17.1,56.007Z" transform="translate(-3.5 -39.663)" fill="#b22382"/>
  <path id="Circle" d="M223.434,182.176a5.1,5.1,0,1,0,5.1,5.1A5.1,5.1,0,0,0,223.434,182.176Zm0,9.4a4.3,4.3,0,1,1,4.3-4.3A4.308,4.308,0,0,1,223.434,191.575Z" transform="translate(-209.831 -176.532)" fill="#b22382"/>
  <path id="Rupee" d="M282.948,232.616a.4.4,0,0,0-.4-.4h-4.581a.4.4,0,0,0,0,.792h3.035a3.351,3.351,0,0,1,.042,1.03h-3.078a.4.4,0,0,0,0,.792h2.782a1.287,1.287,0,0,1-.093.113c-.482.52-1.407.645-2.748.371a.409.409,0,0,0-.363.685l2.721,2.8a.4.4,0,1,0,.568-.552l-1.951-2.007c.085,0,.169.007.251.007a2.734,2.734,0,0,0,2.106-.766,2.155,2.155,0,0,0,.41-.649h.9a.4.4,0,0,0,0-.792h-.707a4.118,4.118,0,0,0-.034-1.03h.741A.4.4,0,0,0,282.948,232.616Z" transform="translate(-266.589 -224.594)" fill="#b22382"/>
</svg>
