<svg xmlns="http://www.w3.org/2000/svg" xmlns:xlink="http://www.w3.org/1999/xlink" width="246.436" height="225.551" viewBox="0 0 246.436 225.551">
  <defs>
    <linearGradient id="linear-gradient" x1="0.018" y1="0.586" x2="0.992" y2="0.571" gradientUnits="objectBoundingBox">
      <stop offset="0" stop-color="#a5235a"/>
      <stop offset="1" stop-color="#33026f"/>
    </linearGradient>
  </defs>
  <g id="Confirmed-rafiki" transform="translate(-56.11 -72.643)">
    <g id="freepik--background-simple--inject-39" transform="translate(86.674 72.643)">
      <path id="Path_26393" data-name="Path 26393" d="M169.531,203.4c54.018.153,108.811,43.64,121.242-28.089,6.317-36.5,34.711-50.745,17.553-74.252C296.537,84.944,256.169,72.374,236.8,72.647c-29.182.407-41.734,20.444-57.443,41.568-17.794,23.9-40.736,25.986-61.244,44.187-14.96,13.282-21.169,47.339-1.589,61.053C140.52,236.258,146.494,203.339,169.531,203.4Z" transform="translate(-104.204 -72.643)" fill="#f5f2f9"/>
    </g>
    <g id="freepik--Shadow--inject-39" transform="translate(56.11 283.806)">
      <ellipse id="freepik--path--inject-39" cx="123.218" cy="7.194" rx="123.218" ry="7.194" transform="translate(0 0)" fill="#f5f5f5"/>
    </g>
    <g id="freepik--Smartphone--inject-39" transform="translate(162.092 95.843)">
      <path id="Path_26394" data-name="Path 26394" d="M323.389,109.15h-73.14a10.086,10.086,0,0,0-9.888,9.291L228.985,293.56a8.617,8.617,0,0,0,8.687,9.285h73.166a10.079,10.079,0,0,0,9.888-9.285l8.16-125.868a1.906,1.906,0,0,0,1.271-1.633l1.462-22.522a1.614,1.614,0,0,0-1.055-1.633l1.519-23.463a8.624,8.624,0,0,0-8.694-9.291Z" transform="translate(-225.095 -109.149)" fill="#33026f"/>
      <path id="Path_26395" data-name="Path 26395" d="M236.7,173.217h1.436a1.792,1.792,0,0,0,1.754-1.646l.636-9.405a1.532,1.532,0,0,0-1.544-1.646h-1.43a1.786,1.786,0,0,0-1.754,1.646l-.635,9.405a1.532,1.532,0,0,0,1.538,1.646Z" transform="translate(-227.353 -127.874)" fill="#673391"/>
      <path id="Path_26396" data-name="Path 26396" d="M234.981,199.637h1.43a1.8,1.8,0,0,0,1.76-1.652l.635-9.4a1.532,1.532,0,0,0-1.544-1.646h-1.43a1.792,1.792,0,0,0-1.76,1.646l-.636,9.4a1.525,1.525,0,0,0,1.544,1.652Z" transform="translate(-226.726 -137.504)" fill="#673391"/>
      <path id="Path_26397" data-name="Path 26397" d="M304.733,302.845h-73.14a8.617,8.617,0,0,1-8.687-9.285l11.35-175.119a10.092,10.092,0,0,1,9.895-9.291h73.134a8.624,8.624,0,0,1,8.687,9.291L314.621,293.56a10.079,10.079,0,0,1-9.888,9.285Z" transform="translate(-222.879 -109.149)" fill="url(#linear-gradient)"/>
      <ellipse id="Ellipse_953" data-name="Ellipse 953" cx="6.457" cy="6.05" rx="6.457" ry="6.05" transform="matrix(0.718, -0.696, 0.696, 0.718, 37.2, 182.046)" fill="#fff" opacity="0.2"/>
      <path id="Path_26398" data-name="Path 26398" d="M313.206,289.674H230.063A2.072,2.072,0,0,1,228,287.469l9.73-150.182a2.078,2.078,0,0,1,2.065-1.906h83.149a2.072,2.072,0,0,1,2.065,2.205l-9.736,150.15A2.072,2.072,0,0,1,313.206,289.674Z" transform="translate(-224.743 -118.71)" fill="#fff"/>
      <ellipse id="Ellipse_954" data-name="Ellipse 954" cx="23.437" cy="21.963" rx="23.437" ry="21.963" transform="matrix(0.718, -0.696, 0.696, 0.718, 17.873, 96.511)" fill="#673391" opacity="0.2"/>
      <path id="Path_26399" data-name="Path 26399" d="M279.182,275.107a32.441,32.441,0,0,1-32.735-35c1.252-19.3,17.966-35,37.272-35a32.438,32.438,0,0,1,32.735,35C315.2,259.4,298.463,275.107,279.182,275.107Zm4.449-69.372c-18.951,0-35.366,15.417-36.592,34.368a31.851,31.851,0,0,0,32.137,34.368c18.951,0,35.366-15.417,36.6-34.368A31.838,31.838,0,0,0,283.631,205.736Z" transform="translate(-231.443 -144.123)" fill="#673391" opacity="0.2"/>
      <path id="Path_26400" data-name="Path 26400" d="M282.174,252.4l-1.906-3.68c-4.131-8.014-13.644-15.176-16.968-17.26l3.139-4.7c3.934,2.466,11.795,8.573,16.726,15.83,9.119-10.8,22.008-21.931,39.261-33.936l2.942,4.449c-18.43,12.824-31.693,24.55-40.513,35.849Z" transform="translate(-237.612 -145.42)" fill="#673391"/>
      <ellipse id="Ellipse_955" data-name="Ellipse 955" cx="2.612" cy="2.453" rx="2.612" ry="2.453" transform="matrix(0.718, -0.696, 0.696, 0.718, 38.372, 8.288)" fill="#fff" opacity="0.2"/>
      <path id="Path_26401" data-name="Path 26401" d="M301.36,118.12h21.029a2.345,2.345,0,0,1,2.364,2.542h0a2.752,2.752,0,0,1-2.695,2.542H301.036a2.358,2.358,0,0,1-2.37-2.542h0A2.752,2.752,0,0,1,301.36,118.12Z" transform="translate(-250.501 -112.419)" fill="#fff" opacity="0.2"/>
    </g>
    <g id="freepik--Character--inject-39" transform="translate(90.876 116.188)">
      <path id="Path_26402" data-name="Path 26402" d="M170.328,189.908c-1.074,1.1-2.224,2.313-3.286,3.521s-2.123,2.447-3.12,3.718-1.907,2.542-2.847,3.883l-.635,1-.636,1.01c-.21.337-.4.68-.585,1.03l-.508.934a5.23,5.23,0,0,0-.35,1.671,16.038,16.038,0,0,0,0,2.212,43.319,43.319,0,0,0,.635,4.734c.28,1.6.636,3.209,1.01,4.811s.788,3.222,1.207,4.8l-2.351.883a68.875,68.875,0,0,1-3.622-9.609,39.172,39.172,0,0,1-1.125-5.167,20.974,20.974,0,0,1-.2-2.809,9.094,9.094,0,0,1,.553-3.247c.146-.356.222-.5.324-.712l.292-.6a10.745,10.745,0,0,1,.635-1.188l.636-1.169.674-1.138a48.488,48.488,0,0,1,2.93-4.34c1.042-1.392,2.123-2.745,3.26-4.054s2.288-2.542,3.61-3.813Z" transform="translate(-126.527 -157.601)" fill="#b55b52"/>
      <path id="Path_26403" data-name="Path 26403" d="M176.317,179.995c-3.444.153-6.717,5.872-6.717,5.872l4.55,9.285s6.164-5.135,6.241-10.168C180.442,181.685,179.7,179.836,176.317,179.995Z" transform="translate(-132.243 -155.314)" fill="#673391"/>
      <path id="Path_26404" data-name="Path 26404" d="M176.317,179.995c-3.444.153-6.717,5.872-6.717,5.872l4.55,9.285s6.164-5.135,6.241-10.168C180.442,181.685,179.7,179.836,176.317,179.995Z" transform="translate(-132.243 -155.314)" fill="#e0d6e9" opacity="0.7"/>
      <path id="Path_26405" data-name="Path 26405" d="M180.52,190.315c-1,1.519-1.487,5.459-1.64,7.213a21.054,21.054,0,0,0,3.813-5.027C182.013,190.8,181.181,189.318,180.52,190.315Z" transform="translate(-135.625 -158.962)" opacity="0.2"/>
      <path id="Path_26406" data-name="Path 26406" d="M163.16,242.91l4.188,1.271L164.558,247s-3.019-.934-3.438-2.987Z" transform="translate(-129.152 -178.25)" fill="#b55b52"/>
      <path id="Path_26407" data-name="Path 26407" d="M171.856,248.092l-.705,2.7-4.62-3.1,2.79-2.822Z" transform="translate(-131.124 -178.964)" fill="#b55b52"/>
      <path id="Path_26408" data-name="Path 26408" d="M218.235,162.344c-.133.375-.038.756.21.845s.553-.133.68-.508.038-.763-.21-.852S218.369,161.962,218.235,162.344Z" transform="translate(-149.948 -148.689)" fill="#263238"/>
      <path id="Path_26409" data-name="Path 26409" d="M219.16,161.81l1,.083S219.446,162.42,219.16,161.81Z" transform="translate(-150.307 -148.689)" fill="#263238"/>
      <path id="Path_26410" data-name="Path 26410" d="M218.042,163.41a10.981,10.981,0,0,0,.508,2.911,1.735,1.735,0,0,1-1.43-.254Z" transform="translate(-149.564 -149.272)" fill="#a02724"/>
      <path id="Path_26411" data-name="Path 26411" d="M219.389,159.227a.229.229,0,0,1-.191-.172,1.951,1.951,0,0,0-1.087-1.315.235.235,0,0,1-.14-.3.229.229,0,0,1,.3-.14,2.4,2.4,0,0,1,1.385,1.671.235.235,0,0,1-.172.286Z" transform="translate(-149.869 -147.04)" fill="#263238"/>
      <path id="Path_26412" data-name="Path 26412" d="M196.272,165.16c.089,3.006-.216,8.414-2.542,9.946,0,0,.311,3.089,5.72,4.137,5.942,1.15,3.324-2.383,3.324-2.383-3.114-1.4-2.637-3.775-1.7-5.91Z" transform="translate(-141.038 -149.91)" fill="#b55b52"/>
      <path id="Path_26413" data-name="Path 26413" d="M222.753,197.53c.534,1.455,1.144,3.031,1.792,4.525s1.271,3.006,2.027,4.449,1.493,2.892,2.294,4.3c.413.693.826,1.385,1.271,2.046.216.343.439.674.674.985l.343.483.172.248.089.121.057.064a6.99,6.99,0,0,0,1.411,1.226,20.465,20.465,0,0,0,1.957,1.182c1.392.75,2.885,1.43,4.4,2.072s3.069,1.271,4.639,1.824,3.178,1.138,4.722,1.678l-.591,2.447a79.062,79.062,0,0,1-10.073-2.37,45.7,45.7,0,0,1-4.97-1.837,24.832,24.832,0,0,1-2.478-1.271,10.378,10.378,0,0,1-2.5-1.989l-.153-.172-.108-.133-.21-.261-.419-.534c-.286-.35-.559-.705-.813-1.068-.54-.718-1.036-1.455-1.525-2.2a52.049,52.049,0,0,1-2.663-4.563c-.807-1.557-1.57-3.127-2.269-4.728s-1.328-3.178-1.907-4.932Z" transform="translate(-149.859 -161.709)" fill="#b55b52"/>
      <path id="Path_26414" data-name="Path 26414" d="M264.373,236.329l3.749-1.449-.184,4.328s-3.038.807-4.448-.724Z" transform="translate(-166.465 -175.323)" fill="#b55b52"/>
      <path id="Path_26415" data-name="Path 26415" d="M273.5,236.367l1.284,2.764-4.3.076.184-4.328Z" transform="translate(-169.017 -175.323)" fill="#b55b52"/>
      <path id="Path_26416" data-name="Path 26416" d="M177.38,401.355l4.963.369,1.474-11.395-4.963-.369Z" transform="translate(-135.079 -231.849)" fill="#b55b52"/>
      <path id="Path_26417" data-name="Path 26417" d="M115.52,363.783l3.241,3.851,9.622-6.184-3.241-3.851Z" transform="translate(-112.531 -220.054)" fill="#b55b52"/>
      <path id="Path_26418" data-name="Path 26418" d="M118.559,369.6l-2.612-5.02a.394.394,0,0,0-.483-.2l-4.15,1.436a.794.794,0,0,0-.4,1.118c.941,1.735,1.481,2.542,2.625,4.735.712,1.354,1.608,3.413,2.58,5.287s2.828,1.042,2.587.172a9.747,9.747,0,0,1,0-6.641A1.36,1.36,0,0,0,118.559,369.6Z" transform="translate(-110.816 -222.517)" fill="#263238"/>
      <path id="Path_26419" data-name="Path 26419" d="M181.816,407.36h-5.58a.4.4,0,0,0-.4.337l-.75,4.41a.775.775,0,0,0,.769.883c1.951-.032,2.885-.146,5.338-.146,1.512,0,4.626.159,6.711.159s2.25-2.059,1.385-2.25c-3.87-.832-5.37-1.989-6.654-3.089A1.227,1.227,0,0,0,181.816,407.36Z" transform="translate(-134.24 -238.191)" fill="#263238"/>
      <path id="Path_26420" data-name="Path 26420" d="M184.2,390.332l-.82,6.336-4.944-.5.8-6.2Z" transform="translate(-135.465 -231.853)" opacity="0.2"/>
      <path id="Path_26421" data-name="Path 26421" d="M128.305,357.6l3.241,3.851-3.985,2.561-3.362-3.775Z" transform="translate(-115.695 -220.054)" opacity="0.2"/>
      <path id="Path_26422" data-name="Path 26422" d="M178,210.2l19.9,3.857c9.405-27.689,7.156-28.6,7.156-28.6a40.966,40.966,0,0,0-4.518-2.1l-.273-.1c-1.271-.464-1.538-.534-3.241-1.03-2.936-.693-5.662-1.271-9.037-1.748l-.635-.089c-.636-.076-1.22-.14-1.8-.2-.394-.044-.788-.07-1.163-.1l-1.271-.07c-2.173-.108-3.73-.076-3.73-.076C180.478,197.25,179.646,202.226,178,210.2Z" transform="translate(-135.305 -155.302)" fill="#673391"/>
      <path id="Path_26423" data-name="Path 26423" d="M178,210.2l19.9,3.857c9.405-27.689,7.156-28.6,7.156-28.6a40.966,40.966,0,0,0-4.518-2.1l-.273-.1c-1.271-.464-1.538-.534-3.241-1.03-2.936-.693-5.662-1.271-9.037-1.748l-.635-.089c-.636-.076-1.22-.14-1.8-.2-.394-.044-.788-.07-1.163-.1l-1.271-.07c-2.173-.108-3.73-.076-3.73-.076C180.478,197.25,179.646,202.226,178,210.2Z" transform="translate(-135.305 -155.302)" fill="#e0d6e9" opacity="0.7"/>
      <path id="Path_26424" data-name="Path 26424" d="M215.049,198.622l-1.8-.292a34.568,34.568,0,0,0,1.779,9.024c.743-2.542,1.322-4.633,1.76-6.393Z" transform="translate(-148.153 -162.001)" opacity="0.2"/>
      <path id="Path_26425" data-name="Path 26425" d="M216.7,188.06c2.942.941,5.084,6.762,5.885,9.272l-5.72,6.717s-5.859-8.42-4.925-11.032C212.857,190.3,215.279,187.6,216.7,188.06Z" transform="translate(-147.64 -158.238)" fill="#673391"/>
      <path id="Path_26426" data-name="Path 26426" d="M216.7,188.06c2.942.941,5.084,6.762,5.885,9.272l-5.72,6.717s-5.859-8.42-4.925-11.032C212.857,190.3,215.279,187.6,216.7,188.06Z" transform="translate(-147.64 -158.238)" fill="#e0d6e9" opacity="0.7"/>
      <path id="Path_26427" data-name="Path 26427" d="M217.051,151.34c-.591,1.735-3.178,2.428-5.751,1.557s-4.2-3-3.61-4.735,3.178-2.428,5.72-1.551S217.636,149.605,217.051,151.34Z" transform="translate(-146.082 -143.011)" fill="#263238"/>
      <path id="Path_26428" data-name="Path 26428" d="M198.232,150.738c-1.322,4.728-1.983,6.7-.47,9.952,2.275,4.9,8.363,5.669,11.07,1.468,2.434-3.775,4.188-10.873.3-14.426a6.565,6.565,0,0,0-10.9,3.006Z" transform="translate(-142.191 -142.886)" fill="#b55b52"/>
      <path id="Path_26429" data-name="Path 26429" d="M199.992,143.494c-1.907,1.093-5.955-5.751-10.982,0-3.6,4.124-1.3,10.168-1.3,10.168s-2.866-5.04-5.154-2.58c-2.987,3.178.1,14.547,9.952,13.765s8.9-8.776,8.9-8.776,4.614-4.69,4.385-8.9C205.616,144.021,203.17,141.7,199.992,143.494Z" transform="translate(-136.567 -141.164)" fill="#263238"/>
      <path id="Path_26430" data-name="Path 26430" d="M212.406,159.423a4.448,4.448,0,0,0,.089,2.675c.407,1.214,1.341,1.22,1.837.381a3.191,3.191,0,0,0,.064-3.273C213.69,158.228,212.724,158.451,212.406,159.423Z" transform="translate(-147.786 -147.51)" fill="#b55b52"/>
      <path id="Path_26431" data-name="Path 26431" d="M173.258,230.378s-2.123,7.359-4.849,17.07c-1.811,6.469-3.9,13.981-5.8,21.054-1.087,4.048-2.11,7.95-2.993,11.439-5,19.732-29.907,36.694-29.907,36.694l-4.823-5.306s16.739-14.1,21.607-32.506c9.831-37.374,4.3-43.678,12.138-51.272Z" transform="translate(-115.946 -172.651)" fill="#673391"/>
      <path id="Path_26432" data-name="Path 26432" d="M192.494,242.25c-.737,2.853-1.665,6.457-2.688,10.486-1.811,6.469-3.9,13.981-5.8,21.054-.813-9.024-1.271-25.617,5.37-30.777C190.689,242.009,191.725,241.8,192.494,242.25Z" transform="translate(-137.33 -177.927)" opacity="0.2"/>
      <path id="Path_26433" data-name="Path 26433" d="M129.675,364.079l-6.025-6.628,1.824-1.83,7.391,6.965Z" transform="translate(-115.494 -219.332)" fill="#673391"/>
      <path id="Path_26434" data-name="Path 26434" d="M129.675,364.079l-6.025-6.628,1.824-1.83,7.391,6.965Z" transform="translate(-115.494 -219.332)" fill="#fff" opacity="0.7"/>
      <path id="Path_26435" data-name="Path 26435" d="M123.674,375.6a.585.585,0,0,1-.178-.032c-.591-.216-.966-1.347-1.138-2a.114.114,0,0,1,.044-.121.108.108,0,0,1,.127,0c.178.1,1.741,1.017,1.773,1.659a.388.388,0,0,1-.178.356A.705.705,0,0,1,123.674,375.6Zm-1.01-1.811c.261.858.591,1.436.915,1.551a.432.432,0,0,0,.407-.083c.083-.057.089-.114.083-.153C124.036,374.776,123.28,374.179,122.663,373.791Z" transform="translate(-115.022 -225.823)" fill="#673391"/>
      <path id="Path_26436" data-name="Path 26436" d="M197.127,231.987s1.271,39.287-1.538,54.088C192.7,301.5,183.9,336.451,183.9,336.451l-7.156-.921s4.525-35.372,6.45-50.662c2.091-16.676-.636-55.727-.636-55.727Z" transform="translate(-134.845 -173.231)" fill="#673391"/>
      <path id="Path_26437" data-name="Path 26437" d="M184.57,396.543l-10.2-1.315.121-2.428,11.1.483Z" transform="translate(-133.981 -232.884)" fill="#673391"/>
      <path id="Path_26438" data-name="Path 26438" d="M184.57,396.543l-10.2-1.315.121-2.428,11.1.483Z" transform="translate(-133.981 -232.884)" fill="#fff" opacity="0.7"/>
      <path id="Path_26439" data-name="Path 26439" d="M123.913,373.8a3.469,3.469,0,0,1-1.506-.426.121.121,0,0,1-.057-.1.146.146,0,0,1,.064-.1c.057,0,1.271-.667,1.97-.407a.636.636,0,0,1,.381.381.419.419,0,0,1-.108.508A1.207,1.207,0,0,1,123.913,373.8Zm-1.188-.515a2.523,2.523,0,0,0,1.786.184c.044-.038.089-.1,0-.241a.381.381,0,0,0-.241-.242,2.638,2.638,0,0,0-1.544.3Z" transform="translate(-115.02 -225.56)" fill="#673391"/>
      <path id="Path_26440" data-name="Path 26440" d="M187.632,408a8.468,8.468,0,0,1-1.557-.178.108.108,0,0,1-.1-.1.114.114,0,0,1,.064-.121c.229-.121,2.237-1.131,2.834-.794a.369.369,0,0,1,.191.318.636.636,0,0,1-.229.566A1.906,1.906,0,0,1,187.632,408Zm-1.163-.343a3.2,3.2,0,0,0,2.218-.133.439.439,0,0,0,.146-.381.134.134,0,0,0-.07-.127C188.439,406.836,187.295,407.262,186.469,407.656Z" transform="translate(-138.212 -237.966)" fill="#673391"/>
      <path id="Path_26441" data-name="Path 26441" d="M186.1,407.175a.133.133,0,0,1-.07,0,.121.121,0,0,1-.051-.108c0-.089.248-2.237,1.449-2.11.318.032.413.191.432.324.089.559-1.112,1.64-1.716,1.907Zm1.233-2.015c-.712,0-1,1.176-1.087,1.684.635-.369,1.436-1.214,1.385-1.551,0,0,0-.108-.229-.127Z" transform="translate(-138.213 -237.313)" fill="#673391"/>
      <path id="Path_26442" data-name="Path 26442" d="M177.1,225.582l-1.188,1.6c-.089.127.051.3.28.343l20.876,4.042c.178,0,.343,0,.369-.133l.477-1.741a.341.341,0,0,0-.305-.292l-20.158-3.9A.369.369,0,0,0,177.1,225.582Z" transform="translate(-134.535 -171.897)" fill="#5b218a"/>
      <path id="Path_26443" data-name="Path 26443" d="M181.077,228.506l-.54-.108c-.108,0-.178-.089-.159-.153l.635-2.256c0-.064.127-.1.229-.083l.54.108c.108,0,.184.089.165.153l-.635,2.256C181.287,228.506,181.185,228.506,181.077,228.506Z" transform="translate(-136.17 -172.051)" fill="#263238"/>
      <path id="Path_26444" data-name="Path 26444" d="M202.527,232.7l-.54-.1c-.108,0-.178-.1-.159-.159l.636-2.25c0-.07.121-.108.229-.083l.54.1c.1,0,.178.1.159.159l-.636,2.25C202.737,232.686,202.635,232.724,202.527,232.7Z" transform="translate(-143.989 -173.58)" fill="#263238"/>
    </g>
  </g>
</svg>
