<svg xmlns="http://www.w3.org/2000/svg" width="24.563" height="24" viewBox="0 0 24.563 24">
  <g id="customer-support" transform="translate(-0.643 -1.361)">
    <path id="Path_26323" data-name="Path 26323" d="M23.7,11.757a10.78,10.78,0,0,0-21.546,0A2.535,2.535,0,0,0,.643,14.072v2.844a2.536,2.536,0,0,0,2.533,2.533A1.641,1.641,0,0,0,4.815,17.81V13.177a1.636,1.636,0,0,0-1.479-1.623,9.6,9.6,0,0,1,19.174,0,1.636,1.636,0,0,0-1.477,1.623V17.81a1.635,1.635,0,0,0,1.5,1.625v1.171A2.394,2.394,0,0,1,20.141,23H18.371a1.76,1.76,0,0,0-1.671-1.19H14.874a1.752,1.752,0,0,0-.744.163A1.781,1.781,0,0,0,13.1,23.583a1.78,1.78,0,0,0,1.778,1.778H16.7a1.785,1.785,0,0,0,1.672-1.19h1.77a3.57,3.57,0,0,0,3.566-3.566v-1.38a2.535,2.535,0,0,0,1.5-2.31V14.071A2.535,2.535,0,0,0,23.7,11.757ZM3.64,13.177V17.81a.465.465,0,0,1-.464.464,1.36,1.36,0,0,1-1.358-1.358V14.071a1.36,1.36,0,0,1,1.358-1.358.465.465,0,0,1,.464.464ZM17.289,23.709a.605.605,0,0,1-.59.477H14.874a.6.6,0,0,1-.25-1.151.584.584,0,0,1,.25-.054H16.7a.605.605,0,0,1,.59.728Zm6.742-6.794a1.36,1.36,0,0,1-1.358,1.358.465.465,0,0,1-.464-.464V13.177a.465.465,0,0,1,.464-.464,1.36,1.36,0,0,1,1.358,1.358Z" fill="#b22382"/>
    <path id="Path_26324" data-name="Path 26324" d="M26.029,25.98a2.492,2.492,0,0,0,2.489-2.489V18.418a2.493,2.493,0,0,0-2.489-2.489H18.42a2.492,2.492,0,0,0-2.489,2.489v5.072A2.492,2.492,0,0,0,18.42,25.98h.047v1.314a1.22,1.22,0,0,0,1.219,1.224,1.2,1.2,0,0,0,.86-.363l2.187-2.175Zm-3.952-1L19.71,27.33a.029.029,0,0,1-.041.009.039.039,0,0,1-.027-.044v-1.9a.587.587,0,0,0-.587-.587h-.634a1.316,1.316,0,0,1-1.314-1.314V18.418A1.316,1.316,0,0,1,18.421,17.1h7.608a1.317,1.317,0,0,1,1.314,1.314v5.072a1.316,1.316,0,0,1-1.314,1.314H22.491A.588.588,0,0,0,22.077,24.976Z" transform="translate(-9.3 -8.862)" fill="#b22382"/>
    <path id="Path_26325" data-name="Path 26325" d="M23.367,26.787a.867.867,0,1,0,.868.867A.868.868,0,0,0,23.367,26.787Z" transform="translate(-13.296 -15.468)" fill="#b22382"/>
    <path id="Path_26326" data-name="Path 26326" d="M30.653,26.787a.867.867,0,1,0,.868.867A.868.868,0,0,0,30.653,26.787Z" transform="translate(-17.729 -15.468)" fill="#b22382"/>
    <path id="Path_26327" data-name="Path 26327" d="M37.939,26.787a.867.867,0,1,0,.868.867A.868.868,0,0,0,37.939,26.787Z" transform="translate(-22.161 -15.468)" fill="#b22382"/>
  </g>
</svg>
