<svg xmlns="http://www.w3.org/2000/svg" width="24" height="24.919" viewBox="0 0 24 24.919">
  <g id="get-money_1_" data-name="get-money (1)" transform="translate(-9.148)">
    <g id="Group_162453" data-name="Group 162453" transform="translate(9.148 13.243)">
      <g id="Group_162452" data-name="Group 162452" transform="translate(0)">
        <path id="Path_26107" data-name="Path 26107" d="M32.756,265.534a.285.285,0,0,0-.04-.065,1.865,1.865,0,0,0-2.623-.271c-1,.819-2.467,2-3.416,2.768a3.971,3.971,0,0,1-2.351.874l-2.572.085a.29.29,0,0,1-.256-.136l-.286-.492a.269.269,0,0,1-.015-.261.28.28,0,0,1,.206-.161l2.658-.5a1.851,1.851,0,0,0,1.482-2.02,1.817,1.817,0,0,0-1.809-1.618h-.09l-3.552-.146a8.127,8.127,0,0,0-4.054.909l-1.859.9a1.567,1.567,0,0,0-1.412-.889H10.71a1.555,1.555,0,0,0-1.562,1.547v7.652a1.562,1.562,0,0,0,1.562,1.552h2.055a1.558,1.558,0,0,0,1.557-1.552v-.517l1.974-.362a7.754,7.754,0,0,1,1.718-.1l5.4.251a7.8,7.8,0,0,0,5.341-1.8l3.743-3.1.005-.005A1.839,1.839,0,0,0,32.756,265.534Zm-19.438,8.174a.549.549,0,0,1-.548.548H10.7a.549.549,0,0,1-.548-.548v-7.647a.549.549,0,0,1,.548-.548h2.07a.549.549,0,0,1,.548.548ZM31.857,267.3l-3.738,3.1a6.83,6.83,0,0,1-4.657,1.573l-5.4-.251a8.891,8.891,0,0,0-1.919.111.018.018,0,0,0-.015.005l-1.8.332v-5.727l2.15-1.04a7.156,7.156,0,0,1,3.577-.809l3.577.146h.106a.828.828,0,0,1,.814.723.841.841,0,0,1-.668.919l-2.658.5a1.291,1.291,0,0,0-1.025,1.507,1.318,1.318,0,0,0,.156.412l.286.487a1.293,1.293,0,0,0,1.156.633l2.572-.085a5.043,5.043,0,0,0,2.949-1.1c.95-.769,2.417-1.949,3.421-2.768a.872.872,0,0,1,1.186.105.419.419,0,0,0,.04.06A.831.831,0,0,1,31.857,267.3Z" transform="translate(-9.148 -263.584)" fill="#a92a81"/>
      </g>
    </g>
    <g id="Group_162455" data-name="Group 162455" transform="translate(18.568)">
      <g id="Group_162454" data-name="Group 162454" transform="translate(0)">
        <path id="Path_26108" data-name="Path 26108" d="M203.219,0a6.574,6.574,0,1,0,6.571,6.576A6.58,6.58,0,0,0,203.219,0Zm.005,12.143a5.57,5.57,0,0,1-5.572-5.567V6.571a5.569,5.569,0,1,1,5.572,5.572Z" transform="translate(-196.648)" fill="#a92a81"/>
      </g>
    </g>
    <g id="Group_162457" data-name="Group 162457" transform="translate(22.673 3.316)">
      <g id="Group_162456" data-name="Group 162456">
        <path id="Path_26109" data-name="Path 26109" d="M282.778,67.708H282.1a2.11,2.11,0,0,0-.291-.7h.965a.5.5,0,0,0,0-1h-3.929a.5.5,0,1,0,0,1h1.125a1.2,1.2,0,0,1,1.07.7h-2.2a.5.5,0,1,0,0,1h2.2a1.6,1.6,0,0,1-.231.317,1.173,1.173,0,0,1-.839.337h-1.125a.506.506,0,0,0-.5.512.519.519,0,0,0,.156.362l2.808,2.658A.5.5,0,0,0,282,72.17L280.1,70.376a2.165,2.165,0,0,0,1.412-.628,2.25,2.25,0,0,0,.588-1.035h.673a.5.5,0,0,0,0-1Z" transform="translate(-278.346 -66)" fill="#a92a81"/>
      </g>
    </g>
  </g>
</svg>
