<svg xmlns="http://www.w3.org/2000/svg" xmlns:xlink="http://www.w3.org/1999/xlink" width="24" height="24" viewBox="0 0 24 24">
  <defs>
    <clipPath id="clip-path">
      <path id="Path_26331" data-name="Path 26331" d="M0,0H24V24H0Z" fill="none"/>
    </clipPath>
  </defs>
  <g id="question_3_" data-name="question (3)" clip-path="url(#clip-path)">
    <path id="Path_26328" data-name="Path 26328" d="M14.75,9.5a2.25,2.25,0,0,0-2.25,2.25v.24a.75.75,0,0,1-1.5,0v-.24a3.75,3.75,0,0,1,7.5,0v.206a4.084,4.084,0,0,1-3.75,4.071V17.75a.75.75,0,0,1-1.5,0V15.558a1.018,1.018,0,0,1,1.018-1.018h.148A2.584,2.584,0,0,0,17,11.956V11.75A2.25,2.25,0,0,0,14.75,9.5Z" transform="translate(-2.75 -2)" fill="#b22382"/>
    <path id="Path_26329" data-name="Path 26329" d="M14.75,24.5a.75.75,0,1,0-.75-.75A.75.75,0,0,0,14.75,24.5Z" transform="translate(-3.5 -5.75)" fill="#b22382"/>
    <path id="Path_26330" data-name="Path 26330" d="M.162,22.784h0l.005-.007.022-.028.087-.112c.075-.1.182-.239.309-.412.255-.347.585-.814.894-1.3a8.872,8.872,0,0,0,.739-1.38,1.76,1.76,0,0,0,.12-.419,11.981,11.981,0,1,1,4.522,3.727,1.723,1.723,0,0,0-.173,0c-.183.007-.432.033-.735.076-.6.085-1.361.23-2.111.387s-1.475.324-2.017.452c-.271.064-.495.118-.651.156l-.18.044-.047.012-.015,0a.75.75,0,0,1-.812-.321ZM12,1.5A10.5,10.5,0,0,0,3.6,18.3a1.356,1.356,0,0,1,.234.962,3.164,3.164,0,0,1-.217.825,10.3,10.3,0,0,1-.867,1.633c-.073.115-.146.229-.22.34.32-.072.66-.146,1-.218.761-.16,1.556-.312,2.209-.4.325-.046.631-.079.888-.089a3.015,3.015,0,0,1,.38.006,1.281,1.281,0,0,1,.439.112A10.5,10.5,0,1,0,12,1.5Z" transform="translate(0 0)" fill="#b22382" fill-rule="evenodd"/>
  </g>
</svg>
