<svg xmlns="http://www.w3.org/2000/svg" width="48.15" height="48.082" viewBox="0 0 48.15 48.082">
  <g id="funding" transform="translate(-6.419 -6.5)">
    <path id="Path_26094" data-name="Path 26094" d="M302.5,327.655a1.626,1.626,0,0,1-1.973,1.133c-1.528-.374-5.145-1.245-5.145-1.245" transform="translate(-261.237 -290.42)" fill="none" stroke="#b22382" stroke-linecap="round" stroke-linejoin="round" stroke-width="2"/>
    <path id="Path_26095" data-name="Path 26095" d="M302.5,327.655a1.626,1.626,0,0,1-1.973,1.133c-1.528-.374-5.145-1.245-5.145-1.245" transform="translate(-261.237 -290.42)" fill="none" stroke="#b22382" stroke-linecap="round" stroke-linejoin="round" stroke-width="2"/>
    <path id="Path_26096" data-name="Path 26096" d="M22.712,310.873,16.256,296.8a1.057,1.057,0,0,0-1.4-.52l-6.738,3.09a1.057,1.057,0,0,0-.52,1.4l6.456,14.076a1.057,1.057,0,0,0,1.4.52l6.738-3.09A1.057,1.057,0,0,0,22.712,310.873Z" transform="translate(0 -261.961)" fill="none" stroke="#b22382" stroke-linecap="round" stroke-linejoin="round" stroke-width="2"/>
    <path id="Path_26097" data-name="Path 26097" d="M117.624,309.731l-4.292-9.357a1.164,1.164,0,0,0-1.543-.573l-3.241,1.486,5.262,11.473,3.241-1.486A1.164,1.164,0,0,0,117.624,309.731Z" transform="translate(-91.695 -265.15)" fill="none" stroke="#b22382" stroke-linecap="round" stroke-linejoin="round" stroke-width="2"/>
    <g id="Group_162406" data-name="Group 162406" transform="translate(26.907 7.5)">
      <circle id="Ellipse_942" data-name="Ellipse 942" cx="10.459" cy="10.459" r="10.459" transform="translate(0 0)" fill="none" stroke="#b22382" stroke-linecap="round" stroke-linejoin="round" stroke-width="2"/>
    </g>
    <path id="Path_26099" data-name="Path 26099" d="M188.767,283.7l4.085-1.807c.347-.178,2.095-1.226,1.312-3.006-.907-1.895-3-1-3.171-.933l-8.866,2.623a1.992,1.992,0,0,0-1.231-2.517c-5.094-2.033-5.7-2.377-6.99-2.4h0c-3.985.013-4.707.046-6.687.932a17.666,17.666,0,0,0-2.942,1.673,6.459,6.459,0,0,1-1.546.8l3.569,7.782,2.382-.9a7.985,7.985,0,0,1,5.324-.044l3.287,1.312a5.255,5.255,0,0,0,4.082-.245h0l4.428-1.959" transform="translate(-140.863 -243.34)" fill="none" stroke="#b22382" stroke-linecap="round" stroke-linejoin="round" stroke-width="2"/>
    <path id="Path_26100" data-name="Path 26100" d="M370.079,9.695a10.477,10.477,0,0,0-9.249-1.8,10.462,10.462,0,0,1,0,20.138A10.461,10.461,0,0,0,372.3,12.054" transform="translate(-320.626)" fill="none" stroke="#b22382" stroke-linecap="round" stroke-linejoin="round" stroke-width="2"/>
    <g id="Group_162408" data-name="Group 162408" transform="translate(-167.092 347.187)">
      <g id="g2128" transform="translate(201.459 -334.228)">
        <path id="path2130" d="M0,0H2.081A2.344,2.344,0,0,1,4.425,2.344V2.4A2.419,2.419,0,0,1,2.009,4.833H.777a.375.375,0,0,0-.294.608L4.1,10" transform="translate(0 0)" fill="none" stroke="#b22382" stroke-linecap="round" stroke-linejoin="round" stroke-width="2"/>
      </g>
      <g id="g2132" transform="translate(202.74 -334.228)">
        <path id="path2134" d="M0,0H4.716" fill="none" stroke="#b22382" stroke-linecap="round" stroke-linejoin="round" stroke-width="2"/>
      </g>
      <g id="g2136" transform="translate(201.459 -331.812)">
        <path id="path2138" d="M0,0H6" fill="none" stroke="#b22382" stroke-linecap="round" stroke-linejoin="round" stroke-width="2"/>
      </g>
    </g>
  </g>
</svg>
