<svg xmlns="http://www.w3.org/2000/svg" width="52" height="52" viewBox="0 0 52 52">
  <g id="Icon" transform="translate(-4 -3)">
    <g id="Group_162365" data-name="Group 162365" transform="translate(4 3)">
      <path id="Path_26067" data-name="Path 26067" d="M7.725,18.838l9.75,9.75a1.624,1.624,0,0,0,2.308-.006l17.875-18.1A1.626,1.626,0,0,0,35.344,8.2L18.619,25.133,10.026,16.54a1.626,1.626,0,1,0-2.3,2.3Z" transform="translate(3.312 7.61)" fill="#51a037" fill-rule="evenodd"/>
      <path id="Path_26068" data-name="Path 26068" d="M30,3A26,26,0,1,0,56,29,26.014,26.014,0,0,0,30,3Zm0,3.25A22.75,22.75,0,1,1,7.25,29,22.762,22.762,0,0,1,30,6.25Z" transform="translate(-4 -3)" fill="#51a037" fill-rule="evenodd"/>
    </g>
  </g>
</svg>
