<svg xmlns="http://www.w3.org/2000/svg" width="24" height="21.288" viewBox="0 0 24 21.288">
  <g id="home_3_" data-name="home (3)" transform="translate(0 -28.931)">
    <g id="Group_162722" data-name="Group 162722" transform="translate(2.891 37.502)">
      <g id="Group_162721" data-name="Group 162721" transform="translate(0 0)">
        <path id="Path_26303" data-name="Path 26303" d="M78.568,211.786v11.181H74.346v-4.836a.768.768,0,0,0-.768-.768h-5.4a.768.768,0,0,0-.768.768v4.836h-4.2V211.786H61.681v11.949a.768.768,0,0,0,.768.768H68.18a.768.768,0,0,0,.768-.768V218.9h3.864v4.836a.768.768,0,0,0,.768.768h5.757a.768.768,0,0,0,.768-.768V211.786Z" transform="translate(-61.681 -211.786)" fill="#b22382"/>
      </g>
    </g>
    <g id="Group_162724" data-name="Group 162724" transform="translate(0 28.931)">
      <g id="Group_162723" data-name="Group 162723" transform="translate(0 0)">
        <path id="Path_26304" data-name="Path 26304" d="M23.757,39.552,12.627,29.138a.768.768,0,0,0-1.044,0L.248,39.547a.768.768,0,0,0,1.039,1.13L12.1,30.745l10.61,9.928a.768.768,0,0,0,1.049-1.121Z" transform="translate(0 -28.931)" fill="#b22382"/>
      </g>
    </g>
  </g>
</svg>
