<svg xmlns="http://www.w3.org/2000/svg" width="18" height="18" viewBox="0 0 18 18">
  <g id="layer1" transform="translate(-0.529 -291.179)">
    <path id="path52" d="M9.519,291.179a.9.9,0,0,0-.891.915v7.234a.9.9,0,1,0,1.8,0v-7.234a.9.9,0,0,0-.911-.915Zm5.251,1.813c-.029,0-.059,0-.088,0a.9.9,0,0,0-.5,1.6,7.2,7.2,0,1,1-9.335.026.907.907,0,0,0,.1-1.275.9.9,0,0,0-1.269-.1,9.067,9.067,0,0,0,5.854,15.938,9.067,9.067,0,0,0,5.814-15.964.9.9,0,0,0-.577-.223Z" transform="translate(0 0)" fill="#673391"/>
  </g>
</svg>
