<svg xmlns="http://www.w3.org/2000/svg" width="18" height="20.027" viewBox="0 0 18 20.027">
  <g id="_28" data-name="28" transform="translate(-3.415 -2)">
    <path id="Path_26101" data-name="Path 26101" d="M21.046,16.774l-1.223-1.759a1.43,1.43,0,0,1-.257-.815V9.151a7.151,7.151,0,1,0-14.3,0V14.2a1.43,1.43,0,0,1-.257.815L3.783,16.774a1.43,1.43,0,0,0,1.058,2.388H8.911a3.576,3.576,0,0,0,7.008,0h4.069a1.43,1.43,0,0,0,1.058-2.388Zm-8.631,3.819a2.145,2.145,0,0,1-2.017-1.43h4.033a2.145,2.145,0,0,1-2.017,1.43Zm-7.573-2.86a.579.579,0,0,0,.086-.1l1.251-1.8a2.86,2.86,0,0,0,.515-1.63V9.151a5.721,5.721,0,1,1,11.442,0V14.2a2.86,2.86,0,0,0,.515,1.63l1.251,1.8a.579.579,0,0,0,.086.1Z" fill="#673391"/>
  </g>
</svg>
