<svg xmlns="http://www.w3.org/2000/svg" width="24" height="24" viewBox="0 0 24 24">
  <g id="layer1" transform="translate(-0.529 -291.179)">
    <path id="path52" d="M12.516,291.179a1.2,1.2,0,0,0-1.188,1.22v9.646a1.2,1.2,0,1,0,2.4,0V292.4a1.2,1.2,0,0,0-1.214-1.22Zm7,2.418c-.039,0-.078,0-.117,0a1.207,1.207,0,0,0-.666,2.128,9.6,9.6,0,1,1-12.447.035,1.209,1.209,0,0,0,.134-1.7,1.2,1.2,0,0,0-1.692-.134,12.09,12.09,0,0,0,7.805,21.25,12.089,12.089,0,0,0,7.752-21.285,1.2,1.2,0,0,0-.769-.3Z" transform="translate(0 0)" fill="#a92a81"/>
  </g>
</svg>
