<svg xmlns="http://www.w3.org/2000/svg" width="89.538" height="89.538" viewBox="0 0 89.538 89.538">
  <g id="invoice" transform="translate(-10.5 -10.5)">
    <path id="Path_26281" data-name="Path 26281" d="M55.117,13A42.117,42.117,0,1,0,97.234,55.117,42.117,42.117,0,0,0,55.117,13Z" transform="translate(0.277 0.277)" fill="#f5f2f9" opacity="0.52"/>
    <g id="Group_162692" data-name="Group 162692" transform="translate(11 11)">
      <path id="Path_26282" data-name="Path 26282" d="M83.553,11a4.553,4.553,0,1,0,4.553,4.553A4.553,4.553,0,0,0,83.553,11Z" transform="translate(-1.595 -11)" fill="none" stroke="#b22382" stroke-width="1"/>
      <path id="Path_26284" data-name="Path 26284" d="M90.681,76.075a2.277,2.277,0,1,0,2.277,2.277A2.277,2.277,0,0,0,90.681,76.075ZM15.553,59a4.553,4.553,0,1,0,4.553,4.553A4.553,4.553,0,0,0,15.553,59Z" transform="translate(-11 -4.361)" fill="none" stroke="#b22382" stroke-linecap="round" stroke-width="1"/>
      <g id="Group_162691" data-name="Group 162691" transform="translate(21.628 12.521)">
        <path id="Path_26283" data-name="Path 26283" d="M87.277,22a2.277,2.277,0,1,0,2.277,2.277A2.277,2.277,0,0,0,87.277,22Z" transform="translate(-22.393 -22)" fill="none" stroke="#b22382" stroke-width="0.5"/>
        <path id="Path_26285" data-name="Path 26285" d="M25.277,85a2.277,2.277,0,1,0,2.277,2.277A2.277,2.277,0,0,0,25.277,85Z" transform="translate(-23 -13.287)" fill="none" stroke="#b22382" stroke-width="0.5"/>
      </g>
    </g>
    <path id="Path_26287" data-name="Path 26287" d="M73.531,37.276l-14.2-14.442H36.874a6.2,6.2,0,0,0-6.124,6.228v43.89a6.194,6.194,0,0,0,6.124,6.228H67.407a6.2,6.2,0,0,0,6.124-6.228V37.276Z" transform="translate(2.731 1.637)" fill="#f8ecff" opacity="0"/>
    <path id="Path_26288" data-name="Path 26288" d="M60.158,80.073H36.971a6.981,6.981,0,0,1-6.921-7.024V29.159a6.982,6.982,0,0,1,6.921-7.026H59.428a.794.794,0,0,1,.568.238L74.2,36.814a.8.8,0,0,1,.229.559v29a.8.8,0,0,1-.8.8h0a.8.8,0,0,1-.8-.8V37.7L59.094,23.727H36.971a5.386,5.386,0,0,0-5.327,5.431V73.048a5.385,5.385,0,0,0,5.327,5.431H60.158a.8.8,0,1,1,0,1.594Zm7.345,0H64.332a.8.8,0,1,1,0-1.594H67.5a5.385,5.385,0,0,0,5.327-5.431V70.265a.8.8,0,1,1,1.594,0v2.783A6.981,6.981,0,0,1,67.5,80.073Z" transform="translate(2.635 1.54)" fill="#b22382"/>
    <path id="Path_26289" data-name="Path 26289" d="M55.5,23v8.022a6.167,6.167,0,0,0,6.089,6.207h8.14" transform="translate(6.154 1.66)" fill="#f4ddff" opacity="0"/>
    <path id="Path_26290" data-name="Path 26290" d="M72.7,37.8h-8.14A6.726,6.726,0,0,1,57.9,31.022V23h1.138v8.022a5.586,5.586,0,0,0,5.52,5.638H72.7ZM57.9,75.362H37.415A3.419,3.419,0,0,1,34,71.947V30.968a3.419,3.419,0,0,1,3.415-3.415H54.489a.569.569,0,0,1,0,1.138H37.415a2.279,2.279,0,0,0-2.277,2.277V71.947a2.279,2.279,0,0,0,2.277,2.277H57.9a.569.569,0,1,1,0,1.138Z" transform="translate(3.181 1.66)" fill="#b22382"/>
    <path id="Path_26291" data-name="Path 26291" d="M52.979,39.221H42.07a.569.569,0,0,1,0-1.138H52.979a.569.569,0,0,1,0,1.138Z" transform="translate(4.218 3.746)" fill="#b22382"/>
    <path id="Path_26292" data-name="Path 26292" d="M64.979,58.221H54.07a.569.569,0,0,1,0-1.138H64.979a.569.569,0,0,1,0,1.138Z" transform="translate(5.878 6.373)" fill="#b22382"/>
    <g id="Group_162682" data-name="Group 162682" transform="translate(59.19 41.829)">
      <path id="Path_26293" data-name="Path 26293" d="M59.786,39.221H53.9a.569.569,0,1,1,0-1.138h5.882a.569.569,0,1,1,0,1.138Z" transform="translate(-53.335 -38.083)" fill="#b22382"/>
    </g>
    <g id="Group_162683" data-name="Group 162683" transform="translate(43.157 69.338)">
      <path id="Path_26294" data-name="Path 26294" d="M50.918,62.819H39.535a.285.285,0,0,1,0-.569H50.918a.285.285,0,0,1,0,.569Z" transform="translate(-39.25 -62.25)" fill="#b22382"/>
    </g>
    <g id="Group_162684" data-name="Group 162684" transform="translate(56.817 69.338)">
      <path id="Path_26295" data-name="Path 26295" d="M62.918,62.819H51.535a.285.285,0,0,1,0-.569H62.918a.285.285,0,0,1,0,.569Z" transform="translate(-51.25 -62.25)" fill="#b22382"/>
    </g>
    <path id="Path_26297" data-name="Path 26297" d="M68.553,56.617H37.25V41.25h31.3Zm-30.734-.569H67.984V41.819H37.819Z" transform="translate(3.63 4.184)" fill="#b22382"/>
    <g id="Group_162686" data-name="Group 162686" transform="translate(43.157 49.987)">
      <path id="Path_26298" data-name="Path 26298" d="M65.716,45.819H39.535a.285.285,0,0,1,0-.569H65.716a.285.285,0,0,1,0,.569Z" transform="translate(-39.25 -45.25)" fill="#b22382"/>
    </g>
    <g id="Group_162687" data-name="Group 162687" transform="translate(43.157 54.54)">
      <path id="Path_26299" data-name="Path 26299" d="M57.747,49.819H39.535a.285.285,0,0,1,0-.569H57.747a.285.285,0,0,1,0,.569Z" transform="translate(-39.25 -49.25)" fill="#b22382"/>
    </g>
    <g id="Group_162688" data-name="Group 162688" transform="translate(63.646 54.54)">
      <path id="Path_26300" data-name="Path 26300" d="M63.226,49.819H57.535a.285.285,0,0,1,0-.569h5.692a.285.285,0,0,1,0,.569Z" transform="translate(-57.25 -49.25)" fill="#b22382"/>
    </g>
    <g id="Group_162689" data-name="Group 162689" transform="translate(47.71 45.434)">
      <path id="Path_26301" data-name="Path 26301" d="M43.535,56.617a.285.285,0,0,1-.285-.285v-14.8a.285.285,0,1,1,.569,0v14.8A.285.285,0,0,1,43.535,56.617Z" transform="translate(-43.25 -41.25)" fill="#b22382"/>
    </g>
    <g id="Group_162690" data-name="Group 162690" transform="translate(59.093 45.434)">
      <path id="Path_26302" data-name="Path 26302" d="M53.535,56.617a.285.285,0,0,1-.285-.285v-14.8a.285.285,0,1,1,.569,0v14.8A.285.285,0,0,1,53.535,56.617Z" transform="translate(-53.25 -41.25)" fill="#b22382"/>
    </g>
  </g>
</svg>
