<svg id="Component_33_2" data-name="Component 33 – 2" xmlns="http://www.w3.org/2000/svg" width="157" height="67" viewBox="0 0 157 67">
  <rect id="Rectangle_2" data-name="Rectangle 2" width="157" height="67" rx="9" fill="#fff"/>
  <g id="state-bank-of-india-logo" transform="translate(13.867 10.867)">
    <path id="Path_23208" data-name="Path 23208" d="M36.45,22.4a31.279,31.279,0,0,0-8.072-4.313c-3.7-1.534-6.9-2.849-6.9-5.3a3.472,3.472,0,0,1,1.413-2.761,6.153,6.153,0,0,1,3.764-1.162c4.629,0,8.319,3.276,8.351,3.3l.9.827L40.01,5.3l-.469-.5C39.36,4.621,35.047.16,26.714.16a15.724,15.724,0,0,0-10.345,3.6A11.944,11.944,0,0,0,12.145,12.9a10.575,10.575,0,0,0,4.094,8.537,32.261,32.261,0,0,0,7.993,4.369c3.8,1.641,7.092,3.058,7.092,5.577,0,1.924-1.3,3.978-4.949,3.978-5.233,0-9.434-3.983-9.471-4.025l-.79-.762L11.02,37.641l.511.567a17.387,17.387,0,0,0,3.848,2.96,21.564,21.564,0,0,0,10.879,2.9,14.941,14.941,0,0,0,10.526-3.788A12.316,12.316,0,0,0,40.6,31.223,10.86,10.86,0,0,0,36.45,22.4M79.522,43.436h9.55V.8H79.526ZM60.863,35.452H53.59V8.776H60c2.872,0,4.517,1.608,4.517,4.41,0,2.83-1.478,4.262-4.406,4.262H57.9V25.3h2.956a5.262,5.262,0,0,1,3.89,1.459,4.461,4.461,0,0,1,1.371,3.43,4.879,4.879,0,0,1-5.261,5.265M73.536,24.28a9.722,9.722,0,0,0-3.783-3.458,10.729,10.729,0,0,0,3.894-8.551,10.536,10.536,0,0,0-3.894-8.528A15.186,15.186,0,0,0,60.11.8H44.574V43.436H60.282A17.2,17.2,0,0,0,70.71,40.392a11.684,11.684,0,0,0,4.6-9.745,11.8,11.8,0,0,0-1.775-6.367" transform="translate(39.712 0.102)" fill="#250e66"/>
    <path id="Path_23209" data-name="Path 23209" d="M22.179.132a22.1,22.1,0,0,0-2.259,44.08V28.155a6.351,6.351,0,1,1,4.513,0V44.2A22.093,22.093,0,0,0,22.179.137" transform="translate(0 0)" fill="#03afef"/>
  </g>
</svg>
