<svg xmlns="http://www.w3.org/2000/svg" width="24" height="23.999" viewBox="0 0 24 23.999">
  <g id="Line" transform="translate(-2.249 -2.25)">
    <path id="Path_26305" data-name="Path 26305" d="M23.849,26.249H9.886a2.4,2.4,0,0,1-2.4-2.4v-.393a6.763,6.763,0,0,1,0-13.178V4.65a2.4,2.4,0,0,1,2.4-2.4h9.748a2.391,2.391,0,0,1,1.7.707l4.206,4.206a2.391,2.391,0,0,1,.707,1.745v14.94A2.4,2.4,0,0,1,23.849,26.249ZM8.8,23.631v.218A1.091,1.091,0,0,0,9.886,24.94H23.849a1.091,1.091,0,0,0,1.091-1.091V9.668H21.231a2.4,2.4,0,0,1-2.4-2.4V3.559H9.886A1.091,1.091,0,0,0,8.8,4.65V10.1h.218a6.763,6.763,0,1,1,0,13.527Zm.218-12.218a5.454,5.454,0,1,0,5.454,5.454,5.454,5.454,0,0,0-5.454-5.454ZM20.14,3.681V7.268a1.091,1.091,0,0,0,1.091,1.091h3.587a1.213,1.213,0,0,0-.2-.271L20.411,3.882a1.213,1.213,0,0,0-.271-.2ZM22.1,20.14H17.74a.655.655,0,0,1,0-1.309H22.1a.655.655,0,0,1,0,1.309ZM7.7,18.831a.646.646,0,0,1-.436-.218.655.655,0,0,1,0-.873l1.117-1.117V14.249a.655.655,0,0,1,1.309,0v2.618a.655.655,0,0,1-.192.463L8.141,18.613a.646.646,0,0,1-.436.218Zm14.4-2.182H18.613a.655.655,0,1,1,0-1.309H22.1a.655.655,0,1,1,0,1.309Zm0-3.491H17.74a.655.655,0,1,1,0-1.309H22.1a.655.655,0,1,1,0,1.309ZM15.995,9.668H13.377a.655.655,0,1,1,0-1.309h2.618a.655.655,0,1,1,0,1.309Z" transform="translate(0 0)" fill="#b22382"/>
  </g>
</svg>
