<svg xmlns="http://www.w3.org/2000/svg" xmlns:xlink="http://www.w3.org/1999/xlink" width="46" height="46" viewBox="0 0 46 46">
  <defs>
    <clipPath id="clip-path">
      <path id="path2088" d="M0-682.665H46v46H0Z" transform="translate(0 682.665)" fill="none"/>
    </clipPath>
  </defs>
  <g id="g2082" transform="translate(0 682.665)">
    <g id="g2084" transform="translate(0 -682.665)">
      <g id="g2086" clip-path="url(#clip-path)">
        <g id="g2092" transform="translate(23.733 10.916)">
          <path id="path2094" d="M0-14.928A3.837,3.837,0,0,1,4.092-15.7c1.175.524,2.08,1.657,3.351,1.856" transform="translate(0 16.007)" fill="none" stroke="#b22382" stroke-linecap="round" stroke-linejoin="round" stroke-width="2"/>
        </g>
        <g id="g2096" transform="translate(24.377 13.827)">
          <path id="path2098" d="M0-.029C2.021-.1,3.678,1.616,4.28,3.549c.447,1.435.694,3.015,1.7,4.129" transform="translate(0 0.032)" fill="none" stroke="#b22382" stroke-linecap="round" stroke-linejoin="round" stroke-width="2"/>
        </g>
        <g id="g2100" transform="translate(21.376 8.416)">
          <path id="path2102" d="M0-44.579a8.384,8.384,0,0,0,2.054-2.411q.245-.418.427-.81" transform="translate(0 47.8)" fill="none" stroke="#b22382" stroke-linecap="round" stroke-linejoin="round" stroke-width="2"/>
        </g>
        <g id="g2104" transform="translate(9.536 2.736)">
          <path id="path2106" d="M-42.22-123.194a8.384,8.384,0,0,1-2.054-2.411c-1.589-2.7-1.1-4.615.216-5.771a2.22,2.22,0,0,1,2.81-.372,1.863,1.863,0,0,0,1.958.066,2.864,2.864,0,0,1,1.465-.414,2.86,2.86,0,0,1,1.464.414,1.865,1.865,0,0,0,1.959-.066,2.22,2.22,0,0,1,2.81.372,3.456,3.456,0,0,1,1.135,1.9" transform="translate(45.27 132.094)" fill="none" stroke="#b22382" stroke-linecap="round" stroke-linejoin="round" stroke-width="2"/>
        </g>
        <g id="g2108" transform="translate(18.559 7.975)">
          <path id="path2110" d="M0-50.672a12.005,12.005,0,0,0,.5-1.772A14.905,14.905,0,0,0,.79-54.333" transform="translate(0 54.333)" fill="none" stroke="#b22382" stroke-linecap="round" stroke-linejoin="round" stroke-width="2"/>
        </g>
        <g id="g2112" transform="translate(14.615 7.975)">
          <path id="path2114" d="M0,0A14.731,14.731,0,0,0,.285,1.889a11.9,11.9,0,0,0,.5,1.772" fill="none" stroke="#b22382" stroke-linecap="round" stroke-linejoin="round" stroke-width="2"/>
        </g>
        <g id="g2116" transform="translate(21.98 15.163)">
          <path id="path2118" d="M0,0S11.308,13.526,11.308,19.012c0,.127,0,.252-.007.376" fill="none" stroke="#b22382" stroke-linecap="round" stroke-linejoin="round" stroke-width="2"/>
        </g>
        <g id="g2120" transform="translate(0.674 22.221)">
          <path id="path2122" d="M-335.654-291.249h-15.889a9.111,9.111,0,0,1-8.363-9.089c0-2.831,3.012-7.8,5.927-11.954" transform="translate(359.906 312.293)" fill="none" stroke="#b22382" stroke-linecap="round" stroke-linejoin="round" stroke-width="2"/>
        </g>
        <g id="g2124" transform="translate(8.475 15.163)">
          <path id="path2126" d="M-48.536,0s-1.552,1.857-3.507,4.474" transform="translate(52.043)" fill="none" stroke="#b22382" stroke-linecap="round" stroke-linejoin="round" stroke-width="2"/>
        </g>
        <g id="Group_162407" data-name="Group 162407" transform="translate(13.575 23.479)">
          <g id="g2128" transform="translate(0 0)">
            <path id="path2130" d="M0,0H2.364A2.663,2.663,0,0,1,5.027,2.663v.069A2.748,2.748,0,0,1,2.282,5.49H.883a.426.426,0,0,0-.334.691l4.114,5.179" transform="translate(0 0)" fill="none" stroke="#b22382" stroke-linecap="round" stroke-linejoin="round" stroke-width="2"/>
          </g>
          <g id="g2132" transform="translate(1.455 0)">
            <path id="path2134" d="M0,0H5.357" transform="translate(0 0)" fill="none" stroke="#b22382" stroke-linecap="round" stroke-linejoin="round" stroke-width="2"/>
          </g>
          <g id="g2136" transform="translate(0 2.745)">
            <path id="path2138" d="M0,0H6.812" transform="translate(0 0)" fill="none" stroke="#b22382" stroke-linecap="round" stroke-linejoin="round" stroke-width="2"/>
          </g>
        </g>
        <g id="g2140" transform="translate(9.531 11.637)">
          <path id="path2142" d="M0-24.4a1.763,1.763,0,0,0,1.763,1.763H13.136A1.763,1.763,0,0,0,14.9-24.4a1.763,1.763,0,0,0-1.763-1.763H1.763A1.763,1.763,0,0,0,0-24.4Z" transform="translate(0 26.164)" fill="none" stroke="#b22382" stroke-linecap="round" stroke-linejoin="round" stroke-width="2"/>
        </g>
        <g id="g2144" transform="translate(21.919 38.908)">
          <path id="path2146" d="M-30.148,0a2.178,2.178,0,0,0-2.178,2.178,2.178,2.178,0,0,0,2.178,2.178h11.765A2.178,2.178,0,0,0-16.2,2.178,2.179,2.179,0,0,0-18.383,0" transform="translate(32.327)" fill="none" stroke="#b22382" stroke-linecap="round" stroke-linejoin="round" stroke-width="2"/>
        </g>
        <g id="g2148" transform="translate(21.919 34.551)">
          <path id="path2150" d="M-223.057-28.2c0,.047.005.093.005.141a2.178,2.178,0,0,1-2.179,2.178h-11.765a2.178,2.178,0,0,1-2.178-2.178,2.178,2.178,0,0,1,2.178-2.179h11.765a2.169,2.169,0,0,1,1.208.366" transform="translate(239.173 30.24)" fill="none" stroke="#b22382" stroke-linecap="round" stroke-linejoin="round" stroke-width="2"/>
        </g>
        <g id="g2152" transform="translate(35.086 28.718)">
          <path id="path2154" d="M-70.72-40.119l-1.044-1.809a2.178,2.178,0,0,0-2.976-.8,2.178,2.178,0,0,0-.8,2.976l5.883,10.189a2.179,2.179,0,0,0,2.976.8,2.179,2.179,0,0,0,.8-2.976L-69.148-37.4" transform="translate(75.829 43.018)" fill="none" stroke="#b22382" stroke-linecap="round" stroke-linejoin="round" stroke-width="2"/>
        </g>
      </g>
    </g>
  </g>
</svg>
