<svg xmlns="http://www.w3.org/2000/svg" xmlns:xlink="http://www.w3.org/1999/xlink" width="202.815" height="48" viewBox="0 0 202.815 48">
  <defs>
    <linearGradient id="linear-gradient" x1="0.018" y1="0.586" x2="0.992" y2="0.571" gradientUnits="objectBoundingBox">
      <stop offset="0" stop-color="#ff2c47"/>
      <stop offset="0.174" stop-color="#c11f53"/>
      <stop offset="0.467" stop-color="#510869"/>
      <stop offset="0.574" stop-color="#280071"/>
      <stop offset="1" stop-color="#280071"/>
    </linearGradient>
    <clipPath id="clip-path">
      <path id="Path_26053" data-name="Path 26053" d="M62.069,653.985c3.029-.444,6.7-2.423,8.319-5.089-5.614-7.673-8.521-14.741-9.289-24.8h7.148a38.132,38.132,0,0,0,5.815,19.385c2.625-5.614,3.958-10.581,4.4-19.385h7.067a57.645,57.645,0,0,1-7.471,24.07c-4.321,7.592-9.45,10.985-14.862,11.873Z" transform="translate(-61.1 -624.1)" fill="url(#linear-gradient)"/>
    </clipPath>
    <clipPath id="clip-path-2">
      <path id="Path_26054" data-name="Path 26054" d="M124.7,636.271c0-8.239,4.967-13.771,12.883-13.771,8,0,12.843,5.533,12.843,13.771,0,8.319-4.846,13.812-12.843,13.812C129.627,650.083,124.7,644.55,124.7,636.271Zm18.456,0c0-4.846-1.9-7.875-5.573-7.875-3.594,0-5.614,3.029-5.614,7.875,0,4.887,2.019,7.956,5.614,7.956C141.218,644.187,143.156,641.158,143.156,636.271Z" transform="translate(-124.7 -622.5)" fill="url(#linear-gradient)"/>
    </clipPath>
    <clipPath id="clip-path-3">
      <path id="Path_26055" data-name="Path 26055" d="M197.8,624.762a31.783,31.783,0,0,1,11.671-2.262c7.512,0,11.873,3.715,11.873,10.581v16.4h-7.108V633.606c0-3.554-1.656-5.21-4.806-5.21a10.908,10.908,0,0,0-4.523.929v20.152H197.84V624.762Z" transform="translate(-197.8 -622.5)" fill="url(#linear-gradient)"/>
    </clipPath>
    <clipPath id="clip-path-4">
      <path id="Path_26056" data-name="Path 26056" d="M264.7,636.271c0-8.239,4.967-13.771,12.883-13.771,8,0,12.843,5.533,12.843,13.771,0,8.319-4.846,13.812-12.843,13.812C269.667,650.083,264.7,644.55,264.7,636.271Zm18.456,0c0-4.846-1.9-7.875-5.573-7.875-3.594,0-5.614,3.029-5.614,7.875,0,4.887,2.019,7.956,5.614,7.956C281.258,644.187,283.156,641.158,283.156,636.271Z" transform="translate(-264.7 -622.5)" fill="url(#linear-gradient)"/>
    </clipPath>
  </defs>
  <g id="Group_162188" data-name="Group 162188" transform="translate(-144.8 -26.461)">
    <g id="SBI_YONO_Logo" transform="translate(144.8 26.461)">
      <g id="Group_162187" data-name="Group 162187" transform="translate(0 0)">
        <g id="XMLID_1460_" transform="translate(0 0.646)">
          <g id="Group_162174" data-name="Group 162174" clip-path="url(#clip-path)">
            <path id="XMLID_1463_" d="M150.361,456.213,30.013,576.561-48.9,497.648,71.448,377.3Z" transform="translate(4.476 -476.971)" fill="url(#linear-gradient)"/>
          </g>
        </g>
        <g id="XMLID_1455_" transform="translate(25.685)">
          <g id="Group_162175" data-name="Group 162175" clip-path="url(#clip-path-2)">
            <path id="XMLID_1459_" d="M147.161,459.313,26.813,579.661-52.1,500.748,68.248,380.4Z" transform="translate(-19.301 -478.173)" fill="url(#linear-gradient)"/>
          </g>
        </g>
        <g id="XMLID_1451_" transform="translate(55.207)">
          <g id="Group_162176" data-name="Group 162176" transform="translate(0)" clip-path="url(#clip-path-3)">
            <path id="XMLID_1454_" d="M147.161,459.313,26.813,579.661-52.1,500.748,68.248,380.4Z" transform="translate(-48.823 -478.173)" fill="url(#linear-gradient)"/>
          </g>
        </g>
        <g id="XMLID_1446_" transform="translate(82.225)">
          <g id="Group_162177" data-name="Group 162177" clip-path="url(#clip-path-4)">
            <path id="XMLID_1450_" d="M191.661,459.313,71.313,579.661-7.6,500.748,112.748,380.4Z" transform="translate(-102.369 -478.173)" fill="url(#linear-gradient)"/>
          </g>
        </g>
      </g>
      <g id="XMLID_1435_" transform="translate(122.287 0)">
        <path id="XMLID_1442_" d="M458.312,636.533a19.7,19.7,0,0,0-5.048-2.706c-2.3-.969-4.321-1.777-4.321-3.312a2.181,2.181,0,0,1,.888-1.737,3.765,3.765,0,0,1,2.342-.727,8.762,8.762,0,0,1,5.21,2.06l.565.525,2.585-4.806-.283-.323a11.394,11.394,0,0,0-8.037-2.908,9.753,9.753,0,0,0-6.462,2.262,7.471,7.471,0,0,0-2.625,5.735,6.6,6.6,0,0,0,2.544,5.331,20.792,20.792,0,0,0,5.008,2.746c2.383,1.01,4.442,1.9,4.442,3.513,0,1.212-.808,2.5-3.11,2.5-3.271,0-5.9-2.5-5.937-2.5l-.485-.485-3.19,4.4.323.363a11.121,11.121,0,0,0,2.423,1.858,13.306,13.306,0,0,0,6.825,1.817,9.212,9.212,0,0,0,6.583-2.383,7.739,7.739,0,0,0,2.383-5.694A7.006,7.006,0,0,0,458.312,636.533Z" transform="translate(-410.697 -622.56)" fill="#280071"/>
        <rect id="XMLID_1441_" width="5.977" height="26.695" transform="translate(74.551 0.485)" fill="#280071"/>
        <path id="XMLID_1438_" d="M512.533,638.341a6.5,6.5,0,0,0-2.383-2.181,7.12,7.12,0,0,0,0-10.7,9.468,9.468,0,0,0-6.017-1.858H494.4v26.695h9.814a10.825,10.825,0,0,0,6.542-1.9,7.848,7.848,0,0,0,1.777-10.056Zm-7.956,6.987h-4.564v-16.72h4a2.532,2.532,0,0,1,2.827,2.746c0,1.777-.929,2.665-2.746,2.665h-1.373v4.927h1.858a3.225,3.225,0,0,1,2.423.929,2.831,2.831,0,0,1,.848,2.14A3.026,3.026,0,0,1,504.577,645.327Z" transform="translate(-441.697 -623.156)" fill="#280071"/>
        <path id="XMLID_1436_" d="M377.712,622.5a13.829,13.829,0,0,0-1.414,27.583V640.027a3.958,3.958,0,1,1,2.827,0v10.056a13.829,13.829,0,0,0-1.413-27.583Z" transform="translate(-363.9 -622.5)" fill="#00a9e0"/>
      </g>
    </g>
    <path id="Path_26057" data-name="Path 26057" d="M1.3-12.937H5.48a3.742,3.742,0,0,1,1.285.217,3.278,3.278,0,0,1,1.038.6,2.852,2.852,0,0,1,.695.889,2.4,2.4,0,0,1,.254,1.091,2.392,2.392,0,0,1-.411,1.427,2.7,2.7,0,0,1-1.023.874v.12a2.905,2.905,0,0,1,1.322.934,2.467,2.467,0,0,1,.5,1.576A2.688,2.688,0,0,1,8.864-3.98a2.853,2.853,0,0,1-.755.934A3.465,3.465,0,0,1,7-2.448a4.344,4.344,0,0,1-1.367.209H1.3ZM5.33-8.574a1.465,1.465,0,0,0,1.083-.381,1.235,1.235,0,0,0,.381-.9,1.223,1.223,0,0,0-.374-.9,1.393,1.393,0,0,0-1.031-.374H3.313v2.555Zm.224,4.482A1.634,1.634,0,0,0,6.72-4.473a1.286,1.286,0,0,0,.4-.979,1.322,1.322,0,0,0-.411-.994,1.69,1.69,0,0,0-1.218-.4H3.313v2.749ZM14.609-2A4.589,4.589,0,0,1,12.9-2.306,3.528,3.528,0,0,1,11.59-3.2a4.1,4.1,0,0,1-.837-1.412,5.555,5.555,0,0,1-.3-1.89v-6.44h2.017v6.559a3.421,3.421,0,0,0,.134.986,2.217,2.217,0,0,0,.4.777,1.87,1.87,0,0,0,.672.515,2.182,2.182,0,0,0,.926.187A2.22,2.22,0,0,0,15.55-4.1a1.87,1.87,0,0,0,.672-.515,2.217,2.217,0,0,0,.4-.777,3.421,3.421,0,0,0,.134-.986v-6.559h2.017V-6.5a5.49,5.49,0,0,1-.291,1.83,4.03,4.03,0,0,1-.837,1.419,3.8,3.8,0,0,1-1.315.919A4.352,4.352,0,0,1,14.609-2Zm9.353,0a4.421,4.421,0,0,1-1.315-.194,3.8,3.8,0,0,1-1.15-.583,4.033,4.033,0,0,1-.911-.949,4.593,4.593,0,0,1-.613-1.307l1.9-.747A2.9,2.9,0,0,0,22.6-4.443a1.844,1.844,0,0,0,1.375.53,2.218,2.218,0,0,0,.605-.082,1.792,1.792,0,0,0,.523-.239,1.16,1.16,0,0,0,.366-.4,1.108,1.108,0,0,0,.134-.553,1.329,1.329,0,0,0-.1-.538,1.258,1.258,0,0,0-.351-.448,3.117,3.117,0,0,0-.642-.4,9.7,9.7,0,0,0-.979-.4l-.657-.239a5.054,5.054,0,0,1-.874-.4,3.829,3.829,0,0,1-.8-.613,3.021,3.021,0,0,1-.59-.844,2.52,2.52,0,0,1-.232-1.1,2.814,2.814,0,0,1,.247-1.173,2.867,2.867,0,0,1,.7-.956,3.292,3.292,0,0,1,1.091-.642,4.1,4.1,0,0,1,1.412-.232,4.056,4.056,0,0,1,1.4.217,3.435,3.435,0,0,1,1,.553,3.078,3.078,0,0,1,.665.74,3.565,3.565,0,0,1,.374.762l-1.778.747a1.893,1.893,0,0,0-.545-.807,1.554,1.554,0,0,0-1.083-.359,1.844,1.844,0,0,0-1.091.306.938.938,0,0,0-.433.8,1.013,1.013,0,0,0,.418.814,4.56,4.56,0,0,0,1.33.65l.672.224a7.7,7.7,0,0,1,1.173.515,3.675,3.675,0,0,1,.911.695,2.826,2.826,0,0,1,.583.919,3.244,3.244,0,0,1,.2,1.188,2.925,2.925,0,0,1-.336,1.442,3.083,3.083,0,0,1-.859.994,3.736,3.736,0,0,1-1.18.583A4.523,4.523,0,0,1,23.962-2Zm5.319-10.937H31.3v10.7H29.281Zm4.169,0h2.346l4.3,7.172h.12L40.1-7.827v-5.11h2v10.7H39.979L35.436-9.814h-.12l.12,2.062v5.513H33.449Zm12.819,1.912v2.48h4.288v1.912H46.269v2.48h4.766v1.912H44.252v-10.7h6.783v1.912ZM56.16-2a4.421,4.421,0,0,1-1.315-.194,3.8,3.8,0,0,1-1.15-.583,4.033,4.033,0,0,1-.911-.949,4.593,4.593,0,0,1-.613-1.307l1.9-.747A2.9,2.9,0,0,0,54.8-4.443a1.844,1.844,0,0,0,1.375.53,2.218,2.218,0,0,0,.605-.082,1.792,1.792,0,0,0,.523-.239,1.16,1.16,0,0,0,.366-.4,1.108,1.108,0,0,0,.134-.553,1.329,1.329,0,0,0-.1-.538,1.258,1.258,0,0,0-.351-.448,3.117,3.117,0,0,0-.642-.4,9.7,9.7,0,0,0-.979-.4l-.657-.239a5.054,5.054,0,0,1-.874-.4,3.83,3.83,0,0,1-.8-.613,3.021,3.021,0,0,1-.59-.844,2.52,2.52,0,0,1-.232-1.1,2.814,2.814,0,0,1,.247-1.173,2.867,2.867,0,0,1,.7-.956,3.292,3.292,0,0,1,1.091-.642,4.1,4.1,0,0,1,1.412-.232,4.056,4.056,0,0,1,1.4.217,3.435,3.435,0,0,1,1,.553,3.078,3.078,0,0,1,.665.74,3.565,3.565,0,0,1,.374.762l-1.778.747a1.893,1.893,0,0,0-.545-.807,1.554,1.554,0,0,0-1.083-.359,1.844,1.844,0,0,0-1.091.306.938.938,0,0,0-.433.8,1.013,1.013,0,0,0,.418.814,4.56,4.56,0,0,0,1.33.65l.672.224a7.7,7.7,0,0,1,1.173.515,3.675,3.675,0,0,1,.911.695,2.826,2.826,0,0,1,.583.919,3.244,3.244,0,0,1,.2,1.188,2.925,2.925,0,0,1-.336,1.442,3.083,3.083,0,0,1-.859.994,3.736,3.736,0,0,1-1.18.583A4.523,4.523,0,0,1,56.16-2Zm8.591,0a4.421,4.421,0,0,1-1.315-.194,3.8,3.8,0,0,1-1.15-.583,4.033,4.033,0,0,1-.911-.949,4.593,4.593,0,0,1-.613-1.307l1.9-.747a2.9,2.9,0,0,0,.732,1.337,1.844,1.844,0,0,0,1.375.53,2.218,2.218,0,0,0,.605-.082,1.792,1.792,0,0,0,.523-.239,1.16,1.16,0,0,0,.366-.4,1.108,1.108,0,0,0,.134-.553,1.329,1.329,0,0,0-.1-.538,1.258,1.258,0,0,0-.351-.448,3.117,3.117,0,0,0-.642-.4,9.705,9.705,0,0,0-.979-.4l-.657-.239a5.054,5.054,0,0,1-.874-.4,3.829,3.829,0,0,1-.8-.613,3.021,3.021,0,0,1-.59-.844,2.52,2.52,0,0,1-.232-1.1,2.814,2.814,0,0,1,.247-1.173,2.867,2.867,0,0,1,.7-.956,3.292,3.292,0,0,1,1.091-.642,4.1,4.1,0,0,1,1.412-.232,4.056,4.056,0,0,1,1.4.217,3.435,3.435,0,0,1,1,.553,3.078,3.078,0,0,1,.665.74,3.565,3.565,0,0,1,.374.762l-1.778.747a1.893,1.893,0,0,0-.545-.807,1.554,1.554,0,0,0-1.083-.359,1.844,1.844,0,0,0-1.091.306.938.938,0,0,0-.433.8,1.013,1.013,0,0,0,.418.814,4.56,4.56,0,0,0,1.33.65l.672.224a7.7,7.7,0,0,1,1.173.515,3.675,3.675,0,0,1,.911.695,2.826,2.826,0,0,1,.583.919,3.244,3.244,0,0,1,.2,1.188,2.925,2.925,0,0,1-.336,1.442,3.083,3.083,0,0,1-.859.994,3.736,3.736,0,0,1-1.18.583A4.523,4.523,0,0,1,64.751-2Z" transform="translate(211.151 76.461)" fill="#00a9e0"/>
  </g>
</svg>
