<svg xmlns="http://www.w3.org/2000/svg" width="21.998" height="24" viewBox="0 0 21.998 24">
  <g id="Layer_2" data-name="Layer 2" transform="translate(-2 -1)">
    <path id="Path_26315" data-name="Path 26315" d="M15.667,4h-4a.667.667,0,1,0,0,1.333h4a.667.667,0,1,0,0-1.333Z" transform="translate(-3 -1)" fill="#b22382"/>
    <path id="Path_26316" data-name="Path 26316" d="M23.887,15.3l-.92-1.387a1.74,1.74,0,0,1-.3-.987V10.473a4.12,4.12,0,0,0-3.333-4.08V3.533A2.533,2.533,0,0,0,16.8,1H4.533A2.533,2.533,0,0,0,2,3.533V22.467A2.533,2.533,0,0,0,4.533,25H16.8a2.533,2.533,0,0,0,2.533-2.533V18.24a2.667,2.667,0,0,0,1.907-1.907h2.093a.665.665,0,0,0,.553-1.033ZM3.333,3.533a1.207,1.207,0,0,1,1.2-1.2H16.8a1.207,1.207,0,0,1,1.2,1.2v2.86a4,4,0,0,0-3.333,3.94v2.593a1.74,1.74,0,0,1-.3.987l-.92,1.387A.671.671,0,0,0,14,16.333h2.093A2.667,2.667,0,0,0,18,18.24V21H3.333ZM16.8,23.667H4.533a1.207,1.207,0,0,1-1.2-1.2v-.133H18v.133a1.207,1.207,0,0,1-1.2,1.2ZM18.667,17a1.333,1.333,0,0,1-1.147-.667h2.293A1.333,1.333,0,0,1,18.667,17Zm-3.42-2,.233-.347A3.107,3.107,0,0,0,16,12.927V10.333a2.647,2.647,0,0,1,2.933-2.667,2.76,2.76,0,0,1,2.4,2.807v2.453a3.107,3.107,0,0,0,.52,1.727l.233.347Z" fill="#b22382"/>
  </g>
</svg>
