<svg id="surface1" xmlns="http://www.w3.org/2000/svg" width="24" height="26.381" viewBox="0 0 24 26.381">
  <path id="Path_26268" data-name="Path 26268" d="M17.979,11.42V6.428a.578.578,0,0,0-.159-.379L12.223.17a.558.558,0,0,0-.4-.17H2.947A2.957,2.957,0,0,0,0,2.975V19.755a2.938,2.938,0,0,0,2.947,2.953h7A7.561,7.561,0,1,0,17.979,11.42ZM12.371,1.93l3.755,3.953H13.691a1.328,1.328,0,0,1-1.32-1.325ZM2.947,21.608A1.842,1.842,0,0,1,1.1,19.755V2.975A1.857,1.857,0,0,1,2.947,1.1h8.325V4.558a2.424,2.424,0,0,0,2.419,2.425H16.88v4.294c-.165-.005-.3-.022-.44-.022a7.672,7.672,0,0,0-5.014,1.891H4.443a.55.55,0,1,0,0,1.1H10.4a8.748,8.748,0,0,0-.968,1.7H4.443a.55.55,0,0,0,0,1.1H9.078a7.546,7.546,0,0,0,.33,4.564H2.947Zm13.487,3.678a6.461,6.461,0,1,1,6.46-6.461A6.467,6.467,0,0,1,16.434,25.287Zm0,0" transform="translate(0 0)" fill="#b22382"/>
  <path id="Path_26269" data-name="Path 26269" d="M76.1,202.784h5.57a.55.55,0,1,0,0-1.1H76.1a.55.55,0,1,0,0,1.1Zm0,0" transform="translate(-71.658 -191.292)" fill="#b22382"/>
  <path id="Path_26270" data-name="Path 26270" d="M305.731,311.3h-1.573V309.05a.55.55,0,1,0-1.1,0v2.8a.547.547,0,0,0,.544.55h2.133a.55.55,0,1,0-.005-1.1Zm0,0" transform="translate(-287.444 -292.605)" fill="#b22382"/>
  <path id="Path_26271" data-name="Path 26271" d="M215.611,256.961a5.6,5.6,0,1,0,5.6,5.6A5.608,5.608,0,0,0,215.611,256.961Zm0,10.106a4.5,4.5,0,1,1,4.5-4.5A4.505,4.505,0,0,1,215.611,267.067Zm0,0" transform="translate(-199.187 -243.721)" fill="#b22382"/>
</svg>
