<svg xmlns="http://www.w3.org/2000/svg" width="24" height="25.961" viewBox="0 0 24 25.961">
  <g id="time-is-money_1_" data-name="time-is-money (1)" transform="translate(-18.15)">
    <g id="Group_162668" data-name="Group 162668" transform="translate(18.15)">
      <g id="Group_162667" data-name="Group 162667" transform="translate(0)">
        <path id="Path_26272" data-name="Path 26272" d="M41.813,16.8a6.984,6.984,0,0,0-2.868-3.743,10.549,10.549,0,1,0-10.489,8.037A7.015,7.015,0,0,0,41.813,16.8ZM19.23,10.548a9.468,9.468,0,0,1,18.937,0,9.656,9.656,0,0,1-.205,1.971,6.957,6.957,0,0,0-1.226-.41,8.413,8.413,0,0,0,.151-1.566,8.185,8.185,0,1,0-8.761,8.172c0,.076-.005.151-.005.232a6.934,6.934,0,0,0,.081,1.059A9.489,9.489,0,0,1,19.23,10.548Zm9.015,7.086a7.08,7.08,0,1,1,7.427-5.687c-.173-.011-.351-.022-.535-.022A7,7,0,0,0,28.245,17.635ZM40.3,21.864a5.935,5.935,0,0,1-11.1-2.922,4.8,4.8,0,0,1,.043-.681v-.005a5.921,5.921,0,0,1,5.893-5.245,5.954,5.954,0,0,1,2.917.767A5.933,5.933,0,0,1,40.3,21.864Z" transform="translate(-18.15)" fill="#b22382"/>
      </g>
    </g>
    <g id="Group_162670" data-name="Group 162670" transform="translate(27.721 5.871)">
      <g id="Group_162669" data-name="Group 162669">
        <path id="Path_26273" data-name="Path 26273" d="M199.541,113.539H196.43v-4.3a.54.54,0,1,0-1.08,0v4.823a.538.538,0,0,0,.519.556h3.673a.54.54,0,0,0,0-1.08Z" transform="translate(-195.35 -108.7)" fill="#b22382"/>
      </g>
    </g>
    <g id="Group_162672" data-name="Group 162672" transform="translate(32.501 15.464)">
      <g id="Group_162671" data-name="Group 162671">
        <path id="Path_26274" data-name="Path 26274" d="M288.571,288.077h-.713a2.9,2.9,0,0,0-.3-.7h1.015a.534.534,0,0,0,.54-.535.542.542,0,0,0-.54-.54h-4.186a.54.54,0,0,0,0,1.08h1.2a1.33,1.33,0,0,1,1.134.7h-2.333a.54.54,0,0,0,0,1.08h2.333a.993.993,0,0,1-.243.367,1.256,1.256,0,0,1-.891.389h-1.2a.531.531,0,0,0-.373.918l2.992,2.83a.543.543,0,0,0,.745-.789l-2.015-1.907a2.357,2.357,0,0,0,2.117-1.815h.718a.54.54,0,1,0,0-1.08Z" transform="translate(-283.844 -286.3)" fill="#b22382"/>
      </g>
    </g>
  </g>
</svg>
