<svg xmlns="http://www.w3.org/2000/svg" width="25" height="25" viewBox="0 0 25 25">
  <g id="Group_162534" data-name="Group 162534" transform="translate(-219.5 -556.5)">
    <circle id="Ellipse_944" data-name="Ellipse 944" cx="12" cy="12" r="12" transform="translate(220 557)" fill="#fff" stroke="#b22382" stroke-width="1"/>
    <g id="telephone-call" transform="translate(226.955 563.955)">
      <path id="Path_22738" data-name="Path 22738" d="M11.872,9.7A9.784,9.784,0,0,0,9.4,8.318c-.144.026-.254.148-.55.5A4.212,4.212,0,0,1,8.4,9.3a3.877,3.877,0,0,1-.856-.317A5.3,5.3,0,0,1,5.1,6.541a3.877,3.877,0,0,1-.317-.856,4.212,4.212,0,0,1,.485-.448c.352-.3.475-.4.5-.55a9.805,9.805,0,0,0-1.38-2.469C4.283,2.088,4.183,2,4.054,2A7.183,7.183,0,0,0,2,4.35c0,.022.036,2.188,2.771,4.97,2.783,2.735,4.948,2.771,4.97,2.771a7.183,7.183,0,0,0,2.35-2.054C12.091,9.908,12,9.808,11.872,9.7Z" transform="translate(-2 -2)" fill="#b22382"/>
      <path id="Path_22739" data-name="Path 22739" d="M19.162,9.883h.721A2.886,2.886,0,0,0,17,7v.721A2.164,2.164,0,0,1,19.162,9.883Z" transform="translate(-11.594 -5.198)" fill="#b22382"/>
      <path id="Path_22740" data-name="Path 22740" d="M20.964,6.685h.721A4.69,4.69,0,0,0,17,2v.721A3.969,3.969,0,0,1,20.964,6.685Z" transform="translate(-11.594 -2)" fill="#b22382"/>
    </g>
  </g>
</svg>
