<svg xmlns="http://www.w3.org/2000/svg" width="24" height="21.861" viewBox="0 0 24 21.861">
  <path id="discuss-issue" d="M18.362,21.328a1.99,1.99,0,0,1-.916,1.494c-.146.123-.419.347-.418.431a.586.586,0,0,1-.59.591h0a.587.587,0,0,1-.595-.581,1.782,1.782,0,0,1,.843-1.348c.3-.249.491-.424.491-.585a.589.589,0,0,0-1.177,0,.6.6,0,0,1-1.19,0,1.779,1.779,0,0,1,3.558,0ZM16.45,24.393a.584.584,0,0,0-.582.6v0a.582.582,0,0,0,.582.593.6.6,0,0,0,0-1.192ZM4.456,28.538a.6.6,0,1,0,0,1.19h.05a.6.6,0,1,0,0-1.19Zm2.068,0a.6.6,0,1,0,0,1.19h.05a.6.6,0,1,0,0-1.19ZM24,19.034v6.7A2.86,2.86,0,0,1,21.143,28.6H13.426c-.151,0-.275,0-.379,0s-.231,0-.279,0c-.05.033-.172.145-.289.253L12.322,29l-2.183,1.99a.609.609,0,0,1-1.015-.439V24.24H2.891a1.705,1.705,0,0,0-1.7,1.691v6.7a1.679,1.679,0,0,0,1.7,1.661h8.62a.6.6,0,0,1,.4.168l1.779,1.64V30.442a.6.6,0,1,1,1.19,0v7a.587.587,0,0,1-.351.541.571.571,0,0,1-.236.047.6.6,0,0,1-.4-.162L11.28,35.48H2.891A2.87,2.87,0,0,1,0,32.629v-6.7A2.9,2.9,0,0,1,2.891,23.05H9.124V19.034a2.886,2.886,0,0,1,2.9-2.86h9.118A2.849,2.849,0,0,1,24,19.034Zm-1.19,0a1.658,1.658,0,0,0-1.667-1.669H12.025a1.7,1.7,0,0,0-1.71,1.669V29.2l1.2-1.081c.055-.051.117-.1.163-.139a1.5,1.5,0,0,1,1.4-.569c.1,0,.213,0,.354,0h7.717a1.669,1.669,0,0,0,1.667-1.683v-6.7Z" transform="translate(0 -16.174)" fill="#b22382"/>
</svg>
