<svg xmlns="http://www.w3.org/2000/svg" width="14.977" height="14.558" viewBox="0 0 14.977 14.558">
  <g id="layer1" transform="translate(-0.374 -291.102)">
    <path id="path9551" d="M2.043,293.892l-.269-1.129a.708.708,0,1,0-1.377.329l.7,2.917a.707.707,0,0,0,.851.522l2.919-.7a.709.709,0,1,0-.334-1.379l-1.4.338A6.032,6.032,0,0,1,13.872,297.9a.709.709,0,1,0,1.409-.152A7.542,7.542,0,0,0,7.454,291.1a7.6,7.6,0,0,0-5.412,2.79Zm8.8,7.016a.709.709,0,1,0,.33,1.377l1.4-.338A6.034,6.034,0,0,1,1.837,298.84a.707.707,0,1,0-1.4.152,7.445,7.445,0,0,0,13.234,3.855l.274,1.13a.707.707,0,1,0,1.373-.329l-.7-2.919a.716.716,0,0,0-.8-.533Z" transform="translate(0)" fill="#673391"/>
  </g>
</svg>
