<svg xmlns="http://www.w3.org/2000/svg" xmlns:xlink="http://www.w3.org/1999/xlink" width="180" height="150.235" viewBox="0 0 180 150.235">
  <defs>
    <linearGradient id="linear-gradient" x1="0.018" y1="0.586" x2="0.992" y2="0.571" gradientUnits="objectBoundingBox">
      <stop offset="0" stop-color="#a5235a"/>
      <stop offset="1" stop-color="#33026f"/>
    </linearGradient>
  </defs>
  <g id="Update-rafiki" transform="translate(-56.11 -86.676)">
    <g id="freepik--background-simple--inject-14" transform="translate(62.86 90.027)">
      <path id="Path_26597" data-name="Path 26597" d="M87.872,102.775c.37-.232.754-.446,1.138-.67,9.106-5.058,20.627-4.464,30.14-.223s17.226,11.758,23.551,20.034,11.445,17.409,17.181,26.091c2.232,3.384,4.665,6.8,8.124,8.928,8.035,4.91,18.226,1.312,27.555.152,6.129-.763,12.57-.344,18.11,2.393,19.529,9.637,8.829,35.229-3.571,46.027-9.1,7.914-20.86,12.226-32.733,14.316-25.256,4.442-52.45-1.013-73.042-16.306S70.454,162.934,71.266,137.3C71.686,124,76.659,109.734,87.872,102.775Z" transform="translate(-71.231 -98.506)" fill="#f5f2f9"/>
    </g>
    <g id="freepik--Shadow--inject-14" transform="translate(56.11 226.805)">
      <ellipse id="freepik--path--inject-14" cx="86.549" cy="5.053" rx="86.549" ry="5.053" transform="translate(0)" fill="#f5f2f9"/>
    </g>
    <g id="freepik--Gears--inject-14" transform="translate(142.316 102.255)">
      <path id="Path_26599" data-name="Path 26599" d="M338.877,176.386c0,25.377-19.195,46.022-42.75,46.022s-42.75-20.645-42.75-46.022,19.195-46.022,42.75-46.022c14.539,0,27.89,7.812,35.827,20.918l-3.125,2.1,8.2,2.527,1.4-8.928-2.933,1.96C326.8,134.5,312.108,125.9,296.127,125.9c-25.859,0-46.9,22.65-46.9,50.486s21.038,50.486,46.9,50.486,46.9-22.645,46.9-50.486Z" transform="translate(-249.23 -125.9)" fill="#673391"/>
      <path id="Path_26600" data-name="Path 26600" d="M338.877,176.386c0,25.377-19.195,46.022-42.75,46.022s-42.75-20.645-42.75-46.022,19.195-46.022,42.75-46.022c14.539,0,27.89,7.812,35.827,20.918l-3.125,2.1,8.2,2.527,1.4-8.928-2.933,1.96C326.8,134.5,312.108,125.9,296.127,125.9c-25.859,0-46.9,22.65-46.9,50.486s21.038,50.486,46.9,50.486,46.9-22.645,46.9-50.486Z" transform="translate(-249.23 -125.9)" fill="#fff" opacity="0.7"/>
      <path id="Path_26601" data-name="Path 26601" d="M324.461,190.2v-6.066l-2.906-.295a16.735,16.735,0,0,0-2.165-5.6l1.866-2.428-3.986-4.29-2.232,2.009a14.471,14.471,0,0,0-5.2-2.33l-.277-3.125H303.9l-.277,3.125a14.472,14.472,0,0,0-5.2,2.33l-2.232-2.009-3.986,4.29,1.861,2.428a16.925,16.925,0,0,0-2.165,5.6l-2.9.295V190.2l2.9.295a16.963,16.963,0,0,0,2.165,5.607l-1.861,2.424,3.986,4.29,2.232-2a14.548,14.548,0,0,0,5.2,2.33l.277,3.125h5.629l.277-3.125a14.548,14.548,0,0,0,5.2-2.33l2.232,2,3.986-4.29-1.866-2.424a16.76,16.76,0,0,0,2.165-5.607Zm-17.739,5.182c-4.214,0-7.629-3.678-7.629-8.213s3.415-8.213,7.629-8.213,7.629,3.674,7.629,8.213S310.935,195.38,306.722,195.38Z" transform="translate(-271.247 -149.246)" fill="#673391"/>
      <path id="Path_26602" data-name="Path 26602" d="M385.087,234.5v-4.75l-2.272-.228a13.218,13.218,0,0,0-1.7-4.392l1.46-1.9-3.125-3.361-1.781,1.571a11.387,11.387,0,0,0-4.08-1.826l-.214-2.446h-4.415l-.214,2.446a11.386,11.386,0,0,0-4.08,1.826l-1.786-1.571-3.125,3.361,1.46,1.9a13.218,13.218,0,0,0-1.7,4.392l-2.272.228v4.75l2.272.232a13.253,13.253,0,0,0,1.7,4.392l-1.4,1.9,3.125,3.366,1.785-1.576a11.312,11.312,0,0,0,4.08,1.826l.214,2.451h4.415l.214-2.451a11.311,11.311,0,0,0,4.08-1.826l1.763,1.576,3.125-3.366-1.46-1.9a13.255,13.255,0,0,0,1.7-4.392Zm-13.9,4.062a6.454,6.454,0,1,1,5.982-6.437,6.222,6.222,0,0,1-5.982,6.437Z" transform="translate(-309.032 -176.429)" fill="#673391"/>
      <path id="Path_26603" data-name="Path 26603" d="M339.48,268.218v-4l-1.911-.2a11.191,11.191,0,0,0-1.428-3.687l1.228-1.594-2.62-2.826-1.482,1.339a9.486,9.486,0,0,0-3.428-1.536l-.179-2.053h-3.709l-.183,2.053a9.5,9.5,0,0,0-3.424,1.536l-1.482-1.339-2.625,2.808,1.228,1.594a11.183,11.183,0,0,0-1.424,3.687l-1.911.2v4l1.911.192a11.014,11.014,0,0,0,1.424,3.727l-1.228,1.6,2.625,2.821,1.482-1.339a9.5,9.5,0,0,0,3.424,1.536l.183,2.058h3.709l.179-2.058a9.485,9.485,0,0,0,3.428-1.536l1.482,1.339,2.62-2.821-1.21-1.6a11.113,11.113,0,0,0,1.428-3.687ZM327.8,271.624a5.42,5.42,0,1,1,5.022-5.406A5.225,5.225,0,0,1,327.8,271.624Z" transform="translate(-286.267 -196.635)" fill="#673391"/>
      <path id="Path_26604" data-name="Path 26604" d="M324.461,190.2v-6.066l-2.906-.295a16.735,16.735,0,0,0-2.165-5.6l1.866-2.428-3.986-4.29-2.232,2.009a14.471,14.471,0,0,0-5.2-2.33l-.277-3.125H303.9l-.277,3.125a14.472,14.472,0,0,0-5.2,2.33l-2.232-2.009-3.986,4.29,1.861,2.428a16.925,16.925,0,0,0-2.165,5.6l-2.9.295V190.2l2.9.295a16.963,16.963,0,0,0,2.165,5.607l-1.861,2.424,3.986,4.29,2.232-2a14.548,14.548,0,0,0,5.2,2.33l.277,3.125h5.629l.277-3.125a14.548,14.548,0,0,0,5.2-2.33l2.232,2,3.986-4.29-1.866-2.424a16.76,16.76,0,0,0,2.165-5.607Zm-17.739,5.182c-4.214,0-7.629-3.678-7.629-8.213s3.415-8.213,7.629-8.213,7.629,3.674,7.629,8.213S310.935,195.38,306.722,195.38Z" transform="translate(-271.247 -149.246)" fill="#fff" opacity="0.7"/>
      <path id="Path_26605" data-name="Path 26605" d="M385.087,234.5v-4.75l-2.272-.228a13.218,13.218,0,0,0-1.7-4.392l1.46-1.9-3.125-3.361-1.781,1.571a11.387,11.387,0,0,0-4.08-1.826l-.214-2.446h-4.415l-.214,2.446a11.386,11.386,0,0,0-4.08,1.826l-1.786-1.571-3.125,3.361,1.46,1.9a13.218,13.218,0,0,0-1.7,4.392l-2.272.228v4.75l2.272.232a13.253,13.253,0,0,0,1.7,4.392l-1.4,1.9,3.125,3.366,1.785-1.576a11.312,11.312,0,0,0,4.08,1.826l.214,2.451h4.415l.214-2.451a11.311,11.311,0,0,0,4.08-1.826l1.763,1.576,3.125-3.366-1.46-1.9a13.255,13.255,0,0,0,1.7-4.392Zm-13.9,4.062a6.454,6.454,0,1,1,5.982-6.437,6.222,6.222,0,0,1-5.982,6.437Z" transform="translate(-309.032 -176.429)" fill="#fff" opacity="0.5"/>
      <path id="Path_26606" data-name="Path 26606" d="M339.48,268.218v-4l-1.911-.2a11.191,11.191,0,0,0-1.428-3.687l1.228-1.594-2.62-2.826-1.482,1.339a9.486,9.486,0,0,0-3.428-1.536l-.179-2.053h-3.709l-.183,2.053a9.5,9.5,0,0,0-3.424,1.536l-1.482-1.339-2.625,2.808,1.228,1.594a11.183,11.183,0,0,0-1.424,3.687l-1.911.2v4l1.911.192a11.014,11.014,0,0,0,1.424,3.727l-1.228,1.6,2.625,2.821,1.482-1.339a9.5,9.5,0,0,0,3.424,1.536l.183,2.058h3.709l.179-2.058a9.485,9.485,0,0,0,3.428-1.536l1.482,1.339,2.62-2.821-1.21-1.6a11.113,11.113,0,0,0,1.428-3.687ZM327.8,271.624a5.42,5.42,0,1,1,5.022-5.406A5.225,5.225,0,0,1,327.8,271.624Z" transform="translate(-286.267 -196.635)" fill="#fff" opacity="0.3"/>
    </g>
    <g id="freepik--Screen--inject-14" transform="translate(114.006 83.19)">
      <path id="Path_26608" data-name="Path 26608" d="M249.268,92.723V221.282a1.875,1.875,0,0,1-1.906,1.879H187.546a1.67,1.67,0,0,1-1.178-.478,1.723,1.723,0,0,1-.509-1.245V92.571A1.518,1.518,0,0,1,187.3,91h16.989a1.2,1.2,0,0,1,1.094.768l.7,1.732a1.2,1.2,0,0,0,1.094.754h20.793a1.187,1.187,0,0,0,1.094-.745l.7-1.741A1.2,1.2,0,0,1,230.854,91H247.6A1.719,1.719,0,0,1,249.268,92.723Z" transform="translate(-185.836 -87.514)" fill="url(#linear-gradient)"/>
      <rect id="Rectangle_148082" data-name="Rectangle 148082" width="0.884" height="1.178" transform="translate(8.767 8.66) rotate(180)" fill="#fff" opacity="0.6"/>
      <rect id="Rectangle_148083" data-name="Rectangle 148083" width="0.884" height="1.571" transform="translate(7.33 8.66) rotate(180)" fill="#fff" opacity="0.6"/>
      <rect id="Rectangle_148084" data-name="Rectangle 148084" width="0.884" height="1.964" transform="translate(5.888 8.655) rotate(180)" fill="#fff" opacity="0.6"/>
      <rect id="Rectangle_148085" data-name="Rectangle 148085" width="0.884" height="2.357" transform="translate(4.446 8.655) rotate(180)" fill="#fff" opacity="0.6"/>
      <rect id="Rectangle_148086" data-name="Rectangle 148086" width="0.522" height="1.178" transform="translate(54.807 7.048)" fill="#fff" opacity="0.6"/>
      <rect id="Rectangle_148087" data-name="Rectangle 148087" width="4.174" height="2.04" transform="translate(59.865 8.655) rotate(180)" fill="#fff" opacity="0.6"/>
      <rect id="Rectangle_148088" data-name="Rectangle 148088" width="44.772" height="4.54" rx="2.27" transform="translate(54.102 79.242) rotate(180)" opacity="0.3"/>
      <path id="Path_26609" data-name="Path 26609" d="M231.3,251.447a1.866,1.866,0,1,1,0,3.727H209.373a1.866,1.866,0,1,1,0-3.727Z" transform="translate(-197.771 -176.339)" fill="#673391"/>
      <path id="Path_26610" data-name="Path 26610" d="M231.3,251.447a1.866,1.866,0,1,1,0,3.727H209.373a1.866,1.866,0,1,1,0-3.727Z" transform="translate(-197.771 -176.339)" fill="#fff" opacity="0.3"/>
      <rect id="Rectangle_148089" data-name="Rectangle 148089" width="17.646" height="6.691" rx="3.346" transform="translate(22.891 83.197)" opacity="0.2"/>
      <path id="Path_26625" data-name="Path 26625" d="M246.412,276.254a.679.679,0,0,1-.491-.2.67.67,0,0,1-.2-.487v-1.58a.7.7,0,0,1,.692-.7.692.692,0,0,1,.692.7v.33h-.446v-.339a.259.259,0,0,0-.254-.254.26.26,0,0,0-.25.254v1.585a.241.241,0,0,0,.076.174.237.237,0,0,0,.174.071.25.25,0,0,0,.254-.246v-.4h.446v.406a.661.661,0,0,1-.2.487A.679.679,0,0,1,246.412,276.254Z" transform="translate(-218.977 -188.432)" fill="#fff"/>
      <path id="Path_26626" data-name="Path 26626" d="M249.954,275.6l-.107.665H249.4l.491-2.893h.6l.487,2.893h-.446l-.1-.665Zm.228-1.567-.161,1.143h.321Z" transform="translate(-221.014 -188.477)" fill="#fff"/>
      <path id="Path_26627" data-name="Path 26627" d="M254.231,273.36l.576,1.946V273.36h.446v2.9h-.469l-.6-1.857v1.857h-.446v-2.9Z" transform="translate(-223.417 -188.471)" fill="#fff"/>
      <path id="Path_26628" data-name="Path 26628" d="M258.662,276.254a.679.679,0,0,1-.491-.2.67.67,0,0,1-.2-.487v-1.58a.7.7,0,0,1,.692-.7.692.692,0,0,1,.692.7v.33h-.446v-.339a.259.259,0,0,0-.254-.254.259.259,0,0,0-.25.254v1.585a.241.241,0,0,0,.076.174.237.237,0,0,0,.174.071.25.25,0,0,0,.254-.246v-.4h.446v.406a.661.661,0,0,1-.2.487A.678.678,0,0,1,258.662,276.254Z" transform="translate(-225.759 -188.432)" fill="#fff"/>
      <path id="Path_26629" data-name="Path 26629" d="M261.87,276.257v-2.9h1.245v.446h-.808v.79h.589v.446h-.589v.79h.808v.446Z" transform="translate(-227.918 -188.471)" fill="#fff"/>
      <path id="Path_26630" data-name="Path 26630" d="M266.522,276.263H265.33V273.37h.446v2.46h.746Z" transform="translate(-229.834 -188.477)" fill="#fff"/>
      <g id="Group_163651" data-name="Group 163651" transform="translate(11.124 113.899)" opacity="0.3">
        <path id="Path_26631" data-name="Path 26631" d="M252.323,339.479H220.407a.567.567,0,0,1-.567-.567h0a.567.567,0,0,1,.567-.562h31.916a.567.567,0,0,1,.567.562h0A.567.567,0,0,1,252.323,339.479Z" transform="translate(-215.773 -338.35)" fill="#fff"/>
        <path id="Path_26632" data-name="Path 26632" d="M251.347,347.107H211.3a.567.567,0,0,1-.567-.567h0a.562.562,0,0,1,.567-.54h40.05a.558.558,0,0,1,.562.562h0A.562.562,0,0,1,251.347,347.107Z" transform="translate(-210.73 -342.585)" fill="#fff"/>
        <path id="Path_26633" data-name="Path 26633" d="M253.3,354.669H229.517a.562.562,0,0,1-.567-.562h0a.567.567,0,0,1,.567-.567H253.3a.567.567,0,0,1,.567.567h0a.562.562,0,0,1-.567.562Z" transform="translate(-220.817 -346.759)" fill="#fff"/>
        <path id="Path_26634" data-name="Path 26634" d="M251.346,369.859H211.3a.562.562,0,0,1-.567-.562h0a.567.567,0,0,1,.567-.567h40.05a.562.562,0,0,1,.571.567h0a.558.558,0,0,1-.571.562Z" transform="translate(-210.73 -355.169)" fill="#fff"/>
      </g>
      <g id="Group_163652" data-name="Group 163652" transform="translate(0 3.486)" opacity="0.1">
        <path id="Path_26635" data-name="Path 26635" d="M214.347,94.245l-18.262,68.4h0l-.205.768h0l-.326,1.232h0l-.21.768-9.535,35.711V157.917L203.674,91h.585a1.2,1.2,0,0,1,1.094.768l.7,1.732a1.2,1.2,0,0,0,1.094.754Z" transform="translate(-185.81 -91)" fill="#fff"/>
        <path id="Path_26636" data-name="Path 26636" d="M296.8,176.53v43.223l-11.392,42.661-.272,1.036-1.879,7.039H271.72l1.879-7.035.3-1.129,1.509-5.651.3-1.129.607-2.263.3-1.129.6-2.259.3-1.129,9.495-35.559v0l.437-1.643v0Z" transform="translate(-233.371 -138.351)" fill="#fff"/>
        <path id="Path_26637" data-name="Path 26637" d="M220.629,98.27l-18.15,67.971-.107.406-1,3.727-.107.406-14.9,55.927a1.723,1.723,0,0,1-.509-1.245v-6.6L198.7,170.781l.107-.406,1-3.727.107-.406L218.031,98.27Z" transform="translate(-185.837 -95.025)" fill="#fff"/>
      </g>
      <path id="sentence" d="M-9.144.53h-.944L-10.9-.987a.692.692,0,0,0-.283-.3.916.916,0,0,0-.425-.088h-.661V.53h-.856V-4.223h2.1a1.844,1.844,0,0,1,1.23.361,1.3,1.3,0,0,1,.421,1.042,1.325,1.325,0,0,1-.307.9,1.472,1.472,0,0,1-.866.462.981.981,0,0,1,.607.533Zm-2-2.575a1.142,1.142,0,0,0,.721-.185A.689.689,0,0,0-10.2-2.8a.678.678,0,0,0-.229-.57,1.174,1.174,0,0,0-.721-.179h-1.133v1.5Zm2.7-2.178H-5.26v.688H-7.593v1.308h2.2v.681h-2.2V-.158H-5.26V.53H-8.442Zm3.971,0h3.115v.694H-3.615v1.294h2.124v.694H-3.615V.53h-.856ZM3.329.53H2.385L1.569-.987a.692.692,0,0,0-.283-.3.916.916,0,0,0-.425-.088H.2V.53H-.656V-4.223h2.1a1.844,1.844,0,0,1,1.23.361A1.3,1.3,0,0,1,3.1-2.821a1.325,1.325,0,0,1-.307.9,1.472,1.472,0,0,1-.866.462.981.981,0,0,1,.607.533Zm-2-2.575a1.142,1.142,0,0,0,.721-.185.689.689,0,0,0,.229-.57.678.678,0,0,0-.229-.57,1.174,1.174,0,0,0-.721-.179H.194v1.5Zm2.7-2.178H7.212v.688H4.879v1.308h2.2v.681h-2.2V-.158H7.212V.53H4.03ZM9.545.59A3.444,3.444,0,0,1,8.52.442,2.375,2.375,0,0,1,7.711.024L8-.61a2.379,2.379,0,0,0,.725.384A2.707,2.707,0,0,0,9.551-.1a1.4,1.4,0,0,0,.758-.172.543.543,0,0,0,.266-.482.449.449,0,0,0-.246-.411,3.145,3.145,0,0,0-.819-.27,4.852,4.852,0,0,1-.964-.3,1.361,1.361,0,0,1-.56-.431A1.116,1.116,0,0,1,7.8-2.835a1.281,1.281,0,0,1,.229-.748A1.51,1.51,0,0,1,8.675-4.1a2.357,2.357,0,0,1,.964-.185,2.966,2.966,0,0,1,.951.152,2.067,2.067,0,0,1,.742.415l-.29.634a2.2,2.2,0,0,0-1.4-.506,1.249,1.249,0,0,0-.725.185.594.594,0,0,0-.266.516.473.473,0,0,0,.236.425,2.765,2.765,0,0,0,.8.276,5.4,5.4,0,0,1,.974.3,1.445,1.445,0,0,1,.573.421,1.024,1.024,0,0,1,.2.647,1.26,1.26,0,0,1-.226.745,1.422,1.422,0,0,1-.654.492A2.7,2.7,0,0,1,9.545.59Zm6.829-4.814V.53h-.849V-1.533H13.091V.53h-.856V-4.223h.856v1.989h2.434V-4.223Z" transform="translate(30.103 63.917)" fill="#fff"/>
    </g>
    <g id="freepik--Character--inject-14" transform="translate(80.197 107.86)">
      <path id="Path_26638" data-name="Path 26638" d="M157.89,179.84c1.692.08,8.785,9.606,8.785,9.606l2.634-3.428s4.062,7.892,2.053,11.646-12.6-6.508-12.6-6.508Z" transform="translate(-136.544 -161.367)" fill="#bca5ce"/>
      <path id="Path_26640" data-name="Path 26640" d="M159.45,192.159l.179,3.714s1.741,1.687,3.942,3.442c.21-4.464-3.942-10.954-3.942-10.954Z" transform="translate(-137.408 -166.084)" opacity="0.2"/>
      <path id="Path_26641" data-name="Path 26641" d="M176.3,200.779l-.379.723,1.107,4.3s-3.049-2.772-1.107-5.491Z" transform="translate(-146.167 -172.7)" opacity="0.2"/>
      <path id="Path_26642" data-name="Path 26642" d="M135.3,203.292l-14.284,1.1s-.192-8.53-1.339-12.972c-.371-1.437-.835-3.053-1.424-4.91-.25-.795-.522-1.634-.821-2.531s-.571-1.723-.893-2.678a42.784,42.784,0,0,1,5.973-1.442,46.126,46.126,0,0,1,6.464-.683c2.8-.022,6.017.295,6.017.295s.446.112.745,3.076C136.007,185.348,135.882,193.155,135.3,203.292Z" transform="translate(-113.652 -161)" fill="#bca5ce"/>
      <path id="Path_26644" data-name="Path 26644" d="M118.4,317.129l2.156,1.268a41.249,41.249,0,0,1,3.276-3.884h0c.625-.661,1.281-1.393,1.964-2.178,1.366-1.567,2.843-3.357,4.392-5.281l1.388-1.736c5.392-6.794,11.231-14.775,13.427-20.172a8.793,8.793,0,0,0,.862-4.169,94.278,94.278,0,0,0-3.125-12.762c-2.178-7.142-4.629-13.954-4.629-13.954l-6.053,10.2s1.848,4.406,3.531,9.1c1.656,4.607,3.151,9.495,2.6,10.767-.054.125-.121.272-.2.446-1,2.071-3.767,6.763-6.91,11.945l-.96,1.576c-1.687,2.768-3.442,5.611-5.066,8.222-.634,1.027-1.25,2.018-1.835,2.955C120.453,313.9,118.4,317.129,118.4,317.129Z" transform="translate(-114.682 -202.567)" fill="#eec1bb"/>
      <path id="Path_26645" data-name="Path 26645" d="M137.737,357.945c-2.848,3.571-5.584,6.83-7.62,9.2-.29-1.455-.585-3.178-.817-5.058,2.352-3.776,5.232-8.437,7.847-12.753A49.392,49.392,0,0,0,137.737,357.945Z" transform="translate(-120.717 -255.199)" opacity="0.2"/>
      <path id="Path_26646" data-name="Path 26646" d="M123.031,280.116a122.428,122.428,0,0,0,2.5,12.436c.415,1.647.7,2.62.7,2.62a137.7,137.7,0,0,0,.92,15.623c.228,2.044.473,4.017.728,5.834.937,6.758,1.924,11.606,1.924,11.606l2.567-.335-.1-16.556-.054-8.776-.071-11.941-.027-2.08-.125-9.079-.183-13.392-8.928-4.017C121.683,267.171,122.129,273.992,123.031,280.116Z" transform="translate(-116.76 -206.885)" fill="#eec1bb"/>
      <path id="Path_26647" data-name="Path 26647" d="M159.724,268.4l-7.767,3.531c-1.5-4.017-2.937-7.468-2.937-7.468l6.022-10.2s2.451,6.79,4.629,13.954Z" transform="translate(-131.634 -202.567)" opacity="0.2"/>
      <path id="Path_26648" data-name="Path 26648" d="M131.964,277.54l-9.2.607c-.705-5.566-.946-11.472.121-16.007l8.928,4.017Z" transform="translate(-116.761 -206.93)" opacity="0.2"/>
      <path id="Path_26649" data-name="Path 26649" d="M113.985,391.93c.263-.192,2.486,3.125,2.486,3.125s-.5,3.473.509,5.709-.946,2.049-2.567-.071l-4.017-5.245C109.258,393.952,111.262,393.912,113.985,391.93Z" transform="translate(-110.071 -278.779)" fill="#263238"/>
      <path id="Path_26650" data-name="Path 26650" d="M124.989,402.02c-.5-.116-.83-1.558-.893-1.844a.062.062,0,0,1,0-.04h0a.058.058,0,0,1,0-.031h0v-.027h0a.053.053,0,0,1,.036,0c.045,0,.987-.312,1.491,0a.607.607,0,0,1,.3.415.366.366,0,0,1-.107.415c-.174.116-.513,0-.848-.134a1.648,1.648,0,0,1,.446.772.42.42,0,0,1-.085.33.411.411,0,0,1-.326.192Zm.049-.205s.08.022.183-.107a.223.223,0,0,0,.04-.174c-.04-.33-.54-.812-.893-1.107C124.529,401.046,124.8,401.752,125.038,401.814Zm-.58-1.62c.536.335,1.129.6,1.281.5.045-.031.031-.134,0-.2a.411.411,0,0,0-.2-.281.973.973,0,0,0-.482-.1,2.974,2.974,0,0,0-.6.076Z" transform="translate(-117.834 -283.217)" fill="#673391"/>
      <path id="Path_26651" data-name="Path 26651" d="M136.7,406.484c0-.326,4.017-.071,4.017-.071s2.46,2.5,4.848,3.062,1.053,2-1.616,2h-6.62C135.436,411.47,136.623,409.854,136.7,406.484Z" transform="translate(-124.572 -286.749)" fill="#263238"/>
      <path id="Path_26652" data-name="Path 26652" d="M147.169,405.965a.08.08,0,0,1-.031-.022h0a.071.071,0,0,1,0-.031h0a.085.085,0,0,1,0-.031h0a.137.137,0,0,1,0-.045c0-.049.353-.973.893-1.2a.616.616,0,0,1,.518,0c.183.089.268.2.263.335,0,.21-.3.424-.625.6a1.625,1.625,0,0,1,.893.094.446.446,0,0,1,.214.272.379.379,0,0,1-.1.446.526.526,0,0,1-.353.1,4.945,4.945,0,0,1-1.674-.518Zm.366-.067c.589.25,1.339.473,1.509.317,0,0,.067-.054.027-.21a.232.232,0,0,0-.112-.143,1.022,1.022,0,0,0-.473-.085,4.989,4.989,0,0,0-.964.12Zm.554-1.062a1.723,1.723,0,0,0-.683.857c.589-.223,1.161-.536,1.17-.714,0-.058-.085-.107-.138-.134a.41.41,0,0,0-.187-.045.418.418,0,0,0-.161.036Z" transform="translate(-130.591 -285.788)" fill="#673391"/>
      <path id="Path_26653" data-name="Path 26653" d="M136.026,176.676c-3.549-.446-4.616-1.973-4.616-1.973,1.451-1.366,1.187-3.384.817-4.642a7.215,7.215,0,0,0-.446-1.161l4.272.8a12.294,12.294,0,0,0-.165,1.785,5.389,5.389,0,0,0,.121,1.339c.29,1.277,1.018,1.295,1.018,1.295C137.784,175.515,136.026,176.676,136.026,176.676Z" transform="translate(-121.885 -155.31)" fill="#eec1bb"/>
      <path id="Path_26654" data-name="Path 26654" d="M136.356,171.52a5.387,5.387,0,0,0,.121,1.339,5.9,5.9,0,0,1-3.79-2.759,7.213,7.213,0,0,0-.446-1.161l4.272.8A12.294,12.294,0,0,0,136.356,171.52Z" transform="translate(-122.344 -155.333)" opacity="0.2"/>
      <path id="Path_26655" data-name="Path 26655" d="M125.616,138.6c-6.044.487-9.6,16.2-1.053,14.7,2.513-.446,12.945-8.441,8.954-11.481A15.592,15.592,0,0,0,125.616,138.6Z" transform="translate(-115.283 -138.536)" fill="#263238"/>
      <path id="Path_26656" data-name="Path 26656" d="M136.056,145.2c3.678.531,4.575,2.678,4.3,6.5-.348,4.785-1.884,8-6.339,6.325C127.963,155.752,129.945,144.316,136.056,145.2Z" transform="translate(-121.299 -142.163)" fill="#eec1bb"/>
      <path id="Path_26657" data-name="Path 26657" d="M147.279,158.6a7.819,7.819,0,0,0,.848,1.678,1.013,1.013,0,0,1-1.027.277Z" transform="translate(-130.571 -149.608)" fill="#d4827d"/>
      <path id="Path_26658" data-name="Path 26658" d="M141.618,156.461c-.036.3-.228.527-.446.5s-.335-.29-.3-.594.232-.531.446-.5S141.653,156.158,141.618,156.461Z" transform="translate(-127.119 -148.094)" fill="#263238"/>
      <path id="Path_26659" data-name="Path 26659" d="M141.69,155.659l.687-.179S141.985,155.993,141.69,155.659Z" transform="translate(-127.576 -147.881)" fill="#263238"/>
      <path id="Path_26660" data-name="Path 26660" d="M150.068,157.332c-.036.3-.228.531-.446.5s-.335-.286-.3-.589.232-.531.446-.509S150.112,157.028,150.068,157.332Z" transform="translate(-131.798 -148.577)" fill="#263238"/>
      <path id="Path_26661" data-name="Path 26661" d="M150.15,156.529l.692-.179S150.445,156.868,150.15,156.529Z" transform="translate(-132.259 -148.363)" fill="#263238"/>
      <path id="Path_26662" data-name="Path 26662" d="M139.335,151.7a.161.161,0,0,1-.116-.277,2.076,2.076,0,0,1,1.826-.362.161.161,0,0,1,.107.2.156.156,0,0,1-.192.107,1.786,1.786,0,0,0-1.527.29A.152.152,0,0,1,139.335,151.7Z" transform="translate(-126.181 -145.391)" fill="#263238"/>
      <path id="Path_26663" data-name="Path 26663" d="M150.561,152.476a.161.161,0,0,1-.107-.04,1.562,1.562,0,0,0-1.286-.478.161.161,0,0,1-.183-.125.156.156,0,0,1,.121-.187,1.9,1.9,0,0,1,1.558.554.156.156,0,0,1,0,.223A.152.152,0,0,1,150.561,152.476Z" transform="translate(-131.612 -145.752)" fill="#263238"/>
      <path id="Path_26664" data-name="Path 26664" d="M130.154,148.882s2.156-2.772,2.232-5.147c0,0,7.722-1.924,7.013,5.531,0,0,1.661-6.468-4.642-7.531s-7.589,8.2-4.745,11.427C130.011,153.163,128.819,150.618,130.154,148.882Z" transform="translate(-120.316 -140.225)" fill="#263238"/>
      <path id="Path_26665" data-name="Path 26665" d="M129.94,157.647a1.634,1.634,0,0,0-1.527-1.728c-1.156-.04-2.04,2.232.714,3.2C129.525,159.254,129.811,158.888,129.94,157.647Z" transform="translate(-119.611 -148.124)" fill="#eec1bb"/>
      <path id="Path_26666" data-name="Path 26666" d="M142.544,165.594a2.111,2.111,0,0,1-2.1-1.455.158.158,0,0,1,.3-.089,1.787,1.787,0,0,0,1.87,1.228.161.161,0,0,1,.17.143.156.156,0,0,1-.147.17Z" transform="translate(-126.881 -152.562)" fill="#263238"/>
      <path id="Path_26667" data-name="Path 26667" d="M133.22,138.521s5.392-.705,8.767,2.562-6.544,2.736-6.544,2.736l2.513-1.147s-3.147.893-4.508.446Z" transform="translate(-122.887 -138.456)" fill="#263238"/>
      <path id="Path_26668" data-name="Path 26668" d="M123.329,160.08s-1.634,2.861,0,5.334a3.723,3.723,0,0,0,1.37,4.593s-.482,1.5,1.835,3.312a7.952,7.952,0,0,1,.152,4.049l1.678-.826a6.12,6.12,0,0,0-1.022-3.357s.54-3.361-.808-4.464a8.972,8.972,0,0,0,.379-3.044s-.674-4-.781-4.424C126.133,161.258,123.861,160.968,123.329,160.08Z" transform="translate(-117.009 -150.428)" fill="#263238"/>
      <path id="Path_26669" data-name="Path 26669" d="M145.211,147.45a.112.112,0,0,1-.112-.1.107.107,0,0,1,.1-.112c1.089-.067,3.959-.446,4.16-1.384.246-1.143-1.339-2.036-1.37-2.044a.107.107,0,0,1-.045-.147.112.112,0,0,1,.147-.045c.071.04,1.759.982,1.482,2.281s-4.2,1.544-4.361,1.553Z" transform="translate(-129.464 -141.306)" fill="#263238"/>
      <path id="Path_26670" data-name="Path 26670" d="M163.676,183.421a.362.362,0,0,0,.366.411h4.08a.482.482,0,0,0,.446-.411l.893-8.035a.411.411,0,0,0-.371-.446h-4.08a.522.522,0,0,0-.446.446Z" transform="translate(-139.746 -158.654)" fill="#673391"/>
      <path id="Path_26672" data-name="Path 26672" d="M146,236.393a.719.719,0,1,0,.21-.513A.723.723,0,0,0,146,236.393Z" transform="translate(-129.962 -192.275)" fill="#fff" opacity="0.6"/>
      <path id="Path_26673" data-name="Path 26673" d="M176.141,186.425l-2.125-3.607a12.231,12.231,0,0,0-.183-2.344,4.758,4.758,0,0,0-2.678-1.3c-.411.152-.558,3.87-.183,4.37a5.679,5.679,0,0,0,1.674,1.062l-.089.705,1.241,3.759Z" transform="translate(-143.667 -160.988)" fill="#eec1bb"/>
      <path id="Path_26674" data-name="Path 26674" d="M179.708,193.645l-.71-.705L175.65,196.7l.478,1.486Z" transform="translate(-146.377 -168.619)" fill="#673391"/>
      <path id="Path_26675" data-name="Path 26675" d="M143.66,255.479l-10.968,3.9-.366-1-.446-1.236-.187,1.786-.143,1.37h-13.32s-.04-.384-.08-1.071a68.048,68.048,0,0,1,.536-13.115,47.318,47.318,0,0,1,2.821-10.981c.112-.277.228-.549.344-.821l14.284-1.1.121.687.893,5.129,1.705,4.312,4.209,10.646Z" transform="translate(-114.484 -190.908)" fill="#673391"/>
      <path id="Path_26676" data-name="Path 26676" d="M132.717,200.72s-3.937,8.968-9.017,11.874c-.062-1.87-.344-8.678-1.339-12.5-.263-1.027-.576-2.147-.951-3.384l1.549-1.861a15.5,15.5,0,0,1,.6,6.2l5.924-3.629Z" transform="translate(-116.349 -169.677)" opacity="0.2"/>
      <path id="Path_26677" data-name="Path 26677" d="M138.2,193.257l4.821-3.79a16.9,16.9,0,0,1,1.027-2.388,29.29,29.29,0,0,1,4.883-1.96c.353-.04,0,3.473-.527,4.067s-3.946,1.786-3.946,1.786l-5.062,4.767Z" transform="translate(-125.644 -164.29)" fill="#eec1bb"/>
      <path id="Path_26678" data-name="Path 26678" d="M113.447,184c-2.839,1.42-4.1,17.454.826,20.221s12.32-9.762,12.32-9.762l-2.861-3.035s-6,5.022-6.727,4.562.1-5.357.1-5.357.844-1.482-.933-3.821A10.054,10.054,0,0,0,113.447,184Z" transform="translate(-110.555 -163.67)" fill="#bca5ce"/>
      <path id="Path_26680" data-name="Path 26680" d="M141.68,203.437l.857-.513-3.214-4.714-1.183.661Z" transform="translate(-125.61 -171.537)" fill="#673391"/>
      <path id="Path_26681" data-name="Path 26681" d="M125.779,237.988s-1.62,8.928-6.3,10.5A47.316,47.316,0,0,1,122.3,237.51Z" transform="translate(-115.28 -193.294)" opacity="0.2"/>
      <path id="Path_26682" data-name="Path 26682" d="M160.1,244.181c-3.745-1.826-3.683-9.026-3.683-9.026l1.08-.415.893,5.129Z" transform="translate(-135.73 -191.761)" opacity="0.2"/>
      <path id="Path_26683" data-name="Path 26683" d="M131.819,290.82l-.143,1.37H118.36s-.04-.384-.08-1.071Z" transform="translate(-114.616 -222.807)" opacity="0.2"/>
      <path id="Path_26684" data-name="Path 26684" d="M161.374,281.244l-10.968,3.9-.366-1,10.74-4.4Z" transform="translate(-132.199 -216.673)" opacity="0.2"/>
      <path id="Path_26685" data-name="Path 26685" d="M149,274.962l.286-3.647L152.3,265.4a10.087,10.087,0,0,1-.549,6.45C150.25,274.89,149,274.962,149,274.962Z" transform="translate(-131.623 -208.734)" opacity="0.2"/>
      <path id="Path_26686" data-name="Path 26686" d="M125.823,234.3l-.6,1.486,15.208-.763-.321-1.826Z" transform="translate(-118.458 -190.908)" opacity="0.5"/>
      <path id="Path_26687" data-name="Path 26687" d="M144.548,233.776l.179,1.674a.339.339,0,0,0,.366.3l2.232-.174a.339.339,0,0,0,.308-.371l-.156-1.647a.339.339,0,0,0-.362-.308l-2.232.152a.344.344,0,0,0-.335.375Z" transform="translate(-129.157 -190.935)" fill="#673391"/>
      <path id="Path_26688" data-name="Path 26688" d="M135.3,234.88l-.179,1.969h-.549l.085-1.969Z" transform="translate(-123.634 -191.838)" fill="#263238"/>
      <path id="Path_26689" data-name="Path 26689" d="M154.15,233.435l.219,2.058h.509l-.179-2.143Z" transform="translate(-134.474 -190.991)" fill="#263238"/>
    </g>
  </g>
</svg>
