<svg xmlns="http://www.w3.org/2000/svg" width="22.783" height="20.73" viewBox="0 0 22.783 20.73">
  <g id="Group_15673" data-name="Group 15673" transform="translate(-28.217 0)">
    <path id="Path_22575" d="M72.678,20.046a.686.686,0,0,1-.684.684.675.675,0,0,1-.479-.205l-9.407-9.441a.992.992,0,0,1,0-1.437L71.515.205a.661.661,0,0,1,.958,0,.675.675,0,0,1,.205.479Z" transform="translate(-33.583)" fill="#ff7a08" fill-rule="evenodd"/>
    <path id="Path_22576" d="M96.6,20.046a.686.686,0,0,0,.684.684.675.675,0,0,0,.479-.205l9.407-9.441a.992.992,0,0,0,0-1.437L97.763.205a.661.661,0,0,0-.958,0A.675.675,0,0,0,96.6.684Z" transform="translate(-56.479)" fill="#6ca042" fill-rule="evenodd"/>
  </g>
</svg>
