<svg xmlns="http://www.w3.org/2000/svg" width="150.961" height="122.11" viewBox="0 0 150.961 122.11">
  <g id="Group_163659" data-name="Group 163659" transform="translate(5703.546 357.934)">
    <g id="Group_163658" data-name="Group 163658">
      <g id="Logo_Section" data-name="Logo Section" transform="translate(-5680.186 -357.934)">
        <g id="Group_15410" data-name="Group 15410" transform="translate(21.651)">
          <path id="Path_22575" d="M91.429,54.6a1.869,1.869,0,0,1-1.863,1.863,1.84,1.84,0,0,1-1.3-.559L62.639,30.188a2.7,2.7,0,0,1,0-3.913L88.261.559a1.8,1.8,0,0,1,2.609,0,1.84,1.84,0,0,1,.559,1.3Z" transform="translate(-61.8)" fill="#ff7a08" fill-rule="evenodd"/>
          <path id="Path_22576" d="M96.6,54.6a1.869,1.869,0,0,0,1.863,1.863,1.84,1.84,0,0,0,1.3-.559L125.39,30.188a2.7,2.7,0,0,0,0-3.913L99.768.559a1.8,1.8,0,0,0-2.609,0,1.84,1.84,0,0,0-.559,1.3Z" transform="translate(-64.176)" fill="#6ca042" fill-rule="evenodd"/>
        </g>
        <path id="Path_26052" data-name="Path 26052" d="M5-29.9a2.26,2.26,0,0,1,.238-1.023,2.351,2.351,0,0,1,.681-.819,3.539,3.539,0,0,1,1.067-.546,4.468,4.468,0,0,1,1.4-.2,6.824,6.824,0,0,1,2.35.409,7.76,7.76,0,0,1,2.237,1.317l1.045-1.385A9.269,9.269,0,0,0,11.482-33.6a8.819,8.819,0,0,0-3.054-.481,6.355,6.355,0,0,0-2.089.33,5.305,5.305,0,0,0-1.658.91,4.066,4.066,0,0,0-1.09,1.376,3.96,3.96,0,0,0-.386,1.751,4.288,4.288,0,0,0,.319,1.728A3.425,3.425,0,0,0,4.5-26.711a5.923,5.923,0,0,0,1.673.932,16.516,16.516,0,0,0,2.379.682,16.141,16.141,0,0,1,2.06.569,4.527,4.527,0,0,1,1.263.66,2.032,2.032,0,0,1,.637.807,2.647,2.647,0,0,1,.182,1.012,2.385,2.385,0,0,1-.965,1.979,4.087,4.087,0,0,1-2.577.751,7.248,7.248,0,0,1-2.929-.556A9.376,9.376,0,0,1,3.7-21.568L2.592-20.251A9.853,9.853,0,0,0,5.6-18.346a9.516,9.516,0,0,0,3.486.616,7.146,7.146,0,0,0,2.18-.318,5.007,5.007,0,0,0,1.708-.91,4.218,4.218,0,0,0,1.113-1.433,4.257,4.257,0,0,0,.4-1.865,3.55,3.55,0,0,0-1.26-2.888,9.366,9.366,0,0,0-3.917-1.637,15.763,15.763,0,0,1-2.157-.58,4.816,4.816,0,0,1-1.317-.682,2.028,2.028,0,0,1-.659-.83A2.74,2.74,0,0,1,5-29.9Zm20.71-4.069h-1.68L16.785-17.957h1.839l1.885-4.2h8.652l1.862,4.2h1.93Zm2.748,10.219H21.213l3.633-8.107Zm18.6-1.362v7.153h1.794v-15.9H47.055v7.062H37.881v-7.062H36.087v15.9h1.794V-25.11Zm13.852-8.856h-1.68L51.983-17.957h1.839l1.885-4.2h8.652l1.862,4.2h1.93Zm2.748,10.219H56.411l3.633-8.107Zm15.919.522V-33.853H77.779V-23.2a4.081,4.081,0,0,1-.886,2.85,2.893,2.893,0,0,1-2.225.965,3.542,3.542,0,0,1-2.078-.579,6.076,6.076,0,0,1-1.556-1.692l-1.294,1.113a6.478,6.478,0,0,0,1.93,2.021,5.215,5.215,0,0,0,2.975.795,5.583,5.583,0,0,0,1.976-.341,4.078,4.078,0,0,0,1.56-1.033A4.881,4.881,0,0,0,79.2-20.83,7.094,7.094,0,0,0,79.573-23.225Z" transform="translate(11.595 105.83)" fill="#484b49" stroke="rgba(0,0,0,0)" stroke-width="1"/>
      </g>
      <g id="Group_162333" data-name="Group 162333" transform="translate(-6585 -699)">
        <path id="Path_26690" data-name="Path 26690" d="M-68.208-3.3A1.545,1.545,0,0,0-68.8-4.6a7.138,7.138,0,0,0-2.14-.923A10.335,10.335,0,0,1-73.4-6.557a3.284,3.284,0,0,1-1.749-2.865,3.118,3.118,0,0,1,1.261-2.549,5.1,5.1,0,0,1,3.274-1,5.53,5.53,0,0,1,2.382.492,3.909,3.909,0,0,1,1.644,1.4,3.6,3.6,0,0,1,.6,2.017h-2.215a2.005,2.005,0,0,0-.628-1.569,2.594,2.594,0,0,0-1.8-.567,2.709,2.709,0,0,0-1.692.466,1.551,1.551,0,0,0-.6,1.3,1.4,1.4,0,0,0,.65,1.173,7.493,7.493,0,0,0,2.145.914,9.865,9.865,0,0,1,2.4,1.011,3.816,3.816,0,0,1,1.327,1.3,3.388,3.388,0,0,1,.422,1.718A3.045,3.045,0,0,1-67.21-.769a5.318,5.318,0,0,1-3.327.945A6.251,6.251,0,0,1-73.09-.338,4.289,4.289,0,0,1-74.9-1.758a3.537,3.537,0,0,1-.646-2.109h2.224A2.07,2.07,0,0,0-72.6-2.18a3.156,3.156,0,0,0,2.065.6,2.742,2.742,0,0,0,1.745-.47A1.517,1.517,0,0,0-68.208-3.3Zm6.645-8.525V-9.51h1.679v1.582h-1.679v5.309a1.169,1.169,0,0,0,.215.787,1,1,0,0,0,.769.242,3.29,3.29,0,0,0,.747-.088V-.026a5.26,5.26,0,0,1-1.406.2Q-63.7.176-63.7-2.54V-7.928h-1.564V-9.51H-63.7v-2.312ZM-52.572,0a3.3,3.3,0,0,1-.246-.888,3.325,3.325,0,0,1-2.5,1.063,3.355,3.355,0,0,1-2.338-.817,2.615,2.615,0,0,1-.905-2.021A2.7,2.7,0,0,1-57.428-5,5.473,5.473,0,0,1-54.2-5.81h1.31v-.624A1.666,1.666,0,0,0-53.3-7.616a1.638,1.638,0,0,0-1.257-.444,1.881,1.881,0,0,0-1.2.365,1.129,1.129,0,0,0-.466.927h-2.136a2.37,2.37,0,0,1,.519-1.463A3.455,3.455,0,0,1-56.426-9.3a4.955,4.955,0,0,1,1.991-.387,3.99,3.99,0,0,1,2.663.839,2.993,2.993,0,0,1,1.02,2.36V-2.2a4.861,4.861,0,0,0,.36,2.048V0Zm-2.347-1.538a2.429,2.429,0,0,0,1.191-.308,2.055,2.055,0,0,0,.839-.826V-4.465H-54.04a3.148,3.148,0,0,0-1.784.413,1.338,1.338,0,0,0-.6,1.169,1.248,1.248,0,0,0,.409.98A1.583,1.583,0,0,0-54.918-1.538Zm9.079-10.283V-9.51h1.679v1.582h-1.679v5.309a1.169,1.169,0,0,0,.215.787,1,1,0,0,0,.769.242,3.29,3.29,0,0,0,.747-.088V-.026a5.26,5.26,0,0,1-1.406.2q-2.461,0-2.461-2.716V-7.928H-49.54V-9.51h1.564v-2.312Zm7.5,12A4.419,4.419,0,0,1-41.634-1.1,4.639,4.639,0,0,1-42.9-4.509v-.264a5.706,5.706,0,0,1,.549-2.544A4.181,4.181,0,0,1-40.8-9.062a4.078,4.078,0,0,1,2.215-.624,3.733,3.733,0,0,1,3,1.239,5.24,5.24,0,0,1,1.059,3.507v.861h-6.214a2.856,2.856,0,0,0,.787,1.863,2.362,2.362,0,0,0,1.736.686,2.892,2.892,0,0,0,2.391-1.187l1.151,1.1A3.845,3.845,0,0,1-36.2-.294,4.774,4.774,0,0,1-38.342.176ZM-38.6-7.972a1.8,1.8,0,0,0-1.419.615,3.189,3.189,0,0,0-.69,1.714h4.069V-5.8a2.6,2.6,0,0,0-.571-1.622A1.785,1.785,0,0,0-38.6-7.972ZM-28.182,0V-12.8H-23.8a5.354,5.354,0,0,1,3.3.87,3.065,3.065,0,0,1,1.134,2.593,2.763,2.763,0,0,1-.475,1.582,3.055,3.055,0,0,1-1.389,1.09,2.825,2.825,0,0,1,1.6,1.059,3.085,3.085,0,0,1,.567,1.868A3.407,3.407,0,0,1-20.206-.967,5.025,5.025,0,0,1-23.515,0Zm2.224-5.774v4h2.47a2.39,2.39,0,0,0,1.635-.519,1.82,1.82,0,0,0,.589-1.441A1.826,1.826,0,0,0-23.3-5.774Zm0-1.635h2.18a2.521,2.521,0,0,0,1.622-.47,1.611,1.611,0,0,0,.584-1.332,1.633,1.633,0,0,0-.541-1.371A2.73,2.73,0,0,0-23.8-11h-2.162ZM-11.351,0A3.3,3.3,0,0,1-11.6-.888a3.325,3.325,0,0,1-2.5,1.063,3.355,3.355,0,0,1-2.338-.817,2.615,2.615,0,0,1-.905-2.021A2.7,2.7,0,0,1-16.207-5a5.473,5.473,0,0,1,3.23-.813h1.31v-.624a1.666,1.666,0,0,0-.413-1.182,1.638,1.638,0,0,0-1.257-.444,1.881,1.881,0,0,0-1.2.365A1.129,1.129,0,0,0-15-6.768h-2.136a2.37,2.37,0,0,1,.519-1.463A3.455,3.455,0,0,1-15.205-9.3a4.955,4.955,0,0,1,1.991-.387,3.99,3.99,0,0,1,2.663.839,2.993,2.993,0,0,1,1.02,2.36V-2.2a4.861,4.861,0,0,0,.36,2.048V0ZM-13.7-1.538a2.429,2.429,0,0,0,1.191-.308,2.055,2.055,0,0,0,.839-.826V-4.465h-1.151a3.148,3.148,0,0,0-1.784.413,1.338,1.338,0,0,0-.6,1.169,1.248,1.248,0,0,0,.409.98A1.583,1.583,0,0,0-13.7-1.538ZM-5.313-9.51l.062,1.1A3.419,3.419,0,0,1-2.483-9.686q2.971,0,3.023,3.4V0H-1.6V-6.161A1.958,1.958,0,0,0-1.986-7.5a1.645,1.645,0,0,0-1.279-.435A2.058,2.058,0,0,0-5.19-6.768V0H-7.326V-9.51ZM5.805-4.078,4.856-3.1V0H2.72V-13.5H4.856v7.787l.668-.835L8.152-9.51h2.566L7.185-5.546,11.1,0H8.626Zm10.389-.765a5.607,5.607,0,0,1,.554-2.518A4.044,4.044,0,0,1,18.3-9.083a4.383,4.383,0,0,1,2.3-.6A4.154,4.154,0,0,1,23.73-8.446a4.874,4.874,0,0,1,1.3,3.287l.009.5A5.658,5.658,0,0,1,24.5-2.145,4,4,0,0,1,22.948-.431a4.415,4.415,0,0,1-2.325.606A4.125,4.125,0,0,1,17.4-1.165a5.133,5.133,0,0,1-1.208-3.573Zm2.136.185a3.832,3.832,0,0,0,.606,2.3,1.971,1.971,0,0,0,1.688.831,1.95,1.95,0,0,0,1.683-.844,4.232,4.232,0,0,0,.6-2.47,3.782,3.782,0,0,0-.62-2.285,1.979,1.979,0,0,0-1.683-.844,1.96,1.96,0,0,0-1.661.831A4.152,4.152,0,0,0,18.33-4.658ZM27.593,0V-7.928h-1.45V-9.51h1.45v-.87a3.266,3.266,0,0,1,.879-2.443,3.367,3.367,0,0,1,2.461-.861,4.936,4.936,0,0,1,1.2.158l-.053,1.67a4.207,4.207,0,0,0-.817-.07,1.371,1.371,0,0,0-1.529,1.573v.844h1.934v1.582H29.729V0ZM40.258,0H38.043V-12.8h2.215Zm4.509-9.51.062,1.1A3.419,3.419,0,0,1,47.6-9.686q2.971,0,3.023,3.4V0H48.485V-6.161a1.958,1.958,0,0,0-.391-1.34,1.645,1.645,0,0,0-1.279-.435A2.058,2.058,0,0,0,44.89-6.768V0H42.754V-9.51ZM52.4-4.825a5.654,5.654,0,0,1,1.02-3.529,3.267,3.267,0,0,1,2.733-1.332,3.1,3.1,0,0,1,2.443,1.055V-13.5h2.136V0H58.794l-.105-.984A3.148,3.148,0,0,1,56.131.176a3.248,3.248,0,0,1-2.7-1.345A5.861,5.861,0,0,1,52.4-4.825Zm2.136.185a3.958,3.958,0,0,0,.558,2.263,1.811,1.811,0,0,0,1.586.813,2.017,2.017,0,0,0,1.916-1.169V-6.794a1.986,1.986,0,0,0-1.9-1.143,1.824,1.824,0,0,0-1.6.822A4.408,4.408,0,0,0,54.532-4.641ZM65.228,0H63.092V-9.51h2.136ZM62.96-11.979a1.133,1.133,0,0,1,.312-.817,1.179,1.179,0,0,1,.892-.325,1.193,1.193,0,0,1,.9.325,1.125,1.125,0,0,1,.316.817,1.1,1.1,0,0,1-.316.8,1.2,1.2,0,0,1-.9.321,1.188,1.188,0,0,1-.892-.321A1.107,1.107,0,0,1,62.96-11.979ZM73.235,0a3.3,3.3,0,0,1-.246-.888,3.325,3.325,0,0,1-2.5,1.063,3.355,3.355,0,0,1-2.338-.817,2.615,2.615,0,0,1-.905-2.021A2.7,2.7,0,0,1,68.379-5a5.473,5.473,0,0,1,3.23-.813h1.31v-.624a1.666,1.666,0,0,0-.413-1.182,1.638,1.638,0,0,0-1.257-.444,1.881,1.881,0,0,0-1.2.365,1.129,1.129,0,0,0-.466.927H67.452a2.37,2.37,0,0,1,.519-1.463A3.455,3.455,0,0,1,69.381-9.3a4.955,4.955,0,0,1,1.991-.387,3.99,3.99,0,0,1,2.663.839,2.993,2.993,0,0,1,1.02,2.36V-2.2a4.861,4.861,0,0,0,.36,2.048V0ZM70.888-1.538a2.429,2.429,0,0,0,1.191-.308,2.055,2.055,0,0,0,.839-.826V-4.465H71.767a3.148,3.148,0,0,0-1.784.413,1.338,1.338,0,0,0-.6,1.169,1.248,1.248,0,0,0,.409.98A1.583,1.583,0,0,0,70.888-1.538Z" transform="translate(957 463)" fill="#1b1b1b"/>
      </g>
    </g>
  </g>
</svg>
