<svg xmlns="http://www.w3.org/2000/svg" width="154" height="126.934" viewBox="0 0 154 126.934">
  <g id="Group_15930" data-name="Group 15930" transform="translate(-1283 -211.132)">
    <g id="Logo_Section" data-name="Logo Section" transform="translate(1307.814 211.132)">
      <g id="Group_15410" data-name="Group 15410" transform="translate(21.651)">
        <path id="Path_22575" d="M91.429,54.6a1.869,1.869,0,0,1-1.863,1.863,1.84,1.84,0,0,1-1.3-.559L62.639,30.188a2.7,2.7,0,0,1,0-3.913L88.261.559a1.8,1.8,0,0,1,2.609,0,1.84,1.84,0,0,1,.559,1.3Z" transform="translate(-61.8)" fill="#ff7a08" fill-rule="evenodd"/>
        <path id="Path_22576" d="M96.6,54.6a1.869,1.869,0,0,0,1.863,1.863,1.84,1.84,0,0,0,1.3-.559L125.39,30.188a2.7,2.7,0,0,0,0-3.913L99.768.559a1.8,1.8,0,0,0-2.609,0,1.84,1.84,0,0,0-.559,1.3Z" transform="translate(-64.176)" fill="#6ca042" fill-rule="evenodd"/>
      </g>
      <path id="Path_26052" data-name="Path 26052" d="M5-29.9a2.26,2.26,0,0,1,.238-1.023,2.351,2.351,0,0,1,.681-.819,3.539,3.539,0,0,1,1.067-.546,4.468,4.468,0,0,1,1.4-.2,6.824,6.824,0,0,1,2.35.409,7.76,7.76,0,0,1,2.237,1.317l1.045-1.385A9.269,9.269,0,0,0,11.482-33.6a8.819,8.819,0,0,0-3.054-.481,6.355,6.355,0,0,0-2.089.33,5.305,5.305,0,0,0-1.658.91,4.066,4.066,0,0,0-1.09,1.376,3.96,3.96,0,0,0-.386,1.751,4.288,4.288,0,0,0,.319,1.728A3.425,3.425,0,0,0,4.5-26.711a5.923,5.923,0,0,0,1.673.932,16.516,16.516,0,0,0,2.379.682,16.141,16.141,0,0,1,2.06.569,4.527,4.527,0,0,1,1.263.66,2.032,2.032,0,0,1,.637.807,2.647,2.647,0,0,1,.182,1.012,2.385,2.385,0,0,1-.965,1.979,4.087,4.087,0,0,1-2.577.751,7.248,7.248,0,0,1-2.929-.556A9.376,9.376,0,0,1,3.7-21.568L2.592-20.251A9.853,9.853,0,0,0,5.6-18.346a9.516,9.516,0,0,0,3.486.616,7.146,7.146,0,0,0,2.18-.318,5.007,5.007,0,0,0,1.708-.91,4.218,4.218,0,0,0,1.113-1.433,4.257,4.257,0,0,0,.4-1.865,3.55,3.55,0,0,0-1.26-2.888,9.366,9.366,0,0,0-3.917-1.637,15.763,15.763,0,0,1-2.157-.58,4.816,4.816,0,0,1-1.317-.682,2.028,2.028,0,0,1-.659-.83A2.74,2.74,0,0,1,5-29.9Zm20.71-4.069h-1.68L16.785-17.957h1.839l1.885-4.2h8.652l1.862,4.2h1.93Zm2.748,10.219H21.213l3.633-8.107Zm18.6-1.362v7.153h1.794v-15.9H47.055v7.062H37.881v-7.062H36.087v15.9h1.794V-25.11Zm13.852-8.856h-1.68L51.983-17.957h1.839l1.885-4.2h8.652l1.862,4.2h1.93Zm2.748,10.219H56.411l3.633-8.107Zm15.919.522V-33.853H77.779V-23.2a4.081,4.081,0,0,1-.886,2.85,2.893,2.893,0,0,1-2.225.965,3.542,3.542,0,0,1-2.078-.579,6.076,6.076,0,0,1-1.556-1.692l-1.294,1.113a6.478,6.478,0,0,0,1.93,2.021,5.215,5.215,0,0,0,2.975.795,5.583,5.583,0,0,0,1.976-.341,4.078,4.078,0,0,0,1.56-1.033A4.881,4.881,0,0,0,79.2-20.83,7.094,7.094,0,0,0,79.573-23.225Z" transform="translate(11.595 105.83)" fill="#484b49" stroke="rgba(0,0,0,0)" stroke-width="1"/>
    </g>
    <g id="Group_162333" data-name="Group 162333" transform="translate(403 -129.934)">
      <text id="State_Bank_of_India" data-name="State Bank of India" transform="translate(957 463)" fill="#1b1b1b" font-size="18" font-family="Roboto-Medium, Roboto" font-weight="500"><tspan x="-76" y="0">State Bank of India</tspan></text>
      <text id="Sahaj" transform="translate(981 462)" fill="#1b1b1b" font-size="18" font-family="NunitoSans-LightItalic, Nunito Sans" font-weight="300" font-style="italic" opacity="0"><tspan x="-21" y="0">Sahaj</tspan></text>
    </g>
  </g>
</svg>
