<svg xmlns="http://www.w3.org/2000/svg" width="37.607" height="36.023" viewBox="0 0 37.607 36.023">
  <g id="Logo_Section" data-name="Logo Section" transform="translate(-4.399)">
    <g id="Group_15113" data-name="Group 15113" transform="translate(11.267)">
      <path id="Path_22575" d="M73.291,21.176a.725.725,0,0,1-.723.723.713.713,0,0,1-.506-.217l-9.937-9.973a1.048,1.048,0,0,1,0-1.518L72.063.217a.7.7,0,0,1,1.012,0,.713.713,0,0,1,.217.506Z" transform="translate(-61.8 0)" fill="#ff7a08" fill-rule="evenodd"/>
      <path id="Path_22576" d="M96.6,21.176a.725.725,0,0,0,.723.723.713.713,0,0,0,.506-.217l9.937-9.973a1.048,1.048,0,0,0,0-1.518L97.829.217a.7.7,0,0,0-1.012,0A.713.713,0,0,0,96.6.723Z" transform="translate(-84.025 0)" fill="#6ca042" fill-rule="evenodd"/>
    </g>
    <path id="Path_26052" data-name="Path 26052" d="M3.731-32.1a1.069,1.069,0,0,1,.113-.484,1.112,1.112,0,0,1,.322-.387,1.674,1.674,0,0,1,.5-.258,2.113,2.113,0,0,1,.661-.1,3.228,3.228,0,0,1,1.112.193,3.671,3.671,0,0,1,1.058.623l.494-.655a4.384,4.384,0,0,0-1.2-.685,4.172,4.172,0,0,0-1.445-.228,3.006,3.006,0,0,0-.988.156,2.51,2.51,0,0,0-.784.43,1.923,1.923,0,0,0-.516.651,1.873,1.873,0,0,0-.183.828,2.028,2.028,0,0,0,.151.818,1.62,1.62,0,0,0,.463.6,2.8,2.8,0,0,0,.791.441,7.812,7.812,0,0,0,1.125.323,7.634,7.634,0,0,1,.974.269,2.141,2.141,0,0,1,.6.312.961.961,0,0,1,.3.382,1.252,1.252,0,0,1,.086.479,1.128,1.128,0,0,1-.457.936A1.933,1.933,0,0,1,5.7-27.1a3.429,3.429,0,0,1-1.386-.263,4.435,4.435,0,0,1-1.192-.8l-.526.623a4.66,4.66,0,0,0,1.423.9,4.5,4.5,0,0,0,1.649.291A3.38,3.38,0,0,0,6.7-26.5a2.369,2.369,0,0,0,.808-.43A2,2,0,0,0,8.03-27.6a2.013,2.013,0,0,0,.191-.882,1.679,1.679,0,0,0-.6-1.366,4.43,4.43,0,0,0-1.853-.774,7.456,7.456,0,0,1-1.02-.274,2.278,2.278,0,0,1-.623-.323.959.959,0,0,1-.311-.393A1.3,1.3,0,0,1,3.731-32.1Zm9.8-1.925h-.795L9.305-26.454h.87l.892-1.987h4.092l.881,1.987h.913Zm1.3,4.834H11.4l1.719-3.835Zm8.8-.644v3.383h.849v-7.519h-.849v3.341H19.284v-3.341h-.849v7.519h.849v-3.383Zm6.552-4.189h-.795l-3.426,7.573h.87l.892-1.987h4.092l.881,1.987H33.6Zm1.3,4.834H28.049l1.719-3.835Zm7.53.247v-5.027h-.849v5.038a1.93,1.93,0,0,1-.419,1.348,1.368,1.368,0,0,1-1.053.457A1.675,1.675,0,0,1,35.7-27.4a2.874,2.874,0,0,1-.736-.8l-.612.526a3.064,3.064,0,0,0,.913.956,2.467,2.467,0,0,0,1.407.376,2.641,2.641,0,0,0,.934-.161A1.929,1.929,0,0,0,38.346-27a2.309,2.309,0,0,0,.483-.816A3.355,3.355,0,0,0,39-28.946Z" transform="translate(2.501 61.869)" fill="#484b49" stroke="rgba(0,0,0,0)" stroke-width="1"/>
  </g>
</svg>
