<svg xmlns="http://www.w3.org/2000/svg" width="64.277" height="64.551" viewBox="0 0 64.277 64.551">
  <g id="Group_15411" data-name="Group 15411" transform="translate(-96.682 -219)">
    <g id="Logo_Section" data-name="Logo Section" transform="translate(104.399 219)">
      <g id="Group_15410" data-name="Group 15410" transform="translate(9.643)">
        <path id="Path_22575" d="M75,24.317a.832.832,0,0,1-.83.83.819.819,0,0,1-.581-.249L62.173,13.445a1.2,1.2,0,0,1,0-1.743L73.585.249a.8.8,0,0,1,1.162,0A.819.819,0,0,1,75,.83Z" transform="translate(-61.8 0)" fill="#ff7a08" fill-rule="evenodd"/>
        <path id="Path_22576" d="M96.6,24.317a.832.832,0,0,0,.83.83.819.819,0,0,0,.581-.249l11.411-11.453a1.2,1.2,0,0,0,0-1.743L98.011.249a.8.8,0,0,0-1.162,0A.819.819,0,0,0,96.6.83Z" transform="translate(-82.159 0)" fill="#6ca042" fill-rule="evenodd"/>
      </g>
      <path id="Path_26052" data-name="Path 26052" d="M3.9-31.809a1.227,1.227,0,0,1,.13-.556,1.277,1.277,0,0,1,.37-.445,1.922,1.922,0,0,1,.58-.3,2.427,2.427,0,0,1,.759-.111,3.706,3.706,0,0,1,1.276.222,4.215,4.215,0,0,1,1.215.715l.567-.752a5.034,5.034,0,0,0-1.375-.787,4.79,4.79,0,0,0-1.659-.261,3.452,3.452,0,0,0-1.135.179,2.882,2.882,0,0,0-.9.494,2.209,2.209,0,0,0-.592.747,2.151,2.151,0,0,0-.21.951,2.329,2.329,0,0,0,.173.939,1.86,1.86,0,0,0,.532.692,3.217,3.217,0,0,0,.909.506A8.97,8.97,0,0,0,5.83-29.2a8.766,8.766,0,0,1,1.119.309,2.459,2.459,0,0,1,.686.358,1.1,1.1,0,0,1,.346.439,1.437,1.437,0,0,1,.1.55,1.3,1.3,0,0,1-.524,1.075,2.22,2.22,0,0,1-1.4.408,3.937,3.937,0,0,1-1.591-.3A5.092,5.092,0,0,1,3.2-27.284l-.6.715a5.351,5.351,0,0,0,1.634,1.035,5.168,5.168,0,0,0,1.893.334A3.881,3.881,0,0,0,7.3-25.373a2.72,2.72,0,0,0,.928-.494,2.291,2.291,0,0,0,.6-.778,2.312,2.312,0,0,0,.219-1.013,1.928,1.928,0,0,0-.684-1.569,5.087,5.087,0,0,0-2.127-.889,8.561,8.561,0,0,1-1.172-.315,2.615,2.615,0,0,1-.715-.371A1.1,1.1,0,0,1,4-31.253,1.488,1.488,0,0,1,3.9-31.809Zm11.248-2.21h-.913l-3.934,8.7h1l1.024-2.282h4.7l1.011,2.282h1.048Zm1.492,5.55H12.705l1.973-4.4Zm10.1-.74v3.885h.974v-8.633h-.974v3.836H21.758v-3.836h-.974v8.633h.974v-3.885Zm7.523-4.81h-.913l-3.934,8.7h1l1.024-2.282h4.7l1.011,2.282H38.2Zm1.492,5.55H31.822l1.973-4.4Zm8.646.284v-5.772h-.974v5.784a2.217,2.217,0,0,1-.481,1.548,1.571,1.571,0,0,1-1.209.524,1.924,1.924,0,0,1-1.129-.315,3.3,3.3,0,0,1-.845-.919l-.7.6a3.518,3.518,0,0,0,1.048,1.1,2.832,2.832,0,0,0,1.616.432,3.032,3.032,0,0,0,1.073-.185,2.215,2.215,0,0,0,.847-.561,2.651,2.651,0,0,0,.555-.937A3.853,3.853,0,0,0,44.4-28.185Z" transform="translate(-0.036 64.83)" fill="#484b49" stroke="rgba(0,0,0,0)" stroke-width="1"/>
    </g>
    <g id="Group_162338" data-name="Group 162338" transform="translate(-849.041 -184.449)">
      <path id="Path_26089" data-name="Path 26089" d="M-7.23-5.07a7.053,7.053,0,0,1-2.809-1.363,2.6,2.6,0,0,1-.879-2,2.751,2.751,0,0,1,1.074-2.223,4.269,4.269,0,0,1,2.793-.879,4.66,4.66,0,0,1,2.09.453,3.436,3.436,0,0,1,1.422,1.25,3.2,3.2,0,0,1,.5,1.742H-4.543A2.08,2.08,0,0,0-5.2-9.713,2.669,2.669,0,0,0-7.051-10.3a2.732,2.732,0,0,0-1.73.489A1.632,1.632,0,0,0-9.4-8.458a1.468,1.468,0,0,0,.59,1.178A5.785,5.785,0,0,0-6.8-6.4a9.316,9.316,0,0,1,2.219.88A3.367,3.367,0,0,1-3.4-4.4a2.861,2.861,0,0,1,.387,1.508A2.658,2.658,0,0,1-4.09-.676,4.6,4.6,0,0,1-6.973.156,5.347,5.347,0,0,1-9.16-.293a3.681,3.681,0,0,1-1.566-1.23A3,3,0,0,1-11.277-3.3H-9.77a1.959,1.959,0,0,0,.762,1.629,3.207,3.207,0,0,0,2.035.6,2.948,2.948,0,0,0,1.82-.484,1.573,1.573,0,0,0,.633-1.32,1.545,1.545,0,0,0-.586-1.293A6.755,6.755,0,0,0-7.23-5.07ZM-1.09,0V-11.375H2.629a4.317,4.317,0,0,1,2.785.766,2.759,2.759,0,0,1,.934,2.266,2.31,2.31,0,0,1-.453,1.41,2.938,2.938,0,0,1-1.234.949A2.638,2.638,0,0,1,6.117-5a2.814,2.814,0,0,1,.535,1.723A3.042,3.042,0,0,1,5.66-.875,4.1,4.1,0,0,1,2.855,0ZM.41-5.32v4.094H2.887A2.385,2.385,0,0,0,4.539-1.77a1.907,1.907,0,0,0,.605-1.5q0-2.055-2.234-2.055Zm0-1.2H2.676A2.375,2.375,0,0,0,4.25-7.017a1.654,1.654,0,0,0,.59-1.339,1.626,1.626,0,0,0-.547-1.366,2.686,2.686,0,0,0-1.664-.427H.41ZM10.48,0H8.98V-11.375h1.5Z" transform="translate(957 463.531)" fill="#1b1b1b"/>
      <text id="Sahaj" transform="translate(991 463)" fill="#1b1b1b" font-size="15" font-family="NunitoSans-LightItalic, Nunito Sans" font-weight="300" font-style="italic"><tspan x="-18" y="0">Sahaj</tspan></text>
    </g>
  </g>
</svg>
