<svg xmlns="http://www.w3.org/2000/svg" xmlns:xlink="http://www.w3.org/1999/xlink" width="60.843" height="63.031" viewBox="0 0 60.843 63.031">
  <defs>
    <linearGradient id="linear-gradient" x1="0.7" y1="-0.537" x2="0.253" y2="0.636" gradientUnits="objectBoundingBox">
      <stop offset="0" stop-color="#290170"/>
      <stop offset="1" stop-color="#be1e53"/>
    </linearGradient>
  </defs>
  <g id="assets" transform="translate(-3.5 -2.45)">
    <path id="Path_26061" data-name="Path 26061" d="M63.532,54.719l-3.206-3.206a1.069,1.069,0,0,0-.759-.278H54.224V45.892a1.069,1.069,0,0,0-.31-.759l-3.206-3.206a1.069,1.069,0,0,0-.759-.31H44.607V36.274a1.069,1.069,0,0,0-.31-.759L41.091,32.31a1.069,1.069,0,0,0-.759-.31H27.509a1.069,1.069,0,0,0-.759.31l-3.206,3.206a1.069,1.069,0,0,0-.31.759v5.343H17.892a1.069,1.069,0,0,0-.759.31l-3.206,3.206a1.069,1.069,0,0,0-.31.759v5.343H8.274a1.069,1.069,0,0,0-.759.31L4.31,54.751a1.069,1.069,0,0,0-.31.759v6.412A1.069,1.069,0,0,0,5.069,62.99h57.7a1.069,1.069,0,0,0,1.069-1.069V55.509A1.069,1.069,0,0,0,63.532,54.719ZM52.087,46.3v4.937H34.99V46.3l2.575-2.543H49.512ZM43.538,53.96l-.63-.588h1.261Zm-9.617-9.617-.63-.588h1.261ZM25.372,36.68l2.575-2.543H39.894L42.47,36.68v4.937h-17.1ZM15.755,46.3l2.575-2.543H30.277L32.852,46.3v4.937h-17.1ZM24.3,53.96l-.63-.588h1.261ZM6.137,55.915l2.575-2.543H20.66l2.575,2.543v4.937H6.137Zm19.235,0,2.575-2.543H39.894l2.575,2.543v4.937h-17.1ZM61.7,60.852h-17.1V55.915l2.575-2.543H59.129L61.7,55.915Z" transform="translate(0 1.991)" stroke="rgba(0,0,0,0)" stroke-width="1" fill="url(#linear-gradient)"/>
    <path id="Path_26062" data-name="Path 26062" d="M32.583,27.166A9.083,9.083,0,1,0,23.5,18.083,9.083,9.083,0,0,0,32.583,27.166Zm0-16.029a6.946,6.946,0,1,1-6.946,6.946,6.946,6.946,0,0,1,6.946-6.946Z" transform="translate(1.338 0.413)" stroke="rgba(0,0,0,0)" stroke-width="1" fill="url(#linear-gradient)"/>
    <path id="Path_26063" data-name="Path 26063" d="M32.858,31.715A13.358,13.358,0,1,0,19.5,18.358,13.358,13.358,0,0,0,32.858,31.715Zm0-24.578a11.22,11.22,0,1,1-11.22,11.22,11.22,11.22,0,0,1,11.22-11.22Z" transform="translate(1.063 0.139)" stroke="rgba(0,0,0,0)" stroke-width="1" fill="url(#linear-gradient)"/>
    <path id="Path_26065" data-name="Path 26065" d="M48.069,18.607h3.206a1.069,1.069,0,0,0,0-2.137H48.069a1.069,1.069,0,0,0,0,2.137Z" transform="translate(2.95 0.925)" stroke="rgba(0,0,0,0)" stroke-width="1" fill="url(#linear-gradient)"/>
    <path id="Path_26066" data-name="Path 26066" d="M43.378,7.436a1.069,1.069,0,0,0,.737-.31l2.265-2.265a1.069,1.069,0,1,0-1.507-1.507L42.63,5.619a1.063,1.063,0,0,0,.748,1.817Z" transform="translate(2.629 0)" stroke="rgba(0,0,0,0)" stroke-width="1" fill="url(#linear-gradient)"/>
    <path id="Path_26067" data-name="Path 26067" d="M20.167,7.122a1.065,1.065,0,1,0,1.507-1.507L19.387,3.35A1.065,1.065,0,0,0,17.88,4.857Z" transform="translate(0.931 0.004)" stroke="rgba(0,0,0,0)" stroke-width="1" fill="url(#linear-gradient)"/>
    <path id="Path_26068" data-name="Path 26068" d="M13.069,18.607h3.206a1.069,1.069,0,1,0,0-2.137H13.069a1.069,1.069,0,0,0,0,2.137Z" transform="translate(0.549 0.925)" stroke="rgba(0,0,0,0)" stroke-width="1" fill="url(#linear-gradient)"/>
    <path id="Path_26069" data-name="Path 26069" d="M18.628,32.183a1.069,1.069,0,0,0,.759-.31l2.265-2.265a1.069,1.069,0,0,0-1.507-1.517L17.88,30.366a1.069,1.069,0,0,0,.748,1.817Z" transform="translate(0.931 1.701)" stroke="rgba(0,0,0,0)" stroke-width="1" fill="url(#linear-gradient)"/>
    <path id="Path_26070" data-name="Path 26070" d="M44.117,28.09a1.069,1.069,0,1,0-1.507,1.517l2.265,2.265a1.065,1.065,0,1,0,1.507-1.507Z" transform="translate(2.627 1.701)" stroke="rgba(0,0,0,0)" stroke-width="1" fill="url(#linear-gradient)"/>
    <g id="Group_162228" data-name="Group 162228" transform="translate(31.183 14.331)">
      <g id="Group_162221" data-name="Group 162221" transform="translate(0)">
        <path id="Path_26060" data-name="Path 26060" d="M283.263,67.9h-.747a2.339,2.339,0,0,0-.323-.78h1.07a.557.557,0,0,0,0-1.115H278.9a.557.557,0,0,0,0,1.115h1.249a1.332,1.332,0,0,1,1.187.78H278.9a.557.557,0,0,0,0,1.115h2.436a1.775,1.775,0,0,1-.256.351,1.3,1.3,0,0,1-.931.373H278.9a.561.561,0,0,0-.557.569.576.576,0,0,0,.173.4l3.116,2.949a.556.556,0,1,0,.764-.808l-2.1-1.99a2.4,2.4,0,0,0,1.566-.7,2.5,2.5,0,0,0,.652-1.148h.747a.557.557,0,0,0,0-1.115Z" transform="translate(-278.346 -66)" fill="url(#linear-gradient)"/>
      </g>
    </g>
  </g>
</svg>
