<svg xmlns="http://www.w3.org/2000/svg" width="148.354" height="50.83" viewBox="0 0 148.354 50.83">
  <g id="state-bank-of-india-logo" transform="translate(-0.132 -0.132)">
    <path id="Path_23208" data-name="Path 23208" d="M40.345,25.8c-2.712-2.245-6.216-3.7-9.309-4.973-4.266-1.768-7.953-3.285-7.953-6.109a4,4,0,0,1,1.629-3.183,7.1,7.1,0,0,1,4.341-1.34c5.338,0,9.593,3.778,9.63,3.8l1.04.954L44.45,6.092l-.541-.573C43.7,5.3,38.726.16,29.117.16A18.132,18.132,0,0,0,17.188,4.308a13.773,13.773,0,0,0-4.871,10.547A12.2,12.2,0,0,0,17.038,24.7c2.669,2.219,6,3.649,9.217,5.037,4.384,1.892,8.178,3.526,8.178,6.431,0,2.219-1.5,4.587-5.707,4.587-6.034,0-10.879-4.593-10.922-4.641l-.911-.879L11.02,43.38l.589.654a20.049,20.049,0,0,0,4.437,3.414A24.866,24.866,0,0,0,28.592,50.8c4.925,0,9.121-1.511,12.138-4.368a14.2,14.2,0,0,0,4.4-10.45A12.523,12.523,0,0,0,40.345,25.8m49.667,24.26h11.013V.894H90.017ZM68.5,40.856H60.109V10.1H67.5c3.312,0,5.209,1.854,5.209,5.086,0,3.264-1.7,4.914-5.08,4.914H65.082v9.057H68.49a6.068,6.068,0,0,1,4.485,1.683,5.145,5.145,0,0,1,1.581,3.955c0,3.751-2.32,6.072-6.066,6.072M83.109,27.973a11.211,11.211,0,0,0-4.362-3.987,12.372,12.372,0,0,0,4.491-9.861,12.149,12.149,0,0,0-4.491-9.834c-2.765-2.224-6.608-3.4-11.12-3.4H49.712V50.063H67.826c4.807,0,8.966-1.211,12.026-3.51a13.474,13.474,0,0,0,5.305-11.238,13.605,13.605,0,0,0-2.047-7.342" transform="translate(47.461 0.122)" fill="#280470"/>
    <path id="Path_23209" data-name="Path 23209" d="M25.555.132a25.485,25.485,0,0,0-2.6,50.83V32.447a7.323,7.323,0,1,1,5.2,0v18.5A25.477,25.477,0,0,0,25.555.137" transform="translate(0 0)" fill="#4ea4da"/>
  </g>
</svg>
