<svg xmlns="http://www.w3.org/2000/svg" xmlns:xlink="http://www.w3.org/1999/xlink" width="173.288" height="159.676" viewBox="0 0 173.288 159.676">
  <defs>
    <linearGradient id="linear-gradient" x1="0.018" y1="0.586" x2="0.992" y2="0.571" gradientUnits="objectBoundingBox">
      <stop offset="0" stop-color="#a5235a"/>
      <stop offset="1" stop-color="#33026f"/>
    </linearGradient>
  </defs>
  <g id="Setup_Wizard-rafiki" data-name="Setup Wizard-rafiki" transform="translate(-23.094 -61.272)">
    <g id="freepik--Shadow--inject-4" transform="translate(23.094 210.831)">
      <ellipse id="freepik--path--inject-4" cx="86.644" cy="5.059" rx="86.644" ry="5.059" fill="#e0d7ea"/>
    </g>
    <g id="freepik--setup-wizard--inject-4" transform="translate(30.498 61.272)">
      <path id="Path_26512" data-name="Path 26512" d="M78.661,169.83l-5.5-95.657a3.235,3.235,0,0,1,3.262-3.463H185.517a3.714,3.714,0,0,1,3.66,3.463l5.5,95.657a3.226,3.226,0,0,1-3.258,3.459H82.316A3.7,3.7,0,0,1,78.661,169.83Z" transform="translate(-72.941 -70.499)" fill="url(#linear-gradient)"/>
      <path id="Path_26513" data-name="Path 26513" d="M191.155,173.244H82.055a3.932,3.932,0,0,1-3.87-3.66l-5.5-95.662a3.436,3.436,0,0,1,3.472-3.682H185.256a3.928,3.928,0,0,1,3.87,3.66l5.5,95.657a3.445,3.445,0,0,1-3.472,3.687ZM78.632,169.557a3.5,3.5,0,0,0,3.445,3.262H191.155a3.025,3.025,0,0,0,3.048-3.235l-5.5-95.662a3.5,3.5,0,0,0-3.45-3.258H76.161A3.016,3.016,0,0,0,73.114,73.9Z" transform="translate(-72.68 -70.239)" fill="url(#linear-gradient)"/>
      <path id="Path_26514" data-name="Path 26514" d="M81.651,169.83l-5.5-95.657a3.235,3.235,0,0,1,3.262-3.463H188.507a3.713,3.713,0,0,1,3.66,3.463l5.5,95.657a3.226,3.226,0,0,1-3.258,3.459H85.306A3.7,3.7,0,0,1,81.651,169.83Z" transform="translate(-74.595 -70.499)" fill="#fff"/>
      <path id="Path_26515" data-name="Path 26515" d="M194.145,173.244H85.046a3.932,3.932,0,0,1-3.865-3.66l-5.5-95.662a3.436,3.436,0,0,1,3.472-3.682H188.246a3.928,3.928,0,0,1,3.87,3.66l5.5,95.657a3.445,3.445,0,0,1-3.472,3.687ZM79.151,70.664A3.016,3.016,0,0,0,76.1,73.9l5.5,95.657a3.5,3.5,0,0,0,3.445,3.262h109.1a3.025,3.025,0,0,0,3.048-3.235l-5.5-95.662a3.508,3.508,0,0,0-3.45-3.258Z" transform="translate(-74.334 -70.239)" fill="url(#linear-gradient)"/>
      <path id="Path_26516" data-name="Path 26516" d="M130.1,96.53H99.616a2.234,2.234,0,0,1-2.172-2.069h0A1.922,1.922,0,0,1,99.38,92.41h30.486a2.208,2.208,0,0,1,2.172,2.051h0A1.922,1.922,0,0,1,130.1,96.53Z" transform="translate(-86.376 -82.502)" fill="url(#linear-gradient)"/>
      <path id="Path_26517" data-name="Path 26517" d="M125.011,112.484h-24.48a2.208,2.208,0,0,1-2.167-2.029h0a1.922,1.922,0,0,1,1.93-2.056H124.77a2.208,2.208,0,0,1,2.172,2.056h0a1.922,1.922,0,0,1-1.93,2.029Z" transform="translate(-86.884 -91.347)" fill="url(#linear-gradient)"/>
      <g id="Group_163643" data-name="Group 163643" transform="translate(12.048 27.635)">
        <path id="Path_26518" data-name="Path 26518" d="M137.692,134.761H101.048a1.421,1.421,0,0,1-1.4-1.341h0a1.242,1.242,0,0,1,1.251-1.341H137.54a1.426,1.426,0,0,1,1.4,1.341h0a1.242,1.242,0,0,1-1.251,1.341Z" transform="translate(-99.641 -132.08)" fill="#e0d6e9"/>
        <path id="Path_26519" data-name="Path 26519" d="M149.588,144.221H110.608a1.426,1.426,0,0,1-1.4-1.341h0a1.238,1.238,0,0,1,1.251-1.341h38.981a1.421,1.421,0,0,1,1.4,1.341h0a1.242,1.242,0,0,1-1.251,1.341Z" transform="translate(-104.929 -137.312)" fill="#e0d6e9"/>
        <path id="Path_26520" data-name="Path 26520" d="M143,153.681H111.152a1.417,1.417,0,0,1-1.4-1.341h0A1.229,1.229,0,0,1,111,151h31.844a1.417,1.417,0,0,1,1.4,1.341h0A1.242,1.242,0,0,1,143,153.681Z" transform="translate(-105.232 -142.545)" fill="#e0d6e9"/>
        <path id="Path_26521" data-name="Path 26521" d="M139.944,163.141H111.7a1.421,1.421,0,0,1-1.4-1.341h0a1.233,1.233,0,0,1,1.247-1.341h28.251a1.421,1.421,0,0,1,1.4,1.341h0a1.242,1.242,0,0,1-1.251,1.341Z" transform="translate(-105.531 -147.778)" fill="#e0d6e9"/>
        <path id="Path_26522" data-name="Path 26522" d="M126.437,178.531H103.553a1.412,1.412,0,0,1-1.4-1.341h0a1.233,1.233,0,0,1,1.247-1.341h22.884a1.426,1.426,0,0,1,1.4,1.341h0a1.238,1.238,0,0,1-1.251,1.341Z" transform="translate(-101.029 -156.29)" fill="#e0d6e9"/>
        <path id="Path_26523" data-name="Path 26523" d="M138.809,204.3H114.056a1.242,1.242,0,0,0-1.251,1.341h0a1.426,1.426,0,0,0,1.4,1.341h24.761a1.242,1.242,0,0,0,1.251-1.341h0A1.421,1.421,0,0,0,138.809,204.3Z" transform="translate(-106.92 -172.027)" fill="#e0d6e9"/>
        <path id="Path_26524" data-name="Path 26524" d="M133.594,194.84H113.516a1.242,1.242,0,0,0-1.251,1.341h0a1.421,1.421,0,0,0,1.4,1.341h20.06a1.238,1.238,0,0,0,1.251-1.341h0a1.421,1.421,0,0,0-1.385-1.341Z" transform="translate(-106.622 -166.794)" fill="#e0d6e9"/>
        <path id="Path_26525" data-name="Path 26525" d="M135.365,185.38H113.021a1.238,1.238,0,0,0-1.247,1.341h0a1.417,1.417,0,0,0,1.4,1.341h22.366a1.238,1.238,0,0,0,1.251-1.341h0A1.425,1.425,0,0,0,135.365,185.38Z" transform="translate(-106.35 -161.562)" fill="#e0d6e9"/>
        <path id="Path_26526" data-name="Path 26526" d="M130.582,250.681H107.7a1.425,1.425,0,0,1-1.4-1.341h0A1.238,1.238,0,0,1,107.546,248H130.43a1.417,1.417,0,0,1,1.4,1.341h0a1.233,1.233,0,0,1-1.247,1.341Z" transform="translate(-103.319 -196.198)" fill="#e0d6e9"/>
        <path id="Path_26527" data-name="Path 26527" d="M142.968,276.46H118.206a1.242,1.242,0,0,0-1.251,1.341h0a1.426,1.426,0,0,0,1.4,1.341h24.761a1.238,1.238,0,0,0,1.251-1.341h0A1.426,1.426,0,0,0,142.968,276.46Z" transform="translate(-109.216 -211.941)" fill="#e0d6e9"/>
        <path id="Path_26528" data-name="Path 26528" d="M137.726,267H117.661a1.238,1.238,0,0,0-1.247,1.341h0a1.421,1.421,0,0,0,1.4,1.341h20.06a1.242,1.242,0,0,0,1.251-1.341h0A1.426,1.426,0,0,0,137.726,267Z" transform="translate(-108.917 -206.708)" fill="#e0d6e9"/>
        <path id="Path_26529" data-name="Path 26529" d="M139.51,257.54H117.166a1.238,1.238,0,0,0-1.251,1.341h0a1.425,1.425,0,0,0,1.4,1.341h22.366a1.242,1.242,0,0,0,1.251-1.341h0a1.426,1.426,0,0,0-1.426-1.341Z" transform="translate(-108.64 -201.475)" fill="#e0d6e9"/>
        <path id="Path_26530" data-name="Path 26530" d="M140.452,232.68H115.691a1.233,1.233,0,0,0-1.247,1.341h0a1.417,1.417,0,0,0,1.4,1.341h24.766a1.238,1.238,0,0,0,1.251-1.341h0A1.421,1.421,0,0,0,140.452,232.68Z" transform="translate(-107.827 -187.724)" fill="#e0d6e9"/>
        <path id="Path_26531" data-name="Path 26531" d="M135.206,223.22h-20.06a1.242,1.242,0,0,0-1.251,1.341h0a1.426,1.426,0,0,0,1.4,1.341h20.06a1.242,1.242,0,0,0,1.251-1.341h0a1.421,1.421,0,0,0-1.4-1.341Z" transform="translate(-107.523 -182.492)" fill="#e0d6e9"/>
        <path id="Path_26532" data-name="Path 26532" d="M137,213.76H114.651A1.238,1.238,0,0,0,113.4,215.1h0a1.421,1.421,0,0,0,1.4,1.341h22.344A1.242,1.242,0,0,0,138.4,215.1h0A1.425,1.425,0,0,0,137,213.76Z" transform="translate(-107.252 -177.259)" fill="#e0d6e9"/>
      </g>
      <path id="Path_26533" data-name="Path 26533" d="M231.879,108.736H220.828a11.86,11.86,0,0,1-11.69-11.051h0a10.327,10.327,0,0,1,10.421-11.056h0a11.856,11.856,0,0,1,11.686,11.056Z" transform="translate(-148.145 -79.305)" fill="#673391"/>
      <path id="Path_26534" data-name="Path 26534" d="M223.094,109.2h0a9.8,9.8,0,0,1-9.661-9.139h0a8.531,8.531,0,0,1,8.611-9.139h0a9.8,9.8,0,0,1,9.666,9.139h0a8.535,8.535,0,0,1-8.616,9.139Z" transform="translate(-150.523 -81.678)" fill="#fff"/>
      <path id="Path_26535" data-name="Path 26535" d="M231.345,103.09l.447,7.4h-2.047l-.277-4.849a5.954,5.954,0,0,1-.925.608,7.31,7.31,0,0,1-1.14.447l-.094-1.658a4.5,4.5,0,0,0,1.555-.8,2.976,2.976,0,0,0,.827-1.148Z" transform="translate(-158.21 -88.41)" fill="#263238"/>
      <path id="Path_26536" data-name="Path 26536" d="M274.507,158.206h11.051a10.323,10.323,0,0,0,10.417-11.056h0A11.856,11.856,0,0,0,284.289,136.1h0a10.323,10.323,0,0,0-10.421,11.051Z" transform="translate(-183.949 -106.668)" fill="#673391"/>
      <path id="Path_26537" data-name="Path 26537" d="M287.825,158.656h0a8.535,8.535,0,0,0,8.616-9.139h0a9.8,9.8,0,0,0-9.666-9.139h0a8.535,8.535,0,0,0-8.611,9.139h0a9.8,9.8,0,0,0,9.661,9.139Z" transform="translate(-186.327 -109.035)" fill="#fff"/>
      <path id="Path_26538" data-name="Path 26538" d="M298.657,159.934h-6.064a3.575,3.575,0,0,1,.532-1.689A7.843,7.843,0,0,1,295,156.377a5.451,5.451,0,0,0,1.077-1,1.077,1.077,0,0,0,.215-.652.8.8,0,0,0-.282-.568.894.894,0,0,0-.63-.237.8.8,0,0,0-.617.246,1.381,1.381,0,0,0-.281.858l-2.033-.165a3.061,3.061,0,0,1,.357-1.341,1.841,1.841,0,0,1,.854-.733,3.879,3.879,0,0,1,1.586-.259,4.575,4.575,0,0,1,1.676.246,2.194,2.194,0,0,1,.974.746,2.092,2.092,0,0,1,.407,1.131,2.234,2.234,0,0,1-.317,1.269,4.917,4.917,0,0,1-1.341,1.341c-.393.282-.652.478-.782.594a5.7,5.7,0,0,0-.447.447h3.159Z" transform="translate(-194.241 -115.751)" fill="#263238"/>
      <g id="Group_163642" data-name="Group 163642" transform="translate(63.501 51.524)">
        <path id="Path_26539" data-name="Path 26539" d="M237.558,207.641H226.5a11.86,11.86,0,0,1-11.69-11.051h0a10.318,10.318,0,0,1,10.417-11.051h0a11.86,11.86,0,0,1,11.69,11.051Z" transform="translate(-214.782 -185.538)" fill="#e0d6e9"/>
      </g>
      <path id="Path_26540" data-name="Path 26540" d="M228.784,208.126h0a9.8,9.8,0,0,1-9.661-9.139h0a8.531,8.531,0,0,1,8.611-9.139h0a9.8,9.8,0,0,1,9.643,9.139h0a8.535,8.535,0,0,1-8.593,9.139Z" transform="translate(-153.67 -136.399)" fill="#fff"/>
      <path id="Path_26541" data-name="Path 26541" d="M234.8,204.1l-1.931-.344a2.234,2.234,0,0,1,.836-1.4,3.128,3.128,0,0,1,1.89-.487,3.342,3.342,0,0,1,2.091.532,1.787,1.787,0,0,1,.711,1.341,1.407,1.407,0,0,1-.21.854,2.011,2.011,0,0,1-.737.67,2.315,2.315,0,0,1,.657.241,1.685,1.685,0,0,1,.6.59,1.828,1.828,0,0,1,.25.867,2.342,2.342,0,0,1-.264,1.22,2.029,2.029,0,0,1-.894.894,3.522,3.522,0,0,1-1.622.317,4.371,4.371,0,0,1-1.582-.237,2.494,2.494,0,0,1-.979-.679,3.32,3.32,0,0,1-.635-1.131l2.006-.268a1.725,1.725,0,0,0,.416.849.948.948,0,0,0,.652.25.831.831,0,0,0,.661-.295,1.113,1.113,0,0,0,.223-.8,1.167,1.167,0,0,0-.3-.786,1,1,0,0,0-.724-.277,2.432,2.432,0,0,0-.648.121V204.7a2.646,2.646,0,0,0,.268,0,.894.894,0,0,0,.648-.25.769.769,0,0,0,.228-.6.778.778,0,0,0-.228-.532.786.786,0,0,0-.559-.2.764.764,0,0,0-.568.214A1.26,1.26,0,0,0,234.8,204.1Z" transform="translate(-161.286 -143.04)" fill="#263238"/>
      <path id="Path_26545" data-name="Path 26545" d="M268.366,180.172a.4.4,0,0,1-.393-.371l-2.538-44.209a.393.393,0,1,1,.782-.045l2.52,44.218a.393.393,0,0,1-.366.416Z" transform="translate(-179.296 -106.138)" fill="#673391"/>
      <path id="Path_26547" data-name="Path 26547" d="M266.049,135.077a.773.773,0,0,1-.778.827.894.894,0,0,1-.894-.827.773.773,0,0,1,.782-.827A.894.894,0,0,1,266.049,135.077Z" transform="translate(-178.713 -105.645)" fill="#fff"/>
      <path id="Path_26548" data-name="Path 26548" d="M264.811,135.81a1.283,1.283,0,0,1-1.265-1.2,1.162,1.162,0,0,1,1.171-1.242,1.287,1.287,0,0,1,1.265,1.2h0a1.166,1.166,0,0,1-.317.894A1.148,1.148,0,0,1,264.811,135.81Zm-.094-1.653a.389.389,0,0,0-.286.116.371.371,0,0,0-.1.295.5.5,0,0,0,.483.447.389.389,0,0,0,.286-.116.406.406,0,0,0,.1-.295A.5.5,0,0,0,264.717,134.156Z" transform="translate(-178.252 -105.159)" fill="#673391"/>
      <path id="Path_26549" data-name="Path 26549" d="M268.923,184.547a.778.778,0,0,1-.782.827.894.894,0,0,1-.894-.827.769.769,0,0,1,.778-.827A.894.894,0,0,1,268.923,184.547Z" transform="translate(-180.3 -133.009)" fill="#fff"/>
      <path id="Path_26550" data-name="Path 26550" d="M267.651,185.259a1.282,1.282,0,0,1-1.265-1.193,1.175,1.175,0,0,1,.317-.894,1.162,1.162,0,0,1,.853-.362A1.282,1.282,0,0,1,268.821,184h0a1.157,1.157,0,0,1-1.171,1.238Zm-.094-1.653a.393.393,0,0,0-.286.121.4.4,0,0,0-.1.295.5.5,0,0,0,.483.447.384.384,0,0,0,.389-.411.5.5,0,0,0-.487-.451Z" transform="translate(-179.823 -132.505)" fill="#673391"/>
      <path id="Path_26551" data-name="Path 26551" d="M271.761,233.977a.773.773,0,0,1-.782.827.894.894,0,0,1-.871-.827.773.773,0,0,1,.778-.827A.894.894,0,0,1,271.761,233.977Z" transform="translate(-181.882 -160.35)" fill="#fff"/>
      <path id="Path_26552" data-name="Path 26552" d="M270.49,234.723a1.287,1.287,0,0,1-1.265-1.2,1.166,1.166,0,0,1,.317-.894,1.144,1.144,0,0,1,.854-.362,1.283,1.283,0,0,1,1.265,1.193h0a1.14,1.14,0,0,1-.313.894A1.166,1.166,0,0,1,270.49,234.723Zm-.094-1.653a.393.393,0,0,0-.286.116.411.411,0,0,0-.1.295.5.5,0,0,0,.483.447.393.393,0,0,0,.286-.121.371.371,0,0,0,.1-.295h0A.5.5,0,0,0,270.4,233.07Z" transform="translate(-181.393 -159.863)" fill="#673391"/>
      <path id="Path_26553" data-name="Path 26553" d="M274.579,283.477a.773.773,0,0,1-.778.827.894.894,0,0,1-.894-.827.773.773,0,0,1,.782-.827A.894.894,0,0,1,274.579,283.477Z" transform="translate(-183.431 -187.73)" fill="#fff"/>
    </g>
    <g id="freepik--Character--inject-4" transform="translate(140.767 72.932)">
      <path id="Path_26555" data-name="Path 26555" d="M419.164,154.52c.3.447.541.862.786,1.3s.474.862.7,1.3c.447.867.862,1.756,1.247,2.654a35.859,35.859,0,0,1,1.854,5.608l.156.733.076.366v.089l.031.188a3.371,3.371,0,0,1,.04.357,4.88,4.88,0,0,1-.447,2.141,11.621,11.621,0,0,1-1.761,2.73,25.473,25.473,0,0,1-4.29,4.022l-1.43-1.5a48.851,48.851,0,0,0,3.092-4.4,10.219,10.219,0,0,0,1.019-2.127,1.176,1.176,0,0,0,.067-.59h0l-.027-.076-.089-.317-.188-.626a41.6,41.6,0,0,0-1.93-4.916c-.371-.813-.778-1.6-1.18-2.4-.206-.393-.416-.786-.63-1.175s-.447-.786-.639-1.113Z" transform="translate(-372.639 -128.517)" fill="#ff8b7b"/>
      <path id="Path_26556" data-name="Path 26556" d="M414.92,197.45l-3.36.139,1.341,2.882s2.391-.134,3.289-1.582Z" transform="translate(-370.393 -152.263)" fill="#ff8b7b"/>
      <path id="Path_26557" data-name="Path 26557" d="M409.7,199.056l.831,2.583,1.354-.992-1.354-2.887Z" transform="translate(-369.364 -152.434)" fill="#ff8b7b"/>
      <path id="Path_26558" data-name="Path 26558" d="M403.9,406.176a5.059,5.059,0,0,0,1.081-.147.1.1,0,0,0,.076-.076.1.1,0,0,0-.04-.1c-.139-.094-1.372-.894-1.85-.679a.34.34,0,0,0-.2.273.541.541,0,0,0,.152.514,1.158,1.158,0,0,0,.778.214Zm.809-.286a1.931,1.931,0,0,1-1.452-.071.358.358,0,0,1-.094-.344.152.152,0,0,1,.08-.125C403.5,405.238,404.21,405.582,404.711,405.89Z" transform="translate(-365.635 -267.141)" fill="#673391"/>
      <path id="Path_26559" data-name="Path 26559" d="M406.085,404.852a.089.089,0,0,0,.049,0,.1.1,0,0,0,.049-.085c0-.049,0-1.229-.447-1.622a.5.5,0,0,0-.407-.13.349.349,0,0,0-.331.273c-.1.447.635,1.341,1.019,1.564A.1.1,0,0,0,406.085,404.852Zm-.67-1.658a.322.322,0,0,1,.21.085,2.189,2.189,0,0,1,.362,1.291c-.384-.313-.84-.974-.778-1.256,0-.045.036-.1.161-.116Z" transform="translate(-366.759 -265.964)" fill="#673391"/>
      <path id="Path_26560" data-name="Path 26560" d="M333.165,401.234a.107.107,0,0,0,.089-.04.094.094,0,0,0,0-.112c-.125-.161-1.224-1.542-1.819-1.582h-.04a.308.308,0,0,0-.264.156.5.5,0,0,0-.045.487c.237.545,1.394.894,2.065,1.086Zm-1.738-1.542c.326.022,1.014.715,1.484,1.278-.894-.264-1.51-.59-1.645-.894a.336.336,0,0,1,.031-.322.121.121,0,0,1,.107-.063Z" transform="translate(-325.858 -264.022)" fill="#673391"/>
      <path id="Path_26561" data-name="Path 26561" d="M334.859,400.754h0a.094.094,0,0,0,.076-.058,2.682,2.682,0,0,0,.121-1.644.728.728,0,0,0-.425-.38c-.259-.094-.393,0-.447.08-.273.371.237,1.564.594,1.971A.1.1,0,0,0,334.859,400.754Zm-.389-1.939a.536.536,0,0,1,.425.308,2.092,2.092,0,0,1-.063,1.341c-.331-.478-.635-1.372-.474-1.6a.116.116,0,0,1,.112-.071Z" transform="translate(-327.552 -263.542)" fill="#673391"/>
      <path id="Path_26562" data-name="Path 26562" d="M391.774,123.34c-.447,2.431-1.5,7.744.206,9.326,0,0-.648,2.476-5.161,2.565-4.965.094-2.386-2.413-2.386-2.413,2.7-.7,2.623-2.7,2.141-4.58Z" transform="translate(-355.017 -111.27)" fill="#ff8b7b"/>
      <path id="Path_26563" data-name="Path 26563" d="M391.558,138.072a1.341,1.341,0,0,0-1.685-.791,20.168,20.168,0,0,1-4.777.867,1.72,1.72,0,0,0-1.4.894l-1.917,3.378,10.93-1.341Z" transform="translate(-353.921 -118.942)" fill="#673391"/>
      <path id="Path_26564" data-name="Path 26564" d="M377.272,113a.228.228,0,0,0,.08-.04.2.2,0,0,0,.031-.273,1.881,1.881,0,0,0-1.591-.746.2.2,0,0,0-.174.215.188.188,0,0,0,.21.17h0a1.524,1.524,0,0,1,1.251.608A.2.2,0,0,0,377.272,113Z" transform="translate(-350.513 -104.962)" fill="#263238"/>
      <path id="Path_26565" data-name="Path 26565" d="M375.761,119.67a8.965,8.965,0,0,1-1,2.234,1.417,1.417,0,0,0,1.189.107Z" transform="translate(-350.038 -109.24)" fill="#ff5652"/>
      <path id="Path_26566" data-name="Path 26566" d="M376.613,117.647c.027.331-.13.612-.344.635s-.407-.232-.447-.563.125-.612.34-.63S376.587,117.317,376.613,117.647Z" transform="translate(-350.622 -107.812)" fill="#263238"/>
      <path id="Path_26567" data-name="Path 26567" d="M375.834,116.922l-.8-.152S375.486,117.346,375.834,116.922Z" transform="translate(-350.187 -107.636)" fill="#263238"/>
      <path id="Path_26568" data-name="Path 26568" d="M339.624,396.55l-3.964-1.363,2.8-8.817,3.959,1.367Z" transform="translate(-328.411 -256.76)" fill="#ff8b7b"/>
      <path id="Path_26569" data-name="Path 26569" d="M412.154,395.474h-4.093L407.69,386h4.093Z" transform="translate(-368.253 -256.555)" fill="#ff8b7b"/>
      <path id="Path_26570" data-name="Path 26570" d="M400.866,405.86h4.594a.322.322,0,0,1,.322.277l.474,3.638a.67.67,0,0,1-.666.728c-1.6-.027-2.373-.121-4.393-.121-1.247,0-3.061.125-4.782.125s-1.787-1.694-1.064-1.85a8.147,8.147,0,0,0,4.826-2.547A1.1,1.1,0,0,1,400.866,405.86Z" transform="translate(-361.187 -267.54)" fill="#263238"/>
      <path id="Path_26571" data-name="Path 26571" d="M327.205,402.162l4.25,2a.317.317,0,0,1,.183.389l-1.095,3.414a.67.67,0,0,1-.925.349c-1.47-.719-2.145-1.14-4.022-2.015-1.153-.541-3.575-1.546-5.175-2.292s-.934-2.275-.206-2.1a11.87,11.87,0,0,0,6.256.179A1.144,1.144,0,0,1,327.205,402.162Z" transform="translate(-319.438 -265.344)" fill="#263238"/>
      <path id="Path_26572" data-name="Path 26572" d="M340.061,386.38l-1.5,4.719,4.022,1.189,1.443-4.545Z" transform="translate(-330.015 -256.765)" opacity="0.2"/>
      <path id="Path_26573" data-name="Path 26573" d="M411.783,386.01H407.69l.192,4.88h4.093Z" transform="translate(-368.253 -256.561)" opacity="0.2"/>
      <path id="Path_26574" data-name="Path 26574" d="M414.416,145.308c1.7.34,3.553,6.413,3.553,6.413l-4.777,5.2s-4.022-5.657-3.222-7.784C410.819,146.93,412.405,144.91,414.416,145.308Z" transform="translate(-369.455 -123.393)" fill="#bca5ce"/>
      <path id="Path_26576" data-name="Path 26576" d="M411.745,153.6c-.862-.769-1.443-.523-1.837.107-.38,1.823,1.957,5.577,2.9,7C413.229,158.977,413.7,155.344,411.745,153.6Z" transform="translate(-369.457 -127.741)" fill="#673391" opacity="0.4"/>
      <path id="Path_26577" data-name="Path 26577" d="M370.973,145.717c-.3,1.788-.371,7.235,2.422,23.756l16.624-.326c-.317-6.752-.349-10.917,2.806-24.842a48.907,48.907,0,0,0-7.065-.791,52.817,52.817,0,0,0-7.548.152c-2.418.264-5.072.791-6.256,1.041a1.247,1.247,0,0,0-.983,1.01Z" transform="translate(-347.864 -122.39)" fill="#bca5ce"/>
      <path id="Path_26579" data-name="Path 26579" d="M387.953,106.738c.076,4.062.2,5.783-1.671,8.044-2.811,3.41-7.8,2.681-9.089-1.26-1.162-3.548-1.095-9.6,2.721-11.583a5.461,5.461,0,0,1,8.039,4.8Z" transform="translate(-351.018 -99.075)" fill="#ff8b7b"/>
      <path id="Path_26580" data-name="Path 26580" d="M376.815,103.57c3.231-.644,7.472-1.738,8.316-4.1S376.412,95.271,376.815,103.57Z" transform="translate(-351.168 -96.965)" fill="#263238"/>
      <path id="Path_26581" data-name="Path 26581" d="M381.234,104c-.447-.228-1.291-1.645-.769-4.111s4.42-4.679,7.472-2.94C384.711,98.194,381.234,104,381.234,104Z" transform="translate(-353.102 -96.331)" fill="#673391"/>
      <path id="Path_26582" data-name="Path 26582" d="M381.51,101.762c-.545,2.284,0,3.915.894,4.755,0,0-2.234,14.72,8.937,13.12s4.661-18.322,2.047-20.775S383.767,95.2,381.51,101.762Z" transform="translate(-353.651 -96.645)" fill="#263238"/>
      <path id="Path_26583" data-name="Path 26583" d="M381.165,115.029a4.093,4.093,0,0,0-.608,2.453c.08,1.09.934,1.09,1.56.447a3.222,3.222,0,0,0,.858-2.829A.981.981,0,0,0,381.165,115.029Z" transform="translate(-353.239 -106.36)" fill="#ff8b7b"/>
      <path id="Path_26584" data-name="Path 26584" d="M386.4,201.2s2.534,28,5.09,43.762c2.065,12.727,3.812,42.506,3.812,42.506h5.577s1.819-29.047.737-41.675c-2.744-31.9,2.194-34.883-2.985-44.83Z" transform="translate(-356.476 -154.204)" fill="#673391"/>
      <path id="Path_26585" data-name="Path 26585" d="M394.112,222.44c-1.452,2.136-3.392,4.6-4.022,7.2.5,4.723,1.086,9.947,1.72,14.97C393.348,240.386,395.975,231.945,394.112,222.44Z" transform="translate(-358.518 -166.085)" opacity="0.4"/>
      <path id="Path_26586" data-name="Path 26586" d="M355.745,201.33s-6.663,30.128-8.937,42.4c-2.377,12.772-7.887,41.711-7.887,41.711l5.564,2.86s10.278-34.856,11.654-41.282c3.629-13.433,15.247-45.983,15.247-45.983Z" transform="translate(-330.214 -154.248)" fill="#673391"/>
      <path id="Path_26587" data-name="Path 26587" d="M336.33,389.432l6.761,2.695,1.314-2.355-7.235-2.891Z" transform="translate(-328.781 -257.042)" fill="#263238"/>
      <path id="Path_26588" data-name="Path 26588" d="M404.6,391.388h7.1l.411-2.494-7.516-.255Z" transform="translate(-366.543 -258.015)" fill="#263238"/>
      <path id="Path_26589" data-name="Path 26589" d="M392.8,198.619l.76,1.47c.058.112-.08.232-.273.237l-17.428.344c-.152,0-.277-.072-.286-.165l-.156-1.479c0-.1.116-.192.282-.2l16.834-.331A.29.29,0,0,1,392.8,198.619Z" transform="translate(-350.403 -152.841)" fill="#263238"/>
      <path id="Path_26590" data-name="Path 26590" d="M408.787,200.432h.447c.089,0,.161-.049.152-.1l-.223-1.926c0-.058-.085-.1-.174-.1h-.447c-.089,0-.156.049-.152.107l.223,1.926C408.622,200.4,408.7,200.436,408.787,200.432Z" transform="translate(-368.639 -152.733)" fill="#673391"/>
      <path id="Path_26591" data-name="Path 26591" d="M384.331,200.912h.447c.089,0,.156-.049.148-.1l-.219-1.926c0-.058-.085-.1-.179-.1h-.447c-.094,0-.161.049-.152.107l.219,1.926A.173.173,0,0,0,384.331,200.912Z" transform="translate(-355.109 -152.998)" fill="#673391"/>
      <path id="Path_26592" data-name="Path 26592" d="M353.138,154.942a51.753,51.753,0,0,1-3.1,5.59c-.576.894-1.166,1.788-1.823,2.681-.313.447-.666.862-1,1.291a15.966,15.966,0,0,1-1.108,1.251,11.391,11.391,0,0,1-1.341,1.238,14,14,0,0,1-1.457.992,21.327,21.327,0,0,1-3,1.466,30.646,30.646,0,0,1-6.2,1.72l-.536-2a53.718,53.718,0,0,0,5.362-2.6,21.479,21.479,0,0,0,2.4-1.542,10.925,10.925,0,0,0,1.019-.854,7.2,7.2,0,0,0,.858-.952,41.419,41.419,0,0,0,3.262-4.84c.514-.854.988-1.734,1.47-2.61s.952-1.787,1.39-2.632Z" transform="translate(-327.255 -127.759)" fill="#ff8b7b"/>
      <path id="Path_26593" data-name="Path 26593" d="M367.371,145.957c-3.928.849-5.251,6.6-5.251,6.6l5.014,4.321s5.1-5.246,4.916-8.4C371.929,146.136,369.511,145.5,367.371,145.957Z" transform="translate(-343.047 -123.704)" fill="#bca5ce"/>
      <path id="Path_26595" data-name="Path 26595" d="M331.427,190.561l-3.973,2.015-1.475-3.4s3.517-.813,5.027-.058Z" transform="translate(-323.056 -147.479)" fill="#ff8b7b"/>
      <path id="Path_26596" data-name="Path 26596" d="M323.982,193.743l-1.542-2.3,1.582-1.792,1.475,3.4Z" transform="translate(-321.098 -147.948)" fill="#ff8b7b"/>
    </g>
  </g>
</svg>
