<svg xmlns="http://www.w3.org/2000/svg" xmlns:xlink="http://www.w3.org/1999/xlink" width="120" height="120" viewBox="0 0 120 120">
  <defs>
    <clipPath id="clip-path">
      <rect id="Rectangle_6097" data-name="Rectangle 6097" width="70.46" height="44.831" fill="none"/>
    </clipPath>
  </defs>
  <g id="Group_162278" data-name="Group 162278" transform="translate(-840 -442)">
    <g id="Group_15428" data-name="Group 15428" transform="translate(840 442)">
      <circle id="Ellipse_768" data-name="Ellipse 768" cx="60" cy="60" r="60" fill="#b399c8" opacity="0.2"/>
      <g id="Group_15532" data-name="Group 15532" transform="translate(24.742 37.732)">
        <g id="Group_15532-2" data-name="Group 15532" clip-path="url(#clip-path)">
          <path id="Path_23186" data-name="Path 23186" d="M9.183,173.557a.511.511,0,0,1-.45-.75,24.824,24.824,0,0,1,6-7.4.511.511,0,1,1,.657.783,23.792,23.792,0,0,0-5.755,7.092A.51.51,0,0,1,9.183,173.557Z" transform="translate(-7.393 -140.896)" fill="#673391"/>
          <path id="Path_23187" data-name="Path 23187" d="M.511,231.743a.5.5,0,0,1-.182-.034.511.511,0,0,1-.3-.659h0l.19-.486a.511.511,0,1,1,.948.382l-.184.468a.51.51,0,0,1-.477.33" transform="translate(0 -196.262)" fill="#673391"/>
          <path id="Path_23188" data-name="Path 23188" d="M55.907,175.877v.692H13.133v-.692a21.389,21.389,0,0,1,16.093-20.729,11.028,11.028,0,0,0,10.588,0,21.232,21.232,0,0,1,8.112,4.085,17.577,17.577,0,0,1,1.715,1.525,21.316,21.316,0,0,1,6.267,15.12" transform="translate(-11.195 -132.25)" fill="#b399c8" opacity="0.4"/>
          <path id="Path_23189" data-name="Path 23189" d="M52.959,174.158H10.185a.511.511,0,0,1-.511-.511v-.692a21.873,21.873,0,0,1,16.477-21.22.51.51,0,0,1,.371.047,10.562,10.562,0,0,0,10.1,0,.51.51,0,0,1,.372-.047,21.612,21.612,0,0,1,8.307,4.18,17.875,17.875,0,0,1,1.754,1.559,21.829,21.829,0,0,1,6.416,15.482v.692a.511.511,0,0,1-.511.51M10.7,173.137H52.448v-.182a20.812,20.812,0,0,0-6.117-14.76,16.906,16.906,0,0,0-1.665-1.48,20.608,20.608,0,0,0-7.735-3.942,11.586,11.586,0,0,1-10.722,0,20.853,20.853,0,0,0-15.521,20.181Z" transform="translate(-8.246 -129.327)" fill="#323c6b"/>
          <path id="Path_23190" data-name="Path 23190" d="M202.448,170.543a21.324,21.324,0,0,0-5.595-9.786,17.592,17.592,0,0,0-1.715-1.525,21.23,21.23,0,0,0-8.112-4.085,11.064,11.064,0,0,1-1.191.561,21.2,21.2,0,0,1,6.3,3.524,17.613,17.613,0,0,1,1.715,1.525,21.316,21.316,0,0,1,6.267,15.12v.692h3.008v-.692a21.3,21.3,0,0,0-.676-5.334" transform="translate(-158.409 -132.25)" fill="#bbbbcd"/>
          <path id="Path_23191" data-name="Path 23191" d="M105.382,25.923A11.029,11.029,0,1,1,94.354,14.9a11.028,11.028,0,0,1,11.028,11.028" transform="translate(-71.027 -12.697)" fill="#fff"/>
          <path id="Path_23192" data-name="Path 23192" d="M91.386,34.51a11.408,11.408,0,0,1-5.54-1.416,11.539,11.539,0,1,1,11.08,0,11.408,11.408,0,0,1-5.54,1.416m0-22.057A10.518,10.518,0,1,0,101.9,22.971,10.518,10.518,0,0,0,91.386,12.453Z" transform="translate(-68.061 -9.743)" fill="#323c6b"/>
          <path id="Path_23193" data-name="Path 23193" d="M152.252,14.888c-.339,0-.672.02-1,.051a11.014,11.014,0,0,1,0,21.945c.332.03.663.064,1,.064a11.028,11.028,0,1,0,0-22.057h0Z" transform="translate(-128.926 -12.691)" fill="#dbd8dd"/>
          <path id="Path_23194" data-name="Path 23194" d="M52.959,174.158H10.185a.511.511,0,0,1-.511-.511v-.692a21.873,21.873,0,0,1,16.477-21.22.51.51,0,0,1,.371.047,10.562,10.562,0,0,0,10.1,0,.51.51,0,0,1,.372-.047,21.612,21.612,0,0,1,8.307,4.18,17.875,17.875,0,0,1,1.754,1.559,21.829,21.829,0,0,1,6.416,15.482v.692a.511.511,0,0,1-.511.51M10.7,173.137H52.448v-.182a20.812,20.812,0,0,0-6.117-14.76,16.906,16.906,0,0,0-1.665-1.48,20.608,20.608,0,0,0-7.735-3.942,11.586,11.586,0,0,1-10.722,0,20.853,20.853,0,0,0-15.521,20.181Z" transform="translate(-8.246 -129.327)" fill="#673391"/>
          <path id="Path_23195" data-name="Path 23195" d="M91.386,34.51a11.408,11.408,0,0,1-5.54-1.416,11.539,11.539,0,1,1,11.08,0,11.408,11.408,0,0,1-5.54,1.416m0-22.057A10.518,10.518,0,1,0,101.9,22.971,10.518,10.518,0,0,0,91.386,12.453Z" transform="translate(-68.061 -9.743)" fill="#673391"/>
          <path id="Path_23196" data-name="Path 23196" d="M282.087,152.849v.591h-25.91a21.325,21.325,0,0,0-5.595-9.786,17.618,17.618,0,0,0-1.715-1.525,18.466,18.466,0,0,1,10.347-7.046,9.432,9.432,0,0,0,9.074,0,18.355,18.355,0,0,1,13.8,17.768Z" transform="translate(-212.138 -115.147)" fill="#b399c8" opacity="0.4"/>
          <path id="Path_23197" data-name="Path 23197" d="M279.136,150.982h-25.91a.51.51,0,0,1-.494-.384,20.839,20.839,0,0,0-5.461-9.552,16.89,16.89,0,0,0-1.666-1.48.511.511,0,0,1-.1-.7,19,19,0,0,1,10.635-7.244.511.511,0,0,1,.373.047,9.071,9.071,0,0,0,8.578,0,.51.51,0,0,1,.373-.048,18.865,18.865,0,0,1,14.185,18.263v.591A.511.511,0,0,1,279.136,150.982Zm-25.516-1.021h25.005v-.081a17.845,17.845,0,0,0-13.22-17.223,10.11,10.11,0,0,1-9.206,0,17.982,17.982,0,0,0-9.577,6.413c.442.364.895.777,1.371,1.254a21.874,21.874,0,0,1,5.627,9.637" transform="translate(-209.187 -112.178)" fill="#323c6b"/>
          <path id="Path_23198" data-name="Path 23198" d="M381.74,139.889a18.262,18.262,0,0,0-8.422-4.8,9.342,9.342,0,0,1-1.238.559,18.328,18.328,0,0,1,12.026,17.205v.591h3.008v-.591A18.279,18.279,0,0,0,381.74,139.889Z" transform="translate(-317.165 -115.152)" fill="#bbbbcd"/>
          <path id="Path_23199" data-name="Path 23199" d="M429.6,60.079a.51.51,0,0,1-.51-.449q-.063-.52-.17-1.026a.511.511,0,1,1,1-.209q.115.548.184,1.113a.511.511,0,0,1-.445.569h0A.544.544,0,0,1,429.6,60.079Z" transform="translate(-365.605 -49.429)" fill="#673391"/>
          <path id="Path_23200" data-name="Path 23200" d="M390.538,7.038a.511.511,0,0,1-.466-.3A12.05,12.05,0,0,0,384.546.967a.511.511,0,0,1,.46-.912,13.071,13.071,0,0,1,6,6.261.511.511,0,0,1-.466.721Z" transform="translate(-327.552 0)" fill="#673391"/>
          <path id="Path_23201" data-name="Path 23201" d="M304.6,24.26a9.455,9.455,0,1,1-4.913-8.293A9.463,9.463,0,0,1,304.6,24.26" transform="translate(-243.521 -12.618)" fill="#fff"/>
          <path id="Path_23202" data-name="Path 23202" d="M292.029,31.108a9.982,9.982,0,1,1,4.778-1.225,9.982,9.982,0,0,1-4.778,1.225m0-18.911a8.944,8.944,0,0,0-4.3,16.789,9.07,9.07,0,0,0,8.578,0,8.94,8.94,0,0,0-4.289-16.79Z" transform="translate(-240.408 -9.5)" fill="#323c6b"/>
          <path id="Path_23203" data-name="Path 23203" d="M343.962,14.819a9.541,9.541,0,0,0-1,.054,9.45,9.45,0,0,1,3.532,17.694,9.321,9.321,0,0,1-3.53,1.1,9.487,9.487,0,0,0,1,.064,9.344,9.344,0,0,0,4.532-1.163,9.451,9.451,0,0,0-4.532-17.748Z" transform="translate(-292.341 -12.632)" fill="#dbd8dd"/>
          <path id="Path_23204" data-name="Path 23204" d="M279.136,150.982h-25.91a.51.51,0,0,1-.494-.384,20.839,20.839,0,0,0-5.461-9.552,16.89,16.89,0,0,0-1.666-1.48.511.511,0,0,1-.1-.7,19,19,0,0,1,10.635-7.244.511.511,0,0,1,.373.047,9.071,9.071,0,0,0,8.578,0,.51.51,0,0,1,.373-.048,18.865,18.865,0,0,1,14.185,18.263v.591A.511.511,0,0,1,279.136,150.982Zm-25.516-1.021h25.005v-.081a17.845,17.845,0,0,0-13.22-17.223,10.11,10.11,0,0,1-9.206,0,17.982,17.982,0,0,0-9.577,6.413c.442.364.895.777,1.371,1.254a21.874,21.874,0,0,1,5.627,9.637" transform="translate(-209.187 -112.178)" fill="#673391"/>
          <path id="Path_23205" data-name="Path 23205" d="M292.029,31.108a9.982,9.982,0,1,1,4.778-1.225,9.982,9.982,0,0,1-4.778,1.225m0-18.911a8.944,8.944,0,0,0-4.3,16.789,9.07,9.07,0,0,0,8.578,0,8.94,8.94,0,0,0-4.289-16.79Z" transform="translate(-240.408 -9.5)" fill="#673391"/>
          <path id="Path_23206" data-name="Path 23206" d="M59.339,271.49h8.655a.679.679,0,0,1,0,1.358H59.339a.679.679,0,0,1,0-1.358" transform="translate(-50.002 -231.421)" fill="#673391"/>
          <path id="Path_23207" data-name="Path 23207" d="M40.789,271.49h.364a.679.679,0,0,1,0,1.358h-.364a.679.679,0,0,1,0-1.358" transform="translate(-34.19 -231.421)" fill="#673391"/>
        </g>
      </g>
    </g>
  </g>
</svg>
