<svg id="user_4_" data-name="user (4)" xmlns="http://www.w3.org/2000/svg" width="24" height="24" viewBox="0 0 24 24">
  <g id="Group_162725" data-name="Group 162725" transform="translate(0 0)">
    <path id="Path_26310" data-name="Path 26310" d="M20.485,3.515A12,12,0,0,0,3.515,20.485,12,12,0,0,0,20.485,3.515ZM12,22.594a10.557,10.557,0,0,1-7.351-2.973,7.736,7.736,0,0,1,14.7,0A10.557,10.557,0,0,1,12,22.594ZM8.484,9.375A3.516,3.516,0,1,1,12,12.891,3.52,3.52,0,0,1,8.484,9.375Zm11.922,9.063a9.167,9.167,0,0,0-5.521-5.079,4.922,4.922,0,1,0-5.771,0,9.167,9.167,0,0,0-5.521,5.079,10.594,10.594,0,1,1,16.813,0Z" transform="translate(0 0)" fill="#b22382"/>
  </g>
</svg>
