<svg xmlns="http://www.w3.org/2000/svg" xmlns:xlink="http://www.w3.org/1999/xlink" width="50.75" height="62" viewBox="0 0 50.75 62">
  <defs>
    <linearGradient id="linear-gradient" x1="0.7" y1="-0.537" x2="0.253" y2="0.636" gradientUnits="objectBoundingBox">
      <stop offset="0" stop-color="#290170"/>
      <stop offset="1" stop-color="#be1e53"/>
    </linearGradient>
  </defs>
  <g id="Group_162227" data-name="Group 162227" transform="translate(15158.664 17223)">
    <path id="debt" d="M34.558,61.111,29.565,48.877a.479.479,0,0,1-.031-.1,1.825,1.825,0,0,1,.929-2.252c1.659-1.1,5.427-1.5,6.761-.544l.96-.78c2.97-2.479,4.933-3.383,7.754-3.534a14.828,14.828,0,0,1-.554-6.232c.441-3.969,3.376-8.018,5.932-11.351a2.427,2.427,0,0,1-.668-2.7,2.661,2.661,0,0,1-.9-4.057,2.959,2.959,0,0,1,.614-4.692A3.2,3.2,0,0,1,52.81,7.824L50.279,3.552a1.492,1.492,0,0,1,.8-2.362c1.6-.566,4.806.283,6.684,1.1a7.111,7.111,0,0,1,5.259-2.3,2.393,2.393,0,0,1,2.211,3.089L64.966,4.7c2.86.537,3.555,1.469,5.4,2.775a2.1,2.1,0,0,1,1.829-1.43l5.883-.547a1.982,1.982,0,0,1,2.09,2.019V24.1a1.978,1.978,0,0,1-2.115,2.019l-5.883-.716a2.073,2.073,0,0,1-1.892-2.019v-.339a22.209,22.209,0,0,1-3.143,1.6c2.725,3.156,4.936,6.119,5.448,10.423a14.817,14.817,0,0,1-1.794,9.664c3.969-.851,6.328,2.613,2.843,4.686L66.209,53.84c-.385.229-2.85,1.141-5.325,1.971a49.638,49.638,0,0,1-5.073,1.5v0l-13.884.568C41.909,57.888,35.833,64.244,34.558,61.111Zm5.6-3.276L35.772,47.1c0-.011-1.112.177-2.267.381a5.66,5.66,0,0,0-1.981.653c-.075.05-.169-.014-.177,0l5,12.248c.017.042,0-.06.042-.067a5.2,5.2,0,0,0,1.748-.922C39.159,58.64,40.169,57.86,40.158,57.835Zm7.825-16.165c1.486.064,3.506.268,5.575.477,3.834.385,3.768,4.477.587,5.607a13.85,13.85,0,0,0,2.5.749,30.507,30.507,0,0,0,4.431.1l5.947-2.425a9.992,9.992,0,0,0,3.1-4.488,14.207,14.207,0,0,0,.551-6.391c-.487-4.113-2.839-6.938-5.519-10a20.953,20.953,0,0,1-7.344.141c-1.168-.11-2.45-.229-3.937-.3a.828.828,0,0,1-.1-.007,6.561,6.561,0,0,1-.714-.144c-2.387,3.1-5.356,7.062-5.755,10.664a12.583,12.583,0,0,0,.683,6.021ZM38.418,47.5c-.1.081-.2.162-.308.237L41.482,56a3.622,3.622,0,0,1,.371-.032c.579-.025,5.191-.208,9.053-.367,1.977-.081,3.771-.156,4.738-.2.993-.229,2.821-.8,4.629-1.413,2.38-.8,4.671-1.628,4.954-1.8l7.422-4.417c.462-.275.83-.614.72-.78a.82.82,0,0,0-.3-.233,3.232,3.232,0,0,0-2.588.085l-8.69,3.545a9.731,9.731,0,0,1-2.754.177,28.715,28.715,0,0,1-3.587-.293l-9.1-2.423c-.42-.113-.26-1.906.269-1.892l5.837.138c1.557.035,2.306-.978,2.059-1.5-.215-.448-.925-.508-1.55-.572-7.26-.727-9.248-.929-13.545,2.662-.364.3-.7.572-1.006.816ZM78.2,7.417l-5.837.541c-.06.007-.159.039-.159.1l.01,15.356a.3.3,0,0,0,.177.075l5.816.71.025-.1V7.515Zm-23.151.406a21.328,21.328,0,0,0,5.632-.46A3.057,3.057,0,0,0,62.8,6.014l.533-3.237c.106-.653,0-.822-.477-.864C61.612,1.8,59.384,2.929,59,3.858a.964.964,0,0,1-1.345.516,12.783,12.783,0,0,0-5.5-1.437Zm2.924,15.7c4.365.406,7.069.66,12.3-2.747V9.723A24.025,24.025,0,0,1,68.251,8.3a7.315,7.315,0,0,0-3.595-1.7c-.989,2.945-6.116,3.16-8.467,3.153l-3.11-.017a1.286,1.286,0,0,0-1.13,1.794c.212.435.784.774,1.84.774v1.925H51.836a.988.988,0,0,0-.968,1.4.892.892,0,0,0,.8.526,2.615,2.615,0,0,1,.681.014.966.966,0,0,1-.223,1.918h-.287a1.016,1.016,0,0,0-.656,1.3c.169.289.632.5,1.522.5a1.532,1.532,0,0,1,.187-.007.966.966,0,0,1,0,1.932.455.455,0,0,0-.424.671,2.2,2.2,0,0,0,1.543.741c1.479.07,2.778.189,3.965.3Z" transform="translate(-15188.08 -17222.979)" fill="url(#linear-gradient)"/>
    <g id="Group_162226" data-name="Group 162226" transform="translate(-15133.288 -17193.402)">
      <g id="Group_162221" data-name="Group 162221" transform="translate(0)">
        <path id="Path_26060" data-name="Path 26060" d="M285.782,68.866h-1.13a3.539,3.539,0,0,0-.489-1.18h1.619a.843.843,0,0,0,0-1.686H279.19a.843.843,0,1,0,0,1.686h1.888a2.015,2.015,0,0,1,1.8,1.18H279.19a.843.843,0,1,0,0,1.686h3.684a2.683,2.683,0,0,1-.388.531,1.968,1.968,0,0,1-1.408.565H279.19a.849.849,0,0,0-.843.86.87.87,0,0,0,.261.607l4.712,4.459a.841.841,0,1,0,1.155-1.222L281.3,73.342a3.633,3.633,0,0,0,2.369-1.054,3.773,3.773,0,0,0,.986-1.737h1.13a.843.843,0,0,0,0-1.686Z" transform="translate(-278.346 -66)" fill="url(#linear-gradient)"/>
      </g>
    </g>
  </g>
</svg>
