<svg xmlns="http://www.w3.org/2000/svg" width="23.373" height="26.005" viewBox="0 0 23.373 26.005">
  <g id="_28" data-name="28" transform="translate(-3.414 -2)">
    <path id="Path_26101" data-name="Path 26101" d="M26.309,21.185,24.721,18.9a1.857,1.857,0,0,1-.334-1.059V11.286a9.286,9.286,0,1,0-18.572,0v6.556A1.857,1.857,0,0,1,5.481,18.9L3.893,21.185a1.857,1.857,0,0,0,1.374,3.1h5.284a4.643,4.643,0,0,0,9.1,0h5.284a1.857,1.857,0,0,0,1.374-3.1ZM15.1,26.143a2.786,2.786,0,0,1-2.619-1.857H17.72A2.786,2.786,0,0,1,15.1,26.143ZM5.268,22.429a.752.752,0,0,0,.111-.13L7,19.959a3.714,3.714,0,0,0,.669-2.117V11.286a7.429,7.429,0,1,1,14.857,0v6.556a3.714,3.714,0,0,0,.669,2.117l1.625,2.34a.752.752,0,0,0,.111.13Z" transform="translate(0)" fill="#a92a81"/>
  </g>
</svg>
