<svg id="question-sign-in-circles" xmlns="http://www.w3.org/2000/svg" width="52" height="52" viewBox="0 0 52 52">
  <g id="Group_162560" data-name="Group 162560">
    <path id="Path_26110" data-name="Path 26110" d="M22.135,13.186c2.405,0,3.85,1.283,3.85,3.447,0,3.931-7.016,5.014-7.016,9.785A2.55,2.55,0,0,0,21.534,29.1c2.646,0,2.326-1.965,3.289-3.37,1.282-1.883,7.258-3.888,7.258-9.1,0-5.652-5.05-8.02-10.184-8.02-4.89,0-9.383,3.489-9.383,7.42a2.4,2.4,0,0,0,2.608,2.446C19.008,18.478,17,13.186,22.135,13.186Z" transform="translate(3.704 2.549)" fill="#a92a81"/>
    <path id="Path_26111" data-name="Path 26111" d="M23.637,29.724a3.288,3.288,0,1,0-3.288,3.288A3.3,3.3,0,0,0,23.637,29.724Z" transform="translate(5.05 7.825)" fill="#a92a81"/>
    <path id="Path_26112" data-name="Path 26112" d="M52,26A26,26,0,1,0,26,52,26.03,26.03,0,0,0,52,26ZM2.592,26A23.408,23.408,0,1,1,26,49.408,23.435,23.435,0,0,1,2.592,26Z" fill="#a92a81"/>
  </g>
</svg>
